<svg xmlns="http://www.w3.org/2000/svg" xmlns:xlink="http://www.w3.org/1999/xlink" width="546" height="361" fill="none">
  <defs>
    <path id="c" fill="#fff" d="M5 60h536v148H5z"/>
    <path id="f" fill="#fff" d="M5 224h536v96H5z"/>
  </defs>
  <g filter="url(#a)">
    <rect width="536" height="422" x="5" fill="#fff" rx="7.975"/>
    <path fill="#161A1E" d="M31.414 18.772h-1.992a2.479 2.479 0 0 0-.315-.869 2.333 2.333 0 0 0-1.347-1.049 3.035 3.035 0 0 0-.933-.138c-.593 0-1.118.149-1.576.447-.458.295-.817.728-1.076 1.3-.26.568-.39 1.262-.39 2.082 0 .835.13 1.538.39 2.11.262.568.621.998 1.076 1.289.458.288.982.431 1.571.431.327 0 .632-.042.916-.128a2.51 2.51 0 0 0 .773-.388 2.372 2.372 0 0 0 .91-1.48l1.993.01a4.29 4.29 0 0 1-.485 1.459 4.302 4.302 0 0 1-.964 1.204 4.445 4.445 0 0 1-1.396.81 5.205 5.205 0 0 1-1.773.287c-.96 0-1.815-.222-2.568-.666-.753-.444-1.346-1.085-1.78-1.923-.432-.838-.649-1.843-.649-3.014 0-1.176.218-2.18.655-3.015.437-.838 1.032-1.48 1.785-1.923.752-.444 1.605-.666 2.556-.666.608 0 1.172.085 1.694.255.522.17.988.421 1.396.752.408.326.744.728 1.007 1.203a4.48 4.48 0 0 1 .522 1.62Zm3.652 2.434V26h-1.928V15.09h1.886v4.119h.096a2.37 2.37 0 0 1 .89-1.093c.404-.27.92-.404 1.544-.404.568 0 1.064.119 1.486.357.423.238.75.585.98 1.044.235.458.352 1.017.352 1.678V26h-1.928v-4.911c0-.55-.142-.979-.427-1.284-.28-.309-.674-.463-1.182-.463-.34 0-.646.074-.916.223a1.566 1.566 0 0 0-.629.634c-.149.277-.224.613-.224 1.007ZM45.96 26.16c-.82 0-1.53-.17-2.126-.512a3.462 3.462 0 0 1-1.369-1.46c-.32-.631-.48-1.375-.48-2.231 0-.842.16-1.58.48-2.216a3.625 3.625 0 0 1 1.353-1.491c.58-.359 1.26-.538 2.04-.538.505 0 .98.081 1.428.245.45.16.849.408 1.193.745.348.338.622.767.82 1.29.2.518.299 1.136.299 1.853v.591H42.89v-1.3h4.858a2.075 2.075 0 0 0-.24-.985 1.744 1.744 0 0 0-.654-.687c-.277-.167-.6-.25-.97-.25-.394 0-.74.096-1.039.287a1.99 1.99 0 0 0-.697.746 2.134 2.134 0 0 0-.25 1.007v1.134c0 .476.086.885.26 1.226.174.337.417.596.73.777.312.178.678.267 1.097.267.28 0 .535-.04.762-.117.227-.082.424-.201.591-.357.167-.157.293-.35.378-.581l1.8.202c-.113.476-.33.892-.649 1.247a3.17 3.17 0 0 1-1.215.82c-.493.192-1.058.288-1.693.288Zm8.838 0c-.817 0-1.518-.18-2.104-.538a3.593 3.593 0 0 1-1.348-1.486c-.312-.636-.468-1.367-.468-2.195 0-.83.16-1.564.479-2.2a3.57 3.57 0 0 1 1.353-1.491c.586-.359 1.278-.538 2.077-.538.664 0 1.252.122 1.763.367a3.01 3.01 0 0 1 1.23 1.028c.306.44.48.956.523 1.545H56.46a1.763 1.763 0 0 0-.533-.986c-.277-.266-.648-.399-1.113-.399-.394 0-.74.107-1.039.32-.298.21-.53.511-.698.905-.163.394-.245.867-.245 1.417 0 .558.082 1.037.245 1.438.164.398.393.705.688.922.298.213.648.32 1.049.32.284 0 .538-.054.762-.16.227-.11.417-.268.57-.474a1.82 1.82 0 0 0 .314-.752h1.843a3.213 3.213 0 0 1-.511 1.54 3.027 3.027 0 0 1-1.204 1.044c-.508.248-1.105.373-1.79.373Zm6.846-2.727-.005-2.328h.309l2.94-3.287h2.253l-3.617 4.027h-.4l-1.48 1.588ZM59.886 26V15.09h1.928V26h-1.928Zm5.135 0-2.663-3.723 1.3-1.359L67.328 26H65.02Zm6.637.16c-.799 0-1.491-.176-2.077-.527a3.581 3.581 0 0 1-1.364-1.476c-.32-.632-.48-1.37-.48-2.216 0-.845.16-1.585.48-2.221a3.574 3.574 0 0 1 1.364-1.481c.586-.352 1.278-.527 2.077-.527.8 0 1.492.175 2.078.527a3.54 3.54 0 0 1 1.358 1.48c.323.636.485 1.377.485 2.222s-.162 1.584-.485 2.216a3.546 3.546 0 0 1-1.358 1.476c-.586.351-1.279.527-2.078.527Zm.01-1.545c.434 0 .796-.119 1.088-.357.29-.241.507-.564.65-.97.145-.404.218-.855.218-1.352a4.01 4.01 0 0 0-.218-1.359 2.15 2.15 0 0 0-.65-.974c-.292-.242-.654-.363-1.087-.363-.444 0-.813.121-1.108.363a2.18 2.18 0 0 0-.655.974 4.084 4.084 0 0 0-.213 1.359c0 .497.07.948.213 1.353.145.404.364.728.655.97.295.237.664.356 1.108.356ZM82.43 22.56v-4.74h1.928V26h-1.87v-1.454h-.084a2.46 2.46 0 0 1-.911 1.124c-.42.29-.936.436-1.55.436-.537 0-1.01-.118-1.423-.356a2.48 2.48 0 0 1-.958-1.05c-.231-.461-.347-1.019-.347-1.672v-5.21h1.929v4.911c0 .519.142.93.426 1.236.284.306.657.458 1.118.458.284 0 .56-.069.826-.207.266-.139.485-.345.655-.618.174-.277.261-.624.261-1.04Zm7.997-4.74v1.49h-4.704v-1.49h4.704Zm-3.542-1.961h1.928v7.681c0 .26.039.458.117.597a.632.632 0 0 0 .32.277c.131.05.277.074.436.074.121 0 .231-.009.33-.026.104-.018.182-.034.235-.048l.325 1.507c-.103.036-.25.075-.442.117-.188.043-.42.068-.692.075a3.144 3.144 0 0 1-1.305-.218 2.03 2.03 0 0 1-.922-.757c-.224-.34-.334-.767-.33-1.278v-8.001ZM99.542 26h-3.697V15.09h3.772c1.083 0 2.013.22 2.791.656a4.38 4.38 0 0 1 1.8 1.87c.419.813.629 1.786.629 2.919 0 1.136-.211 2.113-.634 2.93a4.38 4.38 0 0 1-1.816 1.88c-.789.437-1.737.655-2.845.655Zm-1.72-1.71h1.624c.76 0 1.394-.138 1.902-.415.508-.28.89-.698 1.145-1.252.256-.558.384-1.254.384-2.088 0-.835-.128-1.527-.384-2.078a2.614 2.614 0 0 0-1.134-1.24c-.497-.278-1.115-.416-1.854-.416h-1.683v7.49Zm8.807 1.71v-8.182h1.929V26h-1.929Zm.97-9.343c-.305 0-.568-.101-.788-.304a.976.976 0 0 1-.331-.74c0-.291.11-.538.331-.74.22-.207.483-.31.788-.31a1.1 1.1 0 0 1 .788.31.97.97 0 0 1 .331.74.98.98 0 0 1-.331.74 1.11 1.11 0 0 1-.788.304Zm9.408 3.324-1.758.192a1.389 1.389 0 0 0-.751-.88 1.784 1.784 0 0 0-.756-.143c-.401 0-.739.087-1.012.26-.27.175-.403.4-.4.677a.711.711 0 0 0 .261.581c.181.15.48.272.895.367l1.396.299c.774.167 1.349.431 1.726.794.38.362.571.836.575 1.422a2.23 2.23 0 0 1-.453 1.363c-.295.391-.705.696-1.23.916-.526.22-1.13.33-1.811.33-1.002 0-1.808-.209-2.419-.628-.61-.422-.974-1.01-1.092-1.763l1.881-.181c.085.37.266.648.543.836.277.189.637.283 1.081.283.458 0 .826-.095 1.103-.283.28-.188.421-.42.421-.697a.727.727 0 0 0-.272-.581c-.177-.153-.454-.27-.831-.352l-1.395-.293c-.785-.163-1.366-.438-1.742-.825-.377-.39-.563-.884-.56-1.481-.003-.504.134-.941.411-1.31.28-.373.669-.661 1.166-.863.501-.206 1.078-.31 1.731-.31.959 0 1.714.205 2.264.613.554.409.897.96 1.028 1.657Zm5.335 6.179c-.817 0-1.518-.18-2.104-.538a3.59 3.59 0 0 1-1.348-1.486c-.312-.636-.469-1.367-.469-2.195 0-.83.16-1.564.48-2.2a3.57 3.57 0 0 1 1.353-1.491c.586-.359 1.278-.538 2.077-.538.664 0 1.252.122 1.763.367a3.02 3.02 0 0 1 1.231 1.028c.305.44.479.956.522 1.545h-1.843a1.762 1.762 0 0 0-.533-.986c-.277-.266-.648-.399-1.113-.399-.394 0-.741.107-1.039.32-.298.21-.531.511-.698.905-.163.394-.245.867-.245 1.417 0 .558.082 1.037.245 1.438.164.398.393.705.688.922.298.213.648.32 1.049.32.284 0 .538-.054.762-.16.227-.11.417-.268.57-.474.152-.206.257-.457.314-.752h1.843a3.21 3.21 0 0 1-.512 1.54 3.026 3.026 0 0 1-1.203 1.044c-.508.248-1.105.373-1.79.373Zm8.657 0c-.799 0-1.491-.176-2.077-.527a3.58 3.58 0 0 1-1.364-1.476c-.32-.632-.479-1.37-.479-2.216 0-.845.159-1.585.479-2.221a3.573 3.573 0 0 1 1.364-1.481c.586-.352 1.278-.527 2.077-.527.799 0 1.492.175 2.078.527a3.547 3.547 0 0 1 1.358 1.48c.323.636.485 1.377.485 2.222s-.162 1.584-.485 2.216a3.554 3.554 0 0 1-1.358 1.476c-.586.351-1.279.527-2.078.527Zm.011-1.545c.433 0 .795-.119 1.086-.357.292-.241.508-.564.65-.97.146-.404.219-.855.219-1.352 0-.501-.073-.954-.219-1.359-.142-.408-.358-.733-.65-.974-.291-.242-.653-.363-1.086-.363-.444 0-.813.121-1.108.363a2.18 2.18 0 0 0-.655.974 4.084 4.084 0 0 0-.213 1.359c0 .497.071.948.213 1.353.145.404.364.728.655.97.295.237.664.356 1.108.356Zm10.761-2.056v-4.74h1.928V26h-1.869v-1.454h-.086a2.457 2.457 0 0 1-.91 1.124c-.419.29-.936.436-1.551.436-.536 0-1.01-.118-1.422-.356a2.484 2.484 0 0 1-.959-1.05c-.23-.461-.346-1.019-.346-1.672v-5.21h1.928v4.911c0 .519.143.93.427 1.236.284.306.657.458 1.118.458.284 0 .56-.069.826-.207.266-.139.485-.345.655-.618.174-.277.261-.624.261-1.04Zm5.839-1.353V26h-1.928v-8.182h1.843v1.39h.096a2.33 2.33 0 0 1 .9-1.091c.416-.27.929-.405 1.54-.405.564 0 1.056.12 1.475.362.423.241.75.591.98 1.05.235.457.35 1.013.347 1.667V26h-1.929v-4.911c0-.547-.142-.975-.426-1.284-.28-.309-.669-.463-1.166-.463-.338 0-.638.074-.901.223a1.55 1.55 0 0 0-.612.634c-.146.277-.219.613-.219 1.007Zm11.298-3.388v1.492h-4.703v-1.492h4.703Zm-3.542-1.96h1.928v7.681c0 .26.039.458.118.597a.63.63 0 0 0 .319.277c.132.05.277.074.437.074.121 0 .231-.009.33-.026.103-.018.181-.034.235-.048l.325 1.507a4.315 4.315 0 0 1-.443.117 3.617 3.617 0 0 1-.692.075 3.144 3.144 0 0 1-1.305-.218 2.036 2.036 0 0 1-.922-.757c-.223-.34-.333-.767-.33-1.278v-8.001Z"/>
    <path fill="#161A1E" d="M27.571 36.273h1.321v5.74c0 .61-.143 1.152-.43 1.623a3 3 0 0 1-1.21 1.108c-.52.267-1.13.4-1.829.4-.696 0-1.304-.133-1.824-.4a3.007 3.007 0 0 1-1.21-1.108c-.287-.471-.43-1.012-.43-1.623v-5.74h1.317v5.633c0 .395.086.746.26 1.053.176.307.424.548.745.724.321.173.702.26 1.142.26.444 0 .826-.087 1.147-.26.323-.176.57-.417.741-.724.173-.307.26-.658.26-1.053v-5.633Zm7.995 2.292a1.245 1.245 0 0 0-.562-.937c-.33-.225-.744-.337-1.244-.337-.358 0-.668.057-.93.17a1.43 1.43 0 0 0-.609.46 1.087 1.087 0 0 0-.213.661c0 .208.048.387.145.537.1.15.229.277.388.38.162.099.335.183.52.251.184.065.362.12.532.162l.853.221a6.5 6.5 0 0 1 .856.277c.293.117.564.27.814.46.25.191.452.427.605.708.157.281.235.618.235 1.01 0 .494-.128.933-.384 1.317-.253.383-.62.686-1.104.907-.48.222-1.06.333-1.743.333-.653 0-1.218-.104-1.696-.311a2.621 2.621 0 0 1-1.12-.882c-.27-.384-.42-.838-.448-1.364h1.321c.026.315.128.578.307.788.182.208.413.363.695.465.284.1.595.15.933.15.372 0 .703-.06.993-.176a1.66 1.66 0 0 0 .69-.494 1.17 1.17 0 0 0 .252-.746.916.916 0 0 0-.222-.635 1.638 1.638 0 0 0-.592-.409 5.795 5.795 0 0 0-.84-.285l-1.031-.282c-.699-.19-1.253-.47-1.662-.839-.406-.37-.61-.858-.61-1.466 0-.503.137-.942.41-1.317a2.686 2.686 0 0 1 1.108-.873c.466-.21.991-.316 1.576-.316.591 0 1.113.104 1.564.312.455.207.813.492 1.074.856.262.36.398.776.41 1.244h-1.27ZM41.354 45H38.53v-8.727h2.915c.855 0 1.59.174 2.203.524a3.454 3.454 0 0 1 1.41 1.496c.33.647.495 1.424.495 2.33 0 .91-.166 1.69-.499 2.344a3.5 3.5 0 0 1-1.432 1.509c-.625.35-1.38.524-2.267.524Zm-1.508-1.15h1.436c.665 0 1.217-.126 1.658-.376.44-.252.77-.617.988-1.095.219-.48.328-1.065.328-1.755 0-.685-.109-1.266-.328-1.743a2.318 2.318 0 0 0-.967-1.087c-.429-.247-.962-.37-1.598-.37h-1.517v6.425Zm17.768-4.74h-1.33a2.032 2.032 0 0 0-.797-1.299 2.202 2.202 0 0 0-.677-.34 2.646 2.646 0 0 0-.789-.116 2.46 2.46 0 0 0-1.35.38c-.395.252-.708.623-.938 1.112-.227.488-.341 1.085-.341 1.79 0 .71.114 1.309.341 1.798.23.488.544.858.942 1.108.397.25.845.375 1.342.375.276 0 .537-.037.784-.111.25-.077.476-.19.678-.337a2.041 2.041 0 0 0 .805-1.283l1.33.005a3.561 3.561 0 0 1-.414 1.184 3.27 3.27 0 0 1-.78.93 3.527 3.527 0 0 1-1.082.6c-.406.142-.85.213-1.33.213-.755 0-1.428-.179-2.02-.537-.59-.36-1.056-.876-1.397-1.547-.338-.67-.507-1.47-.507-2.399 0-.931.17-1.731.511-2.399.341-.67.807-1.184 1.398-1.542.59-.361 1.263-.542 2.015-.542.464 0 .895.067 1.296.2.403.131.766.325 1.087.58.32.253.586.563.797.93.21.363.352.779.426 1.248Zm2.747 2.004V45h-1.274v-8.727h1.257v3.247h.081c.154-.352.388-.632.703-.84.316-.207.727-.31 1.236-.31.449 0 .84.092 1.176.276.338.185.6.46.784.827.188.364.282.818.282 1.364V45H63.33v-4.01c0-.48-.123-.852-.37-1.116-.248-.268-.591-.401-1.032-.401-.3 0-.57.064-.81.192a1.382 1.382 0 0 0-.558.562c-.133.245-.2.54-.2.887Zm7.85 4.03c-.415 0-.79-.076-1.125-.23a1.895 1.895 0 0 1-.797-.677c-.194-.295-.29-.657-.29-1.086 0-.37.071-.674.213-.912.142-.239.334-.428.575-.567.242-.14.512-.244.81-.316.298-.07.602-.125.912-.161l.954-.111c.245-.031.422-.081.533-.15.11-.067.166-.178.166-.332v-.03c0-.372-.105-.66-.315-.865-.207-.204-.517-.306-.929-.306-.429 0-.767.095-1.014.285-.245.188-.414.396-.507.627l-1.198-.273c.142-.398.35-.719.622-.963.276-.247.593-.426.95-.537.359-.114.735-.17 1.13-.17.261 0 .538.03.83.093.296.06.572.17.828.332.258.162.47.394.635.695.164.298.247.686.247 1.163V45h-1.245v-.895h-.05a1.81 1.81 0 0 1-.371.486 1.97 1.97 0 0 1-.635.396 2.464 2.464 0 0 1-.93.158Zm.277-1.022c.352 0 .653-.07.903-.209a1.45 1.45 0 0 0 .575-.545c.134-.227.2-.47.2-.729v-.844a.665.665 0 0 1-.264.128 4.11 4.11 0 0 1-.439.098c-.164.026-.325.05-.481.073l-.392.05a3.153 3.153 0 0 0-.678.159c-.201.073-.363.18-.486.32-.119.136-.178.317-.178.545 0 .315.116.554.349.715.233.16.53.24.89.24Zm5.924-3.008V45h-1.274v-6.545h1.223v1.065h.08a1.87 1.87 0 0 1 .708-.835c.324-.21.732-.316 1.223-.316.446 0 .837.094 1.172.282.335.184.595.46.78.826.184.367.277.82.277 1.36V45h-1.274v-4.01c0-.474-.124-.845-.371-1.112-.247-.27-.587-.405-1.019-.405-.295 0-.558.064-.788.192a1.379 1.379 0 0 0-.541.562c-.13.245-.196.54-.196.887Zm7.172 0V45H80.31v-6.545h1.223v1.065h.08c.151-.347.387-.625.708-.835.324-.21.732-.316 1.223-.316.446 0 .837.094 1.172.282.335.184.595.46.78.826.184.367.277.82.277 1.36V45h-1.274v-4.01c0-.474-.124-.845-.371-1.112-.247-.27-.587-.405-1.019-.405-.295 0-.558.064-.788.192a1.38 1.38 0 0 0-.541.562c-.13.245-.196.54-.196.887Zm8.719 4.018c-.645 0-1.2-.138-1.667-.413a2.804 2.804 0 0 1-1.073-1.172c-.25-.506-.376-1.098-.376-1.777 0-.67.126-1.262.376-1.773a2.91 2.91 0 0 1 1.056-1.197c.455-.287.986-.43 1.594-.43.37 0 .727.06 1.074.183.346.122.658.314.933.575.276.261.493.6.652 1.018.16.415.239.92.239 1.513v.452h-5.203v-.955h3.954c0-.335-.068-.632-.204-.89a1.548 1.548 0 0 0-.576-.618 1.608 1.608 0 0 0-.86-.226c-.358 0-.67.088-.938.264a1.77 1.77 0 0 0-.614.682 1.968 1.968 0 0 0-.213.908v.745c0 .438.077.81.23 1.117.157.307.374.541.653.703.278.159.603.239.975.239.242 0 .462-.035.66-.103a1.37 1.37 0 0 0 .848-.831l1.207.218c-.097.355-.27.666-.52.933a2.52 2.52 0 0 1-.933.618 3.493 3.493 0 0 1-1.274.217Zm5.496-8.86V45h-1.275v-8.727H95.8Z" opacity=".5"/>
    <g clip-path="url(#b)">
      <use xlink:href="#c"/>
      <mask id="d" fill="#fff">
        <path d="M5 60h536v44H5V60Z"/>
      </mask>
      <path fill="#F3F4F6" d="M5 60h536v44H5V60Z"/>
      <path fill="#161A1E" d="M25.891 80.62h-1.44a2.203 2.203 0 0 0-.863-1.408 2.387 2.387 0 0 0-.734-.37 2.866 2.866 0 0 0-.854-.124 2.67 2.67 0 0 0-1.464.41c-.428.275-.766.677-1.015 1.206-.247.53-.37 1.175-.37 1.939 0 .77.123 1.419.37 1.948.249.53.589.93 1.02 1.2.43.271.915.406 1.454.406.299 0 .582-.04.85-.12.27-.083.515-.204.733-.364a2.212 2.212 0 0 0 .873-1.39l1.44.005a3.855 3.855 0 0 1-.447 1.283 3.54 3.54 0 0 1-.845 1.007 3.81 3.81 0 0 1-1.173.65c-.44.154-.92.231-1.44.231-.819 0-1.548-.194-2.188-.581-.64-.391-1.145-.95-1.515-1.676-.366-.727-.549-1.593-.549-2.6 0-1.009.185-1.875.554-2.598.37-.727.874-1.284 1.514-1.672.64-.39 1.368-.586 2.184-.586.502 0 .97.073 1.403.217.437.142.83.351 1.177.628.348.274.636.61.864 1.006a3.9 3.9 0 0 1 .461 1.353Zm4.713 6.523c-.664 0-1.245-.152-1.74-.457a3.082 3.082 0 0 1-1.154-1.279c-.274-.547-.411-1.188-.411-1.92 0-.736.137-1.379.41-1.93.275-.55.66-.978 1.155-1.283.495-.305 1.076-.457 1.74-.457.665 0 1.245.152 1.74.457.496.305.881.732 1.155 1.283.274.551.41 1.194.41 1.93 0 .732-.136 1.373-.41 1.92a3.082 3.082 0 0 1-1.154 1.28c-.496.304-1.076.456-1.74.456Zm.005-1.159c.43 0 .788-.113 1.071-.341.283-.228.492-.531.628-.91.138-.378.208-.795.208-1.25 0-.453-.07-.869-.208-1.247a2.03 2.03 0 0 0-.628-.919c-.283-.23-.64-.346-1.071-.346-.434 0-.794.115-1.08.346-.283.23-.494.537-.633.919a3.677 3.677 0 0 0-.203 1.246c0 .456.068.873.203 1.251.139.379.35.682.633.91.286.228.646.341 1.08.341Zm6.352-3.194V87h-1.38v-7.09h1.324v1.153h.088a2.03 2.03 0 0 1 .767-.905c.35-.227.792-.341 1.324-.341.484 0 .907.101 1.27.304.363.2.645.499.845.896.2.397.3.888.3 1.473V87h-1.38v-4.344c0-.514-.134-.916-.402-1.205-.268-.292-.636-.439-1.103-.439-.32 0-.605.07-.854.208a1.494 1.494 0 0 0-.587.61c-.141.264-.212.584-.212.96Zm9.174 4.348a2.748 2.748 0 0 1-1.533-.438c-.446-.296-.797-.716-1.053-1.26-.252-.548-.378-1.205-.378-1.972 0-.766.127-1.422.383-1.966.258-.545.612-.962 1.062-1.251.449-.29.958-.434 1.528-.434.44 0 .794.074 1.062.221.27.145.48.314.627.508.151.194.268.365.351.513h.083v-3.513h1.38V87H48.3v-1.103h-.116a3.65 3.65 0 0 1-.36.517 2 2 0 0 1-.637.507c-.27.145-.622.217-1.052.217Zm.304-1.177c.397 0 .733-.104 1.007-.314.277-.212.486-.506.627-.881.145-.376.217-.813.217-1.312 0-.492-.07-.923-.212-1.292a1.898 1.898 0 0 0-.623-.863c-.274-.207-.613-.31-1.016-.31-.415 0-.761.108-1.038.323a1.97 1.97 0 0 0-.628.882 3.596 3.596 0 0 0-.208 1.26c0 .475.07.9.212 1.28.142.378.351.678.628.9.28.218.625.327 1.034.327ZM51.748 87v-7.09h1.38V87h-1.38Zm.697-8.185a.877.877 0 0 1-.619-.24.78.78 0 0 1-.254-.582.77.77 0 0 1 .254-.581.868.868 0 0 1 .619-.245c.24 0 .444.082.614.245.172.16.258.353.258.581a.774.774 0 0 1-.258.582.861.861 0 0 1-.614.24Zm5.98 1.094v1.108h-3.873v-1.108h3.873Zm-2.834-1.699h1.38v6.708c0 .268.04.47.12.605.08.132.183.223.31.272.128.046.268.07.42.07.11 0 .207-.008.29-.024.083-.015.148-.027.194-.037l.25 1.14a2.695 2.695 0 0 1-.896.148 2.428 2.428 0 0 1-1.016-.194 1.742 1.742 0 0 1-.762-.627c-.194-.284-.29-.639-.29-1.067V78.21ZM60.08 87v-7.09h1.381V87h-1.38Zm.698-8.185a.877.877 0 0 1-.619-.24.78.78 0 0 1-.253-.582.77.77 0 0 1 .253-.581.869.869 0 0 1 .619-.245c.24 0 .445.082.614.245.172.16.258.353.258.581a.774.774 0 0 1-.258.582.861.861 0 0 1-.614.24Zm5.657 8.328c-.665 0-1.245-.152-1.74-.457a3.082 3.082 0 0 1-1.154-1.279c-.274-.547-.411-1.188-.411-1.92 0-.736.137-1.379.41-1.93.275-.55.66-.978 1.155-1.283.495-.305 1.075-.457 1.74-.457s1.245.152 1.74.457c.496.305.88.732 1.155 1.283.273.551.41 1.194.41 1.93 0 .732-.136 1.373-.41 1.92a3.082 3.082 0 0 1-1.154 1.28c-.496.304-1.076.456-1.74.456Zm.005-1.159c.43 0 .788-.113 1.07-.341.284-.228.493-.531.629-.91.138-.378.207-.795.207-1.25 0-.453-.069-.869-.207-1.247a2.03 2.03 0 0 0-.628-.919c-.283-.23-.64-.346-1.071-.346-.434 0-.794.115-1.08.346-.284.23-.495.537-.633.919a3.677 3.677 0 0 0-.203 1.246c0 .456.068.873.203 1.251.139.379.35.682.633.91.286.228.646.341 1.08.341Zm6.352-3.194V87h-1.38v-7.09h1.324v1.153h.088c.163-.375.418-.677.766-.905.351-.227.793-.341 1.325-.341.483 0 .907.101 1.27.304.363.2.644.499.844.896.2.397.3.888.3 1.473V87h-1.38v-4.344c0-.514-.134-.916-.401-1.205-.268-.292-.636-.439-1.104-.439-.32 0-.604.07-.854.208a1.495 1.495 0 0 0-.586.61c-.142.264-.212.584-.212.96Zm11.832-1.15-1.25.222a1.481 1.481 0 0 0-.25-.457 1.234 1.234 0 0 0-.452-.356c-.191-.092-.43-.138-.716-.138-.39 0-.717.088-.979.263-.261.172-.392.395-.392.67 0 .236.088.427.263.572.175.145.459.263.85.355l1.126.259c.652.15 1.139.383 1.459.697.32.314.48.722.48 1.223 0 .425-.123.804-.37 1.136-.243.33-.583.588-1.02.776-.434.187-.937.281-1.51.281-.793 0-1.441-.17-1.943-.508-.502-.341-.81-.826-.923-1.454l1.334-.203c.083.348.254.61.512.79.259.175.596.263 1.012.263.452 0 .814-.094 1.084-.282.271-.19.407-.423.407-.697a.724.724 0 0 0-.25-.559c-.163-.15-.414-.264-.752-.341l-1.2-.264c-.662-.15-1.151-.39-1.468-.72-.314-.329-.471-.746-.471-1.25 0-.42.117-.786.35-1.1.234-.313.558-.558.97-.733.412-.179.885-.268 1.417-.268.767 0 1.37.166 1.81.498.44.33.73.771.872 1.325Z"/>
      <path fill="#18293B" fill-opacity=".12" d="M541 103.112H5v1.776h536v-1.776Z" mask="url(#d)"/>
      <rect width="97" height="28" x="17" y="116" fill="#F3F4F6" rx="8"/>
      <path stroke="#161A1E" stroke-linecap="round" stroke-linejoin="round" stroke-width="1.25" d="M37.5 135.625v-1.25a2.501 2.501 0 0 0-2.5-2.5h-5a2.5 2.5 0 0 0-2.5 2.5v1.25m5-6.25a2.5 2.5 0 1 0 0-5 2.5 2.5 0 0 0 0 5Z"/>
      <path fill="#161A1E" d="M52.808 128.546h-1.26a2.325 2.325 0 0 0-.928-1.459 2.413 2.413 0 0 0-.766-.378 3.003 3.003 0 0 0-.887-.129c-.56 0-1.064.141-1.514.424-.45.283-.806.7-1.07 1.251-.263.548-.393 1.221-.393 2.018 0 .8.13 1.475.392 2.026.265.548.622.964 1.071 1.247.45.28.954.42 1.514.42.308 0 .602-.042.882-.125.283-.086.54-.212.771-.378a2.32 2.32 0 0 0 .586-.614c.163-.243.277-.523.342-.84h1.26a3.848 3.848 0 0 1-.461 1.292 3.545 3.545 0 0 1-.85.988 3.726 3.726 0 0 1-1.15.623 4.28 4.28 0 0 1-1.384.217c-.81 0-1.531-.195-2.165-.586-.634-.394-1.133-.954-1.496-1.68-.363-.727-.545-1.59-.545-2.59 0-1.001.182-1.864.545-2.59.366-.726.865-1.285 1.496-1.676.634-.394 1.355-.591 2.165-.591.486 0 .943.071 1.37.213.429.138.813.343 1.155.614.342.27.626.6.854.987.228.385.383.824.466 1.316Zm6.266 3.536v-4.173h1.204V135h-1.195v-1.214h-.074c-.163.369-.422.68-.776.932-.354.25-.798.374-1.334.374-.446 0-.843-.098-1.19-.295a2.05 2.05 0 0 1-.818-.891c-.197-.397-.295-.894-.295-1.491v-4.506H55.8v4.395c0 .505.14.906.42 1.205.283.298.646.448 1.089.448.265 0 .532-.066.803-.199.274-.135.502-.341.684-.618.184-.277.277-.63.277-1.058Zm8.407-2.529-1.085.258a1.717 1.717 0 0 0-.263-.471 1.347 1.347 0 0 0-.471-.374c-.197-.098-.45-.147-.757-.147-.416 0-.762.095-1.039.286-.277.187-.415.428-.415.72 0 .258.094.463.281.614.188.151.487.277.896.378l1.08.259c.643.151 1.122.385 1.436.702.314.314.47.72.47 1.218 0 .413-.118.782-.355 1.108-.237.324-.567.579-.992.767-.422.184-.913.277-1.473.277-.75 0-1.37-.162-1.856-.485-.486-.326-.79-.796-.91-1.408l1.155-.24c.092.369.272.648.54.835.27.185.623.277 1.057.277.483 0 .87-.103 1.159-.309.29-.206.434-.455.434-.748a.785.785 0 0 0-.254-.595c-.17-.163-.43-.285-.78-.365l-1.187-.272c-.655-.151-1.137-.39-1.445-.716-.307-.329-.461-.742-.461-1.237 0-.406.114-.765.341-1.076.231-.311.547-.554.947-.729a3.36 3.36 0 0 1 1.366-.263c.73 0 1.302.158 1.718.475.418.317.706.737.863 1.261Zm5.036-1.644v.997h-3.758v-.997h3.758Zm-2.696-1.699h1.205v6.74c0 .29.043.508.13.656a.65.65 0 0 0 .332.291c.138.049.286.074.443.074.117 0 .214-.007.29-.019a2.92 2.92 0 0 0 .19-.041l.235 1.047a2.474 2.474 0 0 1-.85.134 2.268 2.268 0 0 1-.945-.194 1.796 1.796 0 0 1-.744-.614c-.194-.277-.29-.624-.286-1.043v-7.031Zm7.27 8.938c-.65 0-1.22-.153-1.709-.457a3.083 3.083 0 0 1-1.135-1.279c-.271-.548-.407-1.188-.407-1.921 0-.738.136-1.383.407-1.934a3.07 3.07 0 0 1 1.135-1.283c.49-.305 1.059-.457 1.708-.457.653 0 1.222.152 1.709.457.486.304.864.732 1.135 1.283.271.551.406 1.196.406 1.934 0 .733-.135 1.373-.406 1.921-.27.548-.65.974-1.135 1.279-.487.304-1.056.457-1.709.457Zm.004-1.053c.462 0 .843-.12 1.145-.36a2.15 2.15 0 0 0 .67-.956c.147-.393.22-.824.22-1.292a3.68 3.68 0 0 0-.22-1.293 2.15 2.15 0 0 0-.67-.965c-.302-.243-.683-.364-1.145-.364-.468 0-.852.121-1.154.364a2.182 2.182 0 0 0-.674.965 3.748 3.748 0 0 0-.217 1.293c0 .468.072.899.217 1.292.148.394.372.713.674.956.302.24.686.36 1.154.36Zm4.985.905v-7.091h1.164v1.127h.088c.147-.385.387-.684.72-.896.332-.216.73-.323 1.195-.323.468 0 .86.107 1.177.323.317.215.56.514.725.896h.074c.179-.373.45-.668.813-.887.366-.221.803-.332 1.31-.332.64 0 1.162.2 1.566.6.406.397.61 1.008.61 1.833V135h-1.21v-4.695c0-.508-.139-.871-.416-1.089a1.506 1.506 0 0 0-.979-.333c-.477 0-.847.145-1.112.434-.265.289-.397.657-.397 1.103V135h-1.214v-4.801c0-.394-.128-.711-.383-.951-.253-.243-.58-.365-.98-.365-.273 0-.529.072-.766.217a1.63 1.63 0 0 0-.567.605 1.797 1.797 0 0 0-.213.886V135H82.08Zm14.51.148c-.689 0-1.283-.151-1.781-.453a3.05 3.05 0 0 1-1.15-1.274c-.268-.548-.401-1.186-.401-1.916 0-.726.133-1.366.401-1.92a3.14 3.14 0 0 1 1.131-1.297c.483-.314 1.048-.471 1.694-.471.385 0 .76.063 1.122.189.367.126.697.329.993.609.298.277.535.642.71 1.095.176.452.264 1.006.264 1.661v.471h-5.535v-.978h4.326c0-.385-.078-.728-.231-1.03a1.75 1.75 0 0 0-.656-.711 1.826 1.826 0 0 0-.988-.263c-.415 0-.775.103-1.08.309a2.088 2.088 0 0 0-.702.794 2.327 2.327 0 0 0-.244 1.053v.697c0 .511.089.945.267 1.302.179.354.428.625.748.812.32.185.693.277 1.117.277.277 0 .528-.04.753-.12a1.59 1.59 0 0 0 .586-.355c.166-.16.293-.359.379-.596l1.154.273a2.33 2.33 0 0 1-.559.965 2.705 2.705 0 0 1-.988.646c-.39.154-.834.231-1.33.231Zm4.73-.148v-7.091h1.168v1.094h.074c.129-.363.36-.654.692-.872a2.006 2.006 0 0 1 1.131-.333c.083 0 .185.003.305.01.12.003.212.009.277.018v1.191a2.679 2.679 0 0 0-.272-.046 2.542 2.542 0 0 0-.416-.032c-.338 0-.64.07-.905.212a1.638 1.638 0 0 0-.623.582 1.58 1.58 0 0 0-.226.844V135h-1.205Zm23.608-.5v-7.091h1.38v7.091h-1.38Zm.697-8.185a.88.88 0 0 1-.619-.24.782.782 0 0 1-.254-.582c0-.227.085-.421.254-.581a.867.867 0 0 1 .619-.245c.24 0 .445.081.614.245.172.16.259.354.259.581a.776.776 0 0 1-.259.582.861.861 0 0 1-.614.24Zm7.854 2.825-1.251.222a1.489 1.489 0 0 0-.25-.457 1.228 1.228 0 0 0-.452-.356c-.191-.092-.429-.138-.716-.138-.39 0-.717.088-.978.263-.262.172-.393.395-.393.669 0 .237.088.428.264.573.175.144.458.263.849.355l1.126.259c.653.151 1.139.383 1.459.697.32.314.48.722.48 1.223 0 .425-.123.804-.369 1.136-.243.329-.583.588-1.02.776-.434.187-.937.281-1.51.281-.794 0-1.442-.169-1.943-.508-.502-.341-.81-.826-.924-1.454l1.334-.203c.084.348.254.611.513.789.258.176.595.264 1.011.264.452 0 .814-.094 1.085-.282.271-.191.406-.423.406-.697a.725.725 0 0 0-.249-.559c-.163-.151-.414-.264-.753-.341l-1.2-.264c-.662-.15-1.151-.39-1.468-.72-.314-.329-.471-.746-.471-1.251 0-.418.117-.785.351-1.098.234-.314.557-.559.969-.734.413-.179.885-.268 1.418-.268.766 0 1.369.166 1.809.498.44.33.731.771.873 1.325Z"/>
      <rect width="88" height="28" x="145" y="116" fill="#5724A6" fill-opacity=".1" rx="4"/>
      <path fill="#7C3AED" d="M160.071 128.145a1.258 1.258 0 0 0-.545-.942c-.317-.225-.729-.337-1.237-.337-.357 0-.664.054-.919.161a1.36 1.36 0 0 0-.586.439 1.062 1.062 0 0 0-.208.632c0 .197.045.368.134.513.092.144.217.268.374.369.157.099.331.182.521.249.191.068.384.125.578.171l.886.222c.357.083.7.195 1.029.337.333.141.63.32.891.535.265.216.474.476.628.781.154.304.231.661.231 1.071 0 .554-.142 1.041-.425 1.463-.283.419-.692.746-1.228.983-.532.234-1.177.351-1.934.351-.736 0-1.374-.114-1.916-.342-.538-.227-.96-.56-1.265-.997-.301-.437-.464-.969-.489-1.597h1.685c.025.329.126.603.305.822.178.218.41.381.697.489.289.108.612.162.969.162.373 0 .699-.056.979-.167a1.58 1.58 0 0 0 .665-.47c.16-.204.241-.44.244-.711a.901.901 0 0 0-.217-.61 1.59 1.59 0 0 0-.595-.406 5.716 5.716 0 0 0-.887-.295l-1.075-.277c-.779-.2-1.394-.504-1.847-.91-.449-.409-.674-.952-.674-1.629 0-.558.151-1.045.453-1.464a2.99 2.99 0 0 1 1.241-.974c.524-.234 1.116-.351 1.778-.351.671 0 1.259.117 1.763.351.508.231.907.552 1.196.965.289.409.439.88.448 1.413h-1.648Zm7.88 3.873v-4.109h1.671V135h-1.621v-1.26h-.074c-.16.397-.423.721-.789.974-.363.252-.811.378-1.343.378-.465 0-.876-.103-1.233-.309a2.146 2.146 0 0 1-.831-.909c-.2-.401-.3-.884-.3-1.45v-4.515h1.671v4.256c0 .45.123.807.37 1.072.246.264.569.397.969.397.246 0 .485-.06.716-.181.23-.12.42-.298.567-.535.151-.24.227-.54.227-.9Zm3.593 2.982v-9.455h1.671v3.537h.07c.086-.173.207-.356.364-.55.157-.197.37-.364.637-.503.268-.141.61-.212 1.025-.212.548 0 1.042.14 1.482.42.443.277.794.688 1.053 1.232.261.542.392 1.207.392 1.995 0 .778-.128 1.44-.383 1.985-.256.545-.603.96-1.044 1.246-.44.287-.938.43-1.495.43-.406 0-.743-.068-1.011-.203a2.075 2.075 0 0 1-.647-.49 3.162 3.162 0 0 1-.373-.549h-.097V135h-1.644Zm1.639-3.545c0 .458.065.86.194 1.204.132.345.321.614.568.808.249.191.551.287.904.287.37 0 .679-.099.928-.296.25-.2.437-.472.564-.817.129-.348.194-.743.194-1.186 0-.441-.064-.831-.19-1.173a1.759 1.759 0 0 0-.563-.803c-.249-.194-.56-.291-.933-.291-.357 0-.66.094-.909.281a1.733 1.733 0 0 0-.568.79c-.126.338-.189.737-.189 1.196Zm12.21-1.672-1.523.167a1.216 1.216 0 0 0-.227-.434 1.113 1.113 0 0 0-.424-.328 1.55 1.55 0 0 0-.656-.125c-.348 0-.64.076-.877.226-.234.151-.349.347-.346.587a.613.613 0 0 0 .226.503c.157.129.416.235.776.318l1.209.259c.671.145 1.17.374 1.496.688.329.314.495.725.498 1.232a1.922 1.922 0 0 1-.392 1.182c-.255.339-.611.603-1.066.794-.456.191-.979.286-1.57.286-.868 0-1.566-.181-2.096-.544-.529-.366-.845-.876-.946-1.528l1.629-.157c.074.32.231.561.471.725.24.163.553.244.937.244.397 0 .716-.081.956-.244.243-.164.365-.365.365-.605a.63.63 0 0 0-.236-.503c-.154-.133-.394-.234-.72-.305l-1.209-.254c-.681-.142-1.184-.38-1.51-.716-.326-.338-.488-.766-.485-1.283a1.82 1.82 0 0 1 .356-1.136c.243-.323.58-.572 1.011-.747.434-.179.934-.268 1.5-.268.831 0 1.485.177 1.962.531.48.354.777.832.891 1.435Zm4.754 5.355c-.708 0-1.316-.155-1.824-.466a3.112 3.112 0 0 1-1.168-1.288c-.271-.551-.406-1.185-.406-1.902 0-.72.138-1.355.415-1.906a3.102 3.102 0 0 1 1.173-1.293c.508-.311 1.108-.466 1.8-.466.576 0 1.085.106 1.528.318.447.21.802.507 1.067.891.264.382.415.828.452 1.339h-1.597a1.53 1.53 0 0 0-.462-.854c-.24-.231-.561-.346-.965-.346-.341 0-.641.092-.9.277-.258.181-.46.443-.605.785-.141.341-.212.751-.212 1.228 0 .483.071.898.212 1.246.142.345.34.611.596.799.258.184.562.277.909.277.247 0 .467-.047.661-.139.196-.095.361-.232.493-.411a1.56 1.56 0 0 0 .273-.651h1.597c-.04.502-.188.947-.443 1.335a2.62 2.62 0 0 1-1.043.904c-.44.216-.958.323-1.551.323Zm4.539-.138v-7.091h1.621v1.182h.074c.129-.409.351-.725.664-.946a1.828 1.828 0 0 1 1.085-.337c.093 0 .196.004.31.013.117.007.213.017.29.033v1.537a1.749 1.749 0 0 0-.337-.065 3.172 3.172 0 0 0-.438-.032c-.305 0-.579.066-.822.199-.24.129-.429.309-.568.54-.138.23-.207.497-.207.798V135h-1.672Zm5.285 0v-7.091h1.671V135h-1.671Zm.84-8.097a.974.974 0 0 1-.683-.263.85.85 0 0 1-.287-.642c0-.252.096-.466.287-.642a.965.965 0 0 1 .683-.268c.268 0 .495.09.683.268a.84.84 0 0 1 .286.642.85.85 0 0 1-.286.642.966.966 0 0 1-.683.263Zm2.753 8.097v-9.455h1.671v3.537h.07c.086-.173.207-.356.364-.55.157-.197.37-.364.637-.503.268-.141.61-.212 1.025-.212.548 0 1.042.14 1.482.42.443.277.794.688 1.053 1.232.261.542.392 1.207.392 1.995 0 .778-.128 1.44-.383 1.985-.256.545-.603.96-1.043 1.246-.44.287-.939.43-1.496.43-.406 0-.743-.068-1.011-.203a2.059 2.059 0 0 1-.646-.49 3.173 3.173 0 0 1-.374-.549h-.097V135h-1.644Zm1.639-3.545c0 .458.065.86.194 1.204.132.345.322.614.568.808.249.191.551.287.905.287.369 0 .678-.099.928-.296.249-.2.437-.472.563-.817.129-.348.194-.743.194-1.186 0-.441-.063-.831-.19-1.173a1.759 1.759 0 0 0-.563-.803c-.249-.194-.56-.291-.932-.291-.357 0-.661.094-.91.281a1.74 1.74 0 0 0-.568.79c-.126.338-.189.737-.189 1.196Zm9.745 3.683c-.711 0-1.325-.147-1.842-.443a2.996 2.996 0 0 1-1.186-1.265c-.277-.547-.416-1.192-.416-1.934 0-.729.139-1.369.416-1.92.28-.554.671-.985 1.172-1.293.502-.311 1.091-.466 1.768-.466.437 0 .85.071 1.238.212.39.139.735.354 1.034.646.301.293.538.665.711 1.118.172.449.258.984.258 1.606v.513h-5.812v-1.127h4.21a1.79 1.79 0 0 0-.208-.854 1.503 1.503 0 0 0-.567-.595 1.596 1.596 0 0 0-.841-.217c-.341 0-.641.083-.9.249-.258.163-.46.378-.605.646a1.88 1.88 0 0 0-.217.873v.983c0 .412.076.766.227 1.062.15.292.361.517.632.674.271.154.588.231.951.231.243 0 .463-.034.66-.102a1.48 1.48 0 0 0 .513-.309c.144-.136.254-.303.327-.503l1.561.175a2.434 2.434 0 0 1-.563 1.08 2.74 2.74 0 0 1-1.053.711c-.428.166-.917.249-1.468.249Zm4.697-.138v-7.091h1.62v1.182h.074c.129-.409.351-.725.665-.946a1.828 1.828 0 0 1 1.085-.337c.092 0 .195.004.309.013.117.007.214.017.291.033v1.537a1.765 1.765 0 0 0-.337-.065 3.186 3.186 0 0 0-.439-.032c-.304 0-.578.066-.821.199-.24.129-.43.309-.568.54-.139.23-.208.497-.208.798V135h-1.671Z"/>
      <rect width="71" height="28" x="237" y="116" fill="#3B82F6" fill-opacity=".1" rx="4"/>
      <path fill="#3B82F6" d="M246.933 125.545h2.095l2.807 6.851h.111l2.807-6.851h2.096V135h-1.644v-6.495h-.087l-2.613 6.467h-1.228l-2.613-6.481h-.088V135h-1.643v-9.455Zm14.976 9.593c-.711 0-1.325-.147-1.842-.443a2.996 2.996 0 0 1-1.186-1.265c-.277-.547-.416-1.192-.416-1.934 0-.729.139-1.369.416-1.92.28-.554.671-.985 1.172-1.293.502-.311 1.091-.466 1.768-.466.437 0 .85.071 1.238.212.39.139.735.354 1.034.646.301.293.538.665.711 1.118.172.449.258.984.258 1.606v.513h-5.812v-1.127h4.21a1.8 1.8 0 0 0-.207-.854 1.513 1.513 0 0 0-.568-.595 1.593 1.593 0 0 0-.841-.217c-.341 0-.641.083-.9.249-.258.163-.46.378-.604.646a1.857 1.857 0 0 0-.217.873v.983c0 .412.075.766.226 1.062.151.292.361.517.632.674.271.154.588.231.951.231.243 0 .463-.034.66-.102a1.48 1.48 0 0 0 .513-.309c.144-.136.254-.303.328-.503l1.56.175a2.434 2.434 0 0 1-.563 1.08 2.74 2.74 0 0 1-1.053.711c-.428.166-.917.249-1.468.249Zm4.697-.138v-7.091h1.597v1.205h.083c.148-.406.393-.723.734-.951.342-.231.75-.346 1.224-.346.48 0 .885.117 1.214.351.332.23.566.546.702.946h.073c.157-.394.422-.708.794-.942.376-.237.821-.355 1.335-.355.652 0 1.185.206 1.597.618.412.413.619 1.014.619 1.805V135h-1.676v-4.501c0-.44-.117-.762-.351-.965a1.253 1.253 0 0 0-.859-.309c-.403 0-.718.126-.946.378-.225.25-.337.574-.337.974V135h-1.639v-4.57c0-.367-.111-.659-.332-.877-.219-.219-.505-.328-.859-.328-.24 0-.459.061-.656.184-.197.12-.353.291-.47.513a1.598 1.598 0 0 0-.176.766V135h-1.671Zm11.871 0v-9.455h1.671v3.537h.069c.086-.173.208-.356.365-.55.157-.197.369-.364.637-.503.268-.141.609-.212 1.025-.212.548 0 1.042.14 1.482.42.443.277.794.688 1.052 1.232.262.542.393 1.207.393 1.995 0 .778-.128 1.44-.383 1.985-.256.545-.604.96-1.044 1.246-.44.287-.938.43-1.496.43-.406 0-.743-.068-1.011-.203a2.07 2.07 0 0 1-.646-.49 3.173 3.173 0 0 1-.374-.549h-.097V135h-1.643Zm1.639-3.545c0 .458.064.86.194 1.204.132.345.321.614.567.808.25.191.551.287.905.287.37 0 .679-.099.928-.296.249-.2.437-.472.563-.817.13-.348.194-.743.194-1.186 0-.441-.063-.831-.189-1.173a1.759 1.759 0 0 0-.563-.803c-.25-.194-.56-.291-.933-.291-.357 0-.66.094-.909.281-.25.188-.439.451-.568.79-.126.338-.189.737-.189 1.196Zm9.745 3.683c-.711 0-1.325-.147-1.842-.443a2.998 2.998 0 0 1-1.187-1.265c-.277-.547-.415-1.192-.415-1.934 0-.729.138-1.369.415-1.92.28-.554.671-.985 1.173-1.293.501-.311 1.091-.466 1.768-.466.437 0 .849.071 1.237.212.391.139.736.354 1.034.646.302.293.539.665.711 1.118.173.449.259.984.259 1.606v.513h-5.812v-1.127h4.21a1.8 1.8 0 0 0-.208-.854 1.506 1.506 0 0 0-.568-.595 1.592 1.592 0 0 0-.84-.217c-.342 0-.642.083-.9.249-.259.163-.46.378-.605.646a1.857 1.857 0 0 0-.217.873v.983c0 .412.075.766.226 1.062.151.292.362.517.633.674.271.154.588.231.951.231.243 0 .463-.034.66-.102.197-.071.368-.174.512-.309a1.29 1.29 0 0 0 .328-.503l1.56.175a2.424 2.424 0 0 1-.563 1.08 2.744 2.744 0 0 1-1.052.711c-.428.166-.917.249-1.468.249Zm4.696-.138v-7.091h1.621v1.182h.074c.129-.409.351-.725.665-.946a1.825 1.825 0 0 1 1.084-.337c.093 0 .196.004.31.013.117.007.214.017.291.033v1.537a1.782 1.782 0 0 0-.337-.065 3.186 3.186 0 0 0-.439-.032c-.305 0-.579.066-.822.199-.24.129-.429.309-.568.54-.138.23-.207.497-.207.798V135h-1.672Z"/>
      <path fill="#18293B" fill-opacity=".12" d="M541 155.112H5v1.776h536v-1.776Z" mask="url(#path-10-inside-2_3250_9159)"/>
      <rect width="147" height="28" x="17" y="168" fill="#F3F4F6" rx="8"/>
      <path stroke="#161A1E" stroke-linecap="round" stroke-linejoin="round" stroke-width="1.25" d="m35.313 180.375-5.626-3.244m8.438 7.369v-5a1.247 1.247 0 0 0-.625-1.081l-4.375-2.5a1.248 1.248 0 0 0-1.25 0l-4.375 2.5a1.244 1.244 0 0 0-.625 1.081v5a1.25 1.25 0 0 0 .625 1.081l4.375 2.5a1.248 1.248 0 0 0 1.25 0l4.375-2.5a1.244 1.244 0 0 0 .625-1.081Z"/>
      <path stroke="#161A1E" stroke-linecap="round" stroke-linejoin="round" stroke-width="1.25" d="m27.043 178.85 5.456 3.156 5.456-3.156M32.5 188.3V182"/>
      <path fill="#161A1E" d="M45.103 187v-9.455h3.264c.739 0 1.347.134 1.824.402.477.268.83.629 1.061 1.085.234.455.351.966.351 1.533 0 .566-.117 1.078-.35 1.537a2.583 2.583 0 0 1-1.062 1.094c-.474.268-1.079.402-1.815.402h-2.299v-1.094h2.226c.489 0 .884-.085 1.186-.254.302-.17.52-.4.656-.693.138-.292.207-.623.207-.992 0-.37-.069-.699-.207-.988a1.464 1.464 0 0 0-.66-.684c-.302-.166-.702-.249-1.2-.249h-1.926V187h-1.256Zm8.274 0v-7.091h1.168v1.094h.074c.129-.363.36-.654.692-.872a2.004 2.004 0 0 1 1.131-.333c.083 0 .185.003.305.01.12.003.212.009.277.018v1.191a2.672 2.672 0 0 0-.273-.046 2.532 2.532 0 0 0-.415-.032c-.339 0-.64.07-.905.212a1.63 1.63 0 0 0-.623.582c-.15.246-.226.527-.226.844V187h-1.205Zm7.724.148c-.65 0-1.219-.153-1.708-.457a3.083 3.083 0 0 1-1.136-1.279c-.27-.548-.406-1.188-.406-1.921 0-.738.135-1.383.406-1.934a3.07 3.07 0 0 1 1.136-1.283c.49-.305 1.059-.457 1.708-.457.652 0 1.222.152 1.708.457.486.304.865.732 1.136 1.283.27.551.406 1.196.406 1.934 0 .733-.135 1.373-.406 1.921s-.65.974-1.136 1.279c-.486.304-1.056.457-1.708.457Zm.005-1.053c.461 0 .843-.12 1.144-.36a2.15 2.15 0 0 0 .67-.956 3.64 3.64 0 0 0 .221-1.292 3.68 3.68 0 0 0-.221-1.293 2.15 2.15 0 0 0-.67-.965c-.301-.243-.683-.364-1.145-.364-.467 0-.852.121-1.154.364a2.182 2.182 0 0 0-.674.965 3.75 3.75 0 0 0-.217 1.293c0 .468.073.899.217 1.292.148.394.373.713.674.956.302.24.687.36 1.154.36Zm7.653 1.048a2.762 2.762 0 0 1-1.55-.443c-.45-.299-.803-.722-1.058-1.27-.255-.551-.383-1.203-.383-1.957s.127-1.405.383-1.953c.255-.548.61-.968 1.062-1.26a2.8 2.8 0 0 1 1.56-.443c.453 0 .813.075 1.08.226.271.148.479.319.624.512.147.194.261.357.341.49h.088v-3.5h1.21V187h-1.173v-1.094h-.125c-.08.138-.195.305-.346.498-.15.194-.363.367-.637.518-.271.147-.63.221-1.076.221Zm.213-1.057c.418 0 .774-.111 1.066-.332.292-.222.514-.53.665-.924.15-.397.226-.855.226-1.375 0-.514-.075-.965-.226-1.353a1.956 1.956 0 0 0-.66-.905c-.29-.215-.647-.323-1.071-.323-.444 0-.813.114-1.108.342a2.056 2.056 0 0 0-.665.927 3.662 3.662 0 0 0-.222 1.312c0 .492.076.938.227 1.338.15.397.373.713.669.947.295.231.662.346 1.099.346Zm9.814-2.004v-4.173h1.205V187h-1.196v-1.214h-.074c-.163.369-.422.68-.775.932-.354.25-.799.374-1.335.374-.446 0-.843-.098-1.19-.295-.348-.2-.62-.497-.818-.891-.197-.397-.295-.894-.295-1.491v-4.506h1.205v4.395c0 .505.14.906.42 1.205.283.298.646.448 1.09.448.264 0 .532-.066.803-.199.274-.135.501-.341.683-.618.184-.277.277-.63.277-1.058Zm6.191 3.066c-.674 0-1.254-.157-1.74-.471a3.088 3.088 0 0 1-1.117-1.297c-.262-.551-.393-1.181-.393-1.889 0-.72.134-1.355.402-1.906a3.14 3.14 0 0 1 1.13-1.297c.484-.314 1.052-.471 1.704-.471a3.2 3.2 0 0 1 1.38.286c.41.188.744.454 1.002.799.259.341.416.74.471 1.195h-1.19a1.666 1.666 0 0 0-.536-.858c-.274-.247-.643-.37-1.108-.37-.41 0-.768.106-1.076.319a2.105 2.105 0 0 0-.715.9c-.17.388-.254.843-.254 1.367 0 .535.083 1 .249 1.394.17.394.406.7.711.918.308.216.67.324 1.085.324.274 0 .523-.048.748-.144.224-.098.414-.24.568-.424a1.65 1.65 0 0 0 .327-.66h1.191a2.593 2.593 0 0 1-.452 1.168 2.545 2.545 0 0 1-.974.817c-.403.2-.874.3-1.413.3Zm7.697-7.239v.997h-3.758v-.997h3.758Zm-2.696-1.699h1.205v6.74c0 .29.043.508.129.656a.65.65 0 0 0 .332.291c.139.049.286.074.443.074.117 0 .214-.007.291-.019.08-.015.143-.029.19-.041l.235 1.047a2.476 2.476 0 0 1-.85.134 2.268 2.268 0 0 1-.946-.194 1.796 1.796 0 0 1-.743-.614c-.194-.277-.29-.624-.286-1.043v-7.031Zm15.959 2.336h-1.26a2.334 2.334 0 0 0-.928-1.459 2.416 2.416 0 0 0-.766-.378 3.011 3.011 0 0 0-.887-.129 2.78 2.78 0 0 0-1.514.424c-.449.283-.806.7-1.071 1.251-.262.548-.392 1.221-.392 2.018 0 .8.13 1.475.392 2.026.265.548.622.964 1.071 1.247.449.28.954.42 1.514.42.308 0 .602-.042.882-.125.283-.086.54-.212.771-.378.231-.166.426-.371.586-.614.163-.243.277-.523.342-.84h1.26a3.84 3.84 0 0 1-.462 1.292 3.525 3.525 0 0 1-.849.988 3.736 3.736 0 0 1-1.149.623 4.29 4.29 0 0 1-1.385.217c-.81 0-1.532-.195-2.165-.586-.635-.394-1.133-.954-1.496-1.68-.363-.727-.545-1.59-.545-2.59 0-1.001.182-1.864.545-2.59.366-.726.865-1.285 1.496-1.676.633-.394 1.355-.591 2.165-.591.486 0 .943.071 1.371.213a3.65 3.65 0 0 1 1.154.614c.341.27.626.6.854.987.228.385.383.824.466 1.316Zm3.865 6.616c-.45 0-.857-.085-1.224-.254a2.076 2.076 0 0 1-.867-.739c-.213-.323-.319-.716-.319-1.177 0-.406.079-.737.235-.993.157-.255.368-.455.633-.6.268-.148.563-.258.886-.332.323-.074.651-.133.984-.176.427-.052.775-.094 1.043-.124.268-.031.463-.082.586-.153.123-.074.185-.197.185-.369v-.032c0-.434-.12-.771-.36-1.011-.237-.24-.596-.36-1.076-.36-.498 0-.889.109-1.172.327-.284.216-.482.451-.596.707l-1.14-.337c.172-.431.411-.773.715-1.025a2.733 2.733 0 0 1 1.021-.536 4.136 4.136 0 0 1 1.14-.161c.252 0 .531.029.835.087.305.059.596.174.873.347.28.169.511.42.692.752.182.33.273.767.273 1.311V187h-1.191v-.965h-.056c-.08.163-.207.333-.383.508a2.07 2.07 0 0 1-.688.443c-.283.117-.626.176-1.029.176Zm.221-1.03c.41 0 .758-.08 1.044-.24.289-.163.508-.374.655-.632.148-.259.222-.533.222-.822v-.965c-.046.052-.145.1-.296.143a4.779 4.779 0 0 1-.512.116c-.191.03-.377.056-.559.078l-.443.055a3.885 3.885 0 0 0-.771.18c-.234.08-.421.199-.563.356-.142.154-.212.363-.212.628 0 .366.134.641.401.826.271.185.616.277 1.034.277Zm8.371-6.223v.997h-3.758v-.997h3.758Zm-2.696-1.699h1.205v6.74c0 .29.043.508.129.656a.65.65 0 0 0 .332.291c.139.049.287.074.444.074.117 0 .213-.007.29-.019.08-.015.143-.029.19-.041l.235 1.047a2.478 2.478 0 0 1-.849.134 2.27 2.27 0 0 1-.947-.194 1.8 1.8 0 0 1-.743-.614c-.194-.277-.289-.624-.286-1.043v-7.031Zm7.352 8.938c-.689 0-1.283-.151-1.782-.453a3.054 3.054 0 0 1-1.149-1.274c-.268-.548-.402-1.186-.402-1.916 0-.726.134-1.366.402-1.92a3.142 3.142 0 0 1 1.131-1.297c.483-.314 1.048-.471 1.694-.471.385 0 .759.063 1.122.189.366.126.697.329.992.609.299.277.536.642.711 1.095.176.452.264 1.006.264 1.661v.471h-5.536v-.978h4.326c0-.385-.077-.728-.231-1.03a1.75 1.75 0 0 0-.655-.711 1.827 1.827 0 0 0-.988-.263c-.416 0-.776.103-1.081.309a2.09 2.09 0 0 0-.701.794 2.328 2.328 0 0 0-.245 1.053v.697c0 .511.089.945.268 1.302.178.354.428.625.748.812.32.185.692.277 1.117.277.277 0 .528-.04.752-.12.228-.08.424-.198.587-.355.166-.16.292-.359.378-.596l1.154.273a2.329 2.329 0 0 1-.558.965 2.707 2.707 0 0 1-.988.646 3.605 3.605 0 0 1-1.33.231Zm7.638 2.659c-.542 0-1.008-.071-1.399-.213a2.82 2.82 0 0 1-.96-.549 2.665 2.665 0 0 1-.586-.734l.992-.559c.092.13.211.274.356.434.147.164.349.304.604.421.256.12.588.18.997.18.551 0 1.007-.134 1.367-.402.36-.268.54-.691.54-1.27v-1.417h-.088a4.81 4.81 0 0 1-.351.485 1.887 1.887 0 0 1-.632.494c-.271.141-.631.212-1.08.212a2.947 2.947 0 0 1-1.528-.401c-.453-.268-.81-.659-1.071-1.173-.262-.517-.393-1.148-.393-1.893 0-.738.128-1.377.383-1.916.256-.538.61-.954 1.062-1.246a2.802 2.802 0 0 1 1.561-.443c.452 0 .814.075 1.085.226.273.148.484.319.632.512.151.194.266.357.346.49h.106v-1.136h1.173v7.276c0 .609-.14 1.106-.42 1.491a2.407 2.407 0 0 1-1.122.854 4.295 4.295 0 0 1-1.574.277Zm-.028-3.961c.419 0 .774-.097 1.067-.291.292-.194.514-.474.664-.84.151-.366.227-.803.227-1.311 0-.499-.076-.937-.227-1.316a1.915 1.915 0 0 0-.66-.891c-.289-.215-.646-.323-1.071-.323-.443 0-.812.114-1.108.342a2.033 2.033 0 0 0-.665.909 3.535 3.535 0 0 0-.221 1.279c0 .48.075.903.226 1.269.151.367.374.654.669.864.296.206.662.309 1.099.309Zm8.132 1.302c-.65 0-1.219-.153-1.708-.457a3.08 3.08 0 0 1-1.136-1.279c-.271-.548-.406-1.188-.406-1.921 0-.738.135-1.383.406-1.934a3.068 3.068 0 0 1 1.136-1.283c.489-.305 1.058-.457 1.708-.457.652 0 1.221.152 1.708.457.486.304.865.732 1.135 1.283.271.551.407 1.196.407 1.934 0 .733-.136 1.373-.407 1.921-.27.548-.649.974-1.135 1.279-.487.304-1.056.457-1.708.457Zm.004-1.053c.462 0 .844-.12 1.145-.36a2.15 2.15 0 0 0 .67-.956c.147-.393.221-.824.221-1.292 0-.465-.074-.896-.221-1.293a2.15 2.15 0 0 0-.67-.965c-.301-.243-.683-.364-1.145-.364-.468 0-.852.121-1.154.364a2.19 2.19 0 0 0-.674.965 3.741 3.741 0 0 0-.217 1.293c0 .468.072.899.217 1.292.148.394.373.713.674.956.302.24.686.36 1.154.36Zm4.986.905v-7.091h1.168v1.094h.073c.13-.363.361-.654.693-.872a2.002 2.002 0 0 1 1.131-.333c.083 0 .185.003.305.01.12.003.212.009.277.018v1.191a2.715 2.715 0 0 0-.273-.046 2.53 2.53 0 0 0-.415-.032c-.339 0-.64.07-.905.212a1.63 1.63 0 0 0-.623.582 1.58 1.58 0 0 0-.226.844V187h-1.205Zm6.017 2.659a2.66 2.66 0 0 1-.522-.046 1.721 1.721 0 0 1-.332-.092l.3-1.03c.258.068.488.094.688.079a.83.83 0 0 0 .535-.254c.157-.151.299-.397.425-.739l.189-.517-2.608-7.151h1.297l1.893 5.591h.074l1.892-5.591h1.302l-2.973 8.088a3.065 3.065 0 0 1-.512.923c-.203.25-.442.434-.716.554-.27.124-.581.185-.932.185Zm25.129-3.159v-7.091h1.38v7.091h-1.38Zm.697-8.185a.88.88 0 0 1-.619-.24.782.782 0 0 1-.254-.582c0-.227.085-.421.254-.581a.867.867 0 0 1 .619-.245c.24 0 .445.081.614.245.172.16.259.354.259.581a.776.776 0 0 1-.259.582.861.861 0 0 1-.614.24Zm7.854 2.825-1.251.222a1.489 1.489 0 0 0-.25-.457 1.228 1.228 0 0 0-.452-.356c-.191-.092-.429-.138-.716-.138-.39 0-.717.088-.978.263-.262.172-.393.395-.393.669 0 .237.088.428.264.573.175.144.458.263.849.355l1.126.259c.653.151 1.139.383 1.459.697.32.314.48.722.48 1.223 0 .425-.123.804-.369 1.136-.243.329-.583.588-1.02.776-.434.187-.937.281-1.51.281-.794 0-1.442-.169-1.943-.508-.502-.341-.81-.826-.924-1.454l1.334-.203c.084.348.254.611.513.789.258.176.595.264 1.011.264.452 0 .814-.094 1.085-.282.271-.191.406-.423.406-.697a.725.725 0 0 0-.249-.559c-.163-.151-.414-.264-.753-.341l-1.2-.264c-.662-.15-1.151-.39-1.468-.72-.314-.329-.471-.746-.471-1.251 0-.418.117-.785.351-1.098.234-.314.557-.559.969-.734.413-.179.885-.268 1.418-.268.766 0 1.369.166 1.809.498.44.33.731.771.873 1.325Z"/>
      <rect width="58" height="24" x="195" y="170" fill="#3B82F6" fill-opacity=".1" rx="4"/>
      <path fill="#3B82F6" d="M210.071 180.145a1.258 1.258 0 0 0-.545-.942c-.317-.225-.729-.337-1.237-.337-.357 0-.664.054-.919.161a1.36 1.36 0 0 0-.586.439 1.062 1.062 0 0 0-.208.632c0 .197.045.368.134.513.092.144.217.268.374.369.157.099.331.182.521.249.191.068.384.125.578.171l.886.222c.357.083.7.195 1.029.337.333.141.63.32.891.535.265.216.474.476.628.781.154.304.231.661.231 1.071 0 .554-.142 1.041-.425 1.463-.283.419-.692.746-1.228.983-.532.234-1.177.351-1.934.351-.736 0-1.374-.114-1.916-.342-.538-.227-.96-.56-1.265-.997-.301-.437-.464-.969-.489-1.597h1.685c.025.329.126.603.305.822.178.218.41.381.697.489.289.108.612.162.969.162.373 0 .699-.056.979-.167a1.58 1.58 0 0 0 .665-.47c.16-.204.241-.44.244-.711a.901.901 0 0 0-.217-.61 1.59 1.59 0 0 0-.595-.406 5.716 5.716 0 0 0-.887-.295l-1.075-.277c-.779-.2-1.394-.504-1.847-.91-.449-.409-.674-.952-.674-1.629 0-.558.151-1.045.453-1.464a2.99 2.99 0 0 1 1.241-.974c.524-.234 1.116-.351 1.778-.351.671 0 1.259.117 1.763.351.508.231.907.552 1.196.965.289.409.439.88.448 1.413h-1.648Zm4.901 2.7V187h-1.671v-9.455h1.634v3.569h.083c.167-.4.424-.716.771-.946.351-.234.797-.351 1.339-.351.493 0 .922.103 1.288.309.366.206.649.508.85.905.203.397.304.882.304 1.454V187h-1.671v-4.256c0-.477-.123-.848-.369-1.113-.243-.268-.585-.402-1.025-.402-.296 0-.56.065-.794.194-.231.126-.413.31-.545.55-.129.24-.194.531-.194.872Zm9.395 4.293c-.693 0-1.293-.152-1.801-.457a3.108 3.108 0 0 1-1.182-1.278c-.276-.548-.415-1.188-.415-1.921 0-.732.139-1.374.415-1.925a3.103 3.103 0 0 1 1.182-1.283c.508-.305 1.108-.457 1.801-.457.692 0 1.292.152 1.8.457.508.304.9.732 1.177 1.283.28.551.42 1.193.42 1.925 0 .733-.14 1.373-.42 1.921a3.064 3.064 0 0 1-1.177 1.278c-.508.305-1.108.457-1.8.457Zm.009-1.338c.375 0 .689-.103.942-.31.252-.209.44-.489.563-.84a3.45 3.45 0 0 0 .189-1.172 3.47 3.47 0 0 0-.189-1.178 1.86 1.86 0 0 0-.563-.844c-.253-.21-.567-.314-.942-.314-.385 0-.705.104-.96.314-.253.209-.442.49-.568.844a3.547 3.547 0 0 0-.185 1.178c0 .43.062.821.185 1.172.126.351.315.631.568.84.255.207.575.31.96.31Zm7.946 1.338c-.711 0-1.325-.147-1.842-.443a2.996 2.996 0 0 1-1.186-1.265c-.277-.547-.416-1.192-.416-1.934 0-.729.139-1.369.416-1.92.28-.554.671-.985 1.172-1.293.502-.311 1.091-.466 1.768-.466.437 0 .85.071 1.238.212.39.139.735.354 1.034.646.301.293.538.665.711 1.118.172.449.258.984.258 1.606v.513h-5.812v-1.127h4.21a1.79 1.79 0 0 0-.208-.854 1.503 1.503 0 0 0-.567-.595 1.593 1.593 0 0 0-.841-.217c-.341 0-.641.083-.9.249-.258.163-.46.378-.605.646a1.868 1.868 0 0 0-.216.873v.983c0 .412.075.766.226 1.062.151.292.361.517.632.674.271.154.588.231.951.231.243 0 .463-.034.66-.102a1.48 1.48 0 0 0 .513-.309c.144-.136.254-.303.328-.503l1.56.175a2.434 2.434 0 0 1-.563 1.08 2.74 2.74 0 0 1-1.053.711c-.428.166-.917.249-1.468.249Zm10.171-5.355-1.523.167a1.23 1.23 0 0 0-.226-.434 1.125 1.125 0 0 0-.425-.328 1.55 1.55 0 0 0-.656-.125c-.347 0-.64.076-.877.226-.234.151-.349.347-.346.587a.613.613 0 0 0 .226.503c.157.129.416.235.776.318l1.209.259c.671.145 1.17.374 1.496.688.329.314.496.725.499 1.232a1.923 1.923 0 0 1-.393 1.182c-.255.339-.611.603-1.066.794-.456.191-.979.286-1.57.286-.868 0-1.566-.181-2.096-.544-.529-.366-.844-.876-.946-1.528l1.63-.157c.073.32.23.561.471.725.24.163.552.244.937.244.397 0 .715-.081.955-.244.243-.164.365-.365.365-.605a.632.632 0 0 0-.235-.503c-.154-.133-.394-.234-.721-.305l-1.209-.254c-.68-.142-1.184-.38-1.51-.716-.326-.338-.488-.766-.484-1.283a1.812 1.812 0 0 1 .355-1.136c.243-.323.58-.572 1.011-.747.434-.179.934-.268 1.5-.268.831 0 1.485.177 1.962.531.48.354.777.832.891 1.435Z"/>
      <rect width="77" height="24" x="257" y="170" fill="#C87700" fill-opacity=".1" rx="4"/>
      <path fill="#C87700" d="M272.071 180.145a1.258 1.258 0 0 0-.545-.942c-.317-.225-.729-.337-1.237-.337-.357 0-.664.054-.919.161a1.36 1.36 0 0 0-.586.439 1.062 1.062 0 0 0-.208.632c0 .197.045.368.134.513.092.144.217.268.374.369.157.099.331.182.521.249.191.068.384.125.578.171l.886.222c.357.083.7.195 1.029.337.333.141.63.32.891.535.265.216.474.476.628.781.154.304.231.661.231 1.071 0 .554-.142 1.041-.425 1.463-.283.419-.692.746-1.228.983-.532.234-1.177.351-1.934.351-.736 0-1.374-.114-1.916-.342-.538-.227-.96-.56-1.265-.997-.301-.437-.464-.969-.489-1.597h1.685c.025.329.126.603.305.822.178.218.41.381.697.489.289.108.612.162.969.162.373 0 .699-.056.979-.167a1.58 1.58 0 0 0 .665-.47c.16-.204.241-.44.244-.711a.901.901 0 0 0-.217-.61 1.59 1.59 0 0 0-.595-.406 5.716 5.716 0 0 0-.887-.295l-1.075-.277c-.779-.2-1.394-.504-1.847-.91-.449-.409-.674-.952-.674-1.629 0-.558.151-1.045.453-1.464a2.99 2.99 0 0 1 1.241-.974c.524-.234 1.116-.351 1.778-.351.671 0 1.259.117 1.763.351.508.231.907.552 1.196.965.289.409.439.88.448 1.413h-1.648Zm4.901 2.7V187h-1.671v-7.091h1.597v1.205h.083c.164-.397.424-.712.781-.946.36-.234.804-.351 1.334-.351.489 0 .915.104 1.279.314.366.209.649.512.849.909.203.397.303.879.3 1.445V187h-1.671v-4.256c0-.474-.123-.845-.369-1.113-.244-.268-.581-.402-1.011-.402-.293 0-.553.065-.781.194-.224.126-.401.31-.531.55-.126.24-.189.531-.189.872Zm9.39 4.293c-.711 0-1.325-.147-1.842-.443a2.996 2.996 0 0 1-1.186-1.265c-.277-.547-.416-1.192-.416-1.934 0-.729.139-1.369.416-1.92.28-.554.671-.985 1.172-1.293.502-.311 1.091-.466 1.768-.466.437 0 .85.071 1.238.212.39.139.735.354 1.034.646.301.293.538.665.711 1.118.172.449.258.984.258 1.606v.513h-5.812v-1.127h4.21a1.8 1.8 0 0 0-.207-.854 1.513 1.513 0 0 0-.568-.595 1.593 1.593 0 0 0-.841-.217c-.341 0-.641.083-.9.249-.258.163-.46.378-.604.646a1.857 1.857 0 0 0-.217.873v.983c0 .412.075.766.226 1.062.151.292.361.517.632.674.271.154.588.231.951.231.243 0 .463-.034.66-.102a1.48 1.48 0 0 0 .513-.309c.144-.136.254-.303.328-.503l1.56.175a2.434 2.434 0 0 1-.563 1.08 2.74 2.74 0 0 1-1.053.711c-.428.166-.917.249-1.468.249Zm6.607.005a2.96 2.96 0 0 1-1.214-.24 1.978 1.978 0 0 1-.849-.72c-.206-.317-.309-.708-.309-1.173 0-.4.073-.731.221-.992.148-.262.349-.471.605-.628.255-.157.543-.276.863-.356a7.035 7.035 0 0 1 1.002-.18c.415-.043.752-.081 1.011-.115.259-.037.446-.092.563-.166.12-.077.18-.196.18-.356v-.027c0-.348-.103-.617-.309-.808-.206-.191-.503-.286-.891-.286-.409 0-.734.089-.974.267-.237.179-.397.39-.48.633l-1.561-.222a2.5 2.5 0 0 1 .61-1.08 2.659 2.659 0 0 1 1.038-.656c.41-.147.862-.221 1.358-.221.341 0 .681.04 1.02.12.339.08.648.212.928.397.28.181.505.429.674.743.172.314.258.706.258 1.177V187h-1.606v-.974h-.056a2.016 2.016 0 0 1-1.117.965 2.785 2.785 0 0 1-.965.152Zm.434-1.228c.336 0 .627-.066.873-.198.246-.136.435-.314.568-.536.135-.221.203-.463.203-.725v-.835a.79.79 0 0 1-.268.12 3.82 3.82 0 0 1-.415.097c-.154.027-.307.052-.457.074l-.393.055a2.924 2.924 0 0 0-.669.166 1.11 1.11 0 0 0-.466.323.791.791 0 0 0-.171.527c0 .307.112.54.337.697.224.157.511.235.858.235Zm6.514-1.14-.004-2.018h.267l2.549-2.848h1.952l-3.134 3.49h-.346l-1.284 1.376ZM298.394 187v-9.455h1.671V187h-1.671Zm4.45 0-2.308-3.227 1.126-1.177 3.181 4.404h-1.999Zm5.798.138c-.711 0-1.325-.147-1.842-.443a2.996 2.996 0 0 1-1.186-1.265c-.277-.547-.415-1.192-.415-1.934 0-.729.138-1.369.415-1.92.28-.554.671-.985 1.173-1.293.501-.311 1.091-.466 1.768-.466.437 0 .849.071 1.237.212a2.81 2.81 0 0 1 1.034.646c.302.293.539.665.711 1.118.172.449.258.984.258 1.606v.513h-5.812v-1.127h4.211a1.813 1.813 0 0 0-.208-.854 1.513 1.513 0 0 0-.568-.595 1.592 1.592 0 0 0-.84-.217c-.342 0-.642.083-.9.249a1.706 1.706 0 0 0-.605.646 1.857 1.857 0 0 0-.217.873v.983c0 .412.075.766.226 1.062.151.292.362.517.632.674.271.154.588.231.951.231.244 0 .464-.034.661-.102.197-.071.367-.174.512-.309a1.29 1.29 0 0 0 .328-.503l1.56.175a2.424 2.424 0 0 1-.563 1.08 2.74 2.74 0 0 1-1.053.711c-.427.166-.917.249-1.468.249Zm4.567-.138v-7.091h1.621v1.182h.073c.13-.409.351-.725.665-.946a1.828 1.828 0 0 1 1.085-.337c.092 0 .196.004.309.013.117.007.214.017.291.033v1.537a1.765 1.765 0 0 0-.337-.065 3.183 3.183 0 0 0-.438-.032c-.305 0-.579.066-.822.199-.24.129-.429.309-.568.54-.138.23-.208.497-.208.798V187h-1.671Zm10.759-5.217-1.523.167a1.232 1.232 0 0 0-.227-.434 1.113 1.113 0 0 0-.424-.328 1.55 1.55 0 0 0-.656-.125c-.348 0-.64.076-.877.226-.234.151-.349.347-.346.587a.613.613 0 0 0 .226.503c.157.129.415.235.775.318l1.21.259c.671.145 1.169.374 1.496.688.329.314.495.725.498 1.232a1.928 1.928 0 0 1-.392 1.182c-.256.339-.611.603-1.067.794-.455.191-.978.286-1.569.286-.868 0-1.567-.181-2.096-.544-.529-.366-.845-.876-.946-1.528l1.629-.157c.074.32.231.561.471.725.24.163.553.244.937.244.397 0 .716-.081.956-.244.243-.164.365-.365.365-.605a.63.63 0 0 0-.236-.503c-.154-.133-.394-.234-.72-.305l-1.21-.254c-.68-.142-1.183-.38-1.509-.716-.326-.338-.488-.766-.485-1.283a1.82 1.82 0 0 1 .356-1.136c.243-.323.58-.572 1.011-.747.434-.179.934-.268 1.5-.268.831 0 1.485.177 1.962.531.48.354.777.832.891 1.435Z"/>
      <path fill="#18293B" fill-opacity=".12" d="M541 207.112H5v1.776h536v-1.776Z" mask="url(#path-21-inside-3_3250_9159)"/>
    </g>
    <path stroke="#E3E5E7" stroke-width=".888" d="M5.444 60.444h535.112v147.112H5.444z"/>
    <g clip-path="url(#e)">
      <use xlink:href="#f"/>
      <mask id="g" fill="#fff">
        <path d="M5 224h536v44H5v-44Z"/>
      </mask>
      <path fill="#F3F4F6" d="M5 224h536v44H5v-44Z"/>
      <path fill="#161A1E" d="M18.039 251v-9.455h3.37c.732 0 1.34.127 1.823.379.486.252.85.602 1.09 1.048.24.443.36.956.36 1.537 0 .579-.122 1.088-.365 1.528-.24.437-.603.777-1.09 1.021-.483.243-1.09.364-1.823.364h-2.553v-1.228h2.424c.462 0 .837-.066 1.126-.198.293-.133.507-.325.642-.577.135-.253.203-.556.203-.91 0-.357-.07-.666-.208-.928a1.347 1.347 0 0 0-.641-.6c-.29-.141-.67-.212-1.14-.212h-1.792V251H18.04Zm4.667-4.266L25.042 251h-1.625l-2.29-4.266h1.579Zm6.698 4.409c-.699 0-1.3-.149-1.805-.448a3.031 3.031 0 0 1-1.163-1.269c-.271-.548-.407-1.19-.407-1.925 0-.727.136-1.367.407-1.921a3.154 3.154 0 0 1 1.145-1.297c.492-.311 1.067-.466 1.726-.466.4 0 .788.066 1.164.198.375.133.712.34 1.01.623.299.284.534.651.707 1.104.172.449.258.995.258 1.639v.489H26.81v-1.034h4.284c0-.363-.074-.685-.222-.965a1.675 1.675 0 0 0-.623-.669 1.743 1.743 0 0 0-.933-.245 1.8 1.8 0 0 0-1.015.286 1.922 1.922 0 0 0-.665.739 2.13 2.13 0 0 0-.23.983v.808c0 .474.082.877.248 1.21.17.332.405.586.707.761.301.173.654.259 1.057.259.262 0 .5-.037.716-.111a1.48 1.48 0 0 0 .919-.9l1.306.235a2.362 2.362 0 0 1-.564 1.011c-.267.287-.604.51-1.01.67a3.783 3.783 0 0 1-1.38.235Zm6.228-.143-2.086-7.091h1.426l1.39 5.207h.07l1.393-5.207h1.427l1.385 5.184h.069l1.38-5.184h1.427L41.43 251h-1.408l-1.44-5.12h-.107l-1.44 5.12h-1.404Zm11.384.157c-.45 0-.855-.083-1.218-.249a2.059 2.059 0 0 1-.864-.734c-.21-.32-.314-.713-.314-1.178 0-.4.077-.729.231-.987.154-.259.362-.464.623-.614a3.25 3.25 0 0 1 .878-.342c.323-.077.652-.136.987-.176l1.035-.12c.264-.033.456-.087.576-.161.12-.074.18-.194.18-.36v-.033c0-.403-.113-.715-.341-.937-.225-.221-.56-.332-1.006-.332-.465 0-.831.103-1.1.309-.264.203-.447.43-.548.679l-1.298-.296a2.5 2.5 0 0 1 .674-1.043 2.73 2.73 0 0 1 1.03-.582 4.022 4.022 0 0 1 1.223-.184c.283 0 .583.034.9.101.32.065.619.185.896.36a2 2 0 0 1 .688.753c.178.323.268.743.268 1.26V251h-1.349v-.969h-.055a1.98 1.98 0 0 1-.401.526 2.141 2.141 0 0 1-.688.429c-.28.114-.616.171-1.007.171Zm.3-1.108c.382 0 .708-.075.979-.226.274-.151.482-.348.623-.591.145-.246.217-.509.217-.79v-.914c-.049.05-.144.096-.286.139-.138.04-.297.075-.475.106l-.522.079-.425.055a3.433 3.433 0 0 0-.734.171c-.218.08-.394.195-.526.346-.13.148-.194.345-.194.591 0 .342.126.6.379.775.252.173.574.259.964.259Zm5.168.951v-7.091h1.334v1.127h.074a1.72 1.72 0 0 1 .683-.901 1.96 1.96 0 0 1 1.117-.332 6.053 6.053 0 0 1 .587.032v1.321a2.257 2.257 0 0 0-.296-.051 2.76 2.76 0 0 0-.424-.033c-.327 0-.617.07-.873.208a1.548 1.548 0 0 0-.822 1.39V251h-1.38Zm7.52.138a2.75 2.75 0 0 1-1.533-.438c-.446-.296-.797-.716-1.052-1.26-.253-.548-.379-1.205-.379-1.972 0-.766.128-1.421.383-1.966.259-.545.613-.962 1.062-1.251.45-.29.959-.434 1.528-.434.44 0 .794.074 1.062.221.27.145.48.314.628.508.15.194.267.365.35.513h.084v-3.514h1.38V251h-1.348v-1.103h-.115c-.084.15-.204.323-.36.517a2.004 2.004 0 0 1-.638.508c-.27.144-.621.216-1.052.216Zm.305-1.177c.397 0 .732-.104 1.006-.314a1.94 1.94 0 0 0 .628-.881c.144-.376.217-.813.217-1.311 0-.493-.071-.924-.213-1.293a1.899 1.899 0 0 0-.623-.863c-.274-.207-.612-.31-1.015-.31-.416 0-.762.108-1.04.323a1.99 1.99 0 0 0-.627.882 3.602 3.602 0 0 0-.208 1.261c0 .474.071.9.213 1.278.141.379.35.679.628.901.28.218.624.327 1.034.327Z"/>
      <path fill="#18293B" fill-opacity=".12" d="M541 267.112H5v1.776h536v-1.776Z" mask="url(#g)"/>
      <rect width="153" height="28" x="17" y="280" fill="#F3F4F6" rx="8"/>
      <path stroke="#161A1E" stroke-linecap="round" stroke-linejoin="round" stroke-width="1.333" d="m38.725 294.94-4.78 4.78a1.33 1.33 0 0 1-1.454.289 1.33 1.33 0 0 1-.432-.289L26.332 294v-6.667h6.667l5.726 5.727a1.334 1.334 0 0 1 0 1.88Zm-9.057-4.273h.006"/>
      <path fill="#161A1E" d="M46.103 299v-9.455h5.794v1.099h-4.538v3.07h4.238v1.099h-4.238v3.088h4.603V299h-5.859Zm13.696-7.091L57.195 299H55.94l-2.6-7.091h1.302l1.888 5.572h.074l1.893-5.572h1.302Zm4.264 7.239c-.69 0-1.284-.151-1.782-.453a3.052 3.052 0 0 1-1.15-1.274c-.267-.548-.401-1.186-.401-1.916 0-.726.134-1.366.401-1.92a3.14 3.14 0 0 1 1.132-1.297c.483-.314 1.047-.471 1.694-.471.384 0 .758.063 1.122.189.366.126.697.329.992.609.299.277.536.642.711 1.095.175.452.263 1.006.263 1.661v.471H61.51v-.978h4.326c0-.385-.077-.728-.231-1.03a1.75 1.75 0 0 0-.656-.711 1.826 1.826 0 0 0-.988-.263c-.415 0-.775.103-1.08.309a2.088 2.088 0 0 0-.702.794 2.327 2.327 0 0 0-.244 1.053v.697c0 .511.089.945.267 1.302.179.354.428.625.748.812.32.185.693.277 1.117.277.278 0 .528-.04.753-.12a1.59 1.59 0 0 0 .586-.355c.166-.16.293-.359.379-.596l1.154.273a2.33 2.33 0 0 1-.559.965 2.705 2.705 0 0 1-.987.646 3.609 3.609 0 0 1-1.33.231Zm4.73-.148v-7.091h1.167v1.094h.074c.13-.363.36-.654.692-.872a2.004 2.004 0 0 1 1.131-.333c.084 0 .185.003.305.01.12.003.212.009.277.018v1.191a2.682 2.682 0 0 0-.272-.046 2.533 2.533 0 0 0-.416-.032c-.338 0-.64.07-.905.212a1.638 1.638 0 0 0-.623.582c-.15.246-.226.527-.226.844V299h-1.205Zm6.016 2.659a2.65 2.65 0 0 1-.521-.046 1.745 1.745 0 0 1-.333-.092l.3-1.03c.259.068.488.094.688.079a.83.83 0 0 0 .536-.254c.157-.151.298-.397.424-.739l.19-.517-2.609-7.151h1.297l1.893 5.591h.074l1.893-5.591h1.302l-2.973 8.088a3.072 3.072 0 0 1-.513.923c-.203.25-.441.434-.715.554a2.22 2.22 0 0 1-.933.185Zm15.482-8.106-1.085.258a1.711 1.711 0 0 0-.263-.471 1.347 1.347 0 0 0-.471-.374c-.197-.098-.45-.147-.757-.147-.416 0-.762.095-1.039.286-.277.187-.415.428-.415.72 0 .258.094.463.281.614.188.151.487.277.896.378l1.08.259c.643.151 1.122.385 1.436.702.314.314.47.72.47 1.218 0 .413-.118.782-.355 1.108-.237.324-.568.579-.992.767-.422.184-.913.277-1.473.277-.75 0-1.37-.162-1.856-.485-.486-.326-.79-.796-.91-1.408l1.155-.24c.092.369.272.648.54.835.27.185.623.277 1.057.277.483 0 .87-.103 1.159-.309.29-.206.434-.455.434-.748a.785.785 0 0 0-.254-.595c-.17-.163-.43-.285-.78-.365l-1.187-.272c-.655-.151-1.137-.39-1.445-.716-.307-.329-.461-.742-.461-1.237 0-.406.114-.765.341-1.076a2.29 2.29 0 0 1 .947-.729 3.36 3.36 0 0 1 1.366-.263c.73 0 1.302.158 1.718.475a2.4 2.4 0 0 1 .863 1.261Zm4.865 5.595c-.69 0-1.283-.151-1.782-.453a3.05 3.05 0 0 1-1.15-1.274c-.267-.548-.4-1.186-.4-1.916 0-.726.133-1.366.4-1.92a3.14 3.14 0 0 1 1.132-1.297c.483-.314 1.048-.471 1.694-.471.385 0 .759.063 1.122.189.366.126.697.329.992.609.299.277.536.642.711 1.095.176.452.263 1.006.263 1.661v.471h-5.535v-.978h4.326c0-.385-.077-.728-.23-1.03a1.749 1.749 0 0 0-.656-.711 1.825 1.825 0 0 0-.988-.263c-.416 0-.776.103-1.08.309a2.087 2.087 0 0 0-.702.794 2.327 2.327 0 0 0-.245 1.053v.697c0 .511.09.945.268 1.302.178.354.428.625.748.812.32.185.692.277 1.117.277.277 0 .528-.04.752-.12.228-.08.424-.198.587-.355.166-.16.292-.359.378-.596l1.154.273a2.33 2.33 0 0 1-.558.965 2.704 2.704 0 0 1-.988.646 3.605 3.605 0 0 1-1.33.231Zm7.652 0c-.674 0-1.254-.157-1.741-.471a3.09 3.09 0 0 1-1.117-1.297c-.261-.551-.392-1.181-.392-1.889 0-.72.133-1.355.401-1.906a3.14 3.14 0 0 1 1.131-1.297c.484-.314 1.051-.471 1.704-.471.514 0 .974.095 1.38.286.409.188.743.454 1.002.799.258.341.415.74.471 1.195h-1.191a1.667 1.667 0 0 0-.536-.858c-.274-.247-.643-.37-1.108-.37a1.84 1.84 0 0 0-1.075.319 2.101 2.101 0 0 0-.716.9c-.169.388-.254.843-.254 1.367 0 .535.083 1 .249 1.394.17.394.407.7.711.918.308.216.67.324 1.085.324.274 0 .523-.048.748-.144.225-.098.414-.24.568-.424.154-.185.263-.405.328-.66h1.191a2.537 2.537 0 0 1-1.427 1.985c-.403.2-.874.3-1.412.3Zm7.442 0c-.649 0-1.219-.153-1.708-.457a3.088 3.088 0 0 1-1.136-1.279c-.27-.548-.406-1.188-.406-1.921 0-.738.136-1.383.406-1.934.271-.551.65-.979 1.136-1.283.489-.305 1.059-.457 1.708-.457.653 0 1.222.152 1.708.457.487.304.865.732 1.136 1.283.271.551.406 1.196.406 1.934 0 .733-.135 1.373-.406 1.921a3.08 3.08 0 0 1-1.136 1.279c-.486.304-1.055.457-1.708.457Zm.005-1.053c.461 0 .843-.12 1.145-.36.301-.243.524-.562.669-.956a3.64 3.64 0 0 0 .222-1.292c0-.465-.074-.896-.222-1.293a2.157 2.157 0 0 0-.669-.965c-.302-.243-.684-.364-1.145-.364-.468 0-.853.121-1.154.364a2.173 2.173 0 0 0-.674.965 3.741 3.741 0 0 0-.217 1.293c0 .468.072.899.217 1.292.147.394.372.713.674.956.301.24.686.36 1.154.36Zm6.19-3.338V299h-1.205v-7.091h1.164v1.127h.087c.166-.367.42-.661.762-.882.345-.225.783-.337 1.316-.337.483 0 .904.1 1.265.3.36.197.64.494.84.891.203.394.303.889.3 1.486V299h-1.205v-4.395c0-.542-.14-.963-.42-1.265-.28-.304-.665-.457-1.154-.457-.339 0-.64.074-.905.222a1.54 1.54 0 0 0-.619.637c-.151.277-.226.615-.226 1.015Zm9.261 4.386a2.765 2.765 0 0 1-1.551-.443c-.449-.299-.801-.722-1.057-1.27-.255-.551-.383-1.203-.383-1.957s.128-1.405.383-1.953c.256-.548.61-.968 1.062-1.26a2.799 2.799 0 0 1 1.56-.443c.453 0 .813.075 1.081.226.27.148.478.319.623.512.148.194.261.357.341.49h.088v-3.5h1.21V299h-1.173v-1.094h-.125c-.08.138-.195.305-.346.498a2.038 2.038 0 0 1-.637.518c-.271.147-.629.221-1.076.221Zm.213-1.057c.418 0 .774-.111 1.066-.332.293-.222.514-.53.665-.924.151-.397.226-.855.226-1.375 0-.514-.075-.965-.226-1.353a1.96 1.96 0 0 0-.66-.905c-.289-.215-.646-.323-1.071-.323-.443 0-.813.114-1.108.342a2.054 2.054 0 0 0-.665.927 3.658 3.658 0 0 0-.222 1.312c0 .492.076.938.227 1.338.151.397.374.713.669.947.296.231.662.346 1.099.346Zm9.033.914v-7.091h1.205V299h-1.205Zm.61-8.236a.805.805 0 0 1-.573-.226.736.736 0 0 1-.24-.549c0-.213.08-.394.24-.545a.805.805 0 0 1 .573-.226c.224 0 .417.075.577.226.16.151.24.332.24.545 0 .212-.08.395-.24.549a.811.811 0 0 1-.577.226Zm5.845 1.145v.997h-3.758v-.997h3.758Zm-2.696-1.699h1.205v6.74c0 .29.043.508.129.656a.647.647 0 0 0 .333.291c.138.049.286.074.443.074.117 0 .214-.007.291-.019.08-.015.143-.029.189-.041l.235 1.047a2.471 2.471 0 0 1-.849.134 2.273 2.273 0 0 1-.947-.194 1.8 1.8 0 0 1-.743-.614c-.194-.277-.289-.624-.286-1.043v-7.031Zm7.352 8.938c-.689 0-1.283-.151-1.782-.453a3.054 3.054 0 0 1-1.149-1.274c-.268-.548-.402-1.186-.402-1.916 0-.726.134-1.366.402-1.92a3.142 3.142 0 0 1 1.131-1.297c.483-.314 1.048-.471 1.694-.471.385 0 .759.063 1.122.189.366.126.697.329.993.609.298.277.535.642.711 1.095.175.452.263 1.006.263 1.661v.471h-5.535v-.978h4.325c0-.385-.077-.728-.231-1.03a1.75 1.75 0 0 0-.655-.711 1.827 1.827 0 0 0-.988-.263c-.416 0-.776.103-1.08.309a2.084 2.084 0 0 0-.702.794 2.328 2.328 0 0 0-.245 1.053v.697c0 .511.09.945.268 1.302.179.354.428.625.748.812.32.185.692.277 1.117.277.277 0 .528-.04.753-.12.227-.08.423-.198.586-.355.166-.16.292-.359.378-.596l1.155.273a2.331 2.331 0 0 1-.559.965 2.707 2.707 0 0 1-.988.646 3.605 3.605 0 0 1-1.33.231Zm4.73-.148v-7.091h1.163v1.127h.088c.147-.385.387-.684.72-.896.332-.216.731-.323 1.196-.323.467 0 .86.107 1.177.323.317.215.558.514.725.896h.073c.179-.373.45-.668.813-.887.366-.221.803-.332 1.311-.332.64 0 1.162.2 1.565.6.406.397.609 1.008.609 1.833V299h-1.209v-4.695c0-.508-.139-.871-.416-1.089a1.505 1.505 0 0 0-.978-.333c-.477 0-.848.145-1.113.434-.265.289-.397.657-.397 1.103V299h-1.214v-4.801c0-.394-.128-.711-.383-.951-.253-.243-.579-.365-.979-.365a1.44 1.44 0 0 0-.766.217 1.632 1.632 0 0 0-.568.605 1.792 1.792 0 0 0-.212.886V299h-1.205Zm30.135-.5v-7.091h1.38v7.091h-1.38Zm.697-8.185a.88.88 0 0 1-.619-.24.782.782 0 0 1-.254-.582c0-.227.085-.421.254-.581a.867.867 0 0 1 .619-.245c.24 0 .445.081.614.245.172.16.259.354.259.581a.776.776 0 0 1-.259.582.861.861 0 0 1-.614.24Zm7.854 2.825-1.251.222a1.489 1.489 0 0 0-.25-.457 1.228 1.228 0 0 0-.452-.356c-.191-.092-.429-.138-.716-.138-.39 0-.717.088-.978.263-.262.172-.393.395-.393.669 0 .237.088.428.264.573.175.144.458.263.849.355l1.126.259c.653.151 1.139.383 1.459.697.32.314.48.722.48 1.223 0 .425-.123.804-.369 1.136-.243.329-.583.588-1.02.776-.434.187-.937.281-1.51.281-.794 0-1.442-.169-1.943-.508-.502-.341-.81-.826-.924-1.454l1.334-.203c.084.348.254.611.513.789.258.176.595.264 1.011.264.452 0 .814-.094 1.085-.282.271-.191.406-.423.406-.697a.725.725 0 0 0-.249-.559c-.163-.151-.414-.264-.753-.341l-1.2-.264c-.662-.15-1.151-.39-1.468-.72-.314-.329-.471-.746-.471-1.251 0-.418.117-.785.351-1.098.234-.314.557-.559.969-.734.413-.179.885-.268 1.418-.268.766 0 1.369.166 1.809.498.44.33.731.771.873 1.325Z"/>
      <rect width="44" height="24" x="201" y="282" fill="#00B442" fill-opacity=".1" rx="4"/>
      <path fill="#10B981" d="M214.686 289.545V299h-1.713v-7.788h-.055l-2.212 1.413v-1.57l2.35-1.51h1.63Zm5.895 9.635c-.76 0-1.413-.192-1.957-.577-.542-.388-.959-.946-1.251-1.676-.29-.732-.434-1.614-.434-2.645.003-1.031.149-1.908.438-2.631.293-.727.71-1.281 1.251-1.662.545-.382 1.196-.573 1.953-.573.757 0 1.408.191 1.953.573.544.381.962.935 1.251 1.662.292.726.438 1.603.438 2.631 0 1.034-.146 1.917-.438 2.65-.289.729-.707 1.286-1.251 1.671-.542.385-1.193.577-1.953.577Zm0-1.445c.591 0 1.057-.291 1.399-.872.344-.585.517-1.445.517-2.581 0-.751-.079-1.382-.236-1.893-.157-.511-.378-.895-.664-1.154a1.455 1.455 0 0 0-1.016-.392c-.588 0-1.053.292-1.394.877-.342.581-.514 1.436-.517 2.562-.003.754.072 1.388.226 1.902.157.514.379.902.665 1.163.286.259.626.388 1.02.388Zm10.231-.508v-.498c0-.367.077-.704.231-1.011.157-.308.385-.556.683-.744.299-.187.66-.281 1.085-.281.437 0 .803.094 1.099.281.295.185.518.431.669.739.154.308.231.646.231 1.016v.498c0 .367-.077.704-.231 1.011-.154.308-.38.556-.678.744-.296.187-.659.281-1.09.281-.431 0-.795-.094-1.094-.281a1.841 1.841 0 0 1-.679-.744 2.272 2.272 0 0 1-.226-1.011Zm1.205-.498v.498c0 .243.059.467.176.67.117.203.323.304.618.304.299 0 .503-.1.614-.3.114-.203.171-.428.171-.674v-.498a1.41 1.41 0 0 0-.162-.674c-.107-.207-.315-.31-.623-.31-.289 0-.494.103-.614.31-.12.203-.18.427-.18.674Zm-6.011-4.912v-.499c0-.369.079-.708.236-1.015a1.84 1.84 0 0 1 .683-.739c.299-.188.66-.282 1.085-.282.434 0 .799.094 1.094.282.299.185.523.431.674.739.151.307.226.646.226 1.015v.499c0 .369-.077.708-.23 1.015-.151.305-.376.55-.674.734-.299.185-.662.277-1.09.277-.434 0-.8-.092-1.099-.277a1.809 1.809 0 0 1-.674-.738 2.229 2.229 0 0 1-.231-1.011Zm1.215-.499v.499c0 .246.057.471.17.674.117.2.324.3.619.3s.499-.1.609-.3c.114-.203.171-.428.171-.674v-.499c0-.246-.054-.471-.161-.674-.108-.206-.314-.309-.619-.309-.292 0-.497.103-.614.309a1.342 1.342 0 0 0-.175.674Zm-.688 7.682 6.5-9.455h1.154l-6.5 9.455h-1.154Z"/>
      <path fill="#18293B" fill-opacity=".12" d="M541 319.112H5v1.776h536v-1.776Z" mask="url(#path-39-inside-5_3250_9159)"/>
    </g>
    <path stroke="#E3E5E7" stroke-width=".888" d="M5.444 224.444h535.112v95.112H5.444z"/>
    <rect width="535" height="421" x="5.5" y=".5" stroke="#D8DDE2" rx="7.475"/>
  </g>
  <defs>
    <clipPath id="b">
      <use xlink:href="#c"/>
    </clipPath>
    <clipPath id="e">
      <use xlink:href="#f"/>
    </clipPath>
    <filter id="a" width="544.496" height="430.496" x=".752" y="-4.248" color-interpolation-filters="sRGB" filterUnits="userSpaceOnUse">
      <feFlood flood-opacity="0" result="BackgroundImageFix"/>
      <feColorMatrix in="SourceAlpha" result="hardAlpha" values="0 0 0 0 0 0 0 0 0 0 0 0 0 0 0 0 0 0 127 0"/>
      <feOffset/>
      <feGaussianBlur stdDeviation="2.124"/>
      <feComposite in2="hardAlpha" operator="out"/>
      <feColorMatrix values="0 0 0 0 0.827941 0 0 0 0 0.85 0 0 0 0 0.872059 0 0 0 0.25 0"/>
      <feBlend in2="BackgroundImageFix" result="effect1_dropShadow_3250_9159"/>
      <feBlend in="SourceGraphic" in2="effect1_dropShadow_3250_9159" result="shape"/>
    </filter>
  </defs>
</svg>
