<svg xmlns="http://www.w3.org/2000/svg" fill="none" viewBox="0 0 500 400">
  <g opacity=".2">
    <path fill="#fff" fill-opacity=".06" d="M347.98-346.9 68.15-181.85A132.59 132.59 0 0 0 0-65.91v300.9A133.25 133.25 0 0 0 69.3 351.7l276.54 175c42.7 23.55 91.7 23.55 132.17 1.33l281.03-177.7c40.48-22.17 67.04-66.82 67.04-115.35V-65.87l-.21-8.43a133.13 133.13 0 0 0-53.03-98.7l-4.43-3.1-.28-.29a44.4 44.4 0 0 0-7.48-5.5l-279.87-165a137.54 137.54 0 0 0-132.84 0h.04Z"/>
    <path stroke="#fff" stroke-opacity=".25" d="m348.24-346.47.54-.32a137.04 137.04 0 0 1 131.75.32l279.87 165a43.84 43.84 0 0 1 7.38 5.43v.01l.28.27.03.03.04.03 4.4 3.09h.01a132.61 132.61 0 0 1 52.83 98.33v.01l.2 8.4V235c0 48.35-26.46 92.83-66.77 114.92h-.01l-.02.01-281.02 177.69c-40.31 22.12-89.1 22.13-131.66-1.33h-.01l-276.5-175h-.03A132.75 132.75 0 0 1 .5 234.97v-300.9a132.09 132.09 0 0 1 67.9-115.5l279.84-165.05Z"/>
  </g>
  <g opacity=".2">
    <path fill="#fff" fill-opacity=".06" d="M362.14-248.96 144.72-120.7a103.02 103.02 0 0 0-52.96 90.08v233.8a103.53 103.53 0 0 0 53.85 90.7l214.87 135.97c33.18 18.3 71.24 18.3 102.7 1.03L681.52 292.8c31.46-17.23 52.1-51.92 52.1-89.63V-30.6l-.17-6.54a103.45 103.45 0 0 0-41.2-76.7l-3.44-2.41-.22-.23a34.49 34.49 0 0 0-5.81-4.27l-217.47-128.2a106.87 106.87 0 0 0-103.2 0h.02Z"/>
    <path stroke="#fff" stroke-opacity=".25" d="m362.4-248.53.42-.24a106.37 106.37 0 0 1 102.26.25l217.45 128.2c2.05 1.2 3.97 2.6 5.72 4.2v.01l.22.21.03.03.03.03 3.42 2.4h.01a102.94 102.94 0 0 1 41 76.32l.16 6.52v233.77c0 37.53-20.54 72.05-51.83 89.2l-.02.01-218.35 138.06c-31.29 17.17-69.16 17.17-102.19-1.03h-.01L145.88 293.43h-.01l-.02-.02a103.03 103.03 0 0 1-53.59-90.25v-233.8a102.52 102.52 0 0 1 52.7-89.65L362.4-248.53Z"/>
  </g>
  <g opacity=".2">
    <path fill="#fff" fill-opacity=".06" d="M380.24-129.18 239.59-46.22a66.64 66.64 0 0 0-34.26 58.27V163.3a66.98 66.98 0 0 0 34.84 58.67l138.99 87.96c21.46 11.83 46.08 11.83 66.43.66l141.25-89.3c20.35-11.16 33.7-33.6 33.7-58V12.09l-.1-4.24a66.9 66.9 0 0 0-26.67-49.62l-2.22-1.56-.14-.14a22.3 22.3 0 0 0-3.76-2.76l-140.67-82.94a69.12 69.12 0 0 0-66.76 0h.02Z"/>
    <path stroke="#fff" stroke-opacity=".25" d="m380.49-128.75.27-.16a68.63 68.63 0 0 1 65.98.17L587.4-45.81c1.31.77 2.54 1.67 3.66 2.69l.14.14.03.03.04.02 2.2 1.55h.01a66.42 66.42 0 0 1 26.45 49.24l.1 4.21V163.3c0 24.21-13.25 46.49-33.43 57.54l-.01.01h-.02l-141.24 89.31c-20.18 11.08-44.6 11.08-65.92-.66l-138.98-87.96-.02-.01a66.48 66.48 0 0 1-34.58-58.23V12.05a66.14 66.14 0 0 1 34-57.84h.01l140.65-82.96Z"/>
  </g>
  <g opacity=".3">
    <path fill="#fff" fill-opacity=".15" d="m394.4-33.87-79.7 47.01a37.77 37.77 0 0 0-19.42 33.03v85.71a37.96 37.96 0 0 0 19.74 33.25l78.77 49.85c12.17 6.7 26.12 6.7 37.65.38l80.05-50.62c11.53-6.31 19.1-19.03 19.1-32.86v-85.7l-.06-2.4a37.93 37.93 0 0 0-15.1-28.12l-1.26-.88-.09-.08c-.65-.6-1.37-1.12-2.13-1.57l-79.72-47a39.18 39.18 0 0 0-37.84 0h.01Z"/>
    <path stroke="#fff" stroke-opacity=".25" d="m394.66-33.44.14-.09a38.67 38.67 0 0 1 37.18.1l79.72 47c.73.42 1.41.92 2.04 1.49l.07.07.03.03.04.03 1.25.88a37.41 37.41 0 0 1 14.9 27.73l.06 2.38v85.7c0 13.65-7.47 26.2-18.84 32.43h-.01l-.01.01-80.04 50.6c-11.37 6.24-25.13 6.25-37.14-.37l-78.76-49.84h-.02l-.01-.02a37.44 37.44 0 0 1-19.48-32.8V46.16a37.27 37.27 0 0 1 19.15-32.59h.01l79.72-47.02Z"/>
  </g>
  <path fill="url(#a)" d="m413.5 56.8-2.16-.3L384 104.3a7.37 7.37 0 0 1 2.3 3.89h54.4a7.37 7.37 0 0 1 2.3-3.89l-27.34-47.8-2.16.3Zm-26.55 55.63 21.04 12.6a8.02 8.02 0 0 1 5.51-2.14c2.11 0 4.08.8 5.5 2.14l21.05-12.6h-53.1Zm26.55 27.26a8.2 8.2 0 0 1-5.84-2.45 8.43 8.43 0 0 1-2.42-5.92l.44-2.8-21.14-12.7a8.2 8.2 0 0 1-12.09.44 8.43 8.43 0 0 1-2.42-5.93c0-3.94 2.6-7.23 6.2-8.17V76.69A8.41 8.41 0 0 1 369 68.3c0-2.22.87-4.35 2.42-5.92a8.2 8.2 0 0 1 12.43.84l21.68-12.61-.3-2.25A8.3 8.3 0 0 1 413.5 40a8.3 8.3 0 0 1 8.26 8.37l-.3 2.25 21.69 12.6a8.2 8.2 0 0 1 12.43-.84 8.43 8.43 0 0 1 2.42 5.93 8.41 8.41 0 0 1-7.23 8.38v25.47a8.39 8.39 0 0 1 6.2 8.17c0 2.22-.87 4.35-2.42 5.92a8.2 8.2 0 0 1-12.09-.44l-21.14 12.71.44 2.8c0 2.22-.87 4.35-2.42 5.92a8.2 8.2 0 0 1-5.84 2.45Zm-5.9-85.43-22.13 12.86.1 1.2a8.45 8.45 0 0 1-5.21 7.82l.15 26.17 27.09-48.05Zm11.8 0 27.1 48.05.14-26.17a8.45 8.45 0 0 1-5.21-7.83l.1-1.2-22.13-12.85Z" opacity=".9"/>
  <defs>
    <linearGradient id="a" x1="460.023" x2="314.046" y1="27.183" y2="16.602" gradientUnits="userSpaceOnUse">
      <stop stop-color="#F9F9F9" stop-opacity=".54"/>
      <stop offset="1" stop-color="#C8C8C8" stop-opacity=".01"/>
    </linearGradient>
  </defs>
</svg>
