<svg xmlns="http://www.w3.org/2000/svg" width="170" height="170" fill="none">
  <path fill="#59636D" d="M18.68 2.35c-8.35 0-7.83 3.64-7.83 3.64v3.77h7.98v1.13H7.69s-5.34-.6-5.34 7.87 4.67 8.17 4.67 8.17H9.8v-3.94a4.44 4.44 0 0 1 4.59-4.7h7.9a4.25 4.25 0 0 0 4.44-4.3V6.73s.68-4.39-8.05-4.39Zm-4.4 2.54a1.44 1.44 0 1 1 .02 2.88 1.44 1.44 0 0 1-.01-2.88Zm4.64 30.36c8.35 0 7.83-3.64 7.83-3.64v-3.78h-7.98V26.7h11.14s5.34.61 5.34-7.86-4.67-8.17-4.67-8.17H27.8v3.93a4.44 4.44 0 0 1-4.59 4.7h-7.9a4.25 4.25 0 0 0-4.44 4.31v7.26s-.68 4.38 8.05 4.38Zm4.4-2.54a1.44 1.44 0 1 1-.02-2.88 1.44 1.44 0 0 1 .02 2.88ZM87.84 3.05a9.03 9.03 0 0 0-4.7 1.4l-7.33 4.67a8.41 8.41 0 0 0-3.8 5.63 8.87 8.87 0 0 0 .86 5.7 8.42 8.42 0 0 0-1.25 3.14 8.96 8.96 0 0 0 1.53 6.79c2.93 4.19 8.7 5.43 12.88 2.77l7.34-4.66a8.44 8.44 0 0 0 3.8-5.63 8.87 8.87 0 0 0-.87-5.7 8.48 8.48 0 0 0 1.26-3.14 8.98 8.98 0 0 0-1.53-6.78V7.2a9.8 9.8 0 0 0-8.2-4.16Zm.64 3.6a5.83 5.83 0 0 1 5.4 4.44 5.39 5.39 0 0 1-.13 2.82l-.14.42-.37-.28a9.5 9.5 0 0 0-2.87-1.44l-.28-.08.02-.28c.03-.39-.07-.77-.3-1.1a1.75 1.75 0 0 0-2.32-.47l-7.34 4.67a1.53 1.53 0 0 0-.67 1.66 1.76 1.76 0 0 0 2.13 1.29c.16-.05.31-.11.45-.2l2.82-1.78c.46-.3.96-.52 1.49-.66a5.82 5.82 0 0 1 7.13 4.27 5.07 5.07 0 0 1-2.24 5.53l-7.34 4.67a5.83 5.83 0 0 1-8.62-3.61 5.39 5.39 0 0 1 .12-2.81l.14-.43.38.28A9.5 9.5 0 0 0 78.8 25l.28.08-.02.28c-.03.39.08.77.3 1.08a1.76 1.76 0 0 0 1.89.7c.16-.04.3-.1.45-.2l7.32-4.67a1.53 1.53 0 0 0 .68-1.67 1.76 1.76 0 0 0-2.6-1.09l-2.82 1.8a5.83 5.83 0 0 1-8.6-3.61 5.4 5.4 0 0 1-.05-2.14 5.07 5.07 0 0 1 2.3-3.4l7.34-4.67a5.36 5.36 0 0 1 3.21-.84Zm75.09 26.88-6.78-11.88-13.27 8.55 20.05 3.33Zm1.99-24.6L157.6 20.9c-.12.17-.26.3-.1.57l6.87 11.25 1.19-23.78Zm-26.87 10.23c.1.09.32.14.43.09 0 0 3.77-1.83 5.61-2.84a9.27 9.27 0 0 0 1.58-1.38s3.43-3.14 5.13-4.72c.1-.1.23-.19.3-.31l1.84-3.65-2.17-.8c-.1-.03-.25.04-.35.1-1.66.92-3.34 1.8-4.94 2.8-.8.5-5.58 5.05-5.58 5.05-.3.28-.57.6-.8.94l-2.3 3.43s.83.89 1.25 1.29Zm6.88-1.53-2.83 11.94 13.29-8.56-10.46-3.38Zm18.75-8.53-11.3 1.88 3.84 9.33 7.46-11.21Zm-18.6 7.72 10.26 3.33-3.8-9.24-6.46 5.9Zm-6.89 4.65-3.59 8.57 6.84-.2-3.25-8.37Zm3.37 6.5 2.54-10.48-5.49 2.85 2.95 7.63Zm20.74-19.42c-1.09-.3-7.98-2.1-7.98-2.1-.2-.06-.34-.1-.45.14l-1.7 3.4-.02.16 10.15-1.53v-.07Zm-6.33-2.59 8.9 2.46-1.47-4.18-7.42 1.64v.08Zm-13.7 24.9c-1.1-.13-2.23-.02-3.35 0l-2.75.08c-.1 0-.19.02-.28.13l22.76 2.1.01-.1-7.3-1c-3.02-.41-6.05-.87-9.09-1.22Zm-7.51-3.43 2.93-6.81c.1-.23.09-.38-.1-.56l-1.24-1.28-1.8 8.83.07.04.14-.22Zm19.26-22.07 5.3-1.22-.01-.08-7.14.96c.67.3 1.18.52 1.85.34ZM22.84 70.48s7.31 4.18 9.23 10.82c1.72 6 .34 8.86.34 8.86.88.96 1.57 2.07 2.05 3.29a5.67 5.67 0 0 1 .34 5.23s-.11-2.44-3.76-2.95c-3.34-.47-4.56 2.78-10.93 2.63a21.68 21.68 0 0 1-17.76-9.83c3.12 1.7 7.2 4.33 12.29 3.93 5.09-.4 6.15-1.97 6.15-1.97A78.68 78.68 0 0 1 5.75 74.75c4 3.35 13.9 10 13.67 9.84a89.18 89.18 0 0 1-9.9-11.49s14.86 12.22 16.05 12.14c.5-1.01 3.04-6.25-2.73-14.76ZM87.87 84.5a3.34 3.34 0 1 0-5 2.9c2.21 1.3 5-.33 5-2.9Zm7.64-6.18c2.2-10.55-2.65-13.86-10.9-6.22-7.78-7.29-13.31-5-10.96 6.18-10.85 3.27-10.13 9.43.1 12.58-2.35 10.28 2.02 14.04 10.85 6.27 8.57 7.68 13.11 4.08 10.77-6.32 11.16-3.78 10.16-9.25.14-12.49Zm-1.5-.4c-1.76-.4-3.45-.68-5.17-.84a28.31 28.31 0 0 0-3.18-3.88c6.62-6.35 10.52-4.36 8.34 4.72Zm-17.09 8.61c.66 1.4 1.52 2.68 2.16 3.75-1.05-.1-2.19-.27-3.4-.48.4-1.09.8-2.17 1.24-3.27Zm-.09-3.8a58.3 58.3 0 0 1-1.28-3.3c1.25-.26 2.47-.5 3.53-.58a55.64 55.64 0 0 0-2.25 3.89Zm.93 1.95a49.95 49.95 0 0 1 3.49-6.05c2.24-.13 4.47-.12 6.66.04a43.44 43.44 0 0 1 3.49 6c-.83 1.72-2 3.69-3.35 5.8a50.3 50.3 0 0 1-6.94 0 64.1 64.1 0 0 1-3.35-5.8Zm14.48 1.85c.43 1.04.82 2.1 1.2 3.18-1.14.24-2.26.41-3.36.53a51.87 51.87 0 0 0 2.16-3.7Zm-2.16-7.68c1.2.17 2.36.37 3.48.62-.37 1.11-.8 2.2-1.28 3.27a45.53 45.53 0 0 0-2.2-3.89Zm-3.4-1.94a55.22 55.22 0 0 0-4.2 0c.62-.82 1.32-1.67 2.08-2.56.74.8 1.44 1.66 2.12 2.56ZM83.5 73.2a28 28 0 0 0-3.18 3.84 40.3 40.3 0 0 0-5.2.84c-2.08-9.23 1.76-11.03 8.38-4.68Zm-9.36 16.2c-9.2-2.77-8.76-7.08-.09-9.62a44.3 44.3 0 0 0 1.9 4.8 49.98 49.98 0 0 0-1.81 4.82Zm1.15 1.86c1.56.38 3.21.56 4.94.75a33.88 33.88 0 0 0 3.27 4.01c-6.74 6.46-10.5 4.12-8.21-4.76Zm9.27 3.66c-.8-.83-1.55-1.76-2.25-2.78 1.57.03 3.1.04 4.54 0-.7 1-1.46 1.92-2.3 2.78Zm1.1 1.1a38.18 38.18 0 0 0 3.27-4.06c1.62-.12 3.27-.37 4.94-.75 2.3 9.45-1.88 10.85-8.2 4.81Zm9.32-6.7a48.8 48.8 0 0 0-1.77-4.73 44.88 44.88 0 0 0 1.85-4.77c8.47 2.56 9.14 6.65-.08 9.5Z"/>
  <path fill="#59636D" fill-rule="evenodd" d="M135.04 69.25v30.68h30.68V69.25h-30.68Zm23.3 14.9c.3 0 .64.02.89.04 1.02.11 1.82.56 2.5 1.39.34.41.45.6.43.67a5.7 5.7 0 0 1-.99.7c-.72.49-.95.63-1 .63-.06 0-.18-.12-.34-.34a1.53 1.53 0 0 0-1.15-.7c-.53-.07-1.02.1-1.25.44-.2.3-.24.77-.08 1.11.19.4.53.62 1.82 1.19 1.5.65 2.25 1.1 2.8 1.65.59.6.89 1.3.98 2.27a4 4 0 0 1-.14 1.5c-.34 1.12-1.24 1.95-2.56 2.33-.37.11-.7.18-1.04.2-.52.04-1.25.02-1.7-.05a5.33 5.33 0 0 1-3-1.55 4.26 4.26 0 0 1-.71-1.06c0-.05.02-.08.12-.15.3-.18 1.99-1.15 2.02-1.15.02 0 .11.1.2.23.2.29.69.78.94.95a2.53 2.53 0 0 0 1.43.37c.39 0 .47 0 .65-.05.47-.13.83-.39.98-.7.07-.14.07-.16.07-.5v-.34l-.08-.16c-.2-.4-.63-.67-2-1.27a16.1 16.1 0 0 1-1.7-.85 3.95 3.95 0 0 1-1.48-1.54c-.3-.6-.35-.83-.36-1.75 0-.71 0-.7.15-1.16.13-.41.4-.87.71-1.2a3.81 3.81 0 0 1 2.9-1.15Zm-8.14.14c1.83 0 2.87 0 2.89.02.03.02.03.18.03 1.19v1.17h-1.82l-1.82.01v5.17l-.01 5.2c-.01.04-.15.04-1.34.04h-1.32l-.01-.06c-.01-.02-.02-2.37-.02-5.2v-5.15h-1.82l-1.82-.01V85.5c0-.91 0-1.16.03-1.18.03-.03.96-.04 4.96-.04h2.07Z" clip-rule="evenodd"/>
  <path fill="#59636D" d="M18.8 160.1c10.38 0 18.8-4.37 18.8-9.78 0-5.4-8.42-9.78-18.8-9.78S0 144.92 0 150.32c0 5.4 8.42 9.79 18.8 9.79Z"/>
  <path fill="#232531" fill-rule="evenodd" d="m5.28 156.12 2.06-10.43h4.76c2.06.13 3.1 1.16 3.1 2.96 0 3.09-2.46 4.9-4.64 4.76H8.24l-.52 2.7H5.28Zm3.47-4.64.65-3.86h1.67c.9 0 1.55.38 1.55 1.16-.13 2.19-1.16 2.57-2.32 2.7H8.75Zm5.96 1.93 2.06-10.43h2.45l-.52 2.7h2.32c2.06.14 2.83 1.17 2.58 2.45l-.9 5.28h-2.58l.9-4.76c.13-.65.13-1.03-.77-1.03h-1.93l-1.16 5.8H14.7Zm7.82 2.7 2.06-10.42h4.76c2.06.13 3.1 1.16 3.1 2.96 0 3.09-2.45 4.9-4.64 4.76h-2.32l-.51 2.7h-2.45Zm3.48-4.63.64-3.86h1.67c.9 0 1.55.38 1.55 1.16-.13 2.19-1.16 2.57-2.32 2.7h-1.54Z" clip-rule="evenodd"/>
  <path fill="#59636D" fill-rule="evenodd" d="M80.8 151.55s-1 .57.72.77c2.08.23 3.15.2 5.44-.23 0 0 .6.37 1.44.7-5.14 2.16-11.63-.13-7.6-1.24Zm-.62-2.82s-1.12.81.6.99c2.22.22 3.97.24 7-.33 0 0 .43.42 1.09.65-6.22 1.78-13.13.14-8.69-1.31Zm5.3-4.79c1.27 1.43-.33 2.72-.33 2.72s3.21-1.63 1.74-3.67c-1.38-1.9-2.44-2.85 3.28-6.11 0 0-8.98 2.2-4.69 7.06Z" clip-rule="evenodd"/>
  <path fill="#59636D" fill-rule="evenodd" d="M92.27 153.64s.74.6-.81 1.06c-2.97.89-12.35 1.15-14.95.04-.94-.4.82-.96 1.37-1.07.58-.13.9-.1.9-.1-1.03-.72-6.72 1.41-2.88 2.02 10.47 1.67 19.09-.75 16.37-1.95ZM81.3 145.8s-4.77 1.11-1.7 1.52c1.3.17 3.9.13 6.32-.07 1.97-.16 3.95-.5 3.95-.5s-.7.28-1.2.62c-4.84 1.25-14.2.67-11.5-.6 2.27-1.1 4.13-.97 4.13-.97Zm8.55 4.7c4.93-2.51 2.65-4.93 1.06-4.6-.39.08-.56.15-.56.15s.14-.23.42-.32c3.14-1.09 5.56 3.2-1.02 4.9 0 0 .08-.07.1-.13Zm-2.97-18.9s2.72 2.69-2.59 6.81c-4.26 3.3-.97 5.2 0 7.35-2.49-2.2-4.31-4.15-3.09-5.96 1.8-2.65 6.78-3.93 5.68-8.2Z" clip-rule="evenodd"/>
  <path fill="#59636D" fill-rule="evenodd" d="M81.78 157.31c4.73.3 11.98-.16 12.15-2.36 0 0-.33.84-3.9 1.5-4.03.74-9.01.66-11.96.18 0 0 .6.49 3.71.69Zm11.93 3.94h-.14v-.07h.39v.07h-.14v.4h-.1v-.4Zm.78.03-.15.37h-.06l-.14-.38v.38h-.1v-.47h.14l.13.33.13-.33h.14v.47h-.1v-.38ZM81 165.7c-.44.38-.91.6-1.34.6-.6 0-.92-.36-.92-.93 0-.62.35-1.07 1.75-1.07H81v1.4Zm1.23 1.36v-4.22c0-1.08-.62-1.79-2.13-1.79-.88 0-1.65.22-2.28.49l.18.75c.5-.18 1.13-.35 1.76-.35.87 0 1.24.35 1.24 1.06v.53h-.43c-2.11 0-3.07.8-3.07 2.02 0 1.04.63 1.63 1.81 1.63.76 0 1.33-.3 1.86-.76l.1.64h.96Zm4.1 0h-1.52l-1.85-5.9h1.34l1.14 3.63.26 1.09c.58-1.58.99-3.18 1.2-4.72h1.3a23.64 23.64 0 0 1-1.86 5.9Zm5.9-1.36c-.45.38-.92.6-1.35.6-.6 0-.92-.36-.92-.93 0-.62.35-1.07 1.75-1.07h.51v1.4Zm1.22 1.36v-4.22c0-1.08-.62-1.79-2.13-1.79-.88 0-1.65.22-2.28.49l.18.75c.5-.18 1.13-.35 1.76-.35.87 0 1.24.35 1.24 1.06v.53h-.43c-2.11 0-3.06.8-3.06 2.02 0 1.04.62 1.63 1.8 1.63.77 0 1.33-.3 1.86-.76l.1.64h.96Zm-17.3 1c-.34.51-.91.9-1.53 1.13l-.6-.7a2.6 2.6 0 0 0 1.06-.98c.16-.32.23-.73.23-1.7v-6.75h1.3v6.65c0 1.31-.1 1.84-.45 2.36Z" clip-rule="evenodd"/>
  <path fill="#59636D" d="m164.4 141.56-12.89-7.41a1.89 1.89 0 0 0-1.65 0l-12.8 7.44c-.46.26-.78.93-.78 1.44v14.86c0 .29.06.64.27.93l28.49-16.54a1.9 1.9 0 0 0-.64-.72Z"/>
  <path fill="#59636D" d="M136.47 158.8c.13.2.32.4.5.5l12.86 7.44c.22.14.51.19.83.19.32 0 .61-.08.83-.19l12.8-7.44c.45-.27.77-.93.77-1.44V143c0-.24-.02-.5-.16-.75l-28.43 16.54Z"/>
  <path fill="#161A1E" d="M156.37 153.67a6.54 6.54 0 1 1 0-6.43l3.47-2a10.54 10.54 0 1 0-.03 10.46l-3.44-2.03Zm3.12-2.64.24-1.15h-1.12v-1.25h1.36l.32-1.65h1.3l-.31 1.62h1l.33-1.62h1.28l-.32 1.62h.64v1.26h-.88l-.24 1.14h1.12v1.26h-1.36l-.32 1.6h-1.3l.31-1.6h-1.01l-.32 1.6h-1.28l.32-1.6h-.64V151h.88v.03Zm1.28 0h1.01l.24-1.15h-1.01l-.24 1.15Z"/>
</svg>
