<svg xmlns="http://www.w3.org/2000/svg" fill="none" viewBox="0 0 676 174">
  <g clip-path="url(#a)">
    <path stroke="url(#b)" stroke-linecap="round" stroke-width="2" d="M0 88h676"/>
    <path stroke="url(#c)" stroke-linecap="round" stroke-width="2" d="M628.5 158H281.05a69.06 69.06 0 0 1-60.08-35v0a69.06 69.06 0 0 0-60.07-35H147"/>
    <path stroke="url(#d)" stroke-linecap="round" stroke-width="2" d="M563.5 18H185.17a87.09 87.09 0 0 0-69.8 35v0a87.09 87.09 0 0 1-69.79 35H18"/>
    <rect width="99" height="36" x="195" fill="#161A1E" rx="18"/>
    <rect width="98" height="35" x="195.5" y=".5" stroke="#fff" stroke-opacity=".5" rx="17.5"/>
    <g clip-path="url(#e)">
      <path fill="#fff" fill-rule="evenodd" d="M208.63 14.75a1.62 1.62 0 0 0 3.15.54h.1a1.08 1.08 0 0 1 1.08 1.08v3.25a2.17 2.17 0 0 0 2.16 2.17h.1a1.63 1.63 0 1 0 0-1.08h-.1a1.08 1.08 0 0 1-1.08-1.09v-3.25c0-.38-.1-.75-.29-1.08h1.47a1.62 1.62 0 0 0 2.77.5 1.63 1.63 0 1 0-2.77-1.58h-3.44a1.62 1.62 0 0 0-3.16.54Zm7.58 6.5a.54.54 0 0 1 .54-.54.54.54 0 1 1-.54.54Zm0-6.5a.54.54 0 0 1 .54-.54.54.54 0 1 1-.54.54Zm-6.5 0a.54.54 0 0 1 .54-.54.54.54 0 1 1-.54.54Z" clip-rule="evenodd"/>
    </g>
    <path fill="#fff" d="M236.67 15.5a1.45 1.45 0 0 0-.65-1.1c-.39-.26-.87-.4-1.46-.4-.41 0-.78.07-1.08.2-.3.13-.54.31-.71.54-.17.23-.25.48-.25.77 0 .24.06.45.17.63.12.17.27.32.45.44.2.12.4.22.6.3l.63.18 1 .26c.32.08.65.19 1 .33a4 4 0 0 1 .94.53c.3.22.53.5.7.83.2.33.28.72.28 1.18a2.7 2.7 0 0 1-.44 1.53 3 3 0 0 1-1.3 1.06c-.55.26-1.23.39-2.03.39a5 5 0 0 1-1.98-.36 3.13 3.13 0 0 1-1.3-1.03 2.98 2.98 0 0 1-.52-1.6h1.54c.03.37.15.68.36.93.2.24.48.42.8.54a3.52 3.52 0 0 0 2.25-.03c.34-.14.61-.33.8-.58.2-.25.3-.54.3-.87 0-.3-.09-.55-.26-.74-.17-.2-.4-.35-.69-.48a6.78 6.78 0 0 0-.98-.33l-1.2-.33a4.69 4.69 0 0 1-1.94-.98 2.2 2.2 0 0 1-.71-1.7c0-.6.16-1.1.48-1.54.31-.44.75-.78 1.29-1.02a4.43 4.43 0 0 1 1.84-.37c.69 0 1.3.12 1.82.36.53.24.95.58 1.26 1 .3.42.46.9.47 1.45h-1.48Zm6.9-.14v1.2h-4.17v-1.2h4.17Zm-3.05-1.83h1.49v7.23c0 .29.04.5.13.65.08.14.2.24.33.3a1.74 1.74 0 0 0 .77.05l.2-.05.27 1.23a2.92 2.92 0 0 1-2.06-.05 1.88 1.88 0 0 1-.82-.68 2 2 0 0 1-.3-1.14v-7.54Zm6.92 9.64c-.48 0-.92-.1-1.31-.27-.4-.18-.7-.45-.93-.79a2.27 2.27 0 0 1-.34-1.27 2 2 0 0 1 .25-1.06c.16-.28.39-.5.67-.66.28-.17.6-.29.94-.37.35-.08.7-.15 1.07-.19l1.11-.13c.29-.04.5-.1.62-.17.13-.08.2-.21.2-.4v-.03c0-.43-.13-.77-.37-1-.24-.24-.6-.36-1.08-.36-.5 0-.9.1-1.19.33-.28.22-.48.46-.59.73l-1.4-.32a2.67 2.67 0 0 1 1.84-1.75 4.33 4.33 0 0 1 2.28-.09c.35.07.67.2.97.4.3.18.55.45.74.8.2.35.29.8.29 1.36V23h-1.45v-1.04h-.06a2.3 2.3 0 0 1-1.17 1.03c-.3.12-.67.18-1.09.18Zm.32-1.2c.41 0 .77-.08 1.06-.24a1.66 1.66 0 0 0 .9-1.49v-.98a.77.77 0 0 1-.3.15 4.8 4.8 0 0 1-.52.11 60.6 60.6 0 0 1-1.02.15c-.29.04-.55.1-.79.18-.23.09-.42.21-.56.38a.93.93 0 0 0-.21.63c0 .37.13.65.4.84.28.18.62.28 1.04.28Zm8.63 4.05a4.6 4.6 0 0 1-1.57-.24 3.04 3.04 0 0 1-1.06-.63 2.65 2.65 0 0 1-.62-.86l1.28-.52c.1.14.21.3.36.46.15.16.36.3.62.42s.6.17 1 .17a2.3 2.3 0 0 0 1.4-.4c.37-.28.55-.71.55-1.31v-1.5h-.09c-.09.16-.22.34-.39.54-.16.2-.4.37-.68.52-.3.14-.68.22-1.14.22a3 3 0 0 1-2.77-1.68 4.57 4.57 0 0 1-.42-2.06c0-.81.13-1.5.4-2.09.29-.58.67-1.02 1.15-1.33a2.97 2.97 0 0 1 1.65-.47c.47 0 .85.08 1.15.24.29.16.51.34.68.55.16.2.29.4.38.55h.1v-1.24h1.47v7.8c0 .67-.16 1.2-.46 1.62-.3.43-.72.74-1.24.94-.52.2-1.1.3-1.75.3Zm-.01-4.37c.42 0 .78-.1 1.08-.3.3-.2.52-.49.68-.86.15-.38.23-.83.23-1.36 0-.51-.08-.96-.23-1.36a1.8 1.8 0 0 0-1.77-1.24c-.44 0-.81.11-1.11.34-.3.23-.53.55-.68.94-.15.4-.22.83-.22 1.32 0 .5.07.94.23 1.32.15.38.37.67.67.88.3.22.68.32 1.12.32Zm5.45 1.35v-7.64h1.49V23h-1.5Zm.75-8.81a.94.94 0 0 1-.67-.26.84.84 0 0 1-.27-.63c0-.24.1-.45.27-.63a.97.97 0 0 1 .67-.26c.26 0 .48.09.66.26.19.18.28.39.28.63s-.1.45-.28.63a.93.93 0 0 1-.66.26Zm4.22 4.28V23h-1.48v-7.64h1.42v1.25h.1c.17-.4.45-.73.82-.98.38-.24.86-.37 1.43-.37.52 0 .98.11 1.37.33.39.22.7.54.9.97.22.42.33.95.33 1.58V23h-1.49v-4.68c0-.55-.14-.98-.43-1.3a1.53 1.53 0 0 0-1.19-.47c-.34 0-.65.08-.92.23-.26.14-.47.36-.63.65-.15.29-.23.63-.23 1.04Zm10.08 7.55c-.6 0-1.12-.08-1.56-.24a3.03 3.03 0 0 1-1.06-.63 2.66 2.66 0 0 1-.62-.86l1.28-.52a2.1 2.1 0 0 0 .97.88c.26.12.6.17 1.01.17.56 0 1.03-.13 1.4-.4.36-.28.55-.71.55-1.31v-1.5h-.1c-.09.16-.21.34-.38.54s-.4.37-.69.52c-.3.14-.67.22-1.14.22a3 3 0 0 1-2.77-1.68 4.57 4.57 0 0 1-.42-2.06c0-.81.14-1.5.41-2.09.28-.58.66-1.02 1.15-1.33a2.97 2.97 0 0 1 1.64-.47c.47 0 .86.08 1.15.24.3.16.52.34.68.55.17.2.3.4.38.55h.11v-1.24h1.46v7.8c0 .67-.15 1.2-.46 1.62-.3.43-.72.74-1.24.94-.51.2-1.1.3-1.75.3Zm-.01-4.37c.43 0 .79-.1 1.08-.3.3-.2.53-.49.68-.86.16-.38.23-.83.23-1.36 0-.51-.07-.96-.23-1.36a1.79 1.79 0 0 0-1.76-1.24c-.45 0-.82.11-1.12.34-.3.23-.52.55-.68.94a3.93 3.93 0 0 0 .01 2.64 1.82 1.82 0 0 0 1.79 1.2Z"/>
    <rect width="98" height="36" x="360" y="138" fill="#161A1E" rx="18"/>
    <rect width="97" height="35" x="360.5" y="138.5" stroke="#fff" stroke-opacity=".5" rx="17.5"/>
    <g clip-path="url(#f)">
      <path fill="#fff" fill-rule="evenodd" d="M373.63 152.75a1.62 1.62 0 0 0 3.15.54h.1a1.08 1.08 0 0 1 1.08 1.09v3.25a2.17 2.17 0 0 0 2.17 2.16h.09a1.62 1.62 0 1 0 0-1.08h-.1a1.08 1.08 0 0 1-1.08-1.09v-3.25c0-.38-.1-.75-.29-1.08h1.47a1.62 1.62 0 0 0 2.77.5 1.63 1.63 0 1 0-2.77-1.58h-3.44a1.62 1.62 0 0 0-3.15.54Zm7.58 6.5a.54.54 0 0 1 .54-.54.54.54 0 1 1-.54.54Zm0-6.5a.54.54 0 0 1 .54-.54.54.54 0 1 1-.54.54Zm-6.5 0a.54.54 0 0 1 .54-.54.54.54 0 1 1-.54.54Z" clip-rule="evenodd"/>
    </g>
    <path fill="#fff" d="M396.12 161v-10.18h6.31v1.32h-4.78v3.1h4.33v1.32h-4.33V161h-1.53Zm10.81.15c-.75 0-1.4-.16-1.94-.48a3.28 3.28 0 0 1-1.25-1.36 4.63 4.63 0 0 1-.44-2.08c0-.78.14-1.47.44-2.07.3-.6.7-1.06 1.23-1.4a3.72 3.72 0 0 1 3.11-.29 3.03 3.03 0 0 1 1.85 1.87c.19.48.28 1.07.28 1.76v.53h-6.07v-1.11h4.61c0-.4-.08-.74-.24-1.04a1.8 1.8 0 0 0-1.67-.99 1.94 1.94 0 0 0-1.81 1.11 2.3 2.3 0 0 0-.25 1.06v.87c0 .5.09.94.27 1.3.18.35.44.63.76.82.32.18.7.28 1.14.28.28 0 .54-.04.77-.12a1.6 1.6 0 0 0 .99-.97l1.4.25c-.1.41-.31.78-.6 1.09a3 3 0 0 1-1.09.72c-.44.17-.93.25-1.49.25Zm7.15.02a3.1 3.1 0 0 1-1.31-.27 2.2 2.2 0 0 1-.93-.79 2.26 2.26 0 0 1-.34-1.27 2 2 0 0 1 .25-1.06c.17-.28.39-.5.67-.66.28-.16.6-.29.94-.37.35-.08.7-.15 1.07-.19l1.11-.13c.29-.03.5-.1.62-.17.13-.08.2-.21.2-.4v-.03c0-.43-.13-.77-.37-1-.24-.24-.6-.36-1.08-.36-.5 0-.9.1-1.19.33a1.8 1.8 0 0 0-.59.73l-1.4-.32a2.7 2.7 0 0 1 1.84-1.75 4.32 4.32 0 0 1 2.29-.09c.34.07.66.2.96.4.3.18.55.45.74.8.2.35.29.8.29 1.36V161h-1.45v-1.04h-.06c-.1.19-.24.38-.43.56-.2.19-.44.34-.75.47-.3.12-.66.18-1.08.18Zm.32-1.2c.42 0 .77-.07 1.06-.24a1.7 1.7 0 0 0 .9-1.48v-.99a.78.78 0 0 1-.3.15l-.52.12-.56.08-.46.06c-.28.04-.55.1-.79.18-.23.09-.42.21-.56.38a.93.93 0 0 0-.21.63c0 .37.13.65.4.84.28.18.62.28 1.04.28Zm9-6.6v1.19h-4.18v-1.2h4.17Zm-3.06-1.84h1.49v7.23c0 .29.04.5.13.65.08.14.2.24.33.3a1.7 1.7 0 0 0 .77.05l.2-.05.27 1.23a2.92 2.92 0 0 1-2.06-.05 1.87 1.87 0 0 1-.82-.68c-.2-.3-.3-.68-.3-1.14v-7.54Zm9.54 6.3v-4.47h1.49V161h-1.46v-1.32h-.08c-.18.4-.46.75-.85 1.02-.38.27-.86.4-1.44.4a2.27 2.27 0 0 1-2.19-1.3 3.54 3.54 0 0 1-.31-1.58v-4.86h1.48v4.68c0 .52.15.94.44 1.25.29.3.66.46 1.12.46a1.81 1.81 0 0 0 1.8-1.92Zm3.49 3.17v-7.64h1.43v1.22h.08c.14-.41.38-.74.74-.97a2.1 2.1 0 0 1 1.2-.36 7.15 7.15 0 0 1 .63.03v1.43a3.06 3.06 0 0 0-.78-.09c-.35 0-.66.07-.93.22a1.66 1.66 0 0 0-.89 1.5V161h-1.49Zm8.38.15c-.75 0-1.4-.16-1.94-.48a3.28 3.28 0 0 1-1.25-1.36 4.62 4.62 0 0 1-.44-2.08c0-.78.15-1.47.44-2.07.3-.6.7-1.06 1.23-1.4a3.73 3.73 0 0 1 3.11-.29 3.05 3.05 0 0 1 1.85 1.87c.19.48.28 1.07.28 1.76v.53h-6.07v-1.11h4.62c0-.4-.08-.74-.24-1.04a1.8 1.8 0 0 0-1.68-.99 1.94 1.94 0 0 0-1.8 1.11 2.3 2.3 0 0 0-.26 1.06v.87c0 .5.1.94.27 1.3.18.35.44.63.76.82.33.18.7.28 1.14.28.28 0 .54-.04.77-.12a1.59 1.59 0 0 0 .99-.97l1.4.25c-.1.41-.3.78-.6 1.09a3 3 0 0 1-1.09.72c-.43.17-.93.25-1.49.25Z"/>
    <circle cx="23" cy="88" r="9" fill="#161A1E" stroke="#fff" stroke-width="2" transform="rotate(90 23 88)"/>
    <circle cx="143" cy="88" r="9" fill="#161A1E" stroke="#fff" stroke-width="2" transform="rotate(90 143 88)"/>
    <circle cx="263" cy="88" r="9" fill="#161A1E" stroke="#fff" stroke-width="2" transform="rotate(90 263 88)"/>
    <circle cx="383" cy="88" r="9" fill="#161A1E" stroke="#fff" stroke-width="2" transform="rotate(90 383 88)"/>
    <rect width="94" height="36" x="493" y="70" fill="#161A1E" rx="18"/>
    <rect width="93" height="35" x="493.5" y="70.5" stroke="#fff" stroke-opacity=".5" rx="17.5"/>
    <g clip-path="url(#g)">
      <path fill="#fff" fill-rule="evenodd" d="M506.63 84.75a1.62 1.62 0 0 0 3.15.54h.1a1.08 1.08 0 0 1 1.08 1.08v3.25a2.17 2.17 0 0 0 2.17 2.17h.09a1.63 1.63 0 1 0 0-1.08h-.1a1.08 1.08 0 0 1-1.08-1.09v-3.25c0-.38-.1-.75-.29-1.08h1.47a1.62 1.62 0 0 0 2.77.5 1.63 1.63 0 1 0-2.77-1.58h-3.44a1.62 1.62 0 0 0-3.15.54Zm7.58 6.5a.54.54 0 0 1 .54-.54.54.54 0 1 1-.54.54Zm0-6.5a.54.54 0 0 1 .54-.54.54.54 0 1 1-.54.54Zm-6.5 0a.54.54 0 0 1 .54-.54.54.54 0 1 1-.54.54Z" clip-rule="evenodd"/>
    </g>
    <path fill="#fff" d="M529.12 82.82h1.86l3.24 7.91h.12l3.25-7.91h1.86V93h-1.46v-7.37h-.1l-3 7.36h-1.21l-3-7.36h-.1V93h-1.46V82.82Zm14.67 10.35c-.49 0-.92-.1-1.32-.27a2.2 2.2 0 0 1-.93-.79 2.26 2.26 0 0 1-.33-1.27c0-.43.08-.78.24-1.06.17-.28.4-.5.68-.66.28-.17.6-.29.94-.37.35-.08.7-.15 1.06-.19l1.12-.13c.28-.04.49-.1.62-.17.13-.08.2-.21.2-.4v-.03c0-.43-.13-.77-.38-1-.24-.24-.6-.36-1.08-.36-.5 0-.9.1-1.18.33-.29.22-.48.46-.6.73l-1.4-.32a2.7 2.7 0 0 1 1.84-1.75 4.33 4.33 0 0 1 2.3-.09 2.57 2.57 0 0 1 1.7 1.2c.19.35.28.8.28 1.36V93h-1.45v-1.04h-.06a2.31 2.31 0 0 1-1.17 1.03c-.3.12-.66.18-1.08.18Zm.32-1.2c.41 0 .76-.08 1.05-.24a1.7 1.7 0 0 0 .9-1.48v-.99a.78.78 0 0 1-.3.15 4.8 4.8 0 0 1-.51.11 66.13 66.13 0 0 1-1.02.15c-.29.04-.55.1-.8.18-.23.09-.42.21-.56.38a.93.93 0 0 0-.2.63c0 .37.13.65.4.84.27.18.62.28 1.04.28Zm11.15-4.74-1.35.24a1.58 1.58 0 0 0-.27-.5 1.33 1.33 0 0 0-.49-.38c-.2-.1-.46-.15-.77-.15-.42 0-.77.1-1.05.29-.28.18-.42.42-.42.72 0 .25.1.46.28.61.19.16.5.29.91.39l1.22.27c.7.17 1.22.42 1.57.76.34.33.52.77.52 1.31a2 2 0 0 1-.4 1.23 2.6 2.6 0 0 1-1.1.83c-.47.2-1.01.3-1.63.3a3.7 3.7 0 0 1-2.09-.54 2.31 2.31 0 0 1-1-1.57l1.44-.22c.1.38.28.66.55.85.28.2.65.29 1.1.29.48 0 .87-.1 1.16-.3.3-.21.44-.46.44-.76a.78.78 0 0 0-.27-.6 1.76 1.76 0 0 0-.8-.37l-1.3-.28a3.11 3.11 0 0 1-1.58-.78c-.34-.35-.51-.8-.51-1.34 0-.45.13-.85.38-1.19.25-.34.6-.6 1.04-.79.45-.19.95-.29 1.53-.29.82 0 1.47.18 1.95.54.47.36.78.83.94 1.43Zm5.35-1.87v1.2h-4.18v-1.2h4.18Zm-3.06-1.83h1.49v7.23c0 .29.04.5.13.65.08.14.2.24.33.3a1.74 1.74 0 0 0 .77.05l.2-.05.27 1.23a2.91 2.91 0 0 1-2.06-.05 1.87 1.87 0 0 1-.81-.68c-.21-.3-.32-.68-.32-1.14v-7.54Zm7.9 9.62c-.74 0-1.4-.16-1.94-.48a3.27 3.27 0 0 1-1.25-1.37 4.62 4.62 0 0 1-.44-2.07c0-.78.15-1.47.44-2.07.3-.6.7-1.06 1.24-1.4a3.74 3.74 0 0 1 3.11-.29 3.04 3.04 0 0 1 1.85 1.87c.18.48.27 1.07.27 1.76v.53h-6.07v-1.11h4.62c0-.4-.08-.74-.24-1.04a1.8 1.8 0 0 0-1.68-.99c-.41 0-.78.1-1.09.31-.3.2-.55.47-.72.8a2.3 2.3 0 0 0-.24 1.05v.87c0 .52.09.95.26 1.3.19.37.44.64.76.83.33.18.7.28 1.14.28.28 0 .54-.04.77-.12a1.6 1.6 0 0 0 .99-.97l1.41.25c-.11.42-.31.78-.6 1.09-.3.3-.66.55-1.1.72-.43.17-.93.25-1.48.25Zm4.93-.15v-7.64h1.44v1.22h.08c.14-.41.38-.74.74-.97a2.1 2.1 0 0 1 1.2-.36 6.37 6.37 0 0 1 .63.03v1.43a3.04 3.04 0 0 0-.78-.09c-.35 0-.66.07-.93.22a1.66 1.66 0 0 0-.89 1.5V93h-1.49Z"/>
  </g>
  <defs>
    <clipPath id="a">
      <path fill="#fff" d="M0 0h676v174H0z"/>
    </clipPath>
    <clipPath id="e">
      <path fill="#fff" d="M207 11.5v13h13v-13z"/>
    </clipPath>
    <clipPath id="f">
      <path fill="#fff" d="M372 149.5v13h13v-13z"/>
    </clipPath>
    <clipPath id="g">
      <path fill="#fff" d="M505 81.5v13h13v-13z"/>
    </clipPath>
    <linearGradient id="b" x1="0" x2="690.41" y1="88" y2="88.01" gradientUnits="userSpaceOnUse">
      <stop offset=".25" stop-color="#fff"/>
      <stop offset="1" stop-color="#fff" stop-opacity="0"/>
    </linearGradient>
    <linearGradient id="c" x1="505" x2="146.99" y1="158" y2="92.53" gradientUnits="userSpaceOnUse">
      <stop stop-color="#fff" stop-opacity="0"/>
      <stop offset="1" stop-color="#fff"/>
    </linearGradient>
    <linearGradient id="d" x1="317.24" x2="15.93" y1="20.54" y2="80.42" gradientUnits="userSpaceOnUse">
      <stop stop-color="#fff" stop-opacity="0"/>
      <stop offset="1" stop-color="#fff"/>
    </linearGradient>
  </defs>
</svg>
