<svg xmlns="http://www.w3.org/2000/svg" width="600" height="354" fill="none">
  <rect width="92" height="458.5" x="24" fill="#fff" rx="10" shape-rendering="crispEdges"/>
  <rect width="91.27" height="457.77" x="24.36" y=".36" stroke="#D8DDE2" stroke-width=".73" rx="9.64" shape-rendering="crispEdges"/>
  <path fill="#161A1E" d="M63.42 16.33h11.66A1.67 1.67 0 0 1 76.75 18v10a1.67 1.67 0 0 1-1.67 1.67H63.42A1.67 1.67 0 0 1 61.75 28V18a1.67 1.67 0 0 1 1.67-1.67Zm0 3.34V23h5v-3.33h-5Zm6.66 0V23h5v-3.33h-5Zm-6.66 5V28h5v-3.33h-5Zm6.66 0V28h5v-3.33h-5ZM53.82 42.36v-1.09h6.7v1.1h-2.71V50h-1.27v-7.64h-2.72Zm9.32 7.78c-.41 0-.79-.07-1.12-.23a1.9 1.9 0 0 1-.8-.67c-.2-.3-.3-.66-.3-1.09a1.59 1.59 0 0 1 .8-1.48c.24-.14.51-.24.81-.3.3-.08.6-.13.91-.17l.96-.12c.24-.02.42-.07.53-.14.11-.06.17-.18.17-.33v-.04c0-.38-.1-.67-.32-.88-.21-.21-.53-.31-.95-.31-.44 0-.79.1-1.04.28-.25.2-.42.4-.52.64l-1.15-.29a2.32 2.32 0 0 1 1.58-1.48 3.78 3.78 0 0 1 1.92-.07c.29.06.56.17.82.33.26.16.47.39.64.7.16.3.24.69.24 1.17V50h-1.2v-.9h-.04a1.96 1.96 0 0 1-1 .88 2.4 2.4 0 0 1-.94.16Zm.25-1c.37 0 .68-.06.93-.2a1.45 1.45 0 0 0 .78-1.3v-.86a.6.6 0 0 1-.26.13l-.45.1a17.9 17.9 0 0 1-.9.12c-.24.04-.47.09-.68.16-.2.08-.37.18-.5.32a.8.8 0 0 0-.19.56c0 .32.12.57.36.73.24.17.54.25.91.25Zm4.95.86v-8.73h1.22v3.24h.08a5 5 0 0 1 .32-.46 1.8 1.8 0 0 1 1.56-.68 2.54 2.54 0 0 1 2.4 1.56c.24.5.36 1.1.36 1.81 0 .7-.12 1.31-.35 1.82-.24.5-.57.89-.98 1.16-.41.27-.88.4-1.41.4a1.85 1.85 0 0 1-1.57-.67 3.95 3.95 0 0 1-.33-.47h-.1V50h-1.2Zm1.2-3.27c0 .46.07.87.2 1.23.14.35.33.63.6.83.25.2.57.29.94.29.39 0 .71-.1.98-.31.26-.2.45-.49.59-.85.13-.35.2-.75.2-1.2 0-.43-.07-.82-.2-1.17a1.82 1.82 0 0 0-.59-.83c-.26-.2-.59-.3-.98-.3-.38 0-.7.1-.96.29-.25.2-.45.46-.58.8-.13.35-.2.75-.2 1.22Zm7.6-5.46V50H75.9v-8.73h1.22Zm4.71 8.86a3.2 3.2 0 0 1-1.66-.41 2.78 2.78 0 0 1-1.07-1.17c-.25-.5-.37-1.1-.37-1.78a4 4 0 0 1 .37-1.77c.25-.51.6-.91 1.05-1.2a3.23 3.23 0 0 1 2.65-.25 2.52 2.52 0 0 1 1.58 1.59c.16.41.24.92.24 1.51v.45h-5.17v-.94h3.96c0-.34-.06-.64-.2-.9a1.55 1.55 0 0 0-1.47-.87 1.76 1.76 0 0 0-1.58.97c-.14.3-.21.6-.21.93V47c0 .45.07.84.23 1.15a1.73 1.73 0 0 0 1.66.96c.25 0 .47-.03.68-.1a1.4 1.4 0 0 0 .86-.85l1.16.23c-.1.35-.27.65-.52.92a2.5 2.5 0 0 1-.93.6c-.37.15-.79.22-1.26.22ZM70.92 83.67h-5.84V82h5.84m2.5-1.67h-8.34v-1.66h8.34m0-1.67h-8.34v-1.67h8.34M75.08 72H63.42c-.93 0-1.67.74-1.67 1.67v11.66A1.67 1.67 0 0 0 63.42 87h11.66a1.67 1.67 0 0 0 1.67-1.67V73.67A1.67 1.67 0 0 0 75.08 72ZM57.14 98.86v-1.09h6.71v1.1h-2.72v7.63h-1.26v-7.64h-2.73Zm10.17 7.77c-.65 0-1.2-.14-1.67-.41a2.78 2.78 0 0 1-1.07-1.17c-.25-.5-.37-1.1-.37-1.78a4 4 0 0 1 .37-1.77c.25-.51.6-.91 1.06-1.2a3.23 3.23 0 0 1 2.65-.25 2.53 2.53 0 0 1 1.57 1.59c.16.41.24.92.24 1.52v.44h-5.17v-.93h3.97c0-.35-.07-.65-.21-.92a1.56 1.56 0 0 0-1.46-.86c-.37 0-.69.1-.96.27-.27.18-.48.41-.62.7-.15.3-.22.6-.22.93v.71c0 .45.08.83.23 1.15a1.73 1.73 0 0 0 1.67.96c.24 0 .47-.03.67-.1a1.4 1.4 0 0 0 .86-.85l1.16.23c-.1.35-.27.65-.52.92a2.5 2.5 0 0 1-.93.6c-.37.15-.78.22-1.25.22Zm5.2-6.68 1.47 2.58 1.48-2.58h1.35l-2.06 3.28 2.07 3.27h-1.34l-1.5-2.47-1.49 2.47h-1.35l2.04-3.27-2.02-3.28h1.35Zm8.83 0v1H77.8v-1h3.54Zm-2.58-1.56h1.22v6.2c0 .25.04.44.12.57.07.13.17.22.29.26a1.37 1.37 0 0 0 .66.04l.18-.03.23 1.02a2.19 2.19 0 0 1-.81.13c-.33.01-.64-.05-.93-.17a1.63 1.63 0 0 1-.69-.58 1.68 1.68 0 0 1-.27-.98V98.4Z"/>
  <g clip-path="url(#clip1_3235_11340)">
    <path fill="#161A1E" d="M66.44 135.38h9.37a.94.94 0 0 1 0 1.87h-9.37a.94.94 0 0 1 0-1.88Zm0 6.25h9.37a.94.94 0 0 1 0 1.87h-9.37a.94.94 0 0 1 0-1.88Zm-5-12.5h8.12a.94.94 0 0 1 0 1.87h-8.12a.94.94 0 0 1 0-1.88Zm.31 14.37a1.25 1.25 0 1 1 0-2.5 1.25 1.25 0 0 1 0 2.5ZM63 136a1.25 1.25 0 1 1-2.5 0 1.25 1.25 0 0 1 2.5 0Zm12.9-3.85-2.81-3.13a.31.31 0 0 1 .23-.52h5.61a.31.31 0 0 1 .23.52l-2.8 3.13a.31.31 0 0 1-.47 0Z"/>
  </g>
  <path fill="#161A1E" d="M56.55 156.54a1.3 1.3 0 0 0-.58-.95 2.2 2.2 0 0 0-1.26-.34c-.36 0-.68.06-.95.17a1.6 1.6 0 0 0-.62.48c-.14.2-.22.42-.22.67 0 .22.05.4.15.55.1.16.24.28.4.39.16.1.34.19.52.25l.54.17.86.22c.27.07.55.16.84.27.29.12.56.27.8.46a2.03 2.03 0 0 1 .86 1.72 2.35 2.35 0 0 1-1.48 2.21 4.1 4.1 0 0 1-1.74.34c-.65 0-1.2-.1-1.68-.31a2.6 2.6 0 0 1-1.11-.88 2.51 2.51 0 0 1-.45-1.34h1.28c.03.32.13.59.31.8.18.2.42.36.7.46a2.91 2.91 0 0 0 1.95-.03c.3-.12.54-.29.71-.5.17-.22.26-.48.26-.77a.93.93 0 0 0-.23-.64 1.63 1.63 0 0 0-.6-.42c-.25-.1-.53-.2-.84-.3l-1.04-.28a3.89 3.89 0 0 1-1.65-.84 1.81 1.81 0 0 1-.6-1.45c-.01-.5.12-.94.4-1.31a2.7 2.7 0 0 1 1.1-.88c.46-.2.98-.3 1.56-.3.58 0 1.1.1 1.55.3.45.2.8.5 1.07.85.26.36.4.77.4 1.23h-1.21Zm5.82 6.6c-.64 0-1.2-.15-1.66-.42a2.78 2.78 0 0 1-1.07-1.17c-.25-.5-.37-1.1-.37-1.78a4 4 0 0 1 .37-1.77c.25-.51.6-.91 1.06-1.2a3.23 3.23 0 0 1 2.65-.25 2.53 2.53 0 0 1 1.57 1.59c.16.41.24.92.24 1.52v.44H60v-.94h3.97c0-.34-.07-.64-.21-.9a1.56 1.56 0 0 0-1.47-.87 1.76 1.76 0 0 0-1.58.97c-.14.3-.21.6-.21.93v.71c0 .45.07.84.23 1.15a1.73 1.73 0 0 0 1.66.96c.25 0 .47-.04.68-.1a1.4 1.4 0 0 0 .86-.85l1.16.23c-.1.35-.27.65-.52.92a2.5 2.5 0 0 1-.93.6c-.37.15-.79.22-1.26.22Zm5.64-8.87V163h-1.22v-8.73H68Zm4.72 8.86c-.64 0-1.2-.14-1.66-.41a2.78 2.78 0 0 1-1.07-1.17c-.25-.5-.38-1.1-.38-1.78A4 4 0 0 1 70 158c.25-.51.6-.91 1.05-1.2a3.23 3.23 0 0 1 2.65-.25 2.53 2.53 0 0 1 1.57 1.59 4 4 0 0 1 .25 1.52v.44h-5.18v-.94h3.97c0-.34-.07-.64-.2-.9a1.56 1.56 0 0 0-1.47-.87 1.74 1.74 0 0 0-1.58.97c-.14.3-.22.6-.22.93v.71c0 .45.08.84.24 1.15.16.31.38.55.66.72.29.16.62.24 1 .24.24 0 .47-.04.67-.1a1.4 1.4 0 0 0 .86-.85l1.16.23c-.1.35-.27.65-.51.92a2.5 2.5 0 0 1-.93.6c-.37.15-.8.22-1.26.22Zm7.15 0c-.63 0-1.17-.14-1.62-.43-.45-.29-.8-.69-1.05-1.2a4 4 0 0 1-.36-1.74c0-.67.12-1.25.37-1.76s.6-.91 1.05-1.2a2.9 2.9 0 0 1 1.6-.43c.49 0 .92.09 1.31.27a2.3 2.3 0 0 1 1.37 1.9h-1.2a1.41 1.41 0 0 0-1.47-1.13c-.35 0-.67.1-.95.28a2 2 0 0 0-.63.81 3.1 3.1 0 0 0-.22 1.23c0 .48.07.9.22 1.25s.36.63.63.82a1.78 1.78 0 0 0 1.63.16c.2-.1.37-.22.5-.4.14-.16.24-.36.3-.6h1.19a2.38 2.38 0 0 1-1.33 1.9 3 3 0 0 1-1.34.27Zm7.26-6.67v.98H83.6v-.98h3.54Zm-2.58-1.57h1.22v6.2c0 .25.04.44.11.57.08.13.18.22.3.26a1.38 1.38 0 0 0 .66.04l.18-.03.23 1.02-.32.09a2.4 2.4 0 0 1-1.42-.13 1.63 1.63 0 0 1-.7-.58 1.68 1.68 0 0 1-.26-.98v-6.46Z"/>
  <g clip-path="url(#clip2_3235_11340)">
    <path fill="#161A1E" d="M61.75 200a1.6 1.6 0 0 1-1.18-.5 1.6 1.6 0 0 1-.49-1.17v-10a.8.8 0 0 1 .24-.6.8.8 0 0 1 .6-.23.8.8 0 0 1 .59.24.8.8 0 0 1 .24.6v10h13.33a.8.8 0 0 1 .6.23.8.8 0 0 1 .24.6.8.8 0 0 1-.24.59.8.8 0 0 1-.6.24H61.75Zm3.33-3.33a1.6 1.6 0 0 1-1.18-.5 1.6 1.6 0 0 1-.48-1.17v-9.17c0-.46.16-.85.49-1.18a1.6 1.6 0 0 1 1.17-.48h3.48a1.65 1.65 0 0 1 1.17.48l1.19 1.18h5.83c.46 0 .85.17 1.18.5.32.32.49.71.49 1.17v7.5c0 .46-.17.85-.5 1.18a1.6 1.6 0 0 1-1.17.49H65.08Zm0-1.67h11.67v-7.5h-6.52l-1.67-1.67h-3.48V195Zm5.21-2.92-.96-1.25a.4.4 0 0 0-.33-.16.4.4 0 0 0-.33.16l-1.4 1.84c-.11.14-.13.28-.05.43.07.16.2.23.38.23h6.63c.18 0 .3-.07.38-.23a.38.38 0 0 0-.05-.43l-2.02-2.65a.4.4 0 0 0-.33-.17.4.4 0 0 0-.34.17l-1.58 2.06Z"/>
  </g>
  <path fill="#161A1E" d="M53.61 210.77v8.73h-1.27v-8.73h1.27Zm2.03 8.73v-6.54h1.17V214h.08c.14-.36.36-.64.67-.84.3-.2.67-.3 1.1-.3.44 0 .81.1 1.1.3.3.2.52.48.67.84h.06c.16-.34.41-.62.75-.83.34-.2.75-.31 1.22-.31a2 2 0 0 1 1.45.56c.37.37.56.93.56 1.69v4.38h-1.22v-4.3c0-.44-.12-.77-.37-.97-.24-.2-.53-.3-.87-.3-.43 0-.76.13-1 .39-.23.26-.34.59-.34 1v4.18h-1.22v-4.38a1.14 1.14 0 0 0-1.22-1.19c-.25 0-.47.07-.68.2-.21.12-.38.3-.5.53-.13.23-.2.5-.2.8v4.04h-1.21Zm12.66.15c-.42 0-.8-.08-1.13-.24a1.9 1.9 0 0 1-.8-.67 1.9 1.9 0 0 1-.29-1.09c0-.37.07-.68.21-.91.15-.24.34-.43.58-.57.25-.14.52-.24.82-.3.3-.08.6-.13.9-.17l.96-.12c.25-.03.42-.07.54-.14.1-.06.17-.18.17-.33v-.04c0-.38-.11-.67-.32-.88-.22-.21-.53-.31-.95-.31-.44 0-.8.1-1.04.28-.25.2-.43.4-.52.64l-1.15-.29a2.32 2.32 0 0 1 1.58-1.48 3.77 3.77 0 0 1 1.91-.07c.3.06.57.17.83.33s.47.39.63.7c.17.3.25.69.25 1.17v4.34h-1.2v-.9h-.05a1.76 1.76 0 0 1-1 .89c-.26.1-.57.16-.93.16Zm.25-1c.36 0 .67-.07.93-.22a1.5 1.5 0 0 0 .78-1.3v-.85a.6.6 0 0 1-.27.13l-.45.1a16.51 16.51 0 0 1-.89.12 3.5 3.5 0 0 0-.69.16c-.2.08-.37.18-.5.32a.8.8 0 0 0-.18.56c0 .32.12.57.36.73.23.16.54.25.9.25Zm7.56 3.44c-.51 0-.96-.07-1.33-.2a2.6 2.6 0 0 1-.9-.53 2.28 2.28 0 0 1-.53-.72l1.03-.47c.08.12.19.25.32.4.13.14.31.26.54.37.23.1.52.15.88.15a2 2 0 0 0 1.22-.35c.32-.24.48-.62.48-1.14v-1.3h-.08c-.08.14-.18.3-.33.47-.14.17-.33.32-.58.44a2.2 2.2 0 0 1-.99.2 2.7 2.7 0 0 1-1.4-.37 2.6 2.6 0 0 1-.98-1.09 3.86 3.86 0 0 1-.36-1.75c0-.69.12-1.28.35-1.78a2.57 2.57 0 0 1 2.4-1.55c.41 0 .74.07 1 .2.24.14.44.3.58.48.14.18.25.33.32.46h.1v-1.05h1.19v6.7a2.3 2.3 0 0 1-.39 1.37c-.26.37-.6.63-1.05.8-.45.17-.94.26-1.49.26Zm-.01-3.72c.37 0 .68-.08.94-.25.26-.18.46-.43.6-.76.13-.33.2-.72.2-1.18 0-.44-.07-.84-.2-1.18-.13-.34-.33-.6-.59-.8a1.55 1.55 0 0 0-.95-.28c-.4 0-.73.1-.99.3-.26.2-.45.47-.58.82-.14.34-.2.72-.2 1.15 0 .43.07.81.2 1.14.13.33.33.58.6.77.25.18.58.28.97.28Zm7.67 1.26c-.64 0-1.2-.14-1.66-.41a2.78 2.78 0 0 1-1.07-1.17c-.25-.5-.38-1.1-.38-1.78a4 4 0 0 1 .38-1.77c.25-.51.6-.91 1.05-1.2a3.23 3.23 0 0 1 2.65-.25 2.53 2.53 0 0 1 1.57 1.59 4 4 0 0 1 .25 1.52v.44h-5.18v-.94h3.97c0-.34-.07-.64-.2-.9a1.56 1.56 0 0 0-1.47-.87 1.74 1.74 0 0 0-1.58.97c-.15.3-.22.6-.22.93v.71c0 .45.08.84.24 1.15.16.31.38.55.66.72.29.16.62.24 1 .24.24 0 .47-.04.67-.1a1.4 1.4 0 0 0 .86-.85l1.16.23c-.1.35-.27.65-.51.92a2.5 2.5 0 0 1-.93.6c-.37.15-.8.22-1.26.22Z"/>
  <rect width="73" height="48" x="33" y="236" fill="#F3F4F6" rx="4"/>
  <path fill="#161A1E" d="M69.25 256.5a6.46 6.46 0 0 1-4.72-1.93 6.3 6.3 0 0 1-1.95-4.65 6.32 6.32 0 0 1 1.96-4.63l3.83-3.77c.13-.11.27-.2.42-.26.15-.06.3-.1.46-.1a1.36 1.36 0 0 1 .87.36l3.84 3.77a6.9 6.9 0 0 1 1.43 2.08c.35.78.53 1.63.53 2.55 0 1.82-.65 3.37-1.95 4.65a6.46 6.46 0 0 1-4.72 1.93Zm0-1.67V243l-3.54 3.5a4.56 4.56 0 0 0-1.46 3.42c0 1.34.48 2.5 1.46 3.47a4.84 4.84 0 0 0 3.54 1.44Zm-7.57 15.25H60.4a2.08 2.08 0 0 0-1.5-1.65 2.63 2.63 0 0 0-2.17.27c-.4.25-.72.63-.96 1.12-.23.5-.35 1.1-.35 1.82s.12 1.33.35 1.82c.24.5.56.87.96 1.12a2.72 2.72 0 0 0 2.16.26 2.13 2.13 0 0 0 1.5-1.64h1.28a3.45 3.45 0 0 1-1.2 2.12 3.77 3.77 0 0 1-2.38.8 3.8 3.8 0 0 1-2.02-.54 3.75 3.75 0 0 1-1.39-1.54 5.28 5.28 0 0 1-.5-2.4c0-.93.16-1.73.5-2.4a3.7 3.7 0 0 1 1.4-1.55 4 4 0 0 1 3.3-.34 3.4 3.4 0 0 1 1.86 1.5c.21.36.36.77.43 1.23Zm4.41 6.05a2.85 2.85 0 0 1-2.65-1.6c-.25-.5-.38-1.1-.38-1.77 0-.68.13-1.28.38-1.78a2.84 2.84 0 0 1 2.66-1.61 2.82 2.82 0 0 1 2.65 1.6 4 4 0 0 1 .38 1.79c0 .67-.13 1.26-.38 1.77a2.82 2.82 0 0 1-2.66 1.6Zm0-1.03c.42 0 .76-.11 1.02-.32.27-.22.47-.5.6-.86a3.36 3.36 0 0 0 0-2.33 1.9 1.9 0 0 0-.6-.86c-.26-.22-.6-.33-1.01-.33-.41 0-.75.11-1.02.33-.27.21-.47.5-.6.86a3.63 3.63 0 0 0 .01 2.33c.12.36.32.64.6.86.26.21.6.32 1 .32Zm5.89-7.83V276h-1.22v-8.73h1.22Zm4.65 8.86a3 3 0 0 1-1.6-.42 2.9 2.9 0 0 1-1.06-1.18c-.25-.5-.38-1.1-.38-1.77 0-.68.13-1.28.38-1.78a2.84 2.84 0 0 1 2.66-1.61 2.82 2.82 0 0 1 2.65 1.6 4 4 0 0 1 .38 1.79c0 .67-.13 1.26-.38 1.77a2.82 2.82 0 0 1-2.65 1.6Zm0-1.03c.41 0 .75-.11 1.02-.32.26-.22.46-.5.59-.86a3.36 3.36 0 0 0 0-2.33 1.9 1.9 0 0 0-.6-.86 1.5 1.5 0 0 0-1-.33c-.42 0-.76.11-1.03.33-.26.21-.46.5-.6.86a3.63 3.63 0 0 0 .01 2.33c.13.36.33.64.6.86.26.21.6.32 1.01.32Zm4.66.9v-6.55h1.18v1.04h.07c.12-.35.33-.63.63-.83.3-.2.65-.3 1.04-.3a4.99 4.99 0 0 1 .54.02v1.18a3.92 3.92 0 0 0-.66-.07c-.3 0-.57.06-.81.19-.24.13-.43.3-.57.53-.13.22-.2.48-.2.77V276h-1.22Zm-15.37 31.17a.8.8 0 0 1-.6-.24.8.8 0 0 1-.24-.6.8.8 0 0 1 .24-.6.8.8 0 0 1 .6-.23.8.8 0 0 1 .6.24.8.8 0 0 1 .23.6.8.8 0 0 1-.24.59.8.8 0 0 1-.6.24Zm3.33 0a.8.8 0 0 1-.6-.24.8.8 0 0 1-.23-.6.8.8 0 0 1 .24-.6.8.8 0 0 1 .59-.23.8.8 0 0 1 .6.24.8.8 0 0 1 .23.6.8.8 0 0 1-.24.59.8.8 0 0 1-.59.24Zm3.33 0a.8.8 0 0 1-.6-.24.8.8 0 0 1-.23-.6.8.8 0 0 1 .24-.6.8.8 0 0 1 .6-.23.8.8 0 0 1 .59.24.8.8 0 0 1 .24.6.8.8 0 0 1-.24.59.8.8 0 0 1-.6.24Zm-9.16 6.66a1.6 1.6 0 0 1-1.18-.49 1.6 1.6 0 0 1-.49-1.17V300.5c0-.46.16-.85.49-1.18a1.6 1.6 0 0 1 1.18-.49h.83v-1.66h1.67v1.66h6.66v-1.66h1.67v1.66h.83c.46 0 .85.17 1.18.5.33.32.5.71.49 1.17v11.67c0 .45-.16.85-.49 1.17a1.6 1.6 0 0 1-1.18.5H63.42Zm0-1.66h11.66v-8.34H63.42v8.34Zm-4.11 20.33h-2.8v-8.73h2.9c.86 0 1.59.18 2.2.53.6.34 1.08.84 1.4 1.5.33.64.5 1.42.5 2.32 0 .91-.17 1.7-.5 2.35-.33.65-.8 1.15-1.43 1.5-.62.35-1.38.53-2.27.53Zm-1.53-1.1h1.47c.67 0 1.23-.14 1.67-.4a2.4 2.4 0 0 0 1.01-1.1c.22-.5.33-1.08.33-1.78 0-.69-.1-1.27-.33-1.76a2.37 2.37 0 0 0-.98-1.1 3.18 3.18 0 0 0-1.61-.38h-1.56v6.51Zm9.37 1.25c-.42 0-.8-.08-1.13-.23-.33-.16-.6-.39-.8-.68a1.9 1.9 0 0 1-.29-1.09c0-.37.07-.68.21-.91.15-.24.34-.43.58-.57.25-.14.52-.24.82-.3.3-.08.6-.13.9-.17l.96-.12c.25-.02.42-.07.54-.14.1-.06.17-.18.17-.33v-.04c0-.38-.11-.67-.32-.88-.22-.21-.53-.31-.95-.31a1.56 1.56 0 0 0-1.56.93l-1.15-.3a2.32 2.32 0 0 1 1.58-1.48 3.77 3.77 0 0 1 1.91-.07c.3.06.57.17.83.33s.47.39.63.7c.17.3.25.69.25 1.17v4.34h-1.2v-.9h-.05c-.08.17-.2.32-.36.49a2 2 0 0 1-.64.4c-.26.1-.57.15-.93.15Zm.25-1c.36 0 .67-.07.93-.21a1.5 1.5 0 0 0 .78-1.3v-.86a.6.6 0 0 1-.27.13l-.45.1a16.52 16.52 0 0 1-.9.12 3.5 3.5 0 0 0-.68.16c-.2.07-.37.18-.5.32a.8.8 0 0 0-.18.56c0 .32.12.57.35.73.24.17.55.25.92.25Zm7.85-5.7v1h-3.54v-1h3.54Zm-2.57-1.56h1.22v6.2c0 .25.04.44.1.57.09.13.18.22.3.26a1.38 1.38 0 0 0 .66.04l.18-.03.23 1.02-.31.09c-.14.03-.3.04-.5.04-.33.01-.63-.05-.92-.17a1.63 1.63 0 0 1-.7-.58 1.68 1.68 0 0 1-.26-.98v-6.46Zm6.92 8.24c-.65 0-1.2-.14-1.67-.41a2.78 2.78 0 0 1-1.07-1.17c-.25-.5-.37-1.1-.37-1.78a4 4 0 0 1 .37-1.77c.25-.51.6-.91 1.06-1.2a3.23 3.23 0 0 1 2.65-.25 2.53 2.53 0 0 1 1.57 1.59c.16.41.24.92.24 1.51v.45h-5.17v-.94h3.97c0-.34-.07-.64-.21-.9a1.56 1.56 0 0 0-1.46-.87c-.37 0-.69.1-.96.27-.27.18-.48.41-.62.7-.15.3-.22.6-.22.93v.71c0 .45.08.83.23 1.15a1.73 1.73 0 0 0 1.66.96c.25 0 .48-.04.68-.1a1.4 1.4 0 0 0 .86-.85l1.16.23c-.1.35-.27.65-.52.92a2.5 2.5 0 0 1-.93.6c-.37.15-.79.22-1.25.22Z"/>
  <rect width="192" height="281.46" x="136" fill="#fff" rx="10"/>
  <rect width="191.27" height="280.74" x="136.36" y=".36" stroke="#D8DDE2" stroke-width=".73" rx="9.64"/>
  <rect width="77" height="24" x="149" y="11.5" fill="#00B442" fill-opacity=".1" rx="4"/>
  <path fill="#10B981" d="M164.07 21.64c-.04-.4-.22-.71-.54-.94a2.1 2.1 0 0 0-1.24-.33c-.36 0-.66.05-.92.16-.25.1-.45.25-.59.44a1.06 1.06 0 0 0-.07 1.14c.1.15.22.27.37.37.16.1.33.18.52.25.2.07.39.12.58.17l.89.22c.36.08.7.2 1.03.34.33.14.63.32.89.53.26.22.47.48.63.78.15.3.23.67.23 1.08a2.56 2.56 0 0 1-1.66 2.44 4.8 4.8 0 0 1-1.93.35c-.73 0-1.37-.11-1.91-.34a2.86 2.86 0 0 1-1.27-1 3 3 0 0 1-.49-1.6h1.69c.02.34.12.61.3.83.18.22.41.38.7.49a2.94 2.94 0 0 0 1.95-.01c.28-.11.5-.27.66-.47.16-.2.24-.44.25-.7a.9.9 0 0 0-.22-.62 1.5 1.5 0 0 0-.6-.4 6 6 0 0 0-.88-.3l-1.08-.28c-.78-.2-1.4-.5-1.85-.9a2.1 2.1 0 0 1-.67-1.64c0-.55.15-1.04.45-1.46.3-.42.72-.74 1.24-.97a4.32 4.32 0 0 1 1.78-.35c.67 0 1.26.11 1.76.35.51.23.91.55 1.2.96.29.41.44.88.45 1.41h-1.65Zm4.9 2.7v4.16h-1.67v-7.1h1.6v1.21h.08c.17-.4.43-.7.78-.94.36-.24.8-.35 1.34-.35.49 0 .91.1 1.28.31.36.21.64.51.84.91.2.4.3.88.3 1.45v4.51h-1.67v-4.26c0-.47-.12-.84-.37-1.1a1.3 1.3 0 0 0-1-.41 1.48 1.48 0 0 0-1.32.74c-.13.24-.19.53-.19.88Zm9.4 4.3c-.72 0-1.33-.15-1.85-.44a3 3 0 0 1-1.19-1.27 4.24 4.24 0 0 1-.41-1.93c0-.73.14-1.37.41-1.92a3.15 3.15 0 0 1 2.94-1.76c.44 0 .85.07 1.24.2a2.84 2.84 0 0 1 1.74 1.77c.18.45.26.99.26 1.6v.52h-5.8V24.3h4.2c0-.32-.07-.61-.2-.86a1.52 1.52 0 0 0-.57-.6 1.6 1.6 0 0 0-.84-.21 1.67 1.67 0 0 0-1.5.89c-.15.27-.22.56-.22.88v.98c0 .41.07.77.22 1.06.15.3.36.52.63.68a2.18 2.18 0 0 0 1.61.13c.2-.08.37-.18.52-.31.14-.14.25-.3.33-.5l1.56.17c-.1.41-.29.77-.57 1.08-.27.3-.62.54-1.05.7-.43.18-.92.26-1.47.26Zm6.6 0c-.45 0-.85-.08-1.22-.24-.35-.16-.63-.4-.84-.72-.21-.31-.31-.7-.31-1.17a2 2 0 0 1 .22-1c.15-.25.35-.46.6-.62.26-.16.55-.28.87-.36a7 7 0 0 1 1-.18l1-.11c.27-.04.46-.1.57-.17.12-.07.18-.2.18-.35v-.03c0-.35-.1-.62-.3-.8-.21-.2-.51-.3-.9-.3-.4 0-.73.1-.97.27-.24.18-.4.4-.48.64l-1.56-.23a2.5 2.5 0 0 1 1.64-1.73 4.43 4.43 0 0 1 2.38-.1c.34.08.65.2.93.4a2 2 0 0 1 .68.74c.17.31.25.7.25 1.17v4.75h-1.6v-.97h-.06a2.02 2.02 0 0 1-1.12.96c-.27.1-.6.15-.96.15Zm.43-1.22c.34 0 .63-.07.88-.2.24-.14.43-.32.56-.54.14-.22.2-.46.2-.72v-.84a.79.79 0 0 1-.26.12 13.27 13.27 0 0 1-1.26.23c-.26.03-.48.09-.68.16-.2.08-.35.19-.46.33a.79.79 0 0 0-.17.52c0 .31.11.54.33.7.23.16.52.24.86.24Zm6.52-1.15v-2.01h.26l2.55-2.85h1.95l-3.13 3.49h-.35l-1.28 1.37Zm-1.53 2.23v-9.45h1.68v9.45h-1.68Zm4.45 0-2.3-3.23 1.12-1.17 3.18 4.4h-2Zm5.8.14c-.7 0-1.32-.15-1.84-.44a3 3 0 0 1-1.19-1.27 4.24 4.24 0 0 1-.41-1.93c0-.73.14-1.37.41-1.92a3.14 3.14 0 0 1 2.94-1.76c.44 0 .85.07 1.24.2a3.02 3.02 0 0 1 1.75 1.76c.17.46.25 1 .25 1.62v.51H198V24.3h4.2c0-.32-.07-.61-.2-.86a1.52 1.52 0 0 0-1.41-.81 1.7 1.7 0 0 0-1.5.9 1.7 1.7 0 0 0-.22.87v.98c0 .41.07.77.22 1.06.15.3.36.52.63.68a2 2 0 0 0 .95.23c.25 0 .47-.04.67-.1.2-.08.36-.18.5-.31.15-.14.26-.3.34-.5l1.56.17c-.1.41-.29.77-.57 1.08-.27.3-.62.54-1.05.7-.43.18-.92.26-1.47.26Zm4.57-.14v-7.1h1.62v1.2h.07a1.77 1.77 0 0 1 1.75-1.3 3.81 3.81 0 0 1 .6.05v1.54a3.1 3.1 0 0 0-.77-.1c-.3 0-.58.07-.82.2a1.46 1.46 0 0 0-.78 1.34v4.17h-1.67Zm10.76-5.22-1.53.17a1.1 1.1 0 0 0-.22-.43c-.1-.14-.25-.25-.43-.33-.17-.09-.4-.13-.65-.13-.35 0-.64.08-.88.23-.23.15-.35.35-.34.59 0 .2.07.37.22.5.16.13.42.23.78.32l1.2.26c.68.14 1.17.37 1.5.68.33.32.5.73.5 1.24 0 .44-.13.84-.4 1.18-.25.34-.6.6-1.06.8-.45.18-.98.28-1.57.28-.87 0-1.56-.18-2.1-.55a2.19 2.19 0 0 1-.94-1.52l1.63-.16c.07.32.23.56.47.72.24.17.55.25.94.25.4 0 .71-.08.95-.25.25-.16.37-.36.37-.6 0-.2-.08-.37-.24-.5-.15-.14-.4-.24-.72-.3l-1.2-.26a2.87 2.87 0 0 1-1.52-.72 1.76 1.76 0 0 1-.48-1.28c0-.44.11-.82.35-1.14a2.4 2.4 0 0 1 1.02-.75c.43-.17.93-.26 1.5-.26.83 0 1.48.17 1.96.53.48.35.77.83.89 1.43Z"/>
  <rect width="166" height="36.99" x="149" y="47.5" fill="#F3F4F6" rx="4"/>
  <circle cx="158" cy="63" r="1" fill="#59636D"/>
  <circle cx="161" cy="63" r="1" fill="#59636D"/>
  <circle cx="158" cy="66" r="1" fill="#59636D"/>
  <circle cx="161" cy="66" r="1" fill="#59636D"/>
  <circle cx="158" cy="69" r="1" fill="#59636D"/>
  <circle cx="161" cy="69" r="1" fill="#59636D"/>
  <g clip-path="url(#clip3_3235_11340)">
    <path fill="#161A1E" d="M171.5 73.5a1.6 1.6 0 0 1-1.18-.5 1.6 1.6 0 0 1-.49-1.17v-10a.8.8 0 0 1 .24-.6.8.8 0 0 1 .6-.23.8.8 0 0 1 .59.24.8.8 0 0 1 .24.59v10h13.33a.8.8 0 0 1 .6.24.8.8 0 0 1 .23.6.8.8 0 0 1-.23.59.8.8 0 0 1-.6.24H171.5Zm3.33-3.34a1.6 1.6 0 0 1-1.18-.49 1.6 1.6 0 0 1-.49-1.17v-9.17c0-.46.17-.85.5-1.18a1.6 1.6 0 0 1 1.17-.49h3.48a1.65 1.65 0 0 1 1.17.48l1.19 1.19h5.83c.46 0 .85.16 1.18.49.32.33.49.72.48 1.18v7.5c0 .45-.16.85-.48 1.17a1.6 1.6 0 0 1-1.18.5h-11.67Zm0-1.66h11.67V61h-6.52l-1.67-1.67h-3.48v9.17Zm5.21-2.92-.96-1.25a.4.4 0 0 0-.33-.17.4.4 0 0 0-.34.17l-1.39 1.83a.38.38 0 0 0-.05.44c.07.15.2.23.38.23h6.63a.4.4 0 0 0 .38-.23.38.38 0 0 0-.05-.44l-2.02-2.64a.4.4 0 0 0-.33-.17.4.4 0 0 0-.34.17l-1.58 2.06Z"/>
  </g>
  <path fill="#161A1E" d="M196.98 69v-8.73h3.08c.68 0 1.24.12 1.68.37.45.25.78.58 1 1.01.22.42.32.9.32 1.43 0 .53-.1 1.01-.32 1.44-.22.43-.55.76-1 1.01-.44.25-1 .37-1.68.37h-2.14v-1.08h2.04c.43 0 .79-.08 1.06-.23.27-.15.46-.35.59-.61.13-.27.19-.57.19-.9 0-.33-.06-.63-.2-.88a1.35 1.35 0 0 0-.59-.62 2.25 2.25 0 0 0-1.07-.22h-1.7V69h-1.26Zm7.73 0v-6.55h1.18v1.03h.07c.12-.34.33-.62.64-.82.3-.2.65-.3 1.03-.3a5.37 5.37 0 0 1 .54.02v1.18a3.38 3.38 0 0 0-.65-.08c-.3 0-.58.07-.82.2-.23.12-.42.3-.56.52-.14.23-.2.48-.2.77V69h-1.23Zm7.28.13c-.6 0-1.14-.14-1.6-.42-.45-.28-.8-.68-1.06-1.18a3.99 3.99 0 0 1-.38-1.78c0-.68.13-1.27.38-1.78a2.85 2.85 0 0 1 2.66-1.6 2.8 2.8 0 0 1 2.65 1.6c.26.51.38 1.1.38 1.78 0 .68-.12 1.27-.38 1.78a2.83 2.83 0 0 1-2.65 1.6Zm0-1.04c.41 0 .75-.1 1.02-.32.26-.21.46-.5.59-.85a3.42 3.42 0 0 0 0-2.33 1.9 1.9 0 0 0-.6-.87c-.26-.21-.6-.32-1-.32-.42 0-.76.1-1.03.32-.26.22-.46.5-.6.87-.12.35-.18.74-.18 1.16 0 .42.06.81.19 1.17.13.35.33.64.6.85.26.22.6.32 1.01.32Zm7.12 1.03a2.53 2.53 0 0 1-2.4-1.57 4.28 4.28 0 0 1-.35-1.81c0-.7.12-1.3.35-1.81.24-.5.57-.9.99-1.16.41-.27.89-.4 1.42-.4.4 0 .74.06.98.2.25.14.44.3.58.47.14.18.25.34.32.47h.08v-3.24h1.22V69h-1.2v-1.02h-.1c-.07.13-.18.3-.33.47a1.85 1.85 0 0 1-1.56.67Zm.25-1.04c.37 0 .69-.1.95-.3.26-.2.45-.47.59-.83.13-.35.2-.76.2-1.23 0-.46-.07-.86-.2-1.2a1.55 1.55 0 0 0-1.54-1.1c-.4 0-.72.1-.98.3-.26.2-.46.47-.6.82a3.65 3.65 0 0 0 .01 2.38c.14.36.34.64.6.84.26.21.58.32.97.32Zm9.11-1.79v-3.84h1.23V69h-1.2v-1.13h-.07c-.16.34-.4.63-.73.87-.32.23-.73.34-1.23.34-.41 0-.78-.1-1.1-.28a1.92 1.92 0 0 1-.77-.82 3.05 3.05 0 0 1-.27-1.37v-4.16h1.22v4.03c0 .45.13.81.38 1.08s.58.4.97.4a1.6 1.6 0 0 0 1.33-.73c.16-.25.24-.56.24-.94Zm5.88 2.84c-.63 0-1.17-.15-1.63-.43-.45-.3-.8-.7-1.04-1.2a4 4 0 0 1-.37-1.75c0-.66.13-1.25.38-1.76.25-.5.6-.9 1.05-1.2.45-.28.98-.42 1.6-.42.48 0 .92.09 1.3.27a2.3 2.3 0 0 1 1.37 1.9h-1.19a1.41 1.41 0 0 0-1.47-1.13 1.63 1.63 0 0 0-1.58 1.08 3.1 3.1 0 0 0-.22 1.23c0 .49.07.9.22 1.26.15.35.36.62.63.81.27.2.6.3.96.3.24 0 .47-.05.67-.14a1.37 1.37 0 0 0 .8-1h1.19a2.38 2.38 0 0 1-1.33 1.9 3 3 0 0 1-1.34.28Zm7.26-6.68v.99h-3.54v-.99h3.54Zm-2.58-1.57h1.22v6.2c0 .26.04.45.11.58.08.13.18.21.3.26a1.44 1.44 0 0 0 .66.04l.18-.03.23 1.02-.32.08c-.13.04-.3.05-.5.05-.32 0-.63-.05-.92-.18a1.63 1.63 0 0 1-.7-.57 1.68 1.68 0 0 1-.26-.98v-6.47ZM246.6 69v-6.55h1.22V69h-1.22Zm.62-7.58a.8.8 0 0 1-.56-.21.7.7 0 0 1-.23-.53c0-.2.08-.38.23-.52a.78.78 0 0 1 .56-.22c.22 0 .4.07.56.22a.7.7 0 0 1 .23.52.7.7 0 0 1-.23.53.78.78 0 0 1-.56.21Zm2.52 7.58v-6.55h1.17v1.06h.08c.14-.36.36-.64.67-.84.3-.2.68-.3 1.1-.3.44 0 .81.1 1.1.3.3.2.52.48.67.84h.06c.16-.35.41-.63.75-.83.34-.21.75-.31 1.22-.31.59 0 1.07.18 1.45.55.37.37.56.94.56 1.7V69h-1.22v-4.3c0-.45-.12-.77-.37-.97-.24-.2-.53-.3-.87-.3-.43 0-.76.13-1 .38-.23.26-.34.6-.34 1V69h-1.22v-4.38c0-.36-.12-.65-.34-.87a1.21 1.21 0 0 0-.88-.32c-.25 0-.47.06-.68.2-.21.12-.38.3-.5.53a1.6 1.6 0 0 0-.2.79V69h-1.21Zm12.66.14c-.42 0-.8-.08-1.13-.23a1.9 1.9 0 0 1-.8-.68 1.9 1.9 0 0 1-.29-1.08c0-.38.07-.68.21-.92.15-.23.34-.42.58-.56.25-.14.52-.24.82-.31.3-.07.6-.13.9-.17l.96-.11c.25-.03.43-.08.54-.14.11-.07.17-.18.17-.34v-.03c0-.38-.11-.67-.32-.88-.22-.21-.53-.32-.95-.32a1.63 1.63 0 0 0-1.56.93l-1.15-.29a2.3 2.3 0 0 1 1.58-1.48 3.77 3.77 0 0 1 1.91-.08c.3.06.57.17.83.33s.47.4.63.7c.17.3.25.7.25 1.18V69h-1.2v-.9h-.05a1.88 1.88 0 0 1-1 .88c-.25.1-.57.16-.93.16Zm.25-1c.36 0 .67-.07.93-.2.25-.15.45-.34.58-.57.13-.23.2-.47.2-.73v-.87a.6.6 0 0 1-.27.13 18.68 18.68 0 0 1-1.34.23c-.25.03-.48.09-.69.16-.2.07-.37.18-.5.32a.8.8 0 0 0-.18.56c0 .32.12.56.36.73.24.16.54.24.9.24Zm7.56 3.45c-.51 0-.96-.07-1.33-.2a2.6 2.6 0 0 1-.9-.54 2.3 2.3 0 0 1-.53-.71l1.04-.47c.07.12.18.25.31.4.13.14.31.26.54.36.23.1.52.16.88.16.5 0 .9-.12 1.22-.36.32-.24.48-.62.48-1.14v-1.3h-.08c-.08.14-.18.3-.33.47-.14.17-.33.32-.58.45-.25.13-.58.19-.99.19a2.6 2.6 0 0 1-2.38-1.45 3.87 3.87 0 0 1-.36-1.76c0-.68.12-1.28.35-1.77a2.57 2.57 0 0 1 2.4-1.55c.41 0 .74.06 1 .2a2.16 2.16 0 0 1 .9.94h.1v-1.06h1.19v6.7a2.3 2.3 0 0 1-.39 1.38c-.26.36-.6.63-1.05.8-.44.17-.94.26-1.49.26Zm-.01-3.72c.37 0 .69-.09.94-.26.26-.17.46-.43.6-.75.13-.33.2-.72.2-1.18 0-.45-.07-.84-.2-1.18-.13-.34-.33-.6-.59-.8a1.55 1.55 0 0 0-.95-.29c-.4 0-.72.1-.99.3-.26.2-.45.48-.58.82-.13.35-.2.73-.2 1.15 0 .44.07.82.2 1.15a1.63 1.63 0 0 0 1.57 1.04Zm7.67 1.26a3.2 3.2 0 0 1-1.66-.42 2.78 2.78 0 0 1-1.07-1.17c-.25-.5-.38-1.1-.38-1.77a4 4 0 0 1 .38-1.78c.25-.5.6-.9 1.05-1.2a3.23 3.23 0 0 1 2.65-.25 2.69 2.69 0 0 1 1.58 1.59c.16.42.24.92.24 1.52v.45h-5.18v-.94h3.97c0-.34-.07-.64-.2-.91a1.56 1.56 0 0 0-1.47-.86c-.37 0-.68.09-.95.27-.27.18-.48.41-.63.7-.14.29-.22.6-.22.93V66c0 .45.08.83.24 1.15.16.3.38.55.66.71.29.16.62.25 1 .25.25 0 .47-.04.67-.1a1.4 1.4 0 0 0 .86-.85l1.16.23a2.28 2.28 0 0 1-1.44 1.52c-.37.15-.8.22-1.26.22Z"/>
  <path fill="#59636D" fill-rule="evenodd" d="M299.33 70.17a5.33 5.33 0 1 0 0-10.67 5.33 5.33 0 0 0 0 10.67Zm1.75-7.92a.6.6 0 0 1 .84.84l-1.75 1.74 1.75 1.75a.6.6 0 1 1-.84.84l-1.75-1.75-1.75 1.75a.6.6 0 1 1-.83-.84l1.75-1.75-1.75-1.74a.6.6 0 0 1 .83-.84l1.75 1.75 1.75-1.75Z" clip-rule="evenodd"/>
  <rect width="166" height="36.99" x="149" y="92.99" fill="#F3F4F6" rx="4"/>
  <circle cx="158" cy="108.49" r="1" fill="#59636D"/>
  <circle cx="161" cy="108.49" r="1" fill="#59636D"/>
  <circle cx="158" cy="111.49" r="1" fill="#59636D"/>
  <circle cx="161" cy="111.49" r="1" fill="#59636D"/>
  <circle cx="158" cy="114.49" r="1" fill="#59636D"/>
  <circle cx="161" cy="114.49" r="1" fill="#59636D"/>
  <path fill="#161A1E" d="M176.19 110.86h9.37a.94.94 0 1 1 0 1.88h-9.37a.94.94 0 1 1 0-1.88Zm0 6.25h9.37a.94.94 0 1 1 0 1.88h-9.37a.94.94 0 1 1 0-1.88Zm-5-12.5h8.12a.94.94 0 1 1 0 1.88h-8.12a.94.94 0 1 1 0-1.88Zm.31 14.38a1.25 1.25 0 1 1 0-2.5 1.25 1.25 0 0 1 0 2.5Zm1.25-7.5a1.25 1.25 0 0 1-2.13.88 1.25 1.25 0 0 1 .88-2.13 1.25 1.25 0 0 1 1.25 1.25Zm12.9-3.85-2.81-3.13a.31.31 0 0 1 .23-.52h5.61a.31.31 0 0 1 .23.52l-2.8 3.13a.32.32 0 0 1-.24.1.32.32 0 0 1-.23-.1Zm16.09.39a1.3 1.3 0 0 0-.58-.95 2.2 2.2 0 0 0-1.26-.34c-.36 0-.68.06-.94.17-.27.12-.48.27-.63.48-.14.2-.21.42-.21.67 0 .22.05.4.15.55.1.16.23.28.4.39a4.45 4.45 0 0 0 1.05.41l.86.23c.27.06.55.16.84.27.29.12.56.27.81.46s.46.42.61.7c.16.28.24.62.24 1.02 0 .48-.13.92-.38 1.3a2.5 2.5 0 0 1-1.1.91 4.1 4.1 0 0 1-1.73.33c-.65 0-1.21-.1-1.69-.3a2.6 2.6 0 0 1-1.11-.88 2.52 2.52 0 0 1-.44-1.34h1.28c.02.32.12.58.3.8.19.2.42.36.7.46a2.95 2.95 0 0 0 1.96-.03c.3-.12.53-.29.7-.5.18-.22.26-.48.26-.77a.93.93 0 0 0-.22-.64 1.62 1.62 0 0 0-.6-.42c-.26-.11-.54-.2-.85-.3l-1.04-.28c-.7-.2-1.24-.47-1.65-.84-.4-.37-.6-.85-.6-1.45 0-.5.13-.94.4-1.31a2.7 2.7 0 0 1 1.1-.88c.47-.2.99-.3 1.56-.3.59 0 1.1.1 1.55.3.46.2.81.49 1.07.85s.4.77.41 1.23h-1.22Zm4.24 2.56v3.9h-1.22v-8.73h1.2V109h.1c.14-.35.37-.63.69-.83.31-.2.72-.31 1.23-.31.45 0 .84.09 1.18.28.34.18.6.45.79.82.18.36.28.82.27 1.37v4.16H209v-4.03c0-.49-.12-.86-.38-1.13-.25-.27-.6-.4-1.04-.4-.3 0-.58.06-.83.19-.23.13-.42.32-.56.57-.14.25-.2.55-.21.9Zm8.9 4.03a2.85 2.85 0 0 1-2.65-1.6 3.7 3.7 0 0 1-.4-1.77c0-.68.13-1.28.39-1.78a2.84 2.84 0 0 1 2.65-1.61 2.81 2.81 0 0 1 2.66 1.6 4 4 0 0 1 .38 1.79c0 .67-.13 1.26-.38 1.77a2.82 2.82 0 0 1-2.66 1.6Zm0-1.04c.4 0 .74-.1 1.01-.31a2 2 0 0 0 .6-.86 3.62 3.62 0 0 0-.01-2.33 1.9 1.9 0 0 0-.59-.86c-.27-.22-.6-.33-1.01-.33-.42 0-.76.1-1.02.33-.27.21-.47.5-.6.86a3.36 3.36 0 0 0 0 2.33c.13.35.33.64.6.86.26.2.6.31 1.02.31Zm7.46 1.04c-.64 0-1.2-.14-1.66-.41a2.79 2.79 0 0 1-1.07-1.17 3.99 3.99 0 0 1-.37-1.78 4 4 0 0 1 .37-1.77c.25-.52.6-.91 1.05-1.2a3.24 3.24 0 0 1 2.65-.25 2.52 2.52 0 0 1 1.58 1.59c.16.41.24.92.24 1.51v.45h-5.17v-.94h3.96c0-.34-.07-.64-.2-.9a1.56 1.56 0 0 0-1.47-.87c-.36 0-.68.09-.95.27a1.85 1.85 0 0 0-.84 1.63v.71c0 .45.07.83.23 1.15.16.31.38.55.66.72a2.3 2.3 0 0 0 1.67.14 1.4 1.4 0 0 0 .86-.85l1.16.23c-.1.35-.26.65-.51.91a2.4 2.4 0 0 1-.93.61c-.37.15-.79.22-1.26.22Zm12.67-5.1-1.1.2a1.38 1.38 0 0 0-.23-.41 1.2 1.2 0 0 0-.43-.34c-.18-.09-.4-.13-.67-.13-.37 0-.68.08-.93.25-.24.16-.37.38-.37.63 0 .23.09.4.25.55.17.13.44.24.8.33l1.03.24c.6.14 1.05.35 1.34.64.3.3.44.67.44 1.13 0 .39-.11.73-.34 1.04-.22.3-.54.54-.93.71-.4.18-.86.26-1.38.26-.73 0-1.31-.15-1.77-.46a1.97 1.97 0 0 1-.85-1.33l1.18-.2c.08.33.24.58.48.75.24.16.56.24.94.24.43 0 .78-.09 1.03-.27.26-.18.38-.4.38-.65a.7.7 0 0 0-.23-.53 1.52 1.52 0 0 0-.7-.32l-1.1-.25a2.61 2.61 0 0 1-1.35-.66c-.29-.3-.43-.7-.43-1.15 0-.39.1-.72.32-1.01.21-.3.5-.52.88-.68.38-.16.81-.24 1.3-.24.7 0 1.24.15 1.64.45.4.3.67.7.8 1.2Zm1.73 4.97v-6.55h1.22v6.55h-1.22Zm.62-7.57a.8.8 0 0 1-.56-.22.7.7 0 0 1-.23-.53c0-.2.08-.37.23-.52a.78.78 0 0 1 .56-.22c.21 0 .4.07.55.22a.7.7 0 0 1 .23.52.7.7 0 0 1-.23.53.78.78 0 0 1-.55.22Zm2.36 7.57v-.85l3.58-4.56v-.06h-3.46v-1.08h5v.9l-3.46 4.51v.07h3.57v1.07h-5.23Zm9.55.13c-.64 0-1.2-.14-1.66-.41a2.79 2.79 0 0 1-1.07-1.17 3.99 3.99 0 0 1-.38-1.78 4 4 0 0 1 .38-1.77c.25-.52.6-.91 1.05-1.2a3.24 3.24 0 0 1 2.65-.25 2.53 2.53 0 0 1 1.57 1.59c.17.41.25.92.25 1.51v.45h-5.18v-.94h3.97c0-.34-.07-.64-.2-.9a1.55 1.55 0 0 0-1.47-.87c-.37 0-.68.09-.95.27-.27.18-.48.41-.63.7-.14.29-.22.6-.22.93v.71c0 .45.08.83.24 1.15.16.31.38.55.66.72a2 2 0 0 0 1 .24c.24 0 .47-.04.67-.1a1.4 1.4 0 0 0 .86-.85l1.16.23c-.1.35-.27.65-.51.91a2.5 2.5 0 0 1-.93.61c-.37.15-.8.22-1.26.22Z"/>
  <path fill="#59636D" fill-rule="evenodd" d="M299.33 115.66a5.33 5.33 0 1 0 0-10.67 5.33 5.33 0 0 0 0 10.67Zm1.75-7.92a.6.6 0 0 1 .84.84l-1.75 1.75 1.75 1.74a.6.6 0 1 1-.84.84l-1.75-1.75-1.75 1.75a.6.6 0 0 1-.83-.84l1.75-1.74-1.75-1.75a.6.6 0 0 1 .83-.84l1.75 1.75 1.75-1.75Z" clip-rule="evenodd"/>
  <rect width="166" height="36.99" x="149" y="138.49" fill="#F3F4F6" rx="4"/>
  <circle cx="158" cy="153.98" r="1" fill="#59636D"/>
  <circle cx="161" cy="153.98" r="1" fill="#59636D"/>
  <circle cx="158" cy="156.98" r="1" fill="#59636D"/>
  <circle cx="161" cy="156.98" r="1" fill="#59636D"/>
  <circle cx="158" cy="159.98" r="1" fill="#59636D"/>
  <circle cx="161" cy="159.98" r="1" fill="#59636D"/>
  <path fill="#161A1E" d="M180.67 161.15h-5.84v-1.67h5.84m2.5-1.66h-8.34v-1.67h8.34m0-1.67h-8.34v-1.66h8.34m1.66-3.34h-11.66c-.93 0-1.67.74-1.67 1.67v11.66a1.67 1.67 0 0 0 1.67 1.67h11.66a1.67 1.67 0 0 0 1.67-1.66v-11.67a1.67 1.67 0 0 0-1.67-1.67Zm14.95 10.5h-2.8v-8.73h2.9c.85 0 1.58.18 2.19.53.6.34 1.08.84 1.4 1.5.33.64.5 1.42.5 2.32 0 .91-.17 1.7-.5 2.35a3.4 3.4 0 0 1-1.43 1.5c-.62.36-1.38.53-2.26.53Zm-1.53-1.1h1.46c.67 0 1.23-.13 1.68-.39.45-.26.78-.63 1-1.12.22-.48.33-1.07.33-1.77 0-.69-.1-1.27-.32-1.75a2.36 2.36 0 0 0-.98-1.1 3.18 3.18 0 0 0-1.62-.39h-1.55v6.51Zm10.26 1.23a3.2 3.2 0 0 1-1.67-.41 2.77 2.77 0 0 1-1.07-1.17c-.25-.5-.37-1.1-.37-1.77a4 4 0 0 1 .37-1.78c.25-.51.6-.91 1.06-1.2a3.2 3.2 0 0 1 2.65-.25 2.64 2.64 0 0 1 1.57 1.59c.16.41.24.92.24 1.52v.44h-5.17v-.93h3.97c0-.34-.07-.65-.21-.92a1.55 1.55 0 0 0-1.46-.86c-.37 0-.69.1-.96.27-.27.18-.48.42-.62.7-.15.3-.22.6-.22.93v.72c0 .44.08.83.23 1.14a1.73 1.73 0 0 0 1.66.96c.25 0 .48-.03.68-.1a1.4 1.4 0 0 0 .86-.85l1.16.23c-.1.35-.27.66-.52.92s-.56.46-.93.6c-.37.15-.78.22-1.25.22Zm9.26-5.1-1.1.21a1.36 1.36 0 0 0-.23-.42c-.1-.14-.25-.25-.43-.34-.18-.09-.4-.13-.67-.13-.37 0-.68.08-.93.25-.24.17-.36.38-.36.64 0 .22.08.4.24.54.17.13.44.24.8.33l1.03.24c.6.14 1.05.35 1.34.65.3.29.44.66.44 1.12 0 .4-.11.74-.34 1.04-.22.3-.53.55-.93.72-.4.17-.86.25-1.38.25a3.1 3.1 0 0 1-1.77-.46c-.46-.3-.74-.75-.85-1.32l1.18-.2c.08.32.24.57.48.74.24.16.56.25.95.25.42 0 .77-.1 1.02-.27.26-.18.39-.4.39-.66a.7.7 0 0 0-.24-.53 1.52 1.52 0 0 0-.7-.32l-1.1-.25a2.6 2.6 0 0 1-1.35-.66 1.6 1.6 0 0 1-.43-1.15c0-.38.1-.72.32-1 .21-.3.5-.52.88-.69.38-.16.81-.24 1.3-.24.7 0 1.24.15 1.64.45.4.3.67.7.8 1.2Zm4.47 5.1c-.63 0-1.17-.14-1.63-.43-.45-.29-.8-.69-1.04-1.2a4 4 0 0 1-.37-1.74c0-.67.13-1.25.38-1.76s.6-.91 1.05-1.2a2.9 2.9 0 0 1 1.6-.43c.48 0 .92.1 1.3.27a2.31 2.31 0 0 1 1.37 1.9h-1.2a1.42 1.42 0 0 0-1.47-1.13c-.35 0-.67.1-.94.29-.27.18-.48.45-.63.8a3.1 3.1 0 0 0-.23 1.23c0 .48.08.9.22 1.25.15.35.36.63.63.82.28.2.6.29.96.29.25 0 .47-.04.67-.13a1.37 1.37 0 0 0 .8-1h1.2a2.4 2.4 0 0 1-1.34 1.9c-.38.18-.82.27-1.33.27Zm4.24-.13v-6.54h1.18v1.03h.06a1.76 1.76 0 0 1 1.67-1.13 5.1 5.1 0 0 1 .54.02v1.18a3.75 3.75 0 0 0-.65-.07c-.3 0-.57.06-.81.19a1.4 1.4 0 0 0-.77 1.3v4.02h-1.22Zm4.76 0v-6.54h1.22v6.54h-1.22Zm.62-7.57a.8.8 0 0 1-.56-.22.7.7 0 0 1-.23-.52c0-.2.07-.38.23-.53a.79.79 0 0 1 .56-.22c.21 0 .4.08.55.22a.7.7 0 0 1 .23.53.7.7 0 0 1-.23.52.78.78 0 0 1-.55.22Zm2.51 10.03v-9h1.19v1.05h.1c.08-.13.19-.28.33-.46.13-.18.33-.34.58-.47.24-.14.57-.2.98-.2a2.54 2.54 0 0 1 2.4 1.55c.24.5.36 1.11.36 1.81s-.12 1.31-.35 1.82c-.24.5-.56.9-.98 1.16-.41.27-.88.4-1.42.4a1.85 1.85 0 0 1-1.57-.67 3.91 3.91 0 0 1-.32-.47h-.08v3.48h-1.22Zm1.2-5.73c0 .47.06.88.2 1.23.13.35.33.63.6.83.25.2.57.3.94.3.39 0 .71-.11.97-.32.27-.2.47-.49.6-.84a3.51 3.51 0 0 0 0-2.38 1.82 1.82 0 0 0-.59-.83c-.26-.2-.59-.3-.98-.3a1.55 1.55 0 0 0-1.54 1.1c-.14.34-.2.75-.2 1.2Zm9.38-3.27v.99h-3.54v-1h3.54Zm-2.58-1.57h1.23v6.2c0 .25.03.44.1.57.08.13.18.22.3.26.12.05.25.07.4.07l.27-.02.17-.04.23 1.03-.31.08c-.14.03-.3.05-.5.05a2.2 2.2 0 0 1-.92-.18 1.63 1.63 0 0 1-.7-.58 1.68 1.68 0 0 1-.27-.98v-6.46Zm4.19 8.11v-6.54h1.21v6.54h-1.22Zm.61-7.57a.8.8 0 0 1-.55-.22.7.7 0 0 1-.24-.52c0-.2.08-.38.24-.53a.79.79 0 0 1 .55-.22c.22 0 .4.08.56.22a.7.7 0 0 1 .23.53.7.7 0 0 1-.23.52.78.78 0 0 1-.56.22Zm5.25 7.7a3 3 0 0 1-1.59-.42 2.9 2.9 0 0 1-1.06-1.18c-.25-.5-.38-1.1-.38-1.77 0-.68.13-1.27.38-1.78a2.84 2.84 0 0 1 2.65-1.6c.62 0 1.15.13 1.6.41.46.28.8.68 1.06 1.19.25.5.38 1.1.38 1.78 0 .67-.13 1.27-.38 1.77a2.83 2.83 0 0 1-2.66 1.6Zm0-1.03c.42 0 .76-.1 1.02-.32.27-.22.47-.5.6-.86a3.38 3.38 0 0 0 0-2.33 1.9 1.9 0 0 0-.6-.86c-.26-.22-.6-.33-1.01-.33-.41 0-.75.11-1.02.33-.27.22-.47.5-.6.86a3.68 3.68 0 0 0 .01 2.33c.12.36.32.64.59.86.27.21.6.32 1.02.32Zm5.89-3v3.9h-1.22v-6.54h1.17v1.05h.08c.16-.34.39-.62.7-.82.33-.21.73-.32 1.23-.32.44 0 .84.1 1.17.28.33.19.6.46.78.83.18.36.27.81.27 1.36v4.16h-1.22v-4.03c0-.48-.12-.85-.37-1.13-.25-.27-.6-.4-1.03-.4-.3 0-.57.06-.81.2a1.3 1.3 0 0 0-.55.56c-.13.25-.2.55-.2.9Z"/>
  <path fill="#59636D" fill-rule="evenodd" d="M299.33 161.15a5.33 5.33 0 1 0 0-10.67 5.33 5.33 0 0 0 0 10.67Zm1.75-7.92a.6.6 0 1 1 .84.84l-1.75 1.75 1.75 1.75a.6.6 0 1 1-.84.84l-1.75-1.75-1.75 1.75a.6.6 0 0 1-.83-.84l1.75-1.75-1.75-1.75a.6.6 0 0 1 .83-.84l1.75 1.75 1.75-1.75Z" clip-rule="evenodd"/>
  <rect width="166" height="36.99" x="149" y="183.98" fill="#F3F4F6" rx="4"/>
  <circle cx="158" cy="199.47" r="1" fill="#59636D"/>
  <circle cx="161" cy="199.47" r="1" fill="#59636D"/>
  <circle cx="158" cy="202.47" r="1" fill="#59636D"/>
  <circle cx="161" cy="202.47" r="1" fill="#59636D"/>
  <circle cx="158" cy="205.47" r="1" fill="#59636D"/>
  <circle cx="161" cy="205.47" r="1" fill="#59636D"/>
  <path fill="#161A1E" d="M179 209.97a6.46 6.46 0 0 1-4.72-1.92 6.3 6.3 0 0 1-1.95-4.66c0-.92.18-1.76.52-2.54a6.9 6.9 0 0 1 1.44-2.09l3.83-3.77c.13-.1.27-.2.42-.26a1.21 1.21 0 0 1 .92 0c.15.07.29.15.41.26l3.84 3.77a6.26 6.26 0 0 1 1.95 4.63c0 1.82-.64 3.37-1.94 4.66a6.46 6.46 0 0 1-4.72 1.92Zm0-1.66v-11.84l-3.54 3.5a4.56 4.56 0 0 0-1.46 3.42c0 1.35.49 2.5 1.46 3.47a4.84 4.84 0 0 0 3.54 1.45Zm25.18-8.75h-1.27a2.08 2.08 0 0 0-1.5-1.65 2.62 2.62 0 0 0-2.17.26c-.4.26-.72.63-.96 1.13-.23.49-.34 1.1-.34 1.81 0 .72.11 1.33.34 1.82.24.5.56.87.96 1.13a2.72 2.72 0 0 0 2.16.26 2.13 2.13 0 0 0 1.5-1.64h1.28a3.45 3.45 0 0 1-1.2 2.11 3.4 3.4 0 0 1-1.07.6 4.25 4.25 0 0 1-3.32-.34 3.75 3.75 0 0 1-1.4-1.54 5.28 5.28 0 0 1-.5-2.4c0-.93.16-1.73.5-2.4a3.76 3.76 0 0 1 3.4-2.09 4 4 0 0 1 1.3.2 3.4 3.4 0 0 1 1.86 1.5c.21.36.36.78.43 1.24Zm4.42 6.05a2.85 2.85 0 0 1-2.66-1.6 3.99 3.99 0 0 1-.38-1.78c0-.68.13-1.27.38-1.78a2.85 2.85 0 0 1 2.66-1.6c.6 0 1.14.13 1.6.41.45.29.8.68 1.05 1.19.25.5.38 1.1.38 1.78 0 .68-.13 1.27-.38 1.77a2.82 2.82 0 0 1-2.65 1.6Zm0-1.04c.41 0 .75-.1 1.02-.32a2 2 0 0 0 .59-.85 3.42 3.42 0 0 0 0-2.34 1.9 1.9 0 0 0-.6-.86 1.5 1.5 0 0 0-1-.32c-.42 0-.76.1-1.03.32-.26.22-.46.5-.6.86a3.68 3.68 0 0 0 .01 2.34c.13.35.33.63.6.85.26.21.6.32 1.01.32Zm5.88-7.82v8.72h-1.22v-8.72h1.22Zm4.65 8.86a2.85 2.85 0 0 1-2.65-1.6 3.86 3.86 0 0 1-.38-1.78c0-.68.12-1.27.38-1.78a2.85 2.85 0 0 1 2.65-1.6 3 3 0 0 1 1.6.41c.45.29.8.68 1.05 1.19.26.5.38 1.1.38 1.78 0 .68-.12 1.27-.38 1.77a2.82 2.82 0 0 1-2.65 1.6Zm0-1.04c.41 0 .75-.1 1.02-.32a2 2 0 0 0 .59-.85 3.42 3.42 0 0 0 0-2.34 1.9 1.9 0 0 0-.6-.86 1.5 1.5 0 0 0-1-.32c-.42 0-.76.1-1.02.32-.27.22-.47.5-.6.86a3.42 3.42 0 0 0 0 2.34c.13.35.33.63.6.85.26.21.6.32 1.01.32Zm4.66.9v-6.54h1.18v1.03h.07c.12-.35.33-.62.64-.82.3-.2.64-.3 1.03-.3a4.96 4.96 0 0 1 .54.02v1.18a3.14 3.14 0 0 0-.65-.08c-.3 0-.58.06-.82.2a1.4 1.4 0 0 0-.76 1.29v4.02h-1.23Z"/>
  <path fill="#59636D" fill-rule="evenodd" d="M299.33 206.65a5.33 5.33 0 1 0 0-10.67 5.33 5.33 0 0 0 0 10.67Zm1.75-7.93a.6.6 0 0 1 .84.84l-1.75 1.75 1.75 1.75a.6.6 0 1 1-.84.84l-1.75-1.75-1.75 1.75a.6.6 0 1 1-.83-.84l1.75-1.75-1.75-1.75a.6.6 0 0 1 .83-.84l1.75 1.75 1.75-1.75Z" clip-rule="evenodd"/>
  <rect width="166" height="36.99" x="149" y="229.47" fill="#F3F4F6" rx="4"/>
  <circle cx="158" cy="244.97" r="1" fill="#59636D"/>
  <circle cx="161" cy="244.97" r="1" fill="#59636D"/>
  <circle cx="158" cy="247.97" r="1" fill="#59636D"/>
  <circle cx="161" cy="247.97" r="1" fill="#59636D"/>
  <circle cx="158" cy="250.97" r="1" fill="#59636D"/>
  <circle cx="161" cy="250.97" r="1" fill="#59636D"/>
  <path fill="#161A1E" d="M173.17 241.3h11.66a1.67 1.67 0 0 1 1.67 1.67v10a1.67 1.67 0 0 1-1.67 1.66h-11.66a1.67 1.67 0 0 1-1.67-1.66v-10a1.67 1.67 0 0 1 1.67-1.67Zm0 3.33v3.34h5v-3.34h-5Zm6.66 0v3.34h5v-3.34h-5Zm-6.66 5v3.34h5v-3.34h-5Zm6.66 0v3.34h5v-3.34h-5Zm21.91-5.13c-.05-.4-.24-.72-.58-.94a2.2 2.2 0 0 0-1.26-.34c-.36 0-.68.06-.94.17-.27.11-.48.27-.63.47a1.16 1.16 0 0 0-.06 1.23c.1.15.23.28.4.38.16.1.33.2.52.26s.36.12.53.16l.86.23c.27.06.55.15.84.27.29.12.56.27.81.46a2.08 2.08 0 0 1 .85 1.72 2.33 2.33 0 0 1-1.48 2.2 4.1 4.1 0 0 1-1.73.34c-.65 0-1.21-.1-1.69-.3a2.6 2.6 0 0 1-1.11-.88 2.52 2.52 0 0 1-.44-1.34h1.28c.02.32.12.58.3.8.19.2.42.35.7.46a2.95 2.95 0 0 0 1.96-.03c.3-.12.53-.3.7-.5.18-.22.26-.48.26-.77a.93.93 0 0 0-.22-.65 1.62 1.62 0 0 0-.6-.41c-.26-.11-.54-.2-.85-.3l-1.04-.28c-.7-.2-1.24-.47-1.65-.84-.4-.37-.6-.85-.6-1.46 0-.5.13-.93.4-1.3a2.7 2.7 0 0 1 1.1-.88c.47-.2.99-.31 1.56-.31.59 0 1.1.1 1.55.31.46.2.81.49 1.07.85s.4.77.41 1.23h-1.22Zm3.02 6.47v-6.55h1.22v6.55h-1.22Zm.62-7.58a.8.8 0 0 1-.56-.21.7.7 0 0 1-.23-.53c0-.2.08-.38.23-.52a.78.78 0 0 1 .56-.22c.21 0 .4.07.55.22a.7.7 0 0 1 .23.52.7.7 0 0 1-.23.53.78.78 0 0 1-.55.21Zm2.36 7.58v-.85l3.58-4.56v-.06h-3.46v-1.08h5v.9l-3.45 4.5v.07h3.56v1.08h-5.23Zm9.55.13c-.64 0-1.2-.14-1.66-.41a2.78 2.78 0 0 1-1.07-1.18c-.25-.5-.38-1.1-.38-1.77a4 4 0 0 1 .38-1.78c.25-.5.6-.9 1.05-1.2a3.24 3.24 0 0 1 2.65-.25 2.7 2.7 0 0 1 1.58 1.59c.16.42.24.93.24 1.52v.45h-5.18v-.94h3.97c0-.34-.07-.64-.2-.91a1.55 1.55 0 0 0-1.47-.86c-.36 0-.68.09-.95.27-.27.18-.48.41-.63.7-.14.29-.22.6-.22.93v.71c0 .45.08.83.24 1.15.16.31.38.55.66.71.29.16.62.25 1 .25.25 0 .47-.04.67-.1a1.39 1.39 0 0 0 .86-.85l1.16.23c-.1.34-.27.65-.51.91a2.5 2.5 0 0 1-.93.61c-.37.15-.79.22-1.26.22Zm10.56 0c-.63 0-1.17-.14-1.63-.43a2.9 2.9 0 0 1-1.04-1.2 3.89 3.89 0 0 1-.37-1.75c0-.66.13-1.25.38-1.76.25-.5.6-.9 1.05-1.2a2.9 2.9 0 0 1 1.6-.42c.48 0 .92.09 1.3.27a2.31 2.31 0 0 1 1.37 1.9h-1.2a1.41 1.41 0 0 0-1.47-1.13c-.35 0-.67.1-.94.28-.27.19-.48.46-.63.8a3.1 3.1 0 0 0-.23 1.23c0 .49.08.9.22 1.26.15.35.36.62.64.81.27.2.59.3.95.3.25 0 .47-.05.67-.14a1.38 1.38 0 0 0 .8-1h1.2a2.4 2.4 0 0 1-1.34 1.9 3 3 0 0 1-1.34.28Zm5.46-4.03v3.9h-1.22v-8.73h1.2v3.24h.09c.15-.35.38-.63.7-.83.3-.21.72-.31 1.23-.31.45 0 .84.09 1.17.27.34.18.6.46.8.83.18.36.27.81.27 1.36v4.17h-1.22v-4.03c0-.49-.13-.87-.38-1.13-.25-.27-.6-.4-1.04-.4-.31 0-.59.06-.83.19s-.43.32-.57.57c-.13.25-.2.55-.2.9Zm8.06 4.04c-.41 0-.79-.08-1.13-.23a1.9 1.9 0 0 1-.8-.68c-.19-.3-.28-.66-.28-1.08 0-.38.07-.68.2-.91.15-.24.35-.43.59-.57.24-.14.51-.24.81-.31.3-.07.6-.13.91-.16.4-.05.71-.1.96-.12.24-.03.42-.08.53-.14.11-.07.17-.18.17-.34v-.03c0-.38-.1-.67-.32-.88-.21-.21-.53-.32-.95-.32a1.63 1.63 0 0 0-1.56.93l-1.15-.29a2.32 2.32 0 0 1 1.58-1.48 3.77 3.77 0 0 1 1.92-.07c.29.06.56.16.82.32.26.16.47.4.64.7.16.3.24.7.24 1.18v4.34h-1.2v-.9h-.04a1.95 1.95 0 0 1-1 .88c-.26.1-.57.16-.94.16Zm.25-1c.37 0 .67-.07.93-.2a1.51 1.51 0 0 0 .78-1.3v-.87a.6.6 0 0 1-.26.13 20.82 20.82 0 0 1-1.34.23 3.5 3.5 0 0 0-.7.16c-.2.07-.37.18-.5.32a.8.8 0 0 0-.18.56c0 .32.12.56.36.73.24.16.54.25.91.25Zm4.84.86v-6.55h1.18v1.03h.07c.12-.34.33-.62.63-.82.3-.2.65-.3 1.04-.3a5.13 5.13 0 0 1 .54.02v1.18a3.81 3.81 0 0 0-.65-.08c-.3 0-.58.07-.82.2a1.44 1.44 0 0 0-.77 1.29v4.03h-1.22Zm8.17-6.55v.99h-3.54v-.99h3.54Zm-2.58-1.57h1.22v6.2c0 .26.04.45.11.58a.6.6 0 0 0 .3.26 1.46 1.46 0 0 0 .67.04l.17-.03.23 1.02a2.24 2.24 0 0 1-.81.13c-.33 0-.64-.05-.93-.18a1.63 1.63 0 0 1-.7-.57 1.68 1.68 0 0 1-.26-.98v-6.47Z"/>
  <path fill="#59636D" fill-rule="evenodd" d="M299.33 252.14a5.33 5.33 0 1 0 0-10.67 5.33 5.33 0 0 0 0 10.67Zm1.75-7.92a.6.6 0 0 1 .84.84l-1.75 1.74 1.75 1.75a.6.6 0 1 1-.84.84l-1.75-1.75-1.75 1.75a.6.6 0 1 1-.83-.84l1.75-1.75-1.75-1.74a.6.6 0 0 1 .83-.84l1.75 1.75 1.75-1.75Z" clip-rule="evenodd"/>
  <rect width="192" height="283.46" x="348" fill="#fff" rx="10"/>
  <rect width="191.27" height="282.74" x="348.36" y=".36" stroke="#D8DDE2" stroke-width=".73" rx="9.64"/>
  <rect width="64" height="24" x="361" y="12.5" fill="#007CFF" fill-opacity=".1" rx="4"/>
  <path fill="#3B82F6" d="M371.93 29.5v-9.45h1.71v8.01h4.17v1.44h-5.88Zm9.33.14c-.45 0-.85-.08-1.21-.24a1.93 1.93 0 0 1-1.16-1.89 2 2 0 0 1 .22-1c.15-.25.35-.46.6-.62.26-.16.55-.28.87-.36a7 7 0 0 1 1-.18l1.01-.11c.26-.04.45-.1.56-.17.13-.07.19-.2.19-.35v-.03c0-.35-.1-.62-.31-.8-.21-.2-.5-.3-.9-.3s-.73.1-.97.27c-.24.18-.4.4-.48.64l-1.56-.23a2.5 2.5 0 0 1 1.65-1.73 4.43 4.43 0 0 1 2.38-.1c.33.08.64.2.92.4a2 2 0 0 1 .68.74c.17.31.26.7.26 1.17v4.75h-1.61v-.97h-.06a2.02 2.02 0 0 1-1.11.96c-.28.1-.6.15-.97.15Zm.44-1.22c.33 0 .62-.07.87-.2.25-.14.43-.32.57-.54.13-.22.2-.46.2-.72v-.84a.79.79 0 0 1-.27.12 13.27 13.27 0 0 1-1.26.23 3 3 0 0 0-.67.16c-.2.08-.35.19-.47.33a.79.79 0 0 0-.17.52c0 .31.11.54.34.7.22.16.5.24.86.24Zm4.99 3.74V22.4h1.64v1.17h.1c.08-.17.2-.35.36-.55.16-.2.37-.36.64-.5s.6-.21 1.02-.21a2.7 2.7 0 0 1 2.54 1.65c.26.54.4 1.2.4 2a4.6 4.6 0 0 1-.4 1.98 2.68 2.68 0 0 1-2.54 1.68 2.06 2.06 0 0 1-1.66-.7c-.15-.2-.27-.37-.36-.55h-.07v3.78h-1.67Zm1.64-6.2c0 .45.06.85.19 1.2.13.34.32.61.57.8.25.2.55.3.9.3.37 0 .68-.1.93-.3.25-.2.44-.47.56-.82.13-.35.2-.74.2-1.19 0-.44-.07-.83-.2-1.17-.12-.34-.3-.6-.56-.8-.25-.2-.56-.3-.93-.3-.36 0-.66.1-.9.29a1.6 1.6 0 0 0-.57.79c-.13.34-.2.74-.2 1.2Zm10.02-3.55v1.3h-4.07v-1.3h4.07Zm-3.07-1.7h1.67v6.66c0 .22.04.4.1.51.08.12.17.2.28.24.12.05.24.07.38.07a1.63 1.63 0 0 0 .49-.07l.28 1.31a3.73 3.73 0 0 1-.98.17c-.42 0-.8-.05-1.13-.2-.34-.13-.6-.35-.8-.65-.2-.3-.29-.66-.29-1.1V20.7Zm7.49 8.93c-.7 0-1.3-.15-1.8-.46-.51-.3-.9-.73-1.19-1.28a4.2 4.2 0 0 1-.41-1.92c0-.73.14-1.37.42-1.92a3.1 3.1 0 0 1 1.18-1.29c.5-.3 1.1-.45 1.8-.45.69 0 1.29.15 1.8.45.5.3.9.74 1.18 1.29.27.55.42 1.19.42 1.92s-.15 1.37-.43 1.92c-.27.55-.67.98-1.17 1.28-.51.3-1.11.46-1.8.46Zm0-1.34c.38 0 .7-.1.95-.31.25-.2.44-.49.56-.84.13-.35.2-.74.2-1.17 0-.44-.07-.83-.2-1.18a1.86 1.86 0 0 0-.56-.84 1.43 1.43 0 0 0-.94-.32c-.39 0-.7.1-.96.32-.26.2-.45.49-.57.84-.13.35-.19.74-.19 1.18 0 .43.06.82.19 1.17.12.35.31.63.57.84.25.2.57.31.96.31Zm4.81 3.86V22.4h1.65v1.17h.1c.08-.17.2-.35.36-.55a2 2 0 0 1 .63-.5c.27-.14.62-.21 1.03-.21a2.7 2.7 0 0 1 2.53 1.65c.27.54.4 1.2.4 2a4.6 4.6 0 0 1-.39 1.98 2.68 2.68 0 0 1-2.54 1.68 2.05 2.05 0 0 1-1.66-.7c-.15-.2-.28-.37-.37-.55h-.07v3.78h-1.67Zm1.64-6.2c0 .45.07.85.2 1.2.13.34.32.61.56.8.25.2.56.3.9.3.38 0 .69-.1.94-.3.25-.2.43-.47.56-.82.13-.35.2-.74.2-1.19 0-.44-.07-.83-.2-1.17-.12-.34-.31-.6-.56-.8-.25-.2-.56-.3-.93-.3-.36 0-.66.1-.91.29-.25.19-.44.45-.57.79-.13.34-.19.74-.19 1.2Z"/>
  <rect width="166" height="36.99" x="361" y="49.5" fill="#F3F4F6" rx="4"/>
  <circle cx="370" cy="65" r="1" fill="#59636D"/>
  <circle cx="373" cy="65" r="1" fill="#59636D"/>
  <circle cx="370" cy="68" r="1" fill="#59636D"/>
  <circle cx="373" cy="68" r="1" fill="#59636D"/>
  <circle cx="370" cy="71" r="1" fill="#59636D"/>
  <circle cx="373" cy="71" r="1" fill="#59636D"/>
  <path fill="#161A1E" d="M385.17 61.33h11.66A1.67 1.67 0 0 1 398.5 63v10a1.67 1.67 0 0 1-1.67 1.66h-11.66A1.67 1.67 0 0 1 383.5 73V63a1.67 1.67 0 0 1 1.67-1.67Zm0 3.33V68h5v-3.34h-5Zm6.66 0V68h5v-3.34h-5Zm-6.66 5V73h5v-3.34h-5Zm6.66 0V73h5v-3.34h-5ZM408.98 71v-8.73h1.27v7.64h3.97V71h-5.24Zm8.74.14c-.42 0-.79-.08-1.13-.23a1.9 1.9 0 0 1-.8-.68c-.19-.3-.29-.66-.29-1.08 0-.38.07-.68.22-.92.14-.23.33-.42.58-.56.24-.14.51-.24.81-.31.3-.07.6-.13.91-.17l.96-.11c.24-.03.42-.08.53-.14.11-.07.17-.18.17-.34v-.03c0-.38-.1-.67-.32-.88-.21-.21-.53-.32-.95-.32a1.63 1.63 0 0 0-1.56.93l-1.15-.3a2.33 2.33 0 0 1 1.58-1.48 3.78 3.78 0 0 1 1.92-.08c.29.06.56.17.82.33.26.16.47.4.64.7.16.3.24.7.24 1.18V71h-1.2v-.9h-.05c-.07.16-.2.32-.36.48-.16.16-.37.3-.63.4-.26.1-.57.16-.94.16Zm.25-1c.36 0 .67-.07.93-.2a1.5 1.5 0 0 0 .79-1.3v-.87a.6.6 0 0 1-.27.13 17.48 17.48 0 0 1-1.34.23c-.25.03-.48.09-.7.16-.2.07-.37.18-.5.32a.8.8 0 0 0-.18.56c0 .32.12.56.36.73.24.16.54.24.91.24Zm4.84 3.31v-9H424v1.06h.1c.08-.13.19-.29.33-.47s.33-.33.58-.47c.24-.14.57-.2.99-.2a2.55 2.55 0 0 1 2.4 1.56c.23.5.35 1.1.35 1.8 0 .71-.12 1.32-.35 1.82a2.53 2.53 0 0 1-2.4 1.57 1.85 1.85 0 0 1-1.57-.67 3.98 3.98 0 0 1-.32-.47h-.08v3.47h-1.22Zm1.2-5.73c0 .47.07.88.2 1.23.14.36.33.63.6.83.25.2.57.3.94.3.39 0 .71-.1.97-.32.27-.2.46-.48.6-.84.13-.35.2-.75.2-1.2 0-.43-.07-.83-.2-1.18a1.82 1.82 0 0 0-.59-.82c-.26-.2-.59-.3-.98-.3a1.55 1.55 0 0 0-1.54 1.1c-.13.34-.2.74-.2 1.2Zm9.38-3.27v.99h-3.54v-.99h3.54Zm-2.58-1.57h1.23v6.2c0 .26.03.45.1.58.08.13.18.21.3.26a1.46 1.46 0 0 0 .84 0l.23 1.03-.31.08c-.14.04-.3.05-.5.05-.33 0-.64-.05-.92-.18a1.63 1.63 0 0 1-.7-.57 1.68 1.68 0 0 1-.27-.98v-6.47Zm6.85 8.25c-.6 0-1.14-.14-1.6-.42-.45-.28-.8-.68-1.05-1.18a3.86 3.86 0 0 1-.38-1.78c0-.68.12-1.27.38-1.78a2.82 2.82 0 0 1 2.66-1.6 2.82 2.82 0 0 1 2.65 1.6c.25.51.38 1.1.38 1.78 0 .68-.13 1.27-.38 1.78a2.82 2.82 0 0 1-2.66 1.6Zm0-1.04c.41 0 .75-.1 1.02-.32.27-.21.46-.5.6-.85a3.68 3.68 0 0 0-.01-2.33 1.9 1.9 0 0 0-.59-.87c-.27-.21-.6-.32-1.01-.32-.42 0-.76.1-1.02.32-.27.22-.47.5-.6.87a3.4 3.4 0 0 0 0 2.33c.13.35.33.64.6.85.26.22.6.32 1.02.32Zm4.66 3.36v-9h1.2v1.06h.1c.08-.13.18-.29.32-.47s.33-.33.58-.47c.25-.14.58-.2.99-.2a2.54 2.54 0 0 1 2.4 1.56c.23.5.35 1.1.35 1.8 0 .71-.11 1.32-.35 1.82s-.56.9-.98 1.17c-.4.27-.88.4-1.41.4a1.85 1.85 0 0 1-1.57-.67 4 4 0 0 1-.33-.47h-.08v3.47h-1.22Zm1.2-5.73c0 .47.07.88.2 1.23.14.36.34.63.6.83.25.2.57.3.94.3.4 0 .72-.1.98-.32.26-.2.46-.48.59-.84.13-.35.2-.75.2-1.2 0-.43-.07-.83-.2-1.18a1.82 1.82 0 0 0-.59-.82c-.26-.2-.58-.3-.98-.3-.37 0-.7.09-.95.28-.26.2-.45.47-.59.81-.13.35-.2.75-.2 1.21Zm14.62-1.7-1.1.22a1.36 1.36 0 0 0-.24-.43c-.1-.13-.24-.24-.42-.33-.18-.09-.4-.13-.67-.13-.37 0-.68.08-.93.25-.24.16-.37.37-.37.63 0 .23.09.4.25.54.17.14.44.25.8.34l1.03.23c.6.14 1.05.36 1.34.65.29.3.44.67.44 1.13 0 .39-.12.73-.34 1.04-.22.3-.54.54-.93.71-.4.17-.86.26-1.38.26-.73 0-1.31-.16-1.77-.46a1.97 1.97 0 0 1-.85-1.33l1.18-.2c.07.33.24.58.48.74.24.17.55.25.94.25.43 0 .77-.09 1.03-.27.26-.18.38-.4.38-.65a.7.7 0 0 0-.23-.54 1.52 1.52 0 0 0-.7-.32l-1.1-.24a2.61 2.61 0 0 1-1.35-.66c-.3-.31-.43-.7-.43-1.15 0-.39.1-.72.31-1.01.22-.3.52-.52.9-.68.37-.16.8-.24 1.29-.24.7 0 1.24.15 1.64.45.4.3.67.7.8 1.2Zm1.73 7.43v-9h1.19v1.06h.1l.32-.47c.14-.18.33-.33.58-.47.25-.14.58-.2 1-.2a2.55 2.55 0 0 1 2.39 1.56c.24.5.36 1.1.36 1.8 0 .71-.12 1.32-.36 1.82a2.53 2.53 0 0 1-2.4 1.57 1.86 1.86 0 0 1-1.57-.67 3.98 3.98 0 0 1-.32-.47h-.07v3.47h-1.22Zm1.2-5.73c0 .47.06.88.2 1.23.13.36.33.63.59.83.26.2.57.3.95.3s.7-.1.97-.32c.26-.2.46-.48.6-.84.13-.35.2-.75.2-1.2 0-.43-.07-.83-.2-1.18a1.81 1.81 0 0 0-.6-.82c-.25-.2-.58-.3-.97-.3-.38 0-.7.09-.96.28-.25.2-.45.47-.58.81-.14.35-.2.75-.2 1.21Zm9.17 3.4a3.2 3.2 0 0 1-1.66-.4 2.78 2.78 0 0 1-1.07-1.18c-.25-.5-.38-1.1-.38-1.77a4 4 0 0 1 .38-1.78c.25-.5.6-.9 1.05-1.2a3.22 3.22 0 0 1 2.65-.25 2.7 2.7 0 0 1 1.58 1.59c.15.42.24.92.24 1.52v.45h-5.18v-.94h3.97c0-.34-.07-.64-.2-.91a1.55 1.55 0 0 0-1.47-.86c-.37 0-.69.09-.95.27-.27.18-.48.41-.63.7a2 2 0 0 0-.22.93V68c0 .45.08.83.24 1.15a1.74 1.74 0 0 0 1.66.96c.24 0 .47-.04.67-.1a1.4 1.4 0 0 0 .86-.85l1.16.23c-.1.34-.27.65-.51.91a2.5 2.5 0 0 1-.93.61c-.37.15-.8.22-1.26.22Zm7.15 0a3 3 0 0 1-1.62-.42c-.46-.3-.8-.7-1.05-1.2a4 4 0 0 1-.37-1.75c0-.66.13-1.25.38-1.76.25-.5.6-.9 1.05-1.2a3 3 0 0 1 1.6-.42 3 3 0 0 1 1.3.27 2.31 2.31 0 0 1 1.37 1.9h-1.19a1.42 1.42 0 0 0-1.47-1.13 1.63 1.63 0 0 0-1.58 1.08 3.1 3.1 0 0 0-.22 1.23c0 .49.07.9.22 1.26.15.35.36.62.63.81.27.2.6.3.96.3.25 0 .47-.05.67-.14a1.43 1.43 0 0 0 .8-1h1.19a2.37 2.37 0 0 1-1.33 1.9 3 3 0 0 1-1.34.28Zm9.09-5.1-1.1.22a1.36 1.36 0 0 0-.23-.43c-.1-.13-.25-.24-.43-.33-.18-.09-.4-.13-.67-.13-.37 0-.68.08-.93.25a.73.73 0 0 0-.36.63c0 .23.08.4.24.54.17.14.44.25.8.34l1.03.23c.6.14 1.05.36 1.34.65.3.3.44.67.44 1.13 0 .39-.11.73-.34 1.04-.22.3-.53.54-.93.71-.4.17-.86.26-1.38.26-.72 0-1.31-.16-1.77-.46a1.97 1.97 0 0 1-.85-1.33l1.18-.2c.08.33.24.58.48.74.24.17.56.25.94.25.43 0 .78-.09 1.03-.27.26-.18.38-.4.38-.65a.7.7 0 0 0-.23-.54 1.52 1.52 0 0 0-.7-.32l-1.1-.24a2.61 2.61 0 0 1-1.35-.66c-.29-.31-.43-.7-.43-1.15 0-.39.1-.72.32-1.01.21-.3.5-.52.88-.68.38-.16.81-.24 1.3-.24.7 0 1.24.15 1.64.45.4.3.67.7.8 1.2Z"/>
  <path fill="#59636D" fill-rule="evenodd" d="M511.33 72.17a5.33 5.33 0 1 0 0-10.67 5.33 5.33 0 0 0 0 10.67Zm1.75-7.92a.6.6 0 0 1 .84.84l-1.75 1.74 1.75 1.75a.6.6 0 1 1-.84.84l-1.75-1.75-1.75 1.75a.6.6 0 1 1-.83-.84l1.75-1.75-1.75-1.74a.6.6 0 0 1 .83-.84l1.75 1.75 1.75-1.75Z" clip-rule="evenodd"/>
  <rect width="166" height="36.99" x="361" y="94.99" fill="#F3F4F6" rx="4"/>
  <circle cx="370" cy="110.49" r="1" fill="#59636D"/>
  <circle cx="373" cy="110.49" r="1" fill="#59636D"/>
  <circle cx="370" cy="113.49" r="1" fill="#59636D"/>
  <circle cx="373" cy="113.49" r="1" fill="#59636D"/>
  <circle cx="370" cy="116.49" r="1" fill="#59636D"/>
  <circle cx="373" cy="116.49" r="1" fill="#59636D"/>
  <path fill="#161A1E" d="M388.19 112.86h9.37a.94.94 0 1 1 0 1.88h-9.37a.94.94 0 1 1 0-1.88Zm0 6.25h9.37a.94.94 0 1 1 0 1.88h-9.37a.94.94 0 1 1 0-1.88Zm-5-12.5h8.12a.94.94 0 1 1 0 1.88h-8.12a.94.94 0 1 1 0-1.88Zm.31 14.38a1.25 1.25 0 1 1 0-2.5 1.25 1.25 0 0 1 0 2.5Zm1.25-7.5a1.25 1.25 0 0 1-2.13.88 1.25 1.25 0 0 1 .88-2.13 1.25 1.25 0 0 1 1.25 1.25Zm12.9-3.85-2.81-3.13a.31.31 0 0 1 .23-.52h5.61a.31.31 0 0 1 .23.52l-2.8 3.13a.32.32 0 0 1-.24.1.32.32 0 0 1-.23-.1Zm16.09.39c-.05-.4-.24-.72-.57-.95a2.2 2.2 0 0 0-1.27-.34c-.36 0-.68.06-.94.17-.27.12-.48.27-.63.48-.14.2-.21.42-.21.67 0 .22.05.4.15.55.1.16.23.28.4.39a4.45 4.45 0 0 0 1.05.41l.86.23c.27.06.55.16.84.27.29.12.56.27.81.46s.46.42.61.7c.16.28.24.62.24 1.02 0 .48-.13.92-.38 1.3a2.5 2.5 0 0 1-1.1.91 4.1 4.1 0 0 1-1.74.33c-.64 0-1.2-.1-1.68-.3a2.6 2.6 0 0 1-1.11-.88 2.52 2.52 0 0 1-.44-1.34h1.27c.03.32.13.58.32.8.18.2.41.36.7.46.29.1.6.15.94.15.38 0 .71-.06 1.01-.18.3-.12.53-.29.7-.5.18-.22.26-.48.26-.77a.93.93 0 0 0-.22-.64 1.62 1.62 0 0 0-.6-.42c-.26-.11-.54-.2-.85-.3l-1.04-.28c-.7-.2-1.24-.47-1.65-.84-.4-.37-.6-.85-.6-1.45 0-.5.13-.94.4-1.31a2.7 2.7 0 0 1 1.1-.88c.46-.2.99-.3 1.56-.3.59 0 1.1.1 1.55.3.46.2.81.49 1.07.85s.4.77.41 1.23h-1.22Zm5.76 6.6c-.63 0-1.17-.15-1.63-.44-.45-.29-.8-.69-1.04-1.2a3.87 3.87 0 0 1-.37-1.74c0-.67.13-1.26.38-1.76.25-.52.6-.91 1.05-1.2.45-.29.98-.43 1.6-.43.48 0 .92.09 1.3.27a2.31 2.31 0 0 1 1.37 1.9h-1.19a1.52 1.52 0 0 0-.48-.8 1.41 1.41 0 0 0-.99-.33c-.36 0-.68.1-.95.28-.27.2-.48.46-.63.8-.15.35-.23.76-.23 1.24s.08.9.23 1.25c.14.35.35.62.63.82.27.19.59.29.95.29.25 0 .48-.05.67-.14a1.38 1.38 0 0 0 .8-1h1.2a2.4 2.4 0 0 1-1.34 1.9 3 3 0 0 1-1.33.28Zm4.24-.14v-6.55h1.18v1.03h.07c.12-.34.33-.62.63-.82.3-.2.65-.3 1.04-.3a5.1 5.1 0 0 1 .53.02v1.18a3.63 3.63 0 0 0-.65-.08c-.3 0-.57.07-.81.2-.24.12-.43.3-.57.52-.14.23-.2.49-.2.78v4.02h-1.22Zm7.34.13c-.64 0-1.2-.14-1.66-.41a2.79 2.79 0 0 1-1.07-1.17 3.99 3.99 0 0 1-.37-1.78 4 4 0 0 1 .37-1.77c.25-.52.6-.91 1.06-1.2a3.24 3.24 0 0 1 2.65-.25c.34.12.64.3.92.57.27.26.49.6.65 1.02.16.41.24.92.24 1.51v.45h-5.17v-.94h3.97c0-.34-.07-.64-.21-.9a1.55 1.55 0 0 0-1.46-.87c-.37 0-.69.09-.96.27a1.85 1.85 0 0 0-.84 1.63v.71c0 .45.07.83.23 1.15a1.73 1.73 0 0 0 1.66.96c.25 0 .48-.04.68-.1a1.39 1.39 0 0 0 .86-.85l1.16.23c-.1.35-.27.65-.52.91a2.5 2.5 0 0 1-.93.61c-.37.15-.79.22-1.25.22Zm7.23 0c-.64 0-1.2-.14-1.66-.41a2.79 2.79 0 0 1-1.07-1.17 3.99 3.99 0 0 1-.38-1.78 4 4 0 0 1 .38-1.77c.25-.52.6-.91 1.05-1.2a3.24 3.24 0 0 1 2.65-.25 2.53 2.53 0 0 1 1.57 1.59c.16.41.25.92.25 1.51v.45h-5.18v-.94h3.97c0-.34-.07-.64-.21-.9a1.55 1.55 0 0 0-1.46-.87 1.69 1.69 0 0 0-1.58.97 2 2 0 0 0-.22.93v.71c0 .45.08.83.23 1.15.16.31.39.55.67.72.28.16.61.24 1 .24.24 0 .47-.04.67-.1a1.39 1.39 0 0 0 .86-.85l1.16.23c-.1.35-.27.65-.52.91a2.5 2.5 0 0 1-.93.61c-.37.15-.78.22-1.25.22Zm5.63-4.03v3.9h-1.22v-6.55h1.17V111h.09c.15-.34.38-.62.7-.83.32-.2.73-.31 1.22-.31.45 0 .84.1 1.17.28.34.18.6.46.78.83.19.36.28.81.28 1.36v4.16h-1.22v-4.03c0-.48-.13-.86-.38-1.13-.25-.27-.6-.4-1.03-.4-.3 0-.57.06-.8.19-.24.13-.42.32-.55.57-.14.25-.2.55-.2.9Zm14.35-1.07-1.1.2a1.36 1.36 0 0 0-.23-.41 1.2 1.2 0 0 0-.43-.34c-.18-.09-.4-.13-.67-.13-.37 0-.68.08-.93.25a.74.74 0 0 0-.12 1.18c.17.13.44.24.8.33l1.03.24c.6.14 1.05.35 1.34.64.3.3.44.67.44 1.13 0 .39-.11.73-.34 1.04-.22.3-.53.54-.93.71-.4.18-.86.26-1.38.26a3.1 3.1 0 0 1-1.77-.46 1.97 1.97 0 0 1-.85-1.33l1.18-.2c.08.33.24.58.48.75.24.16.56.24.95.24.43 0 .77-.09 1.02-.27.26-.18.39-.4.39-.65a.7.7 0 0 0-.23-.53 1.52 1.52 0 0 0-.71-.32l-1.1-.25a2.62 2.62 0 0 1-1.35-.66c-.29-.3-.43-.7-.43-1.15 0-.39.1-.72.32-1.01.21-.3.5-.52.88-.68.38-.16.81-.24 1.3-.24.7 0 1.24.15 1.64.45.4.3.67.7.8 1.2Zm1.73 4.97v-6.55h1.22v6.55h-1.22Zm.62-7.57a.8.8 0 0 1-.56-.22.7.7 0 0 1-.23-.53c0-.2.08-.37.23-.52a.78.78 0 0 1 .56-.22c.21 0 .4.07.55.22a.7.7 0 0 1 .23.52.7.7 0 0 1-.23.53.78.78 0 0 1-.55.22Zm2.36 7.57v-.85l3.58-4.56v-.06h-3.46v-1.08h5v.9l-3.45 4.51v.07h3.56v1.07H463Zm9.55.13c-.64 0-1.2-.14-1.66-.41a2.79 2.79 0 0 1-1.07-1.17 3.99 3.99 0 0 1-.38-1.78 4 4 0 0 1 .38-1.77c.25-.52.6-.91 1.05-1.2a3.24 3.24 0 0 1 2.65-.25 2.65 2.65 0 0 1 1.58 1.59c.16.41.24.92.24 1.51v.45h-5.17v-.94h3.96c0-.34-.07-.64-.2-.9a1.55 1.55 0 0 0-1.47-.87c-.36 0-.68.09-.95.27-.27.18-.48.41-.63.7-.14.29-.22.6-.22.93v.71c0 .45.08.83.24 1.15.16.31.38.55.66.72a2.3 2.3 0 0 0 1.67.14 1.39 1.39 0 0 0 .86-.85l1.16.23c-.1.35-.26.65-.51.91a2.5 2.5 0 0 1-.93.61c-.37.15-.79.22-1.26.22Z"/>
  <path fill="#59636D" fill-rule="evenodd" d="M511.33 117.66a5.33 5.33 0 1 0 0-10.67 5.33 5.33 0 0 0 0 10.67Zm1.75-7.92a.6.6 0 0 1 .84.84l-1.75 1.75 1.75 1.74a.6.6 0 1 1-.84.84l-1.75-1.75-1.75 1.75a.6.6 0 0 1-.83-.84l1.75-1.74-1.75-1.75a.6.6 0 0 1 .83-.84l1.75 1.75 1.75-1.75Z" clip-rule="evenodd"/>
  <rect width="166" height="36.99" x="361" y="140.49" fill="#F3F4F6" rx="4"/>
  <circle cx="370" cy="155.98" r="1" fill="#59636D"/>
  <circle cx="373" cy="155.98" r="1" fill="#59636D"/>
  <circle cx="370" cy="158.98" r="1" fill="#59636D"/>
  <circle cx="373" cy="158.98" r="1" fill="#59636D"/>
  <circle cx="370" cy="161.98" r="1" fill="#59636D"/>
  <circle cx="373" cy="161.98" r="1" fill="#59636D"/>
  <path fill="#161A1E" d="m388.5 162.31-.69 2.73a.76.76 0 0 1-.77.6.79.79 0 0 1-.65-.3.73.73 0 0 1-.14-.7l.58-2.32h-2.27a.8.8 0 0 1-.67-.33.8.8 0 0 1-.14-.72c.04-.2.14-.34.3-.46a.86.86 0 0 1 .51-.16h2.69l.83-3.34h-2.27a.8.8 0 0 1-.67-.32.8.8 0 0 1-.14-.72c.04-.2.14-.34.3-.46a.86.86 0 0 1 .51-.16h2.69l.69-2.73a.76.76 0 0 1 .77-.6c.26 0 .48.1.64.3.17.22.22.44.15.7l-.58 2.33h3.33l.69-2.73a.76.76 0 0 1 .77-.6c.26 0 .48.1.64.3.17.22.22.44.15.7l-.58 2.33h2.27c.27 0 .5.1.66.32.17.22.22.46.15.72a.74.74 0 0 1-.3.46.87.87 0 0 1-.51.16h-2.7l-.82 3.34h2.27c.27 0 .5.1.66.32.17.22.22.46.15.72a.74.74 0 0 1-.3.46.87.87 0 0 1-.51.16h-2.7l-.68 2.73a.76.76 0 0 1-.77.6.79.79 0 0 1-.65-.3.73.73 0 0 1-.14-.7l.58-2.32h-3.33Zm.42-1.66h3.33l.83-3.34h-3.33l-.83 3.34Zm24.82-5.13c-.05-.4-.24-.72-.57-.95a2.2 2.2 0 0 0-1.27-.34c-.36 0-.68.06-.94.18-.27.1-.48.27-.63.47a1.14 1.14 0 0 0-.06 1.22c.1.16.23.29.4.39.16.1.33.19.52.25l.53.17.86.22c.27.07.55.16.84.28.29.11.56.26.81.45s.46.42.61.7c.16.28.24.62.24 1.02 0 .49-.13.92-.38 1.3-.25.39-.62.7-1.1.91a4.1 4.1 0 0 1-1.74.34c-.64 0-1.2-.1-1.68-.31a2.6 2.6 0 0 1-1.11-.87 2.53 2.53 0 0 1-.44-1.35h1.27c.03.32.13.59.32.8.18.2.41.36.7.46.29.1.6.15.94.15.38 0 .71-.06 1.01-.17.3-.13.53-.3.7-.51.18-.22.26-.48.26-.77a.93.93 0 0 0-.22-.64 1.62 1.62 0 0 0-.6-.42c-.26-.1-.54-.2-.85-.29l-1.04-.28a4.2 4.2 0 0 1-1.65-.84 1.9 1.9 0 0 1-.6-1.46c0-.5.13-.94.4-1.31.27-.38.64-.67 1.1-.87.46-.21.99-.31 1.56-.31.59 0 1.1.1 1.55.3.46.21.81.5 1.07.85.26.36.4.77.41 1.23h-1.22Zm5.83 6.6a3.2 3.2 0 0 1-1.66-.42 2.77 2.77 0 0 1-1.07-1.17c-.25-.5-.38-1.1-.38-1.77a4 4 0 0 1 .38-1.78c.25-.51.6-.91 1.05-1.2a3.21 3.21 0 0 1 2.65-.25 2.53 2.53 0 0 1 1.57 1.59c.16.41.25.92.25 1.52v.44h-5.18v-.93h3.97c0-.34-.07-.65-.2-.92a1.55 1.55 0 0 0-1.47-.86c-.37 0-.69.1-.96.27-.26.18-.47.42-.62.7-.15.3-.22.6-.22.93v.72c0 .44.08.83.24 1.14.15.31.38.55.66.72a2 2 0 0 0 1 .24c.24 0 .47-.03.67-.1a1.4 1.4 0 0 0 .86-.85l1.16.23c-.1.35-.27.66-.51.92a2.5 2.5 0 0 1-.93.6c-.37.15-.8.22-1.26.22Zm4.41-.14v-6.54h1.18v1.03h.07c.12-.35.33-.62.64-.82.3-.21.65-.31 1.03-.31a5.1 5.1 0 0 1 .54.02v1.18a3.63 3.63 0 0 0-.65-.07c-.3 0-.58.06-.82.19a1.43 1.43 0 0 0-.76 1.3v4.02h-1.23Zm4.76 0v-6.54h1.22v6.54h-1.21Zm.62-7.57a.8.8 0 0 1-.56-.22.7.7 0 0 1-.23-.52c0-.2.08-.38.24-.53a.79.79 0 0 1 .55-.22c.22 0 .4.08.56.22a.7.7 0 0 1 .23.53.7.7 0 0 1-.23.52.78.78 0 0 1-.56.22Zm4.43 7.72c-.42 0-.8-.08-1.13-.23a1.9 1.9 0 0 1-.8-.68c-.19-.3-.29-.66-.29-1.09 0-.37.07-.67.22-.91.14-.24.33-.43.57-.57.25-.14.52-.24.82-.3.3-.08.6-.13.91-.17l.96-.12c.24-.02.42-.07.53-.13.11-.07.17-.19.17-.34v-.04c0-.37-.1-.67-.32-.88-.22-.2-.53-.31-.95-.31-.44 0-.79.1-1.04.29-.25.19-.43.4-.52.63l-1.15-.28a2.3 2.3 0 0 1 1.58-1.49 3.77 3.77 0 0 1 1.92-.07c.29.06.56.17.82.33.26.16.47.39.63.7.17.3.25.69.25 1.17v4.34h-1.2v-.89h-.05a1.88 1.88 0 0 1-.99.88c-.26.1-.58.16-.94.16Zm.25-1c.36 0 .67-.07.93-.21.25-.15.45-.33.58-.56.13-.23.2-.48.2-.74v-.86a.6.6 0 0 1-.27.13 16.65 16.65 0 0 1-1.34.23c-.25.03-.47.08-.69.16-.2.07-.37.17-.5.31a.8.8 0 0 0-.18.56c0 .32.12.57.36.73.24.17.54.25.9.25Zm6.06-7.88v8.73h-1.22v-8.73h1.22Zm6.53 4.84v3.9h-1.22v-6.55h1.18v1.05h.08c.15-.34.39-.62.7-.82.33-.21.73-.32 1.22-.32.45 0 .84.1 1.18.28.33.19.59.46.78.83.18.36.27.81.27 1.36v4.16h-1.22v-4.03c0-.48-.12-.85-.38-1.13-.25-.27-.59-.4-1.03-.4-.3 0-.57.06-.8.2-.24.12-.42.31-.55.56-.14.25-.2.55-.2.9Zm10.24 1.19v-3.84h1.23v6.54h-1.2v-1.13h-.07c-.16.35-.4.64-.73.87a2.1 2.1 0 0 1-1.23.35c-.41 0-.78-.1-1.1-.28a1.93 1.93 0 0 1-.77-.83 3.05 3.05 0 0 1-.27-1.36v-4.16h1.22v4.02c0 .45.13.81.38 1.08s.58.4.98.4a1.53 1.53 0 0 0 1.32-.73c.16-.24.24-.56.24-.94Zm3.14 2.7v-6.54h1.18v1.05h.08c.14-.36.36-.64.67-.84.3-.2.67-.3 1.1-.3.44 0 .8.1 1.1.3.3.2.52.48.66.84h.07c.16-.34.4-.62.75-.83.34-.2.74-.3 1.21-.3.6 0 1.08.18 1.45.55.38.37.57.93.57 1.69v4.38h-1.22v-4.29c0-.45-.13-.78-.37-.98-.25-.2-.54-.3-.88-.3-.42 0-.75.13-.99.39-.23.26-.35.59-.35 1v4.18h-1.22v-4.38c0-.35-.11-.64-.34-.86a1.21 1.21 0 0 0-.88-.33c-.24 0-.47.07-.68.2-.2.13-.37.3-.5.53a1.6 1.6 0 0 0-.19.8v4.04h-1.22Zm10.86 0v-8.73h1.22v3.24h.08a5 5 0 0 1 .32-.46 1.8 1.8 0 0 1 1.56-.68 2.54 2.54 0 0 1 2.4 1.56c.24.5.36 1.11.36 1.81s-.12 1.31-.35 1.82c-.24.5-.56.9-.98 1.16-.41.27-.88.4-1.41.4a1.86 1.86 0 0 1-1.57-.67 4.03 4.03 0 0 1-.33-.47h-.1v1.02h-1.2Zm1.2-3.27c0 .47.07.88.2 1.23.14.35.34.63.6.83.25.2.57.3.94.3.39 0 .71-.11.98-.32.26-.2.45-.49.59-.84a3.51 3.51 0 0 0 0-2.38 1.8 1.8 0 0 0-.59-.83c-.26-.2-.59-.3-.98-.3a1.55 1.55 0 0 0-1.54 1.1c-.13.34-.2.75-.2 1.2Zm9.18 3.4a3.2 3.2 0 0 1-1.66-.41 2.77 2.77 0 0 1-1.07-1.17c-.25-.5-.38-1.1-.38-1.77a4 4 0 0 1 .38-1.78c.25-.51.6-.91 1.05-1.2a3.21 3.21 0 0 1 2.65-.25 2.65 2.65 0 0 1 1.58 1.59c.16.41.24.92.24 1.52v.44h-5.18v-.93h3.97c0-.34-.07-.65-.2-.92a1.55 1.55 0 0 0-1.47-.86 1.74 1.74 0 0 0-1.58.97c-.14.3-.22.6-.22.93v.72c0 .44.08.83.24 1.14.16.31.38.55.66.72.29.16.62.24 1 .24a2 2 0 0 0 .67-.1 1.4 1.4 0 0 0 .86-.85l1.16.23c-.1.35-.26.66-.51.92a2.5 2.5 0 0 1-.93.6c-.37.15-.79.22-1.26.22Zm4.42-.13v-6.54h1.18v1.03h.06a1.76 1.76 0 0 1 1.67-1.13 5.1 5.1 0 0 1 .54.02v1.18a3.75 3.75 0 0 0-.65-.07c-.3 0-.58.06-.81.19a1.4 1.4 0 0 0-.77 1.3v4.02h-1.22Z"/>
  <path fill="#59636D" fill-rule="evenodd" d="M511.33 163.15a5.33 5.33 0 1 0 0-10.67 5.33 5.33 0 0 0 0 10.67Zm1.75-7.92a.6.6 0 1 1 .84.84l-1.75 1.75 1.75 1.75a.6.6 0 1 1-.84.84l-1.75-1.75-1.75 1.75a.6.6 0 0 1-.83-.84l1.75-1.75-1.75-1.75a.6.6 0 0 1 .83-.84l1.75 1.75 1.75-1.75Z" clip-rule="evenodd"/>
  <rect width="166" height="36.99" x="361" y="185.98" fill="#F3F4F6" rx="4"/>
  <circle cx="370" cy="201.47" r="1" fill="#59636D"/>
  <circle cx="373" cy="201.47" r="1" fill="#59636D"/>
  <circle cx="370" cy="204.47" r="1" fill="#59636D"/>
  <circle cx="373" cy="204.47" r="1" fill="#59636D"/>
  <circle cx="370" cy="207.47" r="1" fill="#59636D"/>
  <circle cx="373" cy="207.47" r="1" fill="#59636D"/>
  <path fill="#161A1E" d="M387.67 206.14a.8.8 0 0 1-.6-.24.8.8 0 0 1-.24-.6.8.8 0 0 1 .24-.59.8.8 0 0 1 .6-.24.8.8 0 0 1 .6.24.8.8 0 0 1 .23.6.8.8 0 0 1-.24.6.8.8 0 0 1-.6.23Zm3.33 0a.8.8 0 0 1-.6-.24.8.8 0 0 1-.23-.6.8.8 0 0 1 .24-.59.8.8 0 0 1 .59-.24.8.8 0 0 1 .6.24.8.8 0 0 1 .23.6.8.8 0 0 1-.24.6.8.8 0 0 1-.59.23Zm3.33 0a.8.8 0 0 1-.6-.24.8.8 0 0 1-.23-.6.8.8 0 0 1 .24-.59.8.8 0 0 1 .6-.24.8.8 0 0 1 .59.24.8.8 0 0 1 .24.6.8.8 0 0 1-.24.6.8.8 0 0 1-.6.23Zm-9.16 6.67a1.6 1.6 0 0 1-1.18-.5 1.6 1.6 0 0 1-.49-1.17v-11.67c0-.46.16-.85.49-1.17a1.6 1.6 0 0 1 1.18-.5h.83v-1.66h1.67v1.67h6.66v-1.67H396v1.67h.83c.46 0 .85.16 1.18.49.33.32.5.72.49 1.17v11.67c0 .46-.16.85-.49 1.18a1.6 1.6 0 0 1-1.18.49h-11.66Zm0-1.67h11.66v-8.33h-11.66v8.33Zm23.81-3.67v-8.72h3.08c.67 0 1.23.11 1.68.35.45.23.78.55 1 .96.22.4.32.88.32 1.41 0 .53-.1 1-.33 1.4-.22.4-.55.72-1 .94-.44.23-1 .34-1.67.34h-2.37v-1.1h2.26c.44 0 .8-.06 1.06-.18.27-.13.47-.31.6-.55.13-.23.19-.52.19-.85 0-.34-.06-.63-.2-.87a1.27 1.27 0 0 0-.6-.56c-.27-.13-.62-.2-1.06-.2h-1.7v7.63h-1.26Zm4.27-3.93 2.15 3.93h-1.44l-2.12-3.93h1.4Zm6.25 4.07c-.64 0-1.2-.14-1.66-.42a2.78 2.78 0 0 1-1.07-1.17c-.25-.5-.38-1.1-.38-1.77a4 4 0 0 1 .38-1.78c.25-.51.6-.9 1.05-1.2a3.24 3.24 0 0 1 2.65-.25 2.54 2.54 0 0 1 1.57 1.6c.16.4.25.91.25 1.5v.46h-5.18v-.94h3.97c0-.34-.07-.65-.21-.91a1.55 1.55 0 0 0-1.46-.86c-.37 0-.69.09-.96.26a1.9 1.9 0 0 0-.62.7c-.15.3-.22.6-.22.94v.7c0 .46.08.84.24 1.16.15.3.38.55.66.71a2 2 0 0 0 1 .24c.24 0 .47-.03.67-.1a1.39 1.39 0 0 0 .86-.85l1.16.23c-.1.35-.27.66-.52.92-.24.26-.55.46-.93.6-.36.15-.78.23-1.25.23Zm5.63-8.86v8.72h-1.22v-8.72h1.22Zm4.72 8.86c-.64 0-1.2-.14-1.66-.42a2.78 2.78 0 0 1-1.07-1.17c-.25-.5-.37-1.1-.37-1.77a4 4 0 0 1 .37-1.78c.25-.51.6-.9 1.06-1.2a3.24 3.24 0 0 1 2.65-.25 2.53 2.53 0 0 1 1.57 1.6c.16.4.24.91.24 1.5v.46h-5.17v-.94h3.96c0-.34-.06-.65-.2-.91a1.55 1.55 0 0 0-1.47-.86c-.36 0-.68.09-.95.26-.27.18-.48.42-.63.7-.14.3-.21.6-.21.94v.7c0 .46.07.84.23 1.16.16.3.38.55.67.71.28.16.61.24.99.24.25 0 .47-.03.68-.1a1.39 1.39 0 0 0 .86-.85l1.16.23c-.1.35-.27.66-.52.92a2.5 2.5 0 0 1-.93.6c-.37.15-.79.23-1.26.23Zm6.33 0c-.42 0-.8-.07-1.13-.22a1.9 1.9 0 0 1-.8-.68c-.19-.3-.29-.66-.29-1.09a1.62 1.62 0 0 1 .79-1.47c.25-.14.52-.25.82-.31.3-.08.6-.13.91-.17l.95-.11c.25-.03.43-.08.54-.14.11-.07.17-.18.17-.34v-.03c0-.38-.1-.68-.32-.89-.21-.2-.53-.31-.95-.31-.44 0-.79.1-1.04.29-.25.19-.43.4-.52.63l-1.15-.28a2.33 2.33 0 0 1 1.58-1.49 3.77 3.77 0 0 1 1.92-.07c.29.06.56.17.82.33.26.16.47.4.63.7.17.3.25.69.25 1.18v4.33h-1.2v-.89h-.05c-.07.16-.2.32-.36.48-.16.16-.37.3-.63.4-.26.1-.57.16-.94.16Zm.25-.99c.36 0 .67-.07.93-.21a1.49 1.49 0 0 0 .78-1.3v-.86a.6.6 0 0 1-.27.13 16.15 16.15 0 0 1-1.34.23 3.5 3.5 0 0 0-.68.16c-.21.07-.38.18-.5.32a.8.8 0 0 0-.19.56c0 .32.12.56.36.72.24.17.54.25.91.25Zm9.69-4.12-1.1.21a1.37 1.37 0 0 0-.23-.42 1.36 1.36 0 0 0-1.1-.47c-.37 0-.68.09-.93.25-.24.17-.37.38-.37.64 0 .22.09.4.25.54.17.13.44.25.8.33l1.03.24c.6.14 1.04.36 1.34.65.29.29.44.66.44 1.13 0 .38-.12.73-.34 1.03-.22.3-.54.55-.93.72-.4.17-.86.26-1.38.26-.73 0-1.31-.16-1.77-.46a1.97 1.97 0 0 1-.85-1.33l1.18-.2c.07.33.24.57.48.74.24.17.55.25.94.25.43 0 .78-.09 1.03-.27.26-.18.38-.4.38-.66a.7.7 0 0 0-.23-.53 1.53 1.53 0 0 0-.7-.32l-1.1-.25a2.6 2.6 0 0 1-1.35-.66c-.3-.3-.43-.69-.43-1.15 0-.38.1-.72.31-1 .22-.3.52-.52.9-.68.37-.17.8-.25 1.29-.25.7 0 1.24.15 1.64.45.4.3.67.7.8 1.21Zm4.54 5.1c-.65 0-1.2-.13-1.67-.4a2.78 2.78 0 0 1-1.07-1.18c-.25-.5-.37-1.1-.37-1.77a4 4 0 0 1 .37-1.78c.25-.51.6-.9 1.06-1.2a3.23 3.23 0 0 1 2.65-.25 2.53 2.53 0 0 1 1.57 1.6c.16.4.24.91.24 1.5v.46h-5.17v-.94h3.97c0-.34-.07-.65-.21-.91a1.55 1.55 0 0 0-1.46-.86c-.37 0-.69.09-.96.26-.27.18-.48.42-.62.7-.15.3-.22.6-.22.94v.7c0 .46.08.84.23 1.16.16.3.38.55.67.71.28.16.61.24.99.24.25 0 .48-.03.68-.1a1.39 1.39 0 0 0 .86-.85l1.16.23c-.1.35-.27.66-.52.92-.24.26-.55.46-.93.6-.37.15-.79.23-1.25.23Zm10.27 0a2.53 2.53 0 0 1-2.4-1.57 4.28 4.28 0 0 1-.35-1.82c0-.7.12-1.3.36-1.8s.56-.9.98-1.16c.41-.27.89-.4 1.42-.4.41 0 .74.06.99.2.24.13.43.3.57.47.14.18.25.33.32.47h.08v-3.24h1.22v8.72h-1.19v-1.01h-.1l-.33.47a1.85 1.85 0 0 1-1.57.67Zm.25-1.05c.38 0 .7-.1.95-.29.26-.2.45-.47.59-.83.13-.35.2-.76.2-1.23 0-.46-.06-.86-.2-1.2a1.54 1.54 0 0 0-1.54-1.1c-.4 0-.72.1-.98.3-.26.2-.46.47-.59.82-.13.35-.2.74-.2 1.18 0 .45.07.84.2 1.2.14.35.34.63.6.84.26.21.58.31.97.31Zm6.88 1.07a2.7 2.7 0 0 1-1.12-.23 1.9 1.9 0 0 1-.8-.68c-.2-.3-.3-.66-.3-1.09 0-.37.08-.67.22-.9.14-.25.34-.44.58-.57.24-.14.51-.25.81-.31.3-.08.6-.13.92-.17l.95-.11c.24-.03.42-.08.53-.14.12-.07.17-.18.17-.34v-.03c0-.38-.1-.68-.32-.89-.21-.2-.53-.31-.95-.31-.44 0-.78.1-1.04.29-.25.19-.42.4-.52.63l-1.15-.28a2.3 2.3 0 0 1 1.58-1.49 3.77 3.77 0 0 1 1.92-.07c.3.06.56.17.82.33.26.16.47.4.64.7.16.3.25.69.25 1.18v4.33h-1.2v-.89H470a1.97 1.97 0 0 1-1 .88c-.26.1-.57.16-.94.16Zm.25-1c.37 0 .68-.07.93-.21a1.45 1.45 0 0 0 .78-1.3v-.86a.6.6 0 0 1-.26.13 16.7 16.7 0 0 1-1.34.23 3.5 3.5 0 0 0-.69.16c-.2.07-.37.18-.5.32a.8.8 0 0 0-.19.56c0 .32.12.56.36.72.24.17.55.25.91.25Zm7.86-5.7v1h-3.54v-1h3.54Zm-2.58-1.56h1.23v6.2c0 .25.03.44.1.58.08.12.18.21.3.26a1.46 1.46 0 0 0 .84 0l.23 1.03-.31.08a2.32 2.32 0 0 1-1.42-.13 1.63 1.63 0 0 1-.7-.57 1.68 1.68 0 0 1-.27-.99v-6.46Zm6.92 8.25c-.64 0-1.2-.14-1.66-.42a2.78 2.78 0 0 1-1.07-1.17c-.25-.5-.37-1.1-.37-1.77a4 4 0 0 1 .37-1.78c.25-.51.6-.9 1.05-1.2a3.23 3.23 0 0 1 2.65-.25 2.53 2.53 0 0 1 1.58 1.6c.16.4.24.91.24 1.5v.46h-5.17v-.94h3.96c0-.34-.07-.65-.2-.91a1.55 1.55 0 0 0-1.47-.86c-.36 0-.68.09-.95.26-.27.18-.48.42-.63.7-.14.3-.21.6-.21.94v.7c0 .46.07.84.23 1.16.16.3.38.55.66.71.29.16.62.24 1 .24.25 0 .47-.03.68-.1a1.39 1.39 0 0 0 .86-.85l1.15.23c-.1.35-.26.66-.51.92s-.56.46-.93.6c-.37.15-.79.23-1.26.23Z"/>
  <path fill="#59636D" fill-rule="evenodd" d="M511.33 208.65a5.33 5.33 0 1 0 0-10.67 5.33 5.33 0 0 0 0 10.67Zm1.75-7.93a.6.6 0 0 1 .84.84l-1.75 1.75 1.75 1.75a.6.6 0 1 1-.84.84l-1.75-1.75-1.75 1.75a.6.6 0 1 1-.83-.84l1.75-1.75-1.75-1.75a.6.6 0 0 1 .83-.84l1.75 1.75 1.75-1.75Z" clip-rule="evenodd"/>
  <rect width="166" height="36.99" x="361" y="231.47" fill="#F3F4F6" rx="4"/>
  <circle cx="370" cy="246.97" r="1" fill="#59636D"/>
  <circle cx="373" cy="246.97" r="1" fill="#59636D"/>
  <circle cx="370" cy="249.97" r="1" fill="#59636D"/>
  <circle cx="373" cy="249.97" r="1" fill="#59636D"/>
  <circle cx="370" cy="252.97" r="1" fill="#59636D"/>
  <circle cx="373" cy="252.97" r="1" fill="#59636D"/>
  <g clip-path="url(#clip4_3235_11340)">
    <path fill="#161A1E" d="M383.5 257.47a1.6 1.6 0 0 1-1.18-.5 1.6 1.6 0 0 1-.49-1.17v-10a.8.8 0 0 1 .24-.6.8.8 0 0 1 .6-.23.8.8 0 0 1 .59.24.8.8 0 0 1 .24.59v10h13.33a.8.8 0 0 1 .6.24.8.8 0 0 1 .24.6.8.8 0 0 1-.25.59.8.8 0 0 1-.59.24H383.5Zm3.33-3.34a1.6 1.6 0 0 1-1.18-.49 1.6 1.6 0 0 1-.48-1.17v-9.17c0-.46.16-.85.48-1.18a1.6 1.6 0 0 1 1.18-.49h3.48a1.64 1.64 0 0 1 1.17.48l1.19 1.19h5.83c.46 0 .85.16 1.18.49.32.33.49.72.49 1.18v7.5c0 .45-.17.85-.5 1.17a1.6 1.6 0 0 1-1.17.5h-11.67Zm0-1.66h11.67v-7.5h-6.52l-1.67-1.67h-3.48v9.17Zm5.21-2.92-.96-1.25a.4.4 0 0 0-.33-.17.4.4 0 0 0-.33.17l-1.4 1.83c-.11.14-.13.29-.05.44.07.15.2.23.38.23h6.63a.4.4 0 0 0 .38-.23c.08-.15.06-.3-.05-.44l-2.02-2.64a.4.4 0 0 0-.33-.17.4.4 0 0 0-.34.17l-1.58 2.06Z"/>
  </g>
  <path fill="#161A1E" d="M408.98 252.97v-8.73h3.08c.68 0 1.24.12 1.68.37.45.25.78.58 1 1.01.22.42.32.9.32 1.43 0 .53-.1 1.01-.32 1.44-.22.43-.55.76-1 1.01-.44.25-1 .37-1.68.37h-2.14v-1.08h2.03c.44 0 .8-.07 1.07-.22.27-.16.46-.36.59-.62.13-.27.19-.57.19-.9 0-.33-.06-.63-.2-.88a1.35 1.35 0 0 0-.59-.62 2.24 2.24 0 0 0-1.07-.22h-1.7v7.64h-1.26Zm7.73 0v-6.55h1.18v1.03h.07c.12-.34.33-.62.64-.82.3-.2.65-.3 1.03-.3a5.1 5.1 0 0 1 .54.02v1.18a3.63 3.63 0 0 0-.65-.08c-.3 0-.58.07-.82.2a1.4 1.4 0 0 0-.76 1.29v4.03h-1.23Zm7.28.13c-.6 0-1.14-.14-1.6-.42-.45-.28-.8-.68-1.06-1.18-.25-.5-.38-1.1-.38-1.78 0-.68.13-1.27.38-1.78a2.84 2.84 0 0 1 2.66-1.6 2.82 2.82 0 0 1 2.65 1.6c.26.51.38 1.1.38 1.78 0 .68-.12 1.27-.38 1.78a2.83 2.83 0 0 1-2.65 1.6Zm0-1.04c.41 0 .75-.1 1.02-.32.26-.21.46-.5.59-.85a3.42 3.42 0 0 0 0-2.33 1.9 1.9 0 0 0-.6-.87c-.26-.21-.6-.32-1-.32-.42 0-.76.1-1.03.32-.26.22-.46.5-.6.87-.12.35-.18.74-.18 1.16 0 .42.06.81.19 1.17.13.35.33.64.6.85.26.22.6.32 1.01.32Zm7.12 1.03a2.53 2.53 0 0 1-2.4-1.57 4.28 4.28 0 0 1-.35-1.81c0-.7.12-1.3.35-1.81.24-.5.57-.9.99-1.16.41-.27.88-.4 1.42-.4a1.8 1.8 0 0 1 1.56.68 3 3 0 0 1 .32.46h.08v-3.24h1.22v8.73h-1.2v-1.02h-.1c-.07.14-.18.3-.33.48a1.84 1.84 0 0 1-1.56.66Zm.25-1.04c.37 0 .69-.1.95-.3.26-.2.45-.47.59-.82.13-.36.2-.77.2-1.24 0-.46-.07-.86-.2-1.2a1.55 1.55 0 0 0-1.54-1.1c-.4 0-.72.1-.98.3-.26.2-.46.47-.6.82a3.65 3.65 0 0 0 .01 2.38c.14.36.33.64.6.85.26.2.58.3.97.3Zm9.11-1.79v-3.84h1.23v6.55h-1.2v-1.13h-.07c-.16.34-.4.63-.73.87-.32.23-.74.34-1.23.34-.41 0-.78-.09-1.1-.28a1.92 1.92 0 0 1-.77-.82 3.05 3.05 0 0 1-.27-1.36v-4.17h1.22v4.03c0 .45.13.81.38 1.08s.58.4.97.4a1.6 1.6 0 0 0 1.33-.73c.16-.25.24-.56.24-.94Zm5.88 2.84c-.63 0-1.17-.14-1.63-.43a2.9 2.9 0 0 1-1.04-1.2 4.02 4.02 0 0 1-.37-1.75c0-.66.13-1.25.38-1.76.25-.5.6-.9 1.05-1.2a2.9 2.9 0 0 1 1.6-.42 3 3 0 0 1 1.3.27 2.3 2.3 0 0 1 1.37 1.9h-1.19a1.41 1.41 0 0 0-1.47-1.13c-.36 0-.67.1-.95.28-.27.19-.48.46-.63.8a3.1 3.1 0 0 0-.22 1.23c0 .49.07.9.22 1.26.15.35.36.62.63.81.27.2.6.3.96.3.25 0 .47-.05.67-.14a1.37 1.37 0 0 0 .8-1h1.19a2.38 2.38 0 0 1-1.33 1.9 3 3 0 0 1-1.34.28Zm7.26-6.68v.99h-3.54v-.99h3.54Zm-2.58-1.57h1.22v6.2c0 .26.04.45.11.58.08.13.18.21.3.26a1.45 1.45 0 0 0 .66.04l.18-.03.23 1.02-.32.09c-.13.03-.3.04-.5.04-.32 0-.63-.05-.92-.18a1.63 1.63 0 0 1-.7-.57 1.68 1.68 0 0 1-.26-.98v-6.47Zm7.58 8.12v-6.55h1.22v6.55h-1.22Zm.62-7.58a.8.8 0 0 1-.56-.21.7.7 0 0 1-.23-.53c0-.2.08-.38.23-.52a.78.78 0 0 1 .56-.22c.22 0 .4.07.56.22a.7.7 0 0 1 .23.52.7.7 0 0 1-.23.53.78.78 0 0 1-.56.21Zm2.52 7.58v-6.55h1.17v1.06h.08c.14-.36.36-.64.67-.84.3-.2.68-.3 1.1-.3.44 0 .81.1 1.1.3.3.2.52.48.67.84h.06c.16-.35.41-.63.75-.83.34-.21.75-.31 1.22-.31.59 0 1.07.18 1.45.55.37.37.56.94.56 1.7v4.38h-1.22v-4.3c0-.45-.12-.77-.37-.97-.24-.2-.53-.3-.87-.3-.43 0-.76.13-1 .38-.23.26-.34.6-.34 1v4.19h-1.22v-4.38c0-.36-.12-.65-.34-.87a1.22 1.22 0 0 0-.88-.32c-.25 0-.47.06-.68.2-.21.12-.38.3-.5.53a1.6 1.6 0 0 0-.2.79v4.05h-1.21Zm12.66.14c-.42 0-.8-.08-1.13-.23a1.9 1.9 0 0 1-.8-.68 1.9 1.9 0 0 1-.29-1.08c0-.38.07-.68.21-.91.15-.24.34-.43.58-.57.25-.14.52-.24.82-.31.3-.07.6-.13.9-.16l.96-.12c.25-.03.43-.08.54-.14.11-.07.17-.18.17-.34v-.03c0-.38-.11-.67-.32-.88-.22-.21-.53-.32-.95-.32a1.63 1.63 0 0 0-1.56.93l-1.15-.29a2.31 2.31 0 0 1 1.58-1.48 3.77 3.77 0 0 1 1.91-.07c.3.06.57.16.83.32s.47.4.63.7c.17.3.25.7.25 1.18v4.34h-1.2v-.9h-.05a1.88 1.88 0 0 1-1 .88c-.25.1-.57.16-.93.16Zm.25-1c.36 0 .67-.07.93-.2.25-.15.45-.34.58-.57.13-.23.2-.47.2-.73v-.87a.6.6 0 0 1-.27.13 21.57 21.57 0 0 1-1.34.23 3.5 3.5 0 0 0-.69.16c-.2.07-.37.18-.5.32a.8.8 0 0 0-.18.56c0 .32.12.56.36.73.24.16.54.25.9.25Zm7.56 3.45a3.9 3.9 0 0 1-1.33-.2 2.6 2.6 0 0 1-.9-.54 2.3 2.3 0 0 1-.53-.71l1.04-.47c.07.12.18.25.31.4.13.14.31.26.54.36.23.1.52.16.88.16.5 0 .9-.12 1.22-.36.32-.24.48-.61.48-1.13v-1.3h-.08a2.36 2.36 0 0 1-.91.91c-.25.13-.58.19-.99.19a2.6 2.6 0 0 1-2.38-1.45 3.87 3.87 0 0 1-.36-1.76c0-.68.12-1.28.35-1.77a2.57 2.57 0 0 1 2.4-1.55c.41 0 .74.06 1 .2a2.16 2.16 0 0 1 .9.94h.1v-1.06h1.19v6.7a2.3 2.3 0 0 1-.39 1.38c-.26.36-.6.63-1.05.8-.44.17-.94.26-1.49.26Zm-.01-3.72c.37 0 .69-.09.94-.26.26-.17.46-.43.6-.75.13-.33.2-.72.2-1.18 0-.45-.07-.84-.2-1.18-.13-.34-.33-.6-.59-.8a1.55 1.55 0 0 0-.95-.29c-.4 0-.72.1-.99.3-.26.2-.45.48-.58.82-.13.35-.2.73-.2 1.15 0 .44.07.82.2 1.15a1.63 1.63 0 0 0 1.57 1.04Zm7.67 1.26c-.64 0-1.2-.14-1.66-.41a2.78 2.78 0 0 1-1.07-1.18c-.25-.5-.38-1.1-.38-1.77a4 4 0 0 1 .38-1.78c.25-.5.6-.9 1.05-1.2a3.24 3.24 0 0 1 2.65-.25 2.69 2.69 0 0 1 1.58 1.59c.16.42.24.93.24 1.52v.45h-5.18v-.94h3.97c0-.34-.07-.64-.2-.91a1.56 1.56 0 0 0-1.47-.86c-.37 0-.68.09-.95.27-.27.18-.48.41-.63.7-.14.29-.22.6-.22.93v.71c0 .45.08.83.24 1.15.16.31.38.55.66.71.29.16.62.25 1 .25.25 0 .47-.04.67-.1a1.4 1.4 0 0 0 .86-.85l1.16.23a2.28 2.28 0 0 1-1.44 1.52c-.37.15-.8.22-1.26.22Z"/>
  <path fill="#59636D" fill-rule="evenodd" d="M511.33 254.14a5.33 5.33 0 1 0 0-10.67 5.33 5.33 0 0 0 0 10.67Zm1.75-7.92a.6.6 0 0 1 .84.84l-1.75 1.74 1.75 1.75a.6.6 0 1 1-.84.84l-1.75-1.75-1.75 1.75a.6.6 0 1 1-.83-.84l1.75-1.75-1.75-1.74a.6.6 0 0 1 .83-.84l1.75 1.75 1.75-1.75Z" clip-rule="evenodd"/>
  <rect width="192" height="281.46" x="560" fill="#fff" rx="10"/>
  <rect width="191.27" height="280.74" x="560.36" y=".36" stroke="#D8DDE2" stroke-width=".73" rx="9.64"/>
  <rect width="99" height="24" x="573" y="11.5" fill="#F3E3FD" rx="4"/>
  <path fill="#584C65" d="M588.07 21.64c-.04-.4-.22-.71-.54-.94a2.1 2.1 0 0 0-1.24-.33c-.36 0-.66.05-.92.16-.25.1-.45.25-.59.44a1.06 1.06 0 0 0-.07 1.14c.1.15.22.27.37.37.16.1.33.18.52.25.2.07.39.12.58.17l.89.22c.36.08.7.2 1.03.34.33.14.63.32.89.53.26.22.47.48.63.78.15.3.23.67.23 1.08a2.56 2.56 0 0 1-1.65 2.44 4.8 4.8 0 0 1-1.94.35c-.74 0-1.37-.11-1.91-.34a2.86 2.86 0 0 1-1.27-1 3 3 0 0 1-.49-1.6h1.69c.02.34.12.61.3.83.18.22.41.38.7.49a2.94 2.94 0 0 0 1.95-.01c.28-.11.5-.27.66-.47.16-.2.24-.44.25-.7a.9.9 0 0 0-.22-.62 1.5 1.5 0 0 0-.6-.4 6.43 6.43 0 0 0-.88-.3l-1.08-.28c-.78-.2-1.4-.5-1.85-.9a2.1 2.1 0 0 1-.67-1.64c0-.55.15-1.04.45-1.46.3-.42.72-.74 1.24-.97a4.32 4.32 0 0 1 1.78-.35c.67 0 1.26.11 1.77.35.5.23.9.55 1.2.96.28.41.43.88.44 1.41h-1.65Zm7.75 3.88V21.4h1.67v7.09h-1.62v-1.26h-.07c-.16.4-.43.72-.8.97a2.3 2.3 0 0 1-1.34.38c-.46 0-.87-.1-1.23-.3a2.25 2.25 0 0 1-.83-.92c-.2-.4-.3-.88-.3-1.45V21.4h1.67v4.26c0 .44.13.8.37 1.07.25.26.57.4.97.4a1.55 1.55 0 0 0 1.28-.72c.15-.24.23-.54.23-.9Zm3.46 2.98v-9.45h1.68v3.53h.06c.1-.17.21-.35.37-.55.16-.2.37-.36.64-.5.26-.14.6-.21 1.02-.21a2.7 2.7 0 0 1 2.54 1.65c.26.54.39 1.2.39 2 0 .77-.13 1.43-.38 1.98-.26.54-.6.96-1.05 1.25-.44.28-.94.42-1.5.42a2.07 2.07 0 0 1-1.66-.7 2.9 2.9 0 0 1-.37-.54h-.1v1.12h-1.64Zm1.64-3.55c0 .46.07.86.2 1.2.13.35.32.62.56.82.25.19.56.28.9.28.38 0 .69-.1.94-.3.25-.2.43-.46.56-.8a3.47 3.47 0 0 0 0-2.37c-.12-.34-.3-.6-.56-.8-.25-.2-.56-.3-.93-.3-.36 0-.66.1-.91.29-.25.19-.44.45-.57.79a3.6 3.6 0 0 0-.19 1.2ZM613 23.28l-1.52.17a1.22 1.22 0 0 0-.65-.76c-.18-.09-.4-.13-.66-.13-.34 0-.64.08-.87.23-.24.15-.35.35-.35.59 0 .2.07.37.23.5.15.13.41.23.77.32l1.21.26c.67.14 1.17.37 1.5.68.33.32.5.73.5 1.24 0 .44-.14.84-.4 1.18-.25.34-.6.6-1.06.8-.46.18-.98.28-1.57.28a3.6 3.6 0 0 1-2.1-.55 2.19 2.19 0 0 1-.94-1.52l1.62-.16c.08.32.24.56.47.72.25.17.56.25.94.25.4 0 .72-.08.96-.25.24-.16.36-.36.36-.6 0-.2-.08-.37-.23-.5a1.5 1.5 0 0 0-.72-.3l-1.21-.26a2.87 2.87 0 0 1-1.51-.72 1.76 1.76 0 0 1-.49-1.28c0-.44.12-.82.36-1.14.24-.32.58-.57 1.01-.75.43-.17.93-.26 1.5-.26.83 0 1.49.17 1.96.53.48.35.78.83.9 1.43Zm4.63 5.36c-.71 0-1.32-.16-1.83-.47-.5-.3-.9-.74-1.16-1.29a4.26 4.26 0 0 1-.41-1.9c0-.72.14-1.35.41-1.9a3.1 3.1 0 0 1 1.18-1.3c.5-.3 1.1-.46 1.8-.46.57 0 1.08.1 1.52.32a2.61 2.61 0 0 1 1.52 2.23h-1.6a1.53 1.53 0 0 0-.45-.86 1.33 1.33 0 0 0-.97-.35c-.34 0-.64.1-.9.28-.26.18-.46.44-.6.79-.15.34-.22.75-.22 1.22 0 .49.07.9.22 1.25.14.35.34.61.6.8.25.18.55.28.9.28a1.41 1.41 0 0 0 1.16-.55c.13-.18.22-.4.27-.65h1.6a2.62 2.62 0 0 1-1.49 2.24 3.5 3.5 0 0 1-1.55.32Zm4.4-.14v-7.1h1.63v1.2h.07a1.77 1.77 0 0 1 1.75-1.3 3.84 3.84 0 0 1 .6.05v1.54a3.1 3.1 0 0 0-.78-.1c-.3 0-.57.07-.82.2a1.46 1.46 0 0 0-.77 1.34v4.17h-1.67Zm5.16 0v-7.1h1.67v7.1h-1.67Zm.84-8.1a.97.97 0 0 1-.68-.26.85.85 0 0 1-.29-.64c0-.25.1-.47.29-.64a.96.96 0 0 1 .68-.27c.27 0 .5.09.68.27.2.17.29.39.29.64s-.1.46-.29.64a.96.96 0 0 1-.68.26Zm2.55 10.76V21.4h1.64v1.17h.1c.09-.17.2-.35.36-.55a2.04 2.04 0 0 1 1.67-.71 2.7 2.7 0 0 1 2.53 1.65c.26.54.4 1.2.4 2a4.6 4.6 0 0 1-.39 1.98 2.68 2.68 0 0 1-2.54 1.68 2.05 2.05 0 0 1-1.66-.7c-.16-.2-.28-.37-.37-.55h-.07v3.78h-1.67Zm1.64-6.2c0 .45.06.85.2 1.2.13.34.32.61.56.8.25.2.55.3.9.3.38 0 .68-.1.93-.3.25-.2.44-.47.57-.82.13-.35.2-.74.2-1.19 0-.44-.07-.83-.2-1.17-.13-.34-.31-.6-.56-.8-.25-.2-.56-.3-.93-.3-.36 0-.66.1-.91.29-.25.19-.44.45-.57.79-.13.34-.2.74-.2 1.2Zm10.03-3.55v1.3h-4.08v-1.3h4.08Zm-3.07-1.7h1.67v6.66c0 .22.03.4.1.51.07.12.16.2.28.24a.9.9 0 0 0 .37.07 1.64 1.64 0 0 0 .5-.07l.27 1.31a3.73 3.73 0 0 1-.98.17c-.42 0-.8-.05-1.13-.2a1.7 1.7 0 0 1-.8-.65c-.2-.3-.29-.66-.28-1.1V19.7Zm4.46 8.79v-7.1h1.68v7.1h-1.68Zm.84-8.1a.97.97 0 0 1-.68-.26.85.85 0 0 1-.28-.64c0-.25.09-.47.28-.64.2-.18.42-.27.68-.27.27 0 .5.09.69.27.19.17.28.39.28.64s-.1.46-.28.64a.96.96 0 0 1-.69.26Zm5.65 8.24c-.7 0-1.3-.15-1.8-.46-.51-.3-.9-.73-1.19-1.28a4.2 4.2 0 0 1-.41-1.92c0-.73.14-1.37.41-1.92a3.1 3.1 0 0 1 1.19-1.29c.5-.3 1.1-.45 1.8-.45.69 0 1.29.15 1.8.45.5.3.9.74 1.17 1.29.28.55.42 1.19.42 1.92s-.14 1.37-.42 1.92c-.27.55-.67.98-1.17 1.28-.51.3-1.11.46-1.8.46Zm0-1.34c.38 0 .7-.1.95-.31.25-.2.44-.49.56-.84.13-.35.19-.74.19-1.17 0-.44-.06-.83-.19-1.18a1.86 1.86 0 0 0-.56-.84 1.43 1.43 0 0 0-.94-.32c-.39 0-.7.1-.96.32-.26.2-.45.49-.57.84a3.59 3.59 0 0 0 0 2.35c.12.35.31.63.57.84.25.2.57.31.96.31Zm6.48-2.95v4.15h-1.67v-7.1h1.6v1.21h.08c.17-.4.43-.7.78-.94.36-.24.8-.35 1.34-.35.49 0 .91.1 1.28.31.36.21.65.51.85.91.2.4.3.88.3 1.45v4.51h-1.68v-4.26c0-.47-.12-.84-.37-1.1a1.3 1.3 0 0 0-1-.41 1.48 1.48 0 0 0-1.32.74c-.12.24-.19.53-.19.88Z"/>
  <rect width="166" height="36.99" x="573" y="47.5" fill="#F3F4F6" rx="4"/>
  <circle cx="582" cy="63" r="1" fill="#59636D"/>
  <circle cx="585" cy="63" r="1" fill="#59636D"/>
  <circle cx="582" cy="66" r="1" fill="#59636D"/>
  <circle cx="585" cy="66" r="1" fill="#59636D"/>
  <circle cx="582" cy="69" r="1" fill="#59636D"/>
  <circle cx="585" cy="69" r="1" fill="#59636D"/>
  <g clip-path="url(#clip5_3235_11340)">
    <path fill="#161A1E" d="M595.5 73.5a1.6 1.6 0 0 1-1.18-.5 1.6 1.6 0 0 1-.49-1.17v-10a.8.8 0 0 1 .24-.6.8.8 0 0 1 .6-.23.8.8 0 0 1 .59.24.8.8 0 0 1 .24.59v10h13.33a.8.8 0 0 1 .6.24.8.8 0 0 1 .24.6.8.8 0 0 1-.25.59.8.8 0 0 1-.59.24H595.5Zm3.33-3.34a1.6 1.6 0 0 1-1.18-.49 1.6 1.6 0 0 1-.49-1.17v-9.17c0-.46.17-.85.5-1.18a1.6 1.6 0 0 1 1.17-.49h3.48a1.65 1.65 0 0 1 1.17.48l1.18 1.19h5.84c.46 0 .85.16 1.18.49.32.33.49.72.49 1.18v7.5c0 .45-.17.85-.5 1.17a1.6 1.6 0 0 1-1.17.5h-11.67Zm0-1.66h11.67V61h-6.52l-1.67-1.67h-3.48v9.17Zm5.21-2.92-.96-1.25a.4.4 0 0 0-.33-.17.4.4 0 0 0-.34.17l-1.39 1.83a.38.38 0 0 0-.05.44c.07.15.2.23.38.23h6.63a.4.4 0 0 0 .38-.23.38.38 0 0 0-.05-.44l-2.02-2.64a.4.4 0 0 0-.33-.17.4.4 0 0 0-.34.17l-1.58 2.06Z"/>
  </g>
  <rect width="166" height="36.99" x="573" y="92.99" fill="#F3F4F6" rx="4"/>
  <circle cx="582" cy="108.49" r="1" fill="#59636D"/>
  <circle cx="585" cy="108.49" r="1" fill="#59636D"/>
  <circle cx="582" cy="111.49" r="1" fill="#59636D"/>
  <circle cx="585" cy="111.49" r="1" fill="#59636D"/>
  <circle cx="582" cy="114.49" r="1" fill="#59636D"/>
  <circle cx="585" cy="114.49" r="1" fill="#59636D"/>
  <path fill="#161A1E" d="M600.19 110.86h9.37a.94.94 0 1 1 0 1.88h-9.37a.94.94 0 1 1 0-1.88Zm0 6.25h9.37a.94.94 0 1 1 0 1.88h-9.37a.94.94 0 1 1 0-1.88Zm-5-12.5h8.12a.94.94 0 1 1 0 1.88h-8.12a.94.94 0 1 1 0-1.88Zm.31 14.38a1.25 1.25 0 1 1 0-2.5 1.25 1.25 0 0 1 0 2.5Zm1.25-7.5a1.25 1.25 0 0 1-2.13.88 1.25 1.25 0 0 1 .88-2.13 1.25 1.25 0 0 1 1.25 1.25Zm12.9-3.85-2.81-3.13a.31.31 0 0 1 .23-.52h5.61a.31.31 0 0 1 .23.52l-2.8 3.13a.32.32 0 0 1-.24.1.32.32 0 0 1-.23-.1Z"/>
  <rect width="166" height="36.99" x="573" y="138.49" fill="#F3F4F6" rx="4"/>
  <circle cx="582" cy="153.98" r="1" fill="#59636D"/>
  <circle cx="585" cy="153.98" r="1" fill="#59636D"/>
  <circle cx="582" cy="156.98" r="1" fill="#59636D"/>
  <circle cx="585" cy="156.98" r="1" fill="#59636D"/>
  <circle cx="582" cy="159.98" r="1" fill="#59636D"/>
  <circle cx="585" cy="159.98" r="1" fill="#59636D"/>
  <path fill="#161A1E" d="M604.67 161.15h-5.84v-1.67h5.84m2.5-1.66h-8.34v-1.67h8.34m0-1.67h-8.34v-1.66h8.34m1.66-3.34h-11.66c-.93 0-1.67.74-1.67 1.67v11.66a1.67 1.67 0 0 0 1.67 1.67h11.66a1.67 1.67 0 0 0 1.67-1.66v-11.67a1.67 1.67 0 0 0-1.67-1.67Z"/>
  <rect width="166" height="36.99" x="573" y="183.98" fill="#F3F4F6" rx="4"/>
  <circle cx="582" cy="199.47" r="1" fill="#59636D"/>
  <circle cx="585" cy="199.47" r="1" fill="#59636D"/>
  <circle cx="582" cy="202.47" r="1" fill="#59636D"/>
  <circle cx="585" cy="202.47" r="1" fill="#59636D"/>
  <circle cx="582" cy="205.47" r="1" fill="#59636D"/>
  <circle cx="585" cy="205.47" r="1" fill="#59636D"/>
  <path fill="#161A1E" d="M603 209.97a6.46 6.46 0 0 1-4.72-1.92 6.3 6.3 0 0 1-1.95-4.66c0-.92.18-1.76.52-2.54a6.9 6.9 0 0 1 1.44-2.09l3.83-3.77c.13-.1.27-.2.42-.26a1.21 1.21 0 0 1 .92 0c.15.07.29.15.41.26l3.84 3.77c.6.62 1.09 1.31 1.43 2.09.35.78.52 1.62.52 2.54 0 1.82-.64 3.37-1.94 4.66a6.46 6.46 0 0 1-4.72 1.92Zm0-1.66v-11.84l-3.54 3.5a4.56 4.56 0 0 0-1.46 3.42c0 1.35.49 2.5 1.46 3.47a4.84 4.84 0 0 0 3.54 1.45Z"/>
  <rect width="166" height="36.99" x="573" y="229.47" fill="#F3F4F6" rx="4"/>
  <circle cx="582" cy="244.97" r="1" fill="#59636D"/>
  <circle cx="585" cy="244.97" r="1" fill="#59636D"/>
  <circle cx="582" cy="247.97" r="1" fill="#59636D"/>
  <circle cx="585" cy="247.97" r="1" fill="#59636D"/>
  <circle cx="582" cy="250.97" r="1" fill="#59636D"/>
  <circle cx="585" cy="250.97" r="1" fill="#59636D"/>
  <path fill="#161A1E" d="M597.17 241.3h11.66a1.67 1.67 0 0 1 1.67 1.67v10a1.67 1.67 0 0 1-1.67 1.66h-11.66a1.67 1.67 0 0 1-1.67-1.66v-10a1.67 1.67 0 0 1 1.67-1.67Zm0 3.33v3.34h5v-3.34h-5Zm6.66 0v3.34h5v-3.34h-5Zm-6.66 5v3.34h5v-3.34h-5Zm6.66 0v3.34h5v-3.34h-5Z"/>
</svg>
