<svg xmlns="http://www.w3.org/2000/svg" width="600" height="354" fill="none">
  <rect width="536" height="476" x="217" fill="#fff" rx="7.98"/>
  <path fill="#D8DDE2" d="M593 59.11H217v1.78h376V59.1Z" mask="url(#path-3-inside-1_4177_18010)"/>
  <path fill="#161A1E" d="M229.6 16.75v-1.66h8.7v1.66h-3.37V26h-1.96v-9.25h-3.37Zm9.44 9.25v-8.18h1.87v1.36h.09a2.05 2.05 0 0 1 2.02-1.48 4.42 4.42 0 0 1 .69.05v1.78a3.58 3.58 0 0 0-.9-.11c-.35 0-.66.07-.94.23a1.68 1.68 0 0 0-.9 1.54V26h-1.93Zm8.16.17c-.52 0-.99-.1-1.4-.28a2.28 2.28 0 0 1-.98-.83 2.43 2.43 0 0 1-.36-1.36c0-.46.09-.84.26-1.14.17-.3.4-.54.7-.73.29-.18.62-.31.99-.4.37-.1.76-.17 1.16-.21l1.16-.14c.3-.04.52-.1.65-.19a.44.44 0 0 0 .21-.4v-.04c0-.4-.12-.71-.36-.93-.23-.22-.58-.33-1.02-.33-.48 0-.85.1-1.13.3-.27.21-.46.46-.55.74l-1.8-.26a2.88 2.88 0 0 1 1.9-2 5.1 5.1 0 0 1 2.74-.12c.4.1.75.25 1.07.46.33.2.59.5.78.86.2.36.3.81.3 1.35V26h-1.86v-1.12h-.06a2.35 2.35 0 0 1-1.29 1.1 3.2 3.2 0 0 1-1.11.19Zm.5-1.42c.39 0 .72-.08 1-.23.29-.16.5-.36.66-.62.16-.25.24-.53.24-.83v-.97a.92.92 0 0 1-.31.14 14.33 14.33 0 0 1-1.46.26c-.29.04-.55.1-.78.2-.22.08-.4.2-.53.37a.9.9 0 0 0-.2.6c0 .36.13.63.39.8.26.19.59.28.99.28Zm7.69-3.54V26h-1.93v-8.18h1.84v1.39h.1c.19-.46.48-.82.9-1.1.41-.26.93-.4 1.54-.4a2.55 2.55 0 0 1 2.45 1.41c.24.46.35 1.02.35 1.67V26h-1.93v-4.91c0-.55-.14-.98-.43-1.29a1.5 1.5 0 0 0-1.16-.46c-.34 0-.64.08-.9.23a1.5 1.5 0 0 0-.62.63 2.2 2.2 0 0 0-.21 1Zm13.68-1.23-1.76.2a1.42 1.42 0 0 0-.26-.5 1.3 1.3 0 0 0-.5-.39c-.2-.1-.45-.14-.75-.14-.4 0-.74.09-1.01.26s-.4.4-.4.68c0 .24.08.43.26.58.18.15.48.27.9.37l1.39.3c.77.16 1.35.43 1.73.79.38.36.57.83.57 1.42 0 .51-.15.97-.45 1.36-.3.4-.7.7-1.23.92-.53.22-1.13.33-1.81.33-1 0-1.81-.21-2.42-.63a2.53 2.53 0 0 1-1.1-1.76l1.89-.18c.08.37.26.65.54.83.28.2.64.29 1.08.29.46 0 .83-.1 1.1-.29.28-.18.42-.42.42-.7a.73.73 0 0 0-.27-.58 1.9 1.9 0 0 0-.83-.35l-1.4-.29a3.32 3.32 0 0 1-1.74-.83 2.06 2.06 0 0 1-.56-1.48c0-.5.14-.94.42-1.3a2.7 2.7 0 0 1 1.16-.87c.5-.2 1.08-.3 1.73-.3.96 0 1.72.2 2.27.6.55.41.9.96 1.02 1.66Zm4.12 6.19c-.52 0-.99-.1-1.4-.28a2.28 2.28 0 0 1-.99-.83 2.43 2.43 0 0 1-.35-1.36 1.97 1.97 0 0 1 .95-1.87c.3-.18.63-.31 1-.4.37-.1.75-.17 1.15-.21l1.17-.14c.3-.04.51-.1.65-.19s.2-.22.2-.4v-.04c0-.4-.11-.71-.35-.93-.24-.22-.58-.33-1.03-.33-.47 0-.84.1-1.12.3-.28.21-.46.46-.56.74l-1.8-.26a2.87 2.87 0 0 1 1.9-2 5.1 5.1 0 0 1 2.74-.12c.4.1.76.25 1.08.46.32.2.58.5.78.86.2.36.3.81.3 1.35V26h-1.86v-1.12h-.06a2.35 2.35 0 0 1-1.3 1.1 3.2 3.2 0 0 1-1.1.19Zm.5-1.42c.38 0 .72-.08 1-.23.29-.16.5-.36.66-.62.15-.25.23-.53.23-.83v-.97a.9.9 0 0 1-.3.14c-.15.04-.3.08-.49.11a14.74 14.74 0 0 1-.98.15 3 3 0 0 0-.77.2c-.23.08-.4.2-.54.37a.91.91 0 0 0-.2.6c0 .36.14.63.4.8.25.19.58.28.99.28Zm9.32 1.41a3.59 3.59 0 0 1-3.45-2.02 4.92 4.92 0 0 1-.47-2.2c0-.83.16-1.56.48-2.2a3.5 3.5 0 0 1 1.36-1.49 3.9 3.9 0 0 1 2.07-.54c.67 0 1.25.12 1.76.37a3.02 3.02 0 0 1 1.76 2.57h-1.84c-.08-.4-.26-.72-.54-.98-.27-.27-.65-.4-1.11-.4-.4 0-.74.1-1.04.32-.3.2-.53.5-.7.9-.16.4-.24.87-.24 1.42 0 .56.08 1.04.24 1.44.17.4.4.7.69.92.3.21.65.32 1.05.32.28 0 .54-.05.76-.16.23-.11.42-.27.57-.48.15-.2.26-.45.31-.75h1.85a3.03 3.03 0 0 1-1.71 2.58c-.51.26-1.11.38-1.8.38Zm9.18-8.34v1.49h-4.7v-1.5h4.7Zm-3.55-1.96h1.93v7.68c0 .26.04.46.12.6.08.13.19.22.32.27.13.05.28.08.44.08a1.9 1.9 0 0 0 .56-.08l.33 1.51a4.35 4.35 0 0 1-1.14.2c-.48 0-.92-.07-1.3-.23a1.9 1.9 0 0 1-.92-.75 2.26 2.26 0 0 1-.34-1.28v-8ZM293.8 26v-8.18h1.93V26h-1.93Zm.97-9.34c-.3 0-.57-.1-.79-.3a.98.98 0 0 1-.33-.75c0-.29.11-.54.33-.74.22-.2.48-.3.79-.3.3 0 .57.1.79.3.22.2.33.45.33.74 0 .3-.11.54-.33.74-.22.2-.48.3-.8.3Zm6.5 9.5c-.79 0-1.48-.18-2.07-.53a3.58 3.58 0 0 1-1.36-1.47 4.86 4.86 0 0 1-.48-2.22c0-.84.16-1.58.48-2.22.32-.64.78-1.13 1.36-1.48a3.96 3.96 0 0 1 2.08-.53c.8 0 1.5.18 2.08.53.58.35 1.04.84 1.35 1.48.33.64.49 1.38.49 2.22a4.8 4.8 0 0 1-.49 2.22 3.54 3.54 0 0 1-1.35 1.47 4 4 0 0 1-2.08.53Zm.02-1.54c.43 0 .8-.12 1.09-.36.29-.24.5-.57.65-.97.14-.4.22-.86.22-1.35a4 4 0 0 0-.22-1.36 2.22 2.22 0 0 0-.65-.98c-.3-.24-.66-.36-1.09-.36-.44 0-.81.12-1.1.36-.3.24-.52.57-.66.98a4.13 4.13 0 0 0 0 2.71c.14.4.36.73.65.97.3.24.67.36 1.11.36Zm7.47-3.41V26h-1.92v-8.18h1.84v1.39h.1c.18-.46.48-.82.9-1.1.41-.26.92-.4 1.53-.4a2.55 2.55 0 0 1 2.46 1.41c.23.46.35 1.02.35 1.67V26h-1.93v-4.91c0-.55-.14-.98-.43-1.29a1.5 1.5 0 0 0-1.16-.46c-.34 0-.64.08-.9.23a1.5 1.5 0 0 0-.62.63 2.2 2.2 0 0 0-.22 1Zm13.68-1.23-1.75.2a1.42 1.42 0 0 0-.26-.5 1.3 1.3 0 0 0-.5-.39c-.2-.1-.45-.14-.75-.14-.4 0-.74.09-1.01.26s-.4.4-.4.68c0 .24.08.43.26.58.18.15.48.27.9.37l1.39.3c.77.16 1.35.43 1.72.79.38.36.58.83.58 1.42 0 .51-.16.97-.45 1.36-.3.4-.7.7-1.23.92-.53.22-1.13.33-1.81.33-1 0-1.81-.21-2.42-.63a2.53 2.53 0 0 1-1.1-1.76l1.88-.18c.09.37.27.65.55.83.28.2.64.29 1.08.29.46 0 .82-.1 1.1-.29.28-.18.42-.42.42-.7a.73.73 0 0 0-.27-.58 1.9 1.9 0 0 0-.83-.35l-1.4-.29a3.32 3.32 0 0 1-1.74-.83 2.06 2.06 0 0 1-.56-1.48c0-.5.14-.94.41-1.3.29-.38.67-.67 1.17-.87.5-.2 1.08-.3 1.73-.3.96 0 1.72.2 2.27.6.55.41.9.96 1.02 1.66Z"/>
  <path fill="#161A1E" d="M237.54 40.64c0 .93-.17 1.73-.51 2.4a3.75 3.75 0 0 1-3.42 2.08 3.8 3.8 0 0 1-2.02-.54 3.76 3.76 0 0 1-1.4-1.54 5.23 5.23 0 0 1-.51-2.4c0-.94.17-1.74.5-2.4a3.73 3.73 0 0 1 3.43-2.09 3.71 3.71 0 0 1 3.42 2.08c.34.67.51 1.47.51 2.4Zm-1.3 0c0-.71-.12-1.31-.35-1.8a2.43 2.43 0 0 0-2.28-1.49 2.44 2.44 0 0 0-2.28 1.5 4.2 4.2 0 0 0-.34 1.79c0 .7.1 1.3.34 1.8.23.48.54.85.93 1.1.4.25.85.38 1.35.38a2.44 2.44 0 0 0 2.28-1.48 4.2 4.2 0 0 0 .35-1.8Zm2.84 4.36v-6.55h1.23v1.04h.07c.12-.35.33-.62.63-.83.3-.2.65-.3 1.03-.3a5.44 5.44 0 0 1 .54.03v1.22a2.6 2.6 0 0 0-.66-.08c-.3 0-.57.06-.8.19a1.42 1.42 0 0 0-.77 1.28v4h-1.27Zm6.82.13a2.54 2.54 0 0 1-2.39-1.57 4.32 4.32 0 0 1-.34-1.82c0-.7.11-1.31.35-1.82a2.55 2.55 0 0 1 2.4-1.56c.4 0 .72.08.97.21.25.14.44.3.58.47.14.18.25.34.32.48h.08v-3.25h1.27V45h-1.24v-1.02h-.1c-.08.14-.2.3-.34.48a1.85 1.85 0 0 1-1.56.67Zm.28-1.09c.37 0 .68-.1.93-.29.26-.2.45-.47.58-.81.13-.35.2-.75.2-1.21 0-.46-.06-.85-.2-1.2-.13-.34-.32-.6-.57-.8a1.51 1.51 0 0 0-.94-.28c-.38 0-.7.1-.96.3-.25.2-.45.47-.58.81a3.59 3.59 0 0 0 .01 2.35c.13.35.32.62.58.83.26.2.57.3.95.3Zm7.6 1.1c-.64 0-1.2-.15-1.66-.42a2.8 2.8 0 0 1-1.08-1.17c-.25-.5-.37-1.1-.37-1.78 0-.67.12-1.26.37-1.77.26-.51.6-.91 1.06-1.2a3.2 3.2 0 0 1 2.67-.25 2.6 2.6 0 0 1 1.58 1.6c.16.41.24.92.24 1.5v.46h-5.2v-.95h3.95c0-.34-.06-.64-.2-.9a1.55 1.55 0 0 0-1.44-.84c-.36 0-.67.09-.94.27-.26.17-.46.4-.6.68-.15.28-.22.58-.22.9v.75c0 .44.07.81.23 1.12.15.3.37.54.65.7.28.16.6.24.98.24.24 0 .46-.03.66-.1s.37-.18.51-.32c.15-.14.26-.3.33-.51l1.21.21a2.23 2.23 0 0 1-1.45 1.55c-.38.15-.8.22-1.28.22ZM258 45v-6.55h1.24v1.04h.06c.12-.35.33-.62.63-.83.3-.2.65-.3 1.04-.3a5.44 5.44 0 0 1 .54.03v1.22a2.61 2.61 0 0 0-.66-.08c-.3 0-.58.06-.81.19a1.42 1.42 0 0 0-.76 1.28v4H258Zm7.88 0 1.44-8.73h1.02L266.9 45h-1.03Zm-3.95-2.34.17-1.02h6.61l-.16 1.02h-6.62Zm.88 2.34 1.44-8.73h1.02L263.84 45h-1.02Zm-.37-5.37.17-1.02h6.61l-.17 1.02h-6.61Zm14.28-3.36V45h-1.32v-7.4h-.05l-2.09 1.36V37.7l2.18-1.43h1.28Zm5.4 8.87c-.67 0-1.25-.18-1.73-.53a3.28 3.28 0 0 1-1.1-1.54 6.93 6.93 0 0 1-.37-2.43c0-.95.13-1.75.38-2.42.25-.67.62-1.19 1.1-1.54a2.83 2.83 0 0 1 1.72-.53c.67 0 1.24.18 1.72.54.48.35.84.86 1.1 1.53.25.67.38 1.47.38 2.42s-.13 1.76-.38 2.44a3.31 3.31 0 0 1-1.1 1.54c-.48.35-1.05.52-1.72.52Zm0-1.13c.6 0 1.05-.3 1.38-.87.34-.57.5-1.4.5-2.5 0-.72-.07-1.34-.22-1.84s-.37-.88-.65-1.14a1.45 1.45 0 0 0-1.01-.39c-.59 0-1.05.29-1.38.87a5.1 5.1 0 0 0-.51 2.5c0 .73.07 1.34.22 1.85.16.5.38.88.66 1.13.28.26.62.39 1.01.39Zm4.52-.71v-1.07l3.78-5.96h.83v1.57h-.53l-2.7 4.27v.07h5.17v1.12h-6.55Zm4.14 1.7v-2.03l.01-.48v-6.22h1.25V45h-1.26Zm6.85.12c-.61 0-1.15-.1-1.62-.32a2.6 2.6 0 0 1-1.1-.87 2.1 2.1 0 0 1-.39-1.26 2.21 2.21 0 0 1 1.76-2.2v-.05c-.44-.1-.78-.33-1.05-.7a2.04 2.04 0 0 1-.38-1.24c0-.45.11-.84.35-1.2a2.4 2.4 0 0 1 1-.82c.41-.2.9-.3 1.43-.3.53 0 1 .1 1.42.3.42.2.75.48 1 .83.24.35.36.75.36 1.19 0 .47-.14.88-.4 1.24-.26.37-.6.6-1.03.7v.05c.33.06.62.2.88.4a2.26 2.26 0 0 1 .88 1.8c0 .47-.14.9-.4 1.26-.27.37-.64.66-1.1.87-.47.21-1 .32-1.61.32Zm0-1.08c.36 0 .67-.06.94-.18.26-.12.46-.29.6-.5a1.43 1.43 0 0 0-.02-1.57 1.59 1.59 0 0 0-.61-.56c-.27-.13-.57-.2-.91-.2-.35 0-.65.07-.92.2a1.6 1.6 0 0 0-.63.55c-.15.24-.23.5-.22.8 0 .3.06.56.2.78.15.21.36.38.62.5.27.12.58.18.95.18Zm0-4.06c.29 0 .55-.06.77-.17a1.33 1.33 0 0 0 .73-1.22c0-.27-.07-.51-.2-.72-.12-.2-.3-.36-.52-.47a1.7 1.7 0 0 0-.78-.17c-.3 0-.57.06-.8.17a1.24 1.24 0 0 0-.7 1.2 1.34 1.34 0 0 0 .71 1.21c.23.11.5.17.79.17Zm7.53-3.83c.4 0 .78.08 1.15.22.38.14.72.36 1.03.68.3.31.55.74.73 1.28a8.24 8.24 0 0 1 .05 4.04 4.49 4.49 0 0 1-.66 1.5c-.28.4-.63.72-1.03.93-.41.21-.87.32-1.38.32-.52 0-.98-.1-1.38-.3a2.64 2.64 0 0 1-1.46-2.1h1.3c.09.37.26.67.52.9.26.23.6.35 1.02.35a1.7 1.7 0 0 0 1.5-.84c.36-.56.54-1.34.54-2.34h-.07a2.48 2.48 0 0 1-2.16 1.18c-.5 0-.96-.12-1.38-.37a2.73 2.73 0 0 1-.98-1.01 2.95 2.95 0 0 1-.37-1.48c0-.55.13-1.05.38-1.5.25-.45.6-.8 1.06-1.07.45-.26.98-.4 1.6-.39Zm0 1.11a1.75 1.75 0 0 0-1.53.9 2.09 2.09 0 0 0 0 1.85 1.69 1.69 0 0 0 1.5.9 1.7 1.7 0 0 0 1.28-.55c.16-.18.29-.37.38-.6a1.8 1.8 0 0 0-.1-1.59 1.84 1.84 0 0 0-.62-.65 1.63 1.63 0 0 0-.9-.26ZM309.9 45v-.95l2.95-3.06c.32-.34.58-.63.78-.88.21-.25.37-.5.47-.72.1-.23.15-.47.15-.72 0-.3-.07-.54-.2-.75a1.34 1.34 0 0 0-.56-.5c-.24-.1-.5-.17-.8-.17-.31 0-.58.07-.82.2-.23.12-.4.3-.53.54-.13.23-.2.5-.2.81h-1.25a2.5 2.5 0 0 1 1.37-2.32 3.1 3.1 0 0 1 1.46-.33c.55 0 1.03.11 1.45.33.42.22.74.51.98.89.24.37.35.8.35 1.26 0 .32-.06.64-.18.95-.12.3-.33.65-.63 1.04-.3.37-.7.83-1.24 1.37l-1.73 1.82v.06h3.93V45h-5.75Zm68.64-26.36c0 .93-.17 1.73-.51 2.4a3.75 3.75 0 0 1-3.42 2.08c-.75 0-1.43-.18-2.02-.54a3.76 3.76 0 0 1-1.4-1.54 5.23 5.23 0 0 1-.51-2.4c0-.94.17-1.74.5-2.4a3.73 3.73 0 0 1 3.43-2.09 3.71 3.71 0 0 1 3.42 2.08c.34.67.51 1.47.51 2.4Zm-1.3 0c0-.71-.12-1.31-.35-1.8a2.43 2.43 0 0 0-2.28-1.49 2.44 2.44 0 0 0-2.28 1.5 4.2 4.2 0 0 0-.34 1.79c0 .7.1 1.3.34 1.8.23.48.54.85.93 1.1.4.25.85.38 1.35.38a2.44 2.44 0 0 0 2.28-1.48 4.2 4.2 0 0 0 .35-1.8Zm2.84 4.36v-6.55h1.23v1.04h.07c.12-.35.33-.62.63-.83.3-.2.65-.3 1.03-.3a5.44 5.44 0 0 1 .54.03v1.22a2.6 2.6 0 0 0-.67-.08c-.3 0-.56.06-.8.19a1.42 1.42 0 0 0-.76 1.28v4h-1.27Zm6.82.13a2.54 2.54 0 0 1-2.39-1.57 4.32 4.32 0 0 1-.34-1.82c0-.7.11-1.31.35-1.82a2.55 2.55 0 0 1 2.4-1.56c.4 0 .72.08.97.21.25.14.44.3.58.47.14.18.25.34.32.48h.08v-3.25h1.27V23h-1.24v-1.02h-.1c-.08.14-.2.3-.34.48a1.85 1.85 0 0 1-1.56.67Zm.28-1.09c.37 0 .68-.1.93-.29.26-.2.45-.47.58-.81.13-.35.2-.75.2-1.21 0-.46-.06-.86-.2-1.2-.13-.34-.32-.6-.57-.8a1.51 1.51 0 0 0-.94-.28c-.38 0-.7.1-.96.3-.25.2-.45.47-.58.81a3.59 3.59 0 0 0 .01 2.35c.13.35.32.62.58.83.26.2.57.3.95.3Zm7.6 1.1c-.64 0-1.2-.15-1.66-.42a2.8 2.8 0 0 1-1.08-1.17c-.25-.5-.37-1.1-.37-1.78 0-.67.12-1.26.37-1.77.26-.51.6-.91 1.06-1.2a3.2 3.2 0 0 1 2.67-.25 2.6 2.6 0 0 1 1.58 1.6c.16.41.24.92.24 1.5v.46h-5.2v-.95h3.95c0-.34-.06-.64-.2-.9a1.55 1.55 0 0 0-1.44-.84c-.36 0-.67.09-.94.27-.26.17-.46.4-.6.68-.15.28-.22.58-.22.9v.75c0 .44.07.81.23 1.12.15.3.37.54.65.7.28.16.6.24.98.24.24 0 .46-.03.66-.1s.37-.18.51-.32c.15-.14.26-.3.33-.51l1.21.21a2.23 2.23 0 0 1-1.45 1.55c-.38.15-.8.22-1.28.22Zm4.23-.14v-6.55h1.23v1.04h.06c.12-.35.33-.62.63-.83.3-.2.65-.3 1.04-.3a5.44 5.44 0 0 1 .54.03v1.22a2.61 2.61 0 0 0-.66-.08c-.3 0-.58.06-.81.19a1.42 1.42 0 0 0-.76 1.28v4H399Zm10.83-6.55v1.03h-3.57v-1.03h3.57Zm-2.61-1.56h1.27v6.19c0 .25.04.43.11.56.07.12.17.2.29.25a1.5 1.5 0 0 0 .66.04l.17-.03.23 1.05a2.5 2.5 0 0 1-1.76-.04 1.6 1.6 0 0 1-.7-.58 1.7 1.7 0 0 1-.27-.99V14.9Zm6.7 8.24a2.85 2.85 0 0 1-2.67-1.6c-.25-.5-.37-1.1-.37-1.77 0-.68.12-1.28.38-1.78a2.84 2.84 0 0 1 2.67-1.61 2.84 2.84 0 0 1 2.67 1.6 4 4 0 0 1 .38 1.79c0 .67-.13 1.26-.38 1.77a2.84 2.84 0 0 1-2.67 1.6Zm.01-1.07c.4 0 .73-.1 1-.31.25-.21.44-.5.57-.84a3.32 3.32 0 0 0 0-2.31 1.88 1.88 0 0 0-.58-.85c-.26-.2-.59-.32-.99-.32s-.73.11-1 .32c-.26.22-.45.5-.58.85a3.4 3.4 0 0 0-.19 1.15c0 .42.07.8.2 1.16.12.35.31.63.57.84.27.2.6.31 1 .31Zm7.53-5.6v1.02h-3.58v-1.03h3.58Zm-2.62-1.57h1.27v6.19c0 .25.04.43.12.56.07.12.16.2.28.25a1.5 1.5 0 0 0 .66.04l.18-.03.23 1.05a2.5 2.5 0 0 1-1.76-.04 1.6 1.6 0 0 1-.71-.58 1.7 1.7 0 0 1-.27-.99V14.9Zm5.93 8.25c-.41 0-.79-.07-1.12-.23a1.9 1.9 0 0 1-.8-.67c-.2-.3-.3-.66-.3-1.09a1.57 1.57 0 0 1 .79-1.48 3 3 0 0 1 .82-.31c.3-.07.6-.13.9-.17l.96-.1c.25-.04.43-.09.54-.16.1-.06.16-.17.16-.33v-.03c0-.37-.1-.66-.31-.86-.21-.2-.52-.3-.93-.3-.43 0-.77.09-1.02.28-.24.18-.4.4-.5.62l-1.2-.27a2.3 2.3 0 0 1 1.57-1.5 3.7 3.7 0 0 1 1.96-.08c.3.06.57.17.83.34.26.16.47.39.63.69.17.3.25.69.25 1.16V23h-1.24v-.9h-.05a1.98 1.98 0 0 1-1 .88c-.27.11-.58.16-.94.16Zm.28-1.02c.35 0 .65-.07.9-.2.25-.15.45-.33.58-.55.13-.23.2-.47.2-.73v-.84a.67.67 0 0 1-.27.12c-.13.04-.27.07-.44.1a55.36 55.36 0 0 1-.87.12c-.25.04-.47.09-.68.16-.2.08-.36.18-.48.32a.8.8 0 0 0-.18.55c0 .31.11.55.35.71.23.16.53.24.89.24Zm5.92-7.85V23h-1.27v-8.73h1.27Z" opacity=".5"/>
  <path fill="#161A1E" d="M374.49 45.36V31.73h.87v13.63h-.88ZM377 36.1a1.46 1.46 0 0 0-.62-1.09 2.42 2.42 0 0 0-1.43-.39c-.41 0-.77.07-1.06.2-.3.12-.52.28-.68.5a1.24 1.24 0 0 0-.08 1.32c.1.16.25.3.43.42s.38.21.6.3c.22.07.44.14.67.19l1.02.25c.41.1.8.23 1.19.4a4 4 0 0 1 1.02.61c.31.25.55.55.73.9.18.35.26.76.26 1.24a2.96 2.96 0 0 1-1.9 2.82c-.62.27-1.36.4-2.23.4a5.7 5.7 0 0 1-2.21-.39 3.3 3.3 0 0 1-1.46-1.15 3.4 3.4 0 0 1-.57-1.84h1.95c.02.38.14.7.35.95.2.25.47.44.8.56a3.29 3.29 0 0 0 2.25-.01c.33-.13.58-.3.77-.54.18-.23.28-.5.28-.82 0-.28-.09-.52-.25-.7a1.8 1.8 0 0 0-.69-.47 6.4 6.4 0 0 0-1.02-.34l-1.24-.32a5 5 0 0 1-2.13-1.05 2.42 2.42 0 0 1-.78-1.88c0-.64.17-1.2.52-1.69.35-.48.83-.86 1.43-1.12.6-.27 1.3-.4 2.06-.4.77 0 1.45.13 2.03.4.59.26 1.05.63 1.38 1.11.33.47.5 1.02.52 1.63H377Zm7.5 8.06a4.4 4.4 0 0 1-1.9-.4 3.4 3.4 0 0 1-1.34-1.1 2.94 2.94 0 0 1-.52-1.62h1.91c.04.45.23.82.59 1.1.35.28.77.42 1.26.42a1.9 1.9 0 0 0 1.75-1c.17-.32.26-.68.26-1.09 0-.4-.09-.77-.26-1.1a1.95 1.95 0 0 0-.74-.75 2.44 2.44 0 0 0-2.77.4l-1.79-.3.57-5.62h6.33v1.65h-4.7l-.3 2.9h.05c.2-.24.5-.44.86-.6a3.36 3.36 0 0 1 4.2 1.5c.3.55.46 1.18.46 1.88a3.54 3.54 0 0 1-1.88 3.25c-.59.32-1.27.48-2.04.48Zm9.74.06c-.88 0-1.63-.22-2.26-.67a4.24 4.24 0 0 1-1.45-1.93 8.3 8.3 0 0 1-.5-3.05c0-1.2.18-2.2.5-3.04a4.3 4.3 0 0 1 1.45-1.92 3.83 3.83 0 0 1 2.25-.66c.88 0 1.63.22 2.26.66a4.13 4.13 0 0 1 1.44 1.92c.34.84.5 1.85.5 3.04s-.16 2.2-.5 3.05a4.16 4.16 0 0 1-1.44 1.93c-.63.45-1.38.67-2.25.67Zm0-1.67c.68 0 1.21-.34 1.6-1 .4-.68.6-1.67.6-2.98 0-.87-.08-1.6-.27-2.19a2.9 2.9 0 0 0-.76-1.33c-.33-.3-.72-.45-1.18-.45-.67 0-1.2.34-1.6 1.01-.4.67-.6 1.66-.6 2.96 0 .87.08 1.6.26 2.2.18.58.44 1.03.77 1.33.33.3.72.45 1.18.45Zm10 1.67c-.88 0-1.63-.22-2.26-.67a4.24 4.24 0 0 1-1.44-1.93 8.3 8.3 0 0 1-.5-3.05c0-1.2.17-2.2.5-3.04.34-.84.82-1.48 1.45-1.92a3.82 3.82 0 0 1 2.25-.66c.87 0 1.63.22 2.25.66a4.13 4.13 0 0 1 1.45 1.92c.33.84.5 1.85.5 3.04s-.17 2.2-.5 3.05a4.16 4.16 0 0 1-1.45 1.93c-.62.45-1.37.67-2.25.67Zm0-1.67c.68 0 1.22-.34 1.61-1 .4-.68.6-1.67.6-2.98 0-.87-.09-1.6-.27-2.19a2.9 2.9 0 0 0-.77-1.33c-.33-.3-.72-.45-1.17-.45-.68 0-1.21.34-1.6 1.01-.4.67-.6 1.66-.6 2.96 0 .87.08 1.6.26 2.2.18.58.43 1.03.76 1.33.33.3.73.45 1.18.45Zm6.76 1.58c-.33 0-.6-.12-.83-.34a1.1 1.1 0 0 1-.35-.83c0-.32.12-.6.35-.83a1.16 1.16 0 0 1 1.64 0 1.12 1.12 0 0 1 .19 1.42c-.1.17-.25.32-.43.42-.17.1-.36.16-.57.16Zm6.75.09c-.88 0-1.63-.22-2.26-.67a4.24 4.24 0 0 1-1.45-1.93 8.3 8.3 0 0 1-.5-3.05c0-1.2.17-2.2.5-3.04a4.3 4.3 0 0 1 1.45-1.92 3.82 3.82 0 0 1 2.26-.66c.87 0 1.62.22 2.25.66a4.13 4.13 0 0 1 1.44 1.92c.34.84.5 1.85.5 3.04s-.16 2.2-.5 3.05a4.16 4.16 0 0 1-1.44 1.93c-.63.45-1.38.67-2.25.67Zm0-1.67c.68 0 1.22-.34 1.61-1 .4-.68.6-1.67.6-2.98 0-.87-.1-1.6-.27-2.19a2.9 2.9 0 0 0-.77-1.33c-.33-.3-.72-.45-1.17-.45-.68 0-1.22.34-1.61 1.01-.4.67-.6 1.66-.6 2.96 0 .87.08 1.6.26 2.2.18.58.44 1.03.77 1.33.33.3.72.45 1.18.45Zm10 1.67c-.88 0-1.63-.22-2.26-.67a4.24 4.24 0 0 1-1.44-1.93 8.3 8.3 0 0 1-.5-3.05c0-1.2.17-2.2.5-3.04.34-.84.82-1.48 1.45-1.92a3.82 3.82 0 0 1 2.25-.66c.87 0 1.63.22 2.25.66a4.13 4.13 0 0 1 1.45 1.92c.34.84.5 1.85.5 3.04s-.16 2.2-.5 3.05a4.16 4.16 0 0 1-1.45 1.93c-.62.45-1.37.67-2.25.67Zm0-1.67c.68 0 1.22-.34 1.62-1 .4-.68.6-1.67.6-2.98 0-.87-.1-1.6-.28-2.19a2.9 2.9 0 0 0-.77-1.33c-.33-.3-.72-.45-1.17-.45-.68 0-1.21.34-1.6 1.01-.4.67-.6 1.66-.6 2.96 0 .87.08 1.6.26 2.2.18.58.43 1.03.76 1.33.33.3.73.45 1.18.45Z"/>
  <path fill="#161A1E" d="M465.96 23v-8.73h3.11c.68 0 1.24.12 1.68.35.45.24.79.56 1 .97.23.4.34.88.34 1.42 0 .53-.11 1-.34 1.4a2.2 2.2 0 0 1-1 .95c-.45.23-1 .34-1.69.34h-2.35v-1.14h2.24c.42 0 .77-.06 1.04-.18s.46-.3.59-.53c.12-.23.19-.51.19-.84 0-.33-.07-.62-.2-.86a1.24 1.24 0 0 0-.59-.55c-.27-.13-.62-.2-1.05-.2h-1.65V23h-1.32Zm4.3-3.94 2.16 3.94h-1.5l-2.11-3.94h1.46Zm6.07 4.07a3.3 3.3 0 0 1-1.67-.41 2.8 2.8 0 0 1-1.07-1.17c-.25-.5-.38-1.1-.38-1.78 0-.67.13-1.26.38-1.77s.6-.91 1.06-1.2a3.2 3.2 0 0 1 2.67-.25 2.6 2.6 0 0 1 1.58 1.6c.16.41.24.92.24 1.5v.46h-5.2v-.95h3.95c0-.34-.07-.64-.2-.9a1.55 1.55 0 0 0-1.44-.84 1.74 1.74 0 0 0-1.55.95c-.14.28-.21.58-.21.9v.75c0 .44.07.81.22 1.12a1.72 1.72 0 0 0 1.63.94c.24 0 .46-.03.66-.1s.37-.18.52-.32c.14-.14.25-.3.33-.51l1.2.21c-.09.36-.26.67-.51.94-.25.26-.56.47-.94.61-.37.15-.8.22-1.27.22Zm4.22-.13v-6.55h1.22v1.07h.09c.13-.36.35-.64.66-.84.31-.2.69-.31 1.12-.31.44 0 .8.1 1.1.3.3.21.51.5.66.85h.06c.16-.35.41-.63.75-.84.34-.2.75-.31 1.22-.31.6 0 1.08.19 1.45.56.38.37.57.93.57 1.68V23h-1.27v-4.27c0-.44-.13-.76-.37-.96a1.3 1.3 0 0 0-.86-.3c-.42 0-.74.13-.97.38a1.4 1.4 0 0 0-.34.98V23h-1.27v-4.35c0-.36-.12-.64-.34-.86a1.19 1.19 0 0 0-.86-.32c-.24 0-.47.06-.67.2-.2.12-.37.29-.5.51a1.6 1.6 0 0 0-.17.78V23h-1.28Zm12.51.14c-.41 0-.79-.07-1.12-.23a1.9 1.9 0 0 1-.8-.67 1.9 1.9 0 0 1-.29-1.09c0-.37.07-.67.21-.91.15-.24.34-.43.58-.57a3 3 0 0 1 .8-.31c.3-.07.61-.13.92-.17l.95-.1c.25-.04.43-.09.54-.16.1-.06.16-.17.16-.33v-.03c0-.37-.1-.66-.31-.86-.2-.2-.52-.3-.93-.3-.43 0-.77.09-1.01.28-.25.18-.42.4-.51.62l-1.2-.27a2.3 2.3 0 0 1 1.57-1.5 3.71 3.71 0 0 1 1.96-.08c.3.06.57.17.83.34.26.16.47.39.63.69.17.3.25.69.25 1.16V23h-1.24v-.9H495c-.09.17-.2.33-.37.5-.17.15-.38.28-.64.39-.26.1-.57.15-.93.15Zm.28-1.02c.35 0 .65-.07.9-.2.25-.15.45-.33.58-.55.13-.23.2-.47.2-.73v-.84a.66.66 0 0 1-.27.12c-.12.04-.27.07-.44.1a50.15 50.15 0 0 1-.87.12c-.25.04-.47.09-.68.16-.2.08-.36.18-.48.32a.8.8 0 0 0-.18.55c0 .31.12.55.35.71.23.16.53.24.89.24Zm4.65.88v-6.55h1.27V23H498Zm.64-7.56a.8.8 0 0 1-.57-.22.72.72 0 0 1-.23-.53c0-.21.08-.4.23-.54a.8.8 0 0 1 .57-.23c.22 0 .41.08.57.23a.7.7 0 0 1 .24.54.7.7 0 0 1-.24.53.8.8 0 0 1-.57.22Zm3.62 3.67V23h-1.27v-6.55h1.22v1.07h.08c.15-.35.39-.63.7-.84a2.2 2.2 0 0 1 1.23-.31c.45 0 .84.1 1.17.28.34.19.6.46.78.83.19.36.28.82.28 1.36V23h-1.27v-4.01c0-.47-.13-.85-.37-1.11-.25-.27-.6-.4-1.02-.4-.3 0-.56.06-.8.18-.22.13-.4.32-.53.57-.13.24-.2.54-.2.88Zm5.9 3.89v-6.55h1.27V23h-1.27Zm.64-7.56a.8.8 0 0 1-.57-.22.72.72 0 0 1-.23-.53c0-.21.08-.4.23-.54a.8.8 0 0 1 .57-.23c.22 0 .41.08.57.23a.7.7 0 0 1 .24.54.7.7 0 0 1-.24.53.8.8 0 0 1-.57.22Zm3.62 3.67V23h-1.27v-6.55h1.22v1.07h.08c.15-.35.39-.63.7-.84a2.2 2.2 0 0 1 1.23-.31c.45 0 .84.1 1.17.28.34.19.6.46.78.83a3 3 0 0 1 .28 1.36V23h-1.27v-4.01c0-.47-.13-.85-.37-1.11-.25-.27-.6-.4-1.02-.4-.3 0-.56.06-.8.18-.22.13-.4.32-.53.57-.13.24-.2.54-.2.88Zm8.64 6.48c-.52 0-.96-.07-1.34-.2a2.6 2.6 0 0 1-.91-.54 2.28 2.28 0 0 1-.53-.74l1.1-.45a1.63 1.63 0 0 0 .83.75c.23.1.51.15.87.15.48 0 .88-.11 1.2-.35.31-.23.47-.6.47-1.12v-1.28h-.08a3 3 0 0 1-.34.46 1.8 1.8 0 0 1-.58.44 2.73 2.73 0 0 1-2.37-.17c-.42-.24-.75-.6-.99-1.08a3.9 3.9 0 0 1-.36-1.76c0-.7.12-1.3.36-1.79a2.55 2.55 0 0 1 2.39-1.54c.4 0 .73.07.98.2a2.07 2.07 0 0 1 .91.95h.1v-1.07H524v6.7a2.3 2.3 0 0 1-.4 1.38 2.3 2.3 0 0 1-1.06.8c-.44.17-.94.26-1.5.26Zm0-3.74c.36 0 .67-.09.92-.26.26-.17.45-.42.58-.74.13-.33.2-.71.2-1.17 0-.44-.07-.82-.2-1.16-.13-.33-.32-.6-.57-.78a1.52 1.52 0 0 0-.94-.29c-.38 0-.7.1-.96.3-.25.2-.45.46-.58.8-.13.34-.19.72-.19 1.13a3 3 0 0 0 .2 1.13c.13.33.32.58.58.76.25.18.57.28.95.28Z" opacity=".5"/>
  <path fill="#161A1E" d="M469.49 45.36V31.73h.87v13.63h-.88ZM472 36.1a1.46 1.46 0 0 0-.62-1.09 2.42 2.42 0 0 0-1.43-.39c-.41 0-.77.07-1.06.2-.3.12-.52.28-.68.5a1.24 1.24 0 0 0-.08 1.32c.1.16.25.3.43.42s.38.21.6.3c.22.07.44.14.67.19l1.02.25c.41.1.8.23 1.19.4a4 4 0 0 1 1.02.61c.31.25.55.55.73.9.18.35.26.76.26 1.24a2.96 2.96 0 0 1-1.9 2.82c-.62.27-1.36.4-2.23.4a5.7 5.7 0 0 1-2.21-.39 3.3 3.3 0 0 1-1.46-1.15 3.4 3.4 0 0 1-.57-1.84h1.95c.02.38.14.7.35.95.2.25.47.44.8.56a3.29 3.29 0 0 0 2.25-.01c.33-.13.58-.3.77-.54.18-.23.28-.5.28-.82 0-.28-.09-.52-.25-.7a1.8 1.8 0 0 0-.69-.47 6.4 6.4 0 0 0-1.02-.34l-1.24-.32a5 5 0 0 1-2.13-1.05 2.42 2.42 0 0 1-.78-1.88c0-.64.17-1.2.52-1.69.35-.48.83-.86 1.43-1.12.6-.27 1.3-.4 2.06-.4.77 0 1.45.13 2.03.4.59.26 1.05.63 1.38 1.11.33.47.5 1.02.52 1.63H472Zm3.71 7.91v-1.43l3.79-3.71c.36-.37.66-.7.9-.98.25-.28.43-.55.55-.82.12-.27.18-.55.18-.85a1.57 1.57 0 0 0-.88-1.46c-.27-.14-.58-.2-.93-.2-.36 0-.68.07-.95.22a1.5 1.5 0 0 0-.63.62c-.14.27-.21.6-.21.97h-1.88a3.2 3.2 0 0 1 1.78-3 4.2 4.2 0 0 1 1.91-.42c.74 0 1.38.14 1.93.41.56.28.99.65 1.3 1.13a3.25 3.25 0 0 1 .23 2.83c-.17.4-.44.83-.84 1.31a20.7 20.7 0 0 1-1.64 1.74l-1.88 1.91v.08h4.75V44h-7.48Zm13.35.2c-.88 0-1.63-.21-2.26-.66a4.25 4.25 0 0 1-1.44-1.93 8.33 8.33 0 0 1-.5-3.05c0-1.2.17-2.2.5-3.04.34-.84.82-1.48 1.45-1.92a3.83 3.83 0 0 1 2.25-.66c.87 0 1.62.22 2.25.66a4.16 4.16 0 0 1 1.45 1.92c.33.84.5 1.85.5 3.04s-.17 2.2-.5 3.05a4.16 4.16 0 0 1-1.45 1.93c-.62.45-1.37.67-2.25.67Zm0-1.66c.68 0 1.22-.34 1.61-1 .4-.68.6-1.67.6-2.98 0-.87-.1-1.6-.27-2.19a2.89 2.89 0 0 0-.77-1.33c-.33-.3-.72-.45-1.17-.45-.68 0-1.21.34-1.6 1.01-.4.67-.6 1.66-.6 2.96 0 .87.08 1.6.25 2.2.19.58.44 1.03.77 1.33.33.3.73.45 1.18.45Zm6.76 1.58c-.33 0-.6-.12-.83-.34a1.1 1.1 0 0 1-.35-.83c0-.32.12-.6.35-.83a1.16 1.16 0 0 1 1.64 0 1.12 1.12 0 0 1 .19 1.42c-.1.17-.25.32-.43.42-.17.1-.36.16-.57.16Zm6.75.09c-.88 0-1.63-.22-2.26-.67a4.25 4.25 0 0 1-1.45-1.93 8.3 8.3 0 0 1-.5-3.05c0-1.2.18-2.2.5-3.04a4.3 4.3 0 0 1 1.45-1.92 3.83 3.83 0 0 1 2.25-.66c.88 0 1.63.22 2.26.66a4.13 4.13 0 0 1 1.44 1.92c.34.84.5 1.85.5 3.04s-.16 2.2-.5 3.05a4.16 4.16 0 0 1-1.44 1.93c-.63.45-1.38.67-2.25.67Zm0-1.67c.68 0 1.22-.34 1.6-1 .4-.68.6-1.67.6-2.98 0-.87-.08-1.6-.27-2.19a2.9 2.9 0 0 0-.76-1.33c-.33-.3-.72-.45-1.18-.45-.67 0-1.2.34-1.6 1.01-.4.67-.6 1.66-.6 2.96 0 .87.08 1.6.26 2.2.18.58.44 1.03.77 1.33.33.3.72.45 1.18.45Zm10 1.67c-.88 0-1.63-.22-2.26-.67a4.24 4.24 0 0 1-1.44-1.93 8.3 8.3 0 0 1-.5-3.05c0-1.2.17-2.2.5-3.04.34-.84.82-1.48 1.45-1.92a3.83 3.83 0 0 1 2.25-.66c.87 0 1.63.22 2.25.66a4.13 4.13 0 0 1 1.45 1.92c.33.84.5 1.85.5 3.04s-.17 2.2-.5 3.05a4.16 4.16 0 0 1-1.45 1.93c-.62.45-1.37.67-2.25.67Zm0-1.67c.68 0 1.22-.34 1.61-1 .4-.68.6-1.67.6-2.98 0-.87-.09-1.6-.27-2.19a2.9 2.9 0 0 0-.77-1.33c-.33-.3-.72-.45-1.17-.45-.68 0-1.21.34-1.6 1.01-.4.67-.6 1.66-.6 2.96 0 .87.08 1.6.26 2.2.18.58.43 1.03.76 1.33.33.3.73.45 1.18.45Z"/>
  <g filter="url(#filter1_d_4177_18010)">
    <mask id="a" fill="#fff">
      <path d="M217 60h536v416H217V60Z"/>
    </mask>
    <path fill="#fff" d="M217 60h536v416H217V60Z"/>
    <path fill="#E3E5E7" d="M753 475.11H217v1.78h536v-1.78Z" mask="url(#a)"/>
    <mask id="b" fill="#fff">
      <path d="M217 60h536v36H217V60Z"/>
    </mask>
    <path fill="#FBFBFB" d="M217 60h536v36H217V60Z"/>
    <path fill="#18293B" fill-opacity=".12" d="M753 95.11H217v1.78h536V95.1Z" mask="url(#b)"/>
    <path fill="#838E99" d="M230.84 83h-1.52l3.4-9.45h1.65l3.4 9.45h-1.5l-2.68-7.74h-.08L230.84 83Zm.25-3.7H236v1.2h-4.9v-1.2Zm8.07 3.7v-7.1h1.33v1.16h.08c.15-.39.4-.7.73-.91.33-.22.73-.33 1.2-.33a1.87 1.87 0 0 1 1.9 1.24h.08a2 2 0 0 1 .81-.9c.37-.23.81-.34 1.32-.34.64 0 1.17.2 1.58.6.4.4.61 1.01.61 1.83V83h-1.38v-4.63c0-.48-.13-.82-.4-1.04a1.43 1.43 0 0 0-.93-.32c-.45 0-.8.14-1.05.41-.25.28-.37.63-.37 1.06V83h-1.38v-4.71c0-.39-.12-.7-.36-.93A1.29 1.29 0 0 0 242 77a1.4 1.4 0 0 0-1.25.77c-.13.25-.2.53-.2.85V83h-1.38Zm14.6.14a3.07 3.07 0 0 1-2.89-1.73 4.24 4.24 0 0 1-.4-1.92c0-.74.13-1.38.4-1.93a3.08 3.08 0 0 1 2.9-1.74 3 3 0 0 1 2.89 1.74c.27.55.41 1.2.41 1.93s-.13 1.37-.4 1.92a3.09 3.09 0 0 1-2.9 1.73Zm.01-1.16c.43 0 .79-.1 1.07-.34a2 2 0 0 0 .63-.9c.14-.39.2-.8.2-1.26 0-.45-.06-.87-.2-1.24a2.03 2.03 0 0 0-.63-.92 1.64 1.64 0 0 0-1.07-.35c-.43 0-.8.12-1.08.35-.28.23-.5.53-.63.92-.14.37-.2.79-.2 1.24 0 .46.06.87.2 1.25s.35.69.63.91c.29.23.65.34 1.08.34Zm9.47-1.92V75.9h1.38V83h-1.36v-1.23h-.07c-.17.38-.43.7-.79.95-.35.25-.8.37-1.33.37a2.1 2.1 0 0 1-2.03-1.2c-.2-.4-.3-.89-.3-1.47V75.9h1.38v4.34c0 .49.14.87.4 1.16.27.28.62.43 1.05.43a1.7 1.7 0 0 0 1.41-.78c.17-.27.26-.6.25-1Zm4.74-1.27V83h-1.38v-7.1h1.33v1.16h.09c.16-.37.42-.67.76-.9.35-.23.8-.34 1.33-.34.48 0 .9.1 1.27.3.36.2.64.5.84.9.2.4.3.88.3 1.47V83h-1.38v-4.34c0-.52-.13-.92-.4-1.2a1.4 1.4 0 0 0-1.1-.45c-.32 0-.6.07-.86.21a1.5 1.5 0 0 0-.58.6 2 2 0 0 0-.22.97Zm9.83-2.88V77h-3.87v-1.1h3.87Zm-2.83-1.7h1.38v6.7c0 .28.04.48.12.61.08.14.18.23.3.28a1.61 1.61 0 0 0 .71.05l.2-.05.25 1.14a2.69 2.69 0 0 1-1.91-.05 1.74 1.74 0 0 1-.76-.62 1.8 1.8 0 0 1-.3-1.07v-6.99Zm59.46 2.32c-.1-.28-.21-.53-.36-.75a2.31 2.31 0 0 0-1.24-.94 2.84 2.84 0 0 0-2.3.29 2.8 2.8 0 0 0-1.02 1.2 4.53 4.53 0 0 0-.37 1.94c0 .76.13 1.41.38 1.94s.59.93 1.02 1.2c.43.28.93.42 1.48.42.52 0 .96-.1 1.35-.32.38-.2.68-.5.89-.88.2-.39.31-.84.31-1.36l.37.07h-2.7v-1.18h3.71v1.08c0 .8-.16 1.48-.5 2.07-.34.58-.8 1.03-1.4 1.34-.59.32-1.26.48-2.03.48a4 4 0 0 1-3.76-2.27 5.76 5.76 0 0 1-.54-2.58c0-.76.1-1.43.32-2.03.2-.6.5-1.11.88-1.53.38-.42.83-.75 1.34-.97a4.37 4.37 0 0 1 3.12-.11 3.85 3.85 0 0 1 2.05 1.63c.23.38.38.8.46 1.26h-1.46Zm5.42 6.63a2.9 2.9 0 0 1-1.22-.25 2.05 2.05 0 0 1-.86-.74 2.1 2.1 0 0 1-.32-1.17c0-.4.08-.73.23-1 .16-.25.37-.45.63-.6.26-.16.55-.27.87-.35.33-.07.66-.13 1-.17.42-.05.76-.1 1.03-.12.26-.04.45-.09.57-.16a.4.4 0 0 0 .18-.36v-.04c0-.4-.11-.71-.34-.93-.22-.23-.56-.34-1-.34-.47 0-.84.1-1.1.31-.27.2-.45.43-.55.68l-1.3-.3a2.5 2.5 0 0 1 1.7-1.62 4.02 4.02 0 0 1 2.13-.08c.32.06.62.18.9.36a2 2 0 0 1 .68.75c.18.32.27.74.27 1.26V83H342v-.97h-.06c-.08.18-.22.35-.4.53-.18.17-.4.31-.69.43-.28.11-.61.17-1 .17Zm.3-1.11c.38 0 .7-.08.98-.23a1.54 1.54 0 0 0 .84-1.38v-.91a.72.72 0 0 1-.29.14l-.47.1a52.26 52.26 0 0 1-.95.14c-.27.03-.51.09-.73.17-.22.08-.4.2-.53.34a.87.87 0 0 0-.2.6c0 .34.13.6.38.77.26.17.58.26.97.26Zm8.48-6.14V77h-3.88v-1.1h3.88Zm-2.84-1.7h1.38v6.7c0 .28.04.48.12.61.08.14.19.23.31.28a1.61 1.61 0 0 0 .71.05l.2-.05.25 1.14a2.69 2.69 0 0 1-1.91-.05 1.74 1.74 0 0 1-.77-.62 1.8 1.8 0 0 1-.29-1.07v-6.99Zm7.47 8.93a3.04 3.04 0 0 1-2.97-1.72 4.3 4.3 0 0 1-.4-1.92c0-.73.13-1.37.4-1.92.28-.55.66-.99 1.15-1.3a3.48 3.48 0 0 1 2.89-.27 2.83 2.83 0 0 1 1.72 1.73c.17.45.26 1 .26 1.64v.49h-5.64v-1.03h4.28c0-.37-.07-.69-.22-.97a1.67 1.67 0 0 0-1.55-.91c-.4 0-.73.1-1.02.28-.29.2-.5.44-.67.74-.15.3-.23.63-.23.99v.8c0 .48.09.88.25 1.21.17.33.4.59.71.76a2 2 0 0 0 1.06.26c.26 0 .5-.03.71-.1a1.5 1.5 0 0 0 .92-.9l1.3.23c-.1.38-.28.72-.56 1-.26.3-.6.52-1 .68-.4.15-.87.23-1.39.23Zm6.23-.14-2.08-7.1h1.42l1.4 5.22h.06l1.4-5.21h1.42l1.39 5.18h.06l1.39-5.18h1.42L365.3 83h-1.4l-1.45-5.12h-.1L360.9 83h-1.4Zm11.39.16a2.9 2.9 0 0 1-1.22-.25 2.05 2.05 0 0 1-.87-.74 2.1 2.1 0 0 1-.31-1.17c0-.4.08-.73.23-1 .15-.25.36-.45.62-.6.27-.16.56-.27.88-.35.32-.07.65-.13.99-.17.42-.05.77-.1 1.03-.12.27-.04.46-.09.58-.16a.4.4 0 0 0 .18-.36v-.04c0-.4-.11-.71-.34-.93-.23-.23-.56-.34-1-.34a1.65 1.65 0 0 0-1.65.99l-1.3-.3a2.5 2.5 0 0 1 1.7-1.62 4.02 4.02 0 0 1 2.12-.08c.32.06.62.18.9.36.28.17.5.42.69.75.18.32.26.74.26 1.26V83h-1.34v-.97h-.06a2 2 0 0 1-1.09.96c-.28.11-.61.17-1 .17Zm.3-1.11c.38 0 .7-.08.97-.23a1.59 1.59 0 0 0 .84-1.38v-.91a.73.73 0 0 1-.28.14 62.76 62.76 0 0 1-1.42.24c-.27.03-.52.09-.74.17-.22.08-.4.2-.52.34a.87.87 0 0 0-.2.6c0 .34.13.6.38.77.25.17.57.26.97.26Zm5.78 3.6a2.87 2.87 0 0 1-.94-.14l.33-1.13c.25.06.48.1.68.08a.8.8 0 0 0 .52-.22c.15-.14.29-.36.4-.68l.18-.47-2.6-7.18h1.48l1.8 5.5h.07l1.8-5.5h1.48l-2.93 8.04c-.13.37-.3.68-.51.93a2 2 0 0 1-.75.59c-.3.12-.63.19-1 .19Zm31.07-12.1h1.73l3.01 7.34h.11l3.01-7.34h1.73V83h-1.36v-6.84h-.08l-2.8 6.83h-1.12l-2.79-6.84h-.08V83h-1.36v-9.45Zm14.74 9.6c-.7 0-1.3-.16-1.8-.45-.5-.3-.9-.73-1.17-1.27a4.3 4.3 0 0 1-.4-1.93c0-.73.13-1.37.4-1.92.28-.55.66-.99 1.15-1.3a3.47 3.47 0 0 1 2.89-.27 2.8 2.8 0 0 1 1.71 1.73c.18.45.26 1 .26 1.64v.49h-5.63v-1.03h4.28c0-.37-.07-.69-.22-.97a1.67 1.67 0 0 0-1.56-.91c-.38 0-.72.1-1.01.28-.29.2-.51.44-.67.74-.15.3-.23.63-.23.99v.8c0 .48.09.88.25 1.21.17.33.4.59.7.76.3.18.66.26 1.06.26.27 0 .5-.03.72-.1a1.48 1.48 0 0 0 .92-.9l1.3.23a2.62 2.62 0 0 1-1.56 1.68c-.41.15-.87.23-1.39.23Zm8.02-7.24V77h-3.88v-1.1h3.88Zm-2.84-1.7h1.38v6.7c0 .28.04.48.12.61a.6.6 0 0 0 .31.28 1.61 1.61 0 0 0 .71.05l.2-.05.24 1.14a2.69 2.69 0 0 1-1.91-.05 1.74 1.74 0 0 1-.76-.62 1.8 1.8 0 0 1-.29-1.07v-6.99Zm6.02 4.58V83h-1.38v-9.45h1.37v3.51h.08c.17-.38.42-.68.76-.9a2.4 2.4 0 0 1 1.34-.34c.49 0 .92.1 1.28.3.37.2.65.5.85.9.2.39.3.88.3 1.47V83h-1.38v-4.34c0-.52-.13-.93-.4-1.21a1.45 1.45 0 0 0-1.12-.44c-.32 0-.62.07-.87.21a1.5 1.5 0 0 0-.6.6c-.15.27-.23.6-.23.97Zm9.56 4.35c-.66 0-1.24-.15-1.74-.45-.5-.3-.88-.73-1.15-1.28a4.24 4.24 0 0 1-.41-1.92c0-.74.13-1.38.4-1.93a3.07 3.07 0 0 1 2.9-1.74c.67 0 1.25.15 1.74.45.5.3.88.74 1.16 1.29.27.55.4 1.2.4 1.93s-.13 1.37-.4 1.92a3.09 3.09 0 0 1-2.9 1.73Zm0-1.16c.44 0 .8-.1 1.08-.34a2 2 0 0 0 .63-.9 3.92 3.92 0 0 0 0-2.5 2.04 2.04 0 0 0-.63-.92 1.64 1.64 0 0 0-1.07-.35c-.44 0-.8.12-1.08.35-.29.23-.5.53-.64.92a3.81 3.81 0 0 0 0 2.49c.14.38.35.69.64.91.28.23.64.34 1.08.34Zm7.63 1.16a2.75 2.75 0 0 1-2.58-1.7 4.67 4.67 0 0 1-.38-1.97c0-.77.13-1.42.38-1.97a2.76 2.76 0 0 1 2.59-1.69 2.14 2.14 0 0 1 1.69.73c.15.2.27.37.35.52h.08v-3.51h1.38V83h-1.34v-1.1h-.12c-.08.15-.2.32-.36.51-.15.2-.37.37-.64.51-.27.15-.62.22-1.05.22Zm.3-1.18c.4 0 .74-.1 1.01-.31.28-.22.49-.5.63-.88s.22-.82.22-1.32c0-.49-.07-.92-.21-1.29a1.9 1.9 0 0 0-.63-.86c-.27-.2-.61-.31-1.01-.31-.42 0-.77.1-1.04.32-.28.22-.49.51-.63.88-.14.38-.2.8-.2 1.26 0 .48.06.9.2 1.28.15.38.36.68.63.9.28.22.63.33 1.04.33Zm41.73-5.93a1.35 1.35 0 0 0-.61-1.02 2.38 2.38 0 0 0-1.35-.36c-.39 0-.73.06-1 .18-.3.12-.51.29-.67.5a1.21 1.21 0 0 0-.07 1.3c.1.16.25.3.42.41.17.1.36.2.56.27l.58.18.92.24c.3.07.61.17.93.3.32.12.61.29.88.5a2.21 2.21 0 0 1 .9 1.86c.01.53-.13 1-.4 1.42-.28.42-.68.75-1.2.99-.52.24-1.15.36-1.89.36-.7 0-1.32-.12-1.84-.34a2.83 2.83 0 0 1-1.21-.96c-.3-.41-.45-.9-.48-1.47h1.43c.02.34.13.62.33.85.2.23.45.4.75.5a2.97 2.97 0 0 0 2.09-.03c.31-.12.56-.3.75-.53.18-.23.27-.5.27-.8a1 1 0 0 0-.24-.7 1.77 1.77 0 0 0-.64-.44 6.26 6.26 0 0 0-.91-.3l-1.12-.31a4.24 4.24 0 0 1-1.8-.91c-.44-.4-.66-.93-.66-1.59 0-.54.15-1.02.44-1.43.3-.4.7-.72 1.2-.94.5-.23 1.08-.34 1.71-.34a4 4 0 0 1 1.7.33c.49.23.88.54 1.16.93.28.4.43.84.44 1.35h-1.38Zm6.53-.12V77h-3.87v-1.1h3.87Zm-2.83-1.7h1.38v6.7c0 .28.04.48.12.61.08.14.18.23.3.28a1.61 1.61 0 0 0 .71.05l.2-.05.25 1.14a2.7 2.7 0 0 1-1.91-.05 1.74 1.74 0 0 1-.76-.62 1.8 1.8 0 0 1-.29-1.07v-6.99Zm6.56 8.95a2.9 2.9 0 0 1-1.22-.25 2.05 2.05 0 0 1-.87-.74 2.1 2.1 0 0 1-.31-1.17c0-.4.08-.73.23-1 .15-.25.36-.45.62-.6.26-.16.56-.27.88-.35.32-.07.65-.13.99-.17.42-.05.77-.1 1.03-.12.27-.04.46-.09.58-.16a.4.4 0 0 0 .18-.36v-.04c0-.4-.12-.71-.34-.93-.23-.23-.56-.34-1-.34a1.65 1.65 0 0 0-1.65.99l-1.3-.3a2.5 2.5 0 0 1 1.7-1.62 4.02 4.02 0 0 1 2.12-.08c.32.06.62.18.9.36.28.17.5.42.69.75.18.32.26.74.26 1.26V83h-1.34v-.97h-.06a2.05 2.05 0 0 1-1.09.96c-.28.11-.61.17-1 .17Zm.3-1.11c.38 0 .7-.08.97-.23a1.59 1.59 0 0 0 .84-1.38v-.91a.73.73 0 0 1-.28.14 62.76 62.76 0 0 1-1.42.24c-.27.03-.52.09-.74.17-.22.08-.4.2-.52.34a.87.87 0 0 0-.2.6c0 .34.13.6.38.77.25.17.57.26.96.26Zm8.47-6.14V77h-3.87v-1.1h3.87Zm-2.83-1.7h1.38v6.7c0 .28.04.48.12.61.08.14.18.23.3.28a1.6 1.6 0 0 0 .71.05l.2-.05.25 1.14a2.7 2.7 0 0 1-1.91-.05 1.75 1.75 0 0 1-.76-.62 1.8 1.8 0 0 1-.3-1.07v-6.99Zm8.98 5.85V75.9h1.39V83h-1.36v-1.23h-.07c-.17.38-.43.7-.79.95-.36.25-.8.37-1.33.37a2.1 2.1 0 0 1-2.03-1.2c-.2-.4-.3-.89-.3-1.47V75.9h1.38v4.34c0 .49.13.87.4 1.16.27.28.62.43 1.05.43a1.7 1.7 0 0 0 1.4-.78c.18-.27.26-.6.26-1Zm8.68-2.42-1.25.22a1.47 1.47 0 0 0-.25-.46 1.24 1.24 0 0 0-.45-.35c-.19-.1-.43-.14-.71-.14-.4 0-.72.09-.98.26-.26.18-.4.4-.4.67 0 .24.1.43.27.58.17.14.46.26.85.35l1.12.26c.66.15 1.14.38 1.46.7.32.31.48.72.48 1.22 0 .42-.12.8-.37 1.14-.24.33-.58.58-1.02.77-.43.19-.93.28-1.5.28-.8 0-1.45-.17-1.95-.5a2.2 2.2 0 0 1-.92-1.46l1.33-.2c.08.35.25.6.51.79.26.17.6.26 1.01.26.46 0 .82-.1 1.09-.28.27-.2.4-.42.4-.7 0-.22-.08-.4-.24-.56a1.63 1.63 0 0 0-.76-.34l-1.2-.26a2.89 2.89 0 0 1-1.47-.72 1.74 1.74 0 0 1-.47-1.25c0-.42.12-.79.36-1.1.23-.32.55-.56.97-.74.4-.17.88-.26 1.41-.26.77 0 1.37.16 1.81.5.44.32.73.77.87 1.32Z"/>
    <path fill="#18293B" fill-opacity=".12" d="M753 159.11H217v1.78h536v-1.78Z" mask="url(#path-19-inside-4_4177_18010)"/>
    <path fill="#161A1E" d="M232.89 133.68v-11.82h.75v11.82h-.75Zm2.18-8.04c-.04-.4-.22-.71-.54-.94a2.09 2.09 0 0 0-1.24-.33c-.36 0-.66.05-.92.16-.25.1-.45.25-.59.44a1.06 1.06 0 0 0-.07 1.14c.1.14.22.27.37.37.16.1.33.18.52.25.2.07.39.12.58.17l.89.22c.36.08.7.2 1.03.34.33.14.63.32.89.53a2.34 2.34 0 0 1 .86 1.85 2.56 2.56 0 0 1-1.66 2.45 4.8 4.8 0 0 1-1.93.35c-.73 0-1.37-.11-1.91-.34a2.85 2.85 0 0 1-1.27-1 3 3 0 0 1-.49-1.6h1.69a1.43 1.43 0 0 0 1 1.32 2.94 2.94 0 0 0 1.95-.01c.28-.11.5-.27.66-.47.16-.2.24-.44.25-.7a.9.9 0 0 0-.22-.62 1.6 1.6 0 0 0-.6-.4 6 6 0 0 0-.88-.3l-1.08-.28c-.78-.2-1.4-.5-1.85-.9a2.1 2.1 0 0 1-.67-1.64c0-.55.15-1.04.45-1.46.3-.42.72-.74 1.24-.97a4.31 4.31 0 0 1 1.78-.35c.67 0 1.26.11 1.76.35.51.23.91.55 1.2.96.29.41.44.88.45 1.41h-1.65Zm7.06-2.6v9.46h-1.72v-7.79h-.05l-2.21 1.42v-1.57l2.35-1.52h1.63Zm2.4 9.46v-1.24l3.28-3.22c.31-.31.58-.6.79-.84.2-.25.36-.48.47-.72.1-.23.15-.47.15-.73 0-.3-.06-.56-.2-.77a1.35 1.35 0 0 0-.56-.5 1.8 1.8 0 0 0-.8-.17c-.32 0-.59.06-.82.19-.24.13-.42.3-.55.54-.12.23-.19.51-.19.83h-1.63a2.77 2.77 0 0 1 1.54-2.6 3.65 3.65 0 0 1 1.67-.35c.63 0 1.19.11 1.67.35s.85.56 1.12.98c.26.4.4.88.4 1.4 0 .36-.07.71-.2 1.05-.14.34-.38.72-.72 1.14-.34.41-.82.92-1.43 1.5L246.9 131v.07h4.12v1.43h-6.48Zm9.12.1a.99.99 0 0 1-.72-.3.96.96 0 0 1-.3-.71c0-.28.1-.52.3-.72.2-.2.44-.29.72-.29.27 0 .5.1.7.3a.97.97 0 0 1 .17 1.22c-.1.15-.22.28-.37.37a.96.96 0 0 1-.5.13Zm5.85.08a3.3 3.3 0 0 1-1.96-.58 3.68 3.68 0 0 1-1.25-1.67 7.2 7.2 0 0 1-.43-2.65c0-1.03.15-1.9.44-2.63.29-.73.7-1.28 1.25-1.66.54-.38 1.2-.57 1.95-.57.76 0 1.4.19 1.95.57.55.38.96.93 1.25 1.66.3.73.44 1.6.44 2.63 0 1.04-.14 1.92-.44 2.65-.29.73-.7 1.29-1.25 1.67-.54.39-1.19.58-1.95.58Zm0-1.44c.6 0 1.06-.3 1.4-.88.34-.58.52-1.44.52-2.58 0-.75-.08-1.38-.24-1.9-.16-.5-.38-.89-.66-1.14-.3-.27-.63-.4-1.02-.4-.59 0-1.05.3-1.4.88a5.17 5.17 0 0 0-.51 2.56c0 .76.07 1.39.23 1.9.15.52.37.9.66 1.17.29.26.63.39 1.02.39Zm8.67 1.44a3.3 3.3 0 0 1-1.96-.58 3.68 3.68 0 0 1-1.25-1.67 7.2 7.2 0 0 1-.43-2.65c0-1.03.15-1.9.44-2.63.29-.73.7-1.28 1.25-1.66.54-.38 1.2-.57 1.95-.57.76 0 1.4.19 1.95.57.55.38.96.93 1.25 1.66.3.73.44 1.6.44 2.63 0 1.04-.14 1.92-.44 2.65-.29.73-.7 1.29-1.25 1.67-.54.39-1.19.58-1.95.58Zm0-1.44c.6 0 1.06-.3 1.4-.88.34-.58.52-1.44.52-2.58 0-.75-.08-1.38-.24-1.9a2.5 2.5 0 0 0-.66-1.14c-.29-.27-.63-.4-1.02-.4-.59 0-1.05.3-1.4.88a5.17 5.17 0 0 0-.51 2.56c0 .76.07 1.39.23 1.9.15.52.37.9.66 1.17.29.26.63.39 1.02.39Z"/>
    <g clip-path="url(#clip2_4177_18010)">
      <path fill="#6772E5" fill-rule="evenodd" d="M335.68 123.95c0-.86.7-1.2 1.86-1.2 1.9.05 3.77.53 5.46 1.42V119a14.5 14.5 0 0 0-5.46-1c-4.44 0-7.42 2.33-7.42 6.2 0 6.08 8.34 5.1 8.34 7.71 0 1.02-.87 1.34-2.1 1.34a13.8 13.8 0 0 1-6-1.75v5.24a15.3 15.3 0 0 0 6 1.26c4.56 0 7.7-2.25 7.7-6.2 0-6.56-8.38-5.39-8.38-7.85Z" clip-rule="evenodd"/>
    </g>
    <path fill="#9EACBD" d="M416.33 137.33a9.33 9.33 0 1 0 0-18.66 9.33 9.33 0 0 0 0 18.66Z"/>
    <path fill="#778495" fill-opacity=".8" d="M429.67 137.33a9.33 9.33 0 1 0 0-18.66 9.33 9.33 0 0 0 0 18.66Z"/>
    <rect width="77" height="24" x="487" y="116" fill="#00B442" fill-opacity=".1" rx="4"/>
    <path fill="#10B981" d="M505.02 126.73h-1.72a2.15 2.15 0 0 0-.77-1.31c-.2-.15-.42-.27-.67-.35a2.6 2.6 0 0 0-.81-.12 2.48 2.48 0 0 0-2.3 1.52c-.22.49-.34 1.1-.34 1.8 0 .73.12 1.33.34 1.83.23.5.54.87.93 1.12a2.75 2.75 0 0 0 2.16.26 2.17 2.17 0 0 0 1.17-.88c.14-.22.24-.46.29-.74l1.72.01a3.7 3.7 0 0 1-1.25 2.3c-.34.3-.75.54-1.21.71a4.4 4.4 0 0 1-1.54.25 4.02 4.02 0 0 1-3.77-2.24 5.62 5.62 0 0 1-.56-2.62c0-1.02.2-1.89.57-2.61a4.06 4.06 0 0 1 3.76-2.24c.53 0 1.02.07 1.47.22a3.75 3.75 0 0 1 2.08 1.7c.23.4.38.87.45 1.4Zm3.54 6.41c-.45 0-.85-.08-1.21-.24-.36-.16-.64-.4-.85-.72a2.1 2.1 0 0 1-.31-1.17 2 2 0 0 1 .22-1c.15-.25.35-.46.6-.62.26-.16.55-.28.87-.36a7.7 7.7 0 0 1 1-.18l1.01-.11c.26-.04.45-.1.56-.17.12-.07.18-.2.18-.35v-.03c0-.35-.1-.62-.3-.8-.21-.2-.5-.3-.9-.3s-.73.1-.97.27c-.24.18-.4.4-.48.64l-1.56-.23a2.48 2.48 0 0 1 1.65-1.73 4.43 4.43 0 0 1 2.38-.1c.33.08.64.2.92.4a2 2 0 0 1 .68.74c.17.31.25.7.25 1.17V133h-1.6v-.97h-.06a2.02 2.02 0 0 1-1.12.96c-.27.1-.59.15-.96.15Zm.43-1.22c.34 0 .63-.07.88-.2.24-.14.43-.32.56-.54.14-.22.2-.46.2-.72v-.84a.8.8 0 0 1-.26.12 15.48 15.48 0 0 1-.87.17l-.4.06c-.24.03-.47.09-.66.16-.2.08-.36.19-.47.33a.8.8 0 0 0-.17.52c0 .31.11.54.34.7.22.16.5.23.85.23Zm5 3.74v-9.75h1.64v1.17h.1c.08-.17.2-.35.36-.55.16-.2.37-.36.64-.5.26-.14.6-.21 1.02-.21a2.7 2.7 0 0 1 2.54 1.65c.26.54.39 1.2.39 2 0 .77-.13 1.43-.38 1.98-.26.54-.6.96-1.05 1.25a2.74 2.74 0 0 1-2.5.23c-.27-.14-.49-.3-.65-.5-.16-.2-.29-.38-.38-.55h-.06v3.78h-1.67Zm1.63-6.2c0 .45.07.85.2 1.2.13.34.32.61.56.8.25.2.56.3.91.3.37 0 .68-.1.93-.3.25-.2.43-.47.56-.82.13-.35.2-.74.2-1.18 0-.45-.07-.84-.2-1.18-.12-.34-.3-.6-.56-.8-.25-.2-.56-.3-.93-.3-.36 0-.66.1-.9.29-.26.19-.45.45-.58.79a3.6 3.6 0 0 0-.19 1.2Zm10.03-3.55v1.3h-4.08v-1.3h4.08Zm-3.07-1.7h1.67v6.66c0 .22.04.4.1.51.07.12.17.2.28.24.11.05.24.07.38.07a1.67 1.67 0 0 0 .49-.07l.28 1.31a3.78 3.78 0 0 1-.98.17c-.42 0-.8-.05-1.13-.2-.34-.13-.6-.35-.8-.65-.2-.3-.3-.66-.29-1.1v-6.94Zm8.99 5.8v-4.1h1.67V133h-1.62v-1.26h-.08c-.15.4-.42.72-.78.97a2.3 2.3 0 0 1-1.35.38c-.46 0-.87-.1-1.23-.3a2.25 2.25 0 0 1-.83-.92c-.2-.4-.3-.88-.3-1.45v-4.51h1.67v4.25c0 .46.12.81.37 1.08.25.26.57.4.97.4a1.53 1.53 0 0 0 1.28-.72c.15-.24.23-.54.23-.9Zm3.39 2.99v-7.1h1.62v1.2h.07a1.76 1.76 0 0 1 1.75-1.3 3.9 3.9 0 0 1 .6.05v1.54a3.17 3.17 0 0 0-.77-.1c-.3 0-.58.07-.83.2a1.45 1.45 0 0 0-.77 1.34V133h-1.67Zm8 .14c-.71 0-1.33-.15-1.84-.44a3 3 0 0 1-1.19-1.27 4.23 4.23 0 0 1-.41-1.93c0-.73.13-1.37.41-1.92a3.14 3.14 0 0 1 2.94-1.76c.44 0 .85.07 1.24.2a3.02 3.02 0 0 1 1.75 1.76c.17.46.25 1 .25 1.62v.51h-5.81v-1.13h4.21c0-.31-.07-.6-.2-.85a1.5 1.5 0 0 0-.58-.6 1.6 1.6 0 0 0-.84-.21c-.34 0-.64.08-.9.25a1.75 1.75 0 0 0-.82 1.52v.98c0 .41.08.77.23 1.06.15.3.36.52.63.68a2.18 2.18 0 0 0 1.61.13c.2-.08.37-.18.51-.31.15-.14.26-.3.33-.5l1.56.17c-.1.41-.28.77-.56 1.08-.27.3-.63.54-1.05.7-.43.18-.92.26-1.47.26Zm7.2-.01c-.56 0-1.06-.15-1.5-.44-.44-.28-.79-.7-1.04-1.24a4.66 4.66 0 0 1-.38-1.99c0-.78.12-1.45.38-2a2.9 2.9 0 0 1 1.06-1.22 2.72 2.72 0 0 1 2.5-.21c.27.14.49.3.64.5.16.2.28.38.37.55h.07v-3.53h1.67V133h-1.64v-1.12h-.1c-.09.18-.21.36-.38.55a2.06 2.06 0 0 1-1.65.7Zm.46-1.38c.36 0 .66-.1.9-.28.26-.2.45-.47.58-.81.13-.34.19-.75.19-1.2 0-.46-.06-.86-.2-1.2a1.7 1.7 0 0 0-.56-.8 1.46 1.46 0 0 0-.9-.27c-.38 0-.69.1-.94.29-.25.2-.44.46-.56.8-.13.34-.2.73-.2 1.18 0 .44.07.83.2 1.18s.32.62.57.82c.25.2.56.3.92.3Z"/>
    <mask id="c" fill="#fff">
      <path d="M217 160h536v64H217v-64Z"/>
    </mask>
    <path fill="#FBFBFB" d="M217 160h536v64H217v-64Z"/>
    <path fill="#18293B" fill-opacity=".12" d="M753 223.11H217v1.78h536v-1.78Z" mask="url(#c)"/>
    <path fill="#161A1E" d="M232.89 197.68v-11.82h.75v11.82h-.75Zm2.18-8.03c-.04-.4-.22-.72-.54-.95a2.09 2.09 0 0 0-1.24-.33c-.36 0-.66.05-.92.16-.25.1-.45.25-.59.44a1.06 1.06 0 0 0-.07 1.14c.1.14.22.27.37.37.16.1.33.18.52.25.2.07.39.12.58.17l.89.22c.36.09.7.2 1.03.34.33.14.63.32.89.53.26.22.47.48.63.78.15.3.23.67.23 1.08a2.56 2.56 0 0 1-1.66 2.44 4.8 4.8 0 0 1-1.93.35c-.73 0-1.37-.11-1.91-.34a2.85 2.85 0 0 1-1.27-1 3 3 0 0 1-.49-1.6h1.69a1.43 1.43 0 0 0 1 1.32 2.94 2.94 0 0 0 1.95-.01c.28-.11.5-.27.66-.47.16-.2.24-.44.25-.7a.9.9 0 0 0-.22-.62 1.6 1.6 0 0 0-.6-.4 6 6 0 0 0-.88-.3l-1.08-.28c-.78-.2-1.4-.5-1.85-.9a2.1 2.1 0 0 1-.67-1.63c0-.56.15-1.05.45-1.47.3-.42.72-.74 1.24-.97a4.31 4.31 0 0 1 1.78-.35c.67 0 1.26.11 1.76.35.51.23.91.55 1.2.96.29.41.44.88.45 1.42h-1.65Zm6.6 6.98a4.5 4.5 0 0 1-1.77-.34 2.97 2.97 0 0 1-1.22-.95c-.3-.41-.45-.88-.47-1.41h1.73c.02.25.1.48.26.67.15.19.36.33.61.44.26.1.54.15.86.15.34 0 .64-.06.9-.17.26-.12.47-.29.62-.5.14-.21.22-.46.21-.73 0-.3-.07-.54-.22-.76a1.49 1.49 0 0 0-.66-.51 2.57 2.57 0 0 0-1.02-.19h-.84v-1.32h.84c.33 0 .62-.06.86-.17.25-.11.45-.27.59-.48.14-.2.21-.45.2-.73a1.22 1.22 0 0 0-.7-1.16 2.03 2.03 0 0 0-1.57 0c-.23.1-.43.25-.59.44-.14.2-.22.42-.23.68h-1.65c.01-.53.16-.99.45-1.39a3 3 0 0 1 1.19-.94 3.9 3.9 0 0 1 1.65-.34c.63 0 1.18.12 1.65.35.47.24.83.55 1.08.95.26.4.38.83.38 1.31 0 .54-.15.98-.47 1.34-.31.36-.72.6-1.23.7v.08c.66.1 1.17.34 1.52.74.36.4.54.9.54 1.48 0 .53-.16 1-.46 1.42a3 3 0 0 1-1.23.98c-.53.24-1.13.36-1.8.36Zm8.58.05a3.3 3.3 0 0 1-1.96-.58 3.67 3.67 0 0 1-1.25-1.67 7.19 7.19 0 0 1-.44-2.65c0-1.03.15-1.9.44-2.63.3-.73.71-1.28 1.25-1.66.55-.38 1.2-.57 1.96-.57.75 0 1.4.19 1.95.57.54.38.96.93 1.25 1.66.3.73.44 1.6.44 2.63 0 1.04-.15 1.92-.44 2.65a3.6 3.6 0 0 1-1.25 1.67c-.54.39-1.2.58-1.95.58Zm0-1.44c.59 0 1.05-.3 1.4-.88a5.2 5.2 0 0 0 .51-2.58 6.9 6.9 0 0 0-.23-1.9c-.16-.5-.38-.89-.67-1.14-.29-.27-.62-.4-1.01-.4-.6 0-1.06.3-1.4.88a5.17 5.17 0 0 0-.52 2.56c0 .76.08 1.39.23 1.9.16.52.38.9.66 1.17.3.26.63.39 1.03.39Zm5.85 1.36a.99.99 0 0 1-.72-.3.96.96 0 0 1-.3-.71c0-.28.1-.52.3-.72.2-.2.44-.29.72-.29.27 0 .5.1.7.3a.97.97 0 0 1 .17 1.22c-.1.15-.22.28-.37.37a.96.96 0 0 1-.5.13Zm5.85.08a3.3 3.3 0 0 1-1.96-.58 3.67 3.67 0 0 1-1.25-1.67 7.19 7.19 0 0 1-.43-2.65c0-1.03.15-1.9.44-2.63.29-.73.7-1.28 1.25-1.66.54-.38 1.2-.57 1.95-.57.76 0 1.4.19 1.95.57.55.38.97.93 1.25 1.66.3.73.44 1.6.44 2.63 0 1.04-.14 1.92-.44 2.65a3.6 3.6 0 0 1-1.25 1.67c-.54.39-1.19.58-1.95.58Zm0-1.44c.6 0 1.06-.3 1.4-.88.34-.58.52-1.44.52-2.58 0-.75-.08-1.38-.24-1.9-.16-.5-.38-.89-.66-1.14-.29-.27-.63-.4-1.02-.4-.59 0-1.05.3-1.4.88a5.17 5.17 0 0 0-.51 2.56c0 .76.07 1.39.22 1.9.16.52.38.9.67 1.17.29.26.63.39 1.02.39Zm8.67 1.44a3.3 3.3 0 0 1-1.96-.58 3.67 3.67 0 0 1-1.25-1.67 7.19 7.19 0 0 1-.43-2.65c0-1.03.15-1.9.44-2.63.29-.73.7-1.28 1.25-1.66.54-.38 1.2-.57 1.95-.57.76 0 1.4.19 1.95.57.55.38.97.93 1.25 1.66.3.73.44 1.6.44 2.63 0 1.04-.14 1.92-.44 2.65a3.6 3.6 0 0 1-1.25 1.67c-.54.39-1.19.58-1.95.58Zm0-1.44c.6 0 1.06-.3 1.4-.88.34-.58.52-1.44.52-2.58 0-.75-.08-1.38-.24-1.9-.16-.5-.38-.89-.66-1.14-.29-.27-.63-.4-1.02-.4-.59 0-1.05.3-1.4.88a5.17 5.17 0 0 0-.51 2.56c0 .76.07 1.39.23 1.9.15.52.38.9.66 1.17.29.26.63.39 1.02.39Z"/>
    <g clip-path="url(#clip3_4177_18010)">
      <g clip-path="url(#clip4_4177_18010)">
        <path fill="#001C64" d="M335.37 186a.58.58 0 0 0-.57.5l-.95 6a.58.58 0 0 1 .57-.49h2.77a5.67 5.67 0 0 0 5.65-5.42 5.27 5.27 0 0 0-2.45-.59h-5.02Z"/>
        <path fill="#0070E0" d="M342.85 186.59a5.67 5.67 0 0 1-5.65 5.42h-2.78c-.28 0-.52.2-.57.49l-.87 5.52-.54 3.46a.47.47 0 0 0 .46.54h3.01a.58.58 0 0 0 .57-.49l.8-5.03a.57.57 0 0 1 .19-.35c.1-.09.24-.14.37-.14h1.78a5.67 5.67 0 0 0 5.6-4.8 4.4 4.4 0 0 0-2.37-4.62Z"/>
        <path fill="#003087" d="M331.94 182c-.28 0-.52.2-.57.49l-2.36 14.99c-.05.28.18.54.46.54h3.5l.88-5.52.94-6c.03-.14.1-.27.2-.36.1-.09.24-.13.38-.13h5.02c.91 0 1.74.2 2.45.58.05-2.51-2.02-4.59-4.87-4.59h-6.03Z"/>
      </g>
    </g>
    <path fill="#929DAA" d="m438.48 197.34-.32-1.6h-3.56l-.57 1.59h-2.85l4.08-9.8c.24-.55.65-.84 1.26-.83h2.27l2.21 10.63h-2.52Zm-3.08-3.78h2.3l-.86-4-1.44 4ZM417 186.7h2.87l-4.44 10.64h-2.9c-.73-2.81-1.45-5.63-2.16-8.44-.15-.56-.43-.96-.97-1.14-.8-.27-1.6-.52-2.4-.77v-.29h4.59c.79 0 1.25.38 1.4 1.17l1.13 6.03 2.88-7.2Zm6.82 0-2.27 10.64h-2.74l2.27-10.64h2.74Zm5.54-.2c.81 0 1.84.26 2.44.5l-.48 2.2a6.2 6.2 0 0 0-2.16-.5c-1.08.02-1.74.47-1.74.9 0 .71 1.15 1.07 2.34 1.84 1.36.88 1.54 1.66 1.52 2.52-.02 1.78-1.52 3.54-4.69 3.54a7.8 7.8 0 0 1-3.14-.56l.5-2.3c1.2.5 1.7.66 2.73.66.94 0 1.75-.38 1.75-1.05.01-.47-.28-.7-1.33-1.28-1.06-.58-2.54-1.39-2.52-3 .03-2.08 1.99-3.47 4.78-3.47Z"/>
    <rect width="90" height="24" x="487" y="180" fill="#007CFF" fill-opacity=".1" rx="4"/>
    <path fill="#3B82F6" d="M499.15 197h-1.83l3.33-9.46h2.11l3.33 9.46h-1.82l-2.53-7.52h-.07l-2.52 7.52Zm.06-3.7h4.98v1.37h-4.98v-1.38Zm12.58.72v-4.11h1.67V197h-1.62v-1.26h-.08c-.16.4-.42.72-.79.97a2.3 2.3 0 0 1-1.34.38c-.46 0-.88-.1-1.23-.3a2.18 2.18 0 0 1-.83-.92c-.2-.4-.3-.88-.3-1.45v-4.51h1.67v4.25c0 .46.12.81.37 1.08.24.26.57.4.97.4a1.52 1.52 0 0 0 1.28-.72c.15-.24.23-.54.23-.9Zm6.93-4.11v1.3h-4.08v-1.3h4.08Zm-3.07-1.7h1.67v6.66c0 .22.03.4.1.51.07.12.16.2.28.24a.9.9 0 0 0 .37.07 1.67 1.67 0 0 0 .5-.07l.27 1.31a3.7 3.7 0 0 1-.98.17c-.42 0-.8-.05-1.13-.2-.34-.13-.6-.35-.8-.65-.2-.3-.29-.66-.28-1.1v-6.94Zm6.29 4.63V197h-1.67v-9.46h1.63v3.57h.08c.17-.4.43-.71.77-.94.36-.24.8-.35 1.34-.35.5 0 .92.1 1.3.3.36.21.64.51.84.91.2.4.3.88.3 1.46V197h-1.67v-4.26c0-.47-.12-.84-.37-1.1-.24-.28-.58-.41-1.02-.41-.3 0-.56.06-.8.2-.22.12-.4.3-.54.54-.13.24-.2.53-.2.88Zm9.4 4.3c-.7 0-1.3-.15-1.8-.46a3.1 3.1 0 0 1-1.2-1.28 4.2 4.2 0 0 1-.4-1.92c0-.73.13-1.37.4-1.92a3.18 3.18 0 0 1 3-1.74c.68 0 1.28.15 1.8.45.5.3.9.74 1.17 1.29.28.55.42 1.19.42 1.92 0 .74-.14 1.38-.42 1.92-.28.55-.67.98-1.18 1.28-.5.3-1.1.46-1.8.46Zm0-1.34c.38 0 .69-.1.94-.31.25-.2.44-.49.57-.84.12-.35.18-.74.18-1.17 0-.44-.06-.83-.18-1.18a1.86 1.86 0 0 0-.57-.84 1.42 1.42 0 0 0-.94-.32c-.38 0-.7.1-.96.32-.25.2-.44.49-.57.84-.12.35-.18.74-.18 1.18 0 .43.06.82.18 1.17.13.35.32.63.57.84.26.2.58.31.96.31Zm4.8 1.2v-7.1h1.63v1.2h.07a1.76 1.76 0 0 1 1.75-1.3 3.94 3.94 0 0 1 .6.05v1.54a3.19 3.19 0 0 0-.78-.1c-.3 0-.57.07-.82.2-.24.13-.43.31-.56.54-.14.23-.21.5-.21.8V197h-1.67Zm5.16 0v-7.1h1.67v7.1h-1.67Zm.84-8.1a.98.98 0 0 1-.68-.26.85.85 0 0 1-.29-.64c0-.25.1-.47.29-.64a.96.96 0 0 1 .68-.27c.27 0 .5.09.69.27.19.17.28.39.28.64s-.1.46-.28.64a.96.96 0 0 1-.69.26Zm8.16 2.88-1.53.17a1.22 1.22 0 0 0-.65-.76c-.18-.09-.4-.13-.65-.13-.35 0-.64.08-.88.23-.24.15-.35.35-.35.59 0 .2.08.37.23.5.16.13.41.23.77.32l1.21.26c.67.14 1.17.37 1.5.68.33.32.5.73.5 1.24 0 .44-.13.84-.4 1.18-.25.34-.6.6-1.06.8-.46.18-.98.28-1.57.28a3.6 3.6 0 0 1-2.1-.55 2.19 2.19 0 0 1-.94-1.52l1.63-.16c.07.32.23.56.47.72.24.17.55.25.93.25.4 0 .72-.08.96-.25.24-.16.37-.36.37-.6 0-.2-.08-.37-.24-.5-.15-.14-.4-.24-.72-.3l-1.2-.26a2.87 2.87 0 0 1-1.52-.72 1.76 1.76 0 0 1-.48-1.28c0-.44.11-.82.35-1.14.25-.32.58-.57 1.01-.75a3.9 3.9 0 0 1 1.5-.26c.83 0 1.49.17 1.96.53.49.35.78.83.9 1.43Zm4.67 5.36c-.72 0-1.33-.15-1.85-.44a3 3 0 0 1-1.18-1.27 4.23 4.23 0 0 1-.42-1.93c0-.73.14-1.37.42-1.92a3.14 3.14 0 0 1 2.94-1.76c.44 0 .85.07 1.24.2a3.02 3.02 0 0 1 1.75 1.76c.16.46.25 1 .25 1.62v.51h-5.81v-1.13h4.2c0-.31-.07-.6-.2-.85a1.5 1.5 0 0 0-.57-.6 1.6 1.6 0 0 0-.84-.21 1.67 1.67 0 0 0-1.5.89c-.15.27-.22.56-.22.88v.98c0 .41.07.77.23 1.06.15.3.36.52.63.68.27.15.59.23.95.23.24 0 .46-.04.66-.1.2-.08.37-.18.51-.31.15-.14.25-.3.33-.5l1.56.17c-.1.41-.29.77-.56 1.08-.28.3-.63.54-1.06.7a3.7 3.7 0 0 1-1.46.26Zm7.2-.01c-.56 0-1.06-.15-1.5-.44-.44-.28-.79-.7-1.04-1.24a4.65 4.65 0 0 1-.39-1.99c0-.78.13-1.45.39-2 .26-.53.61-.95 1.06-1.22a2.72 2.72 0 0 1 2.5-.21c.27.14.48.3.64.5.16.2.28.38.37.55h.06v-3.54h1.68V197h-1.64v-1.12h-.1c-.1.18-.22.36-.38.55a2.06 2.06 0 0 1-1.66.7Zm.46-1.38c.35 0 .66-.1.9-.28.25-.2.44-.47.57-.81.13-.34.2-.75.2-1.2 0-.46-.07-.86-.2-1.2a1.7 1.7 0 0 0-.56-.8 1.46 1.46 0 0 0-.91-.27c-.37 0-.68.1-.93.29-.25.2-.44.46-.57.8-.12.34-.18.73-.18 1.18 0 .44.06.83.18 1.18.13.35.32.62.57.82.25.2.56.3.93.3Z"/>
    <g filter="url(#filter2_d_4177_18010)" shape-rendering="crispEdges">
      <rect width="81" height="32" x="598" y="176" fill="#fff" rx="6"/>
      <rect width="80" height="31" x="598.5" y="176.5" stroke="#D8DDE2" rx="5.5"/>
    </g>
    <path fill="#18293B" fill-opacity=".12" d="M753 287.11H217v1.78h536v-1.78Z" mask="url(#path-38-inside-6_4177_18010)"/>
    <path fill="#161A1E" d="M234.16 255.09v1.37h-4.26v-1.37h4.26Zm4.78 6.6v-11.83h.76v11.82h-.76Zm2.19-8.04c-.05-.4-.23-.72-.55-.95a2.1 2.1 0 0 0-1.24-.33c-.35 0-.66.05-.91.16-.26.1-.46.25-.6.44a1.07 1.07 0 0 0-.06 1.14c.09.14.21.27.37.37.16.1.33.18.52.25.2.07.38.12.58.17l.88.22c.36.09.7.2 1.03.34.34.14.63.32.9.53a2.34 2.34 0 0 1 .86 1.85 2.56 2.56 0 0 1-1.66 2.45 4.8 4.8 0 0 1-1.93.35c-.74 0-1.38-.11-1.92-.34a2.85 2.85 0 0 1-1.26-1 3 3 0 0 1-.5-1.6h1.7a1.43 1.43 0 0 0 1 1.32 2.84 2.84 0 0 0 1.94-.01c.28-.11.5-.27.67-.47.16-.2.24-.44.24-.7a.9.9 0 0 0-.22-.62 1.6 1.6 0 0 0-.6-.4 4.74 4.74 0 0 0-.88-.3l-1.07-.28c-.78-.2-1.4-.5-1.85-.9a2.1 2.1 0 0 1-.67-1.63c0-.56.15-1.05.45-1.47a3 3 0 0 1 1.24-.97 4.3 4.3 0 0 1 1.78-.35c.67 0 1.26.11 1.76.35.5.23.9.55 1.2.96.29.41.43.88.44 1.42h-1.64Zm6.5 6.98c-.62 0-1.17-.12-1.66-.35a2.95 2.95 0 0 1-1.16-.96c-.28-.4-.43-.87-.45-1.4h1.66c.03.4.2.71.5.96.31.24.68.36 1.1.36a1.64 1.64 0 0 0 1.51-.87c.16-.27.23-.58.23-.94 0-.35-.07-.67-.23-.95a1.7 1.7 0 0 0-.63-.65 1.76 1.76 0 0 0-.92-.24c-.28 0-.56.05-.84.16-.27.1-.49.25-.65.42l-1.54-.25.49-4.88h5.48v1.44h-4.06l-.28 2.5h.06c.18-.2.42-.37.74-.5a2.92 2.92 0 0 1 3.65 1.3c.26.47.39 1 .39 1.61a3.18 3.18 0 0 1-3.39 3.24Zm8.22 0a3.8 3.8 0 0 1-1.65-.35 2.96 2.96 0 0 1-1.16-.96c-.28-.4-.43-.87-.45-1.4h1.66c.03.4.2.71.5.96.3.24.67.36 1.1.36a1.65 1.65 0 0 0 1.51-.87c.16-.27.23-.58.23-.94 0-.35-.07-.67-.23-.95a1.7 1.7 0 0 0-.63-.65 1.77 1.77 0 0 0-.92-.24 2.2 2.2 0 0 0-1.49.58l-1.55-.25.5-4.88h5.48v1.44h-4.07l-.27 2.5h.06c.17-.2.42-.37.74-.5a2.92 2.92 0 0 1 3.65 1.3c.26.47.38 1 .38 1.61a3.06 3.06 0 0 1-1.63 2.82c-.5.28-1.09.42-1.76.42Zm5.67-.03a.99.99 0 0 1-.72-.3.96.96 0 0 1-.3-.71c0-.28.1-.52.3-.71.2-.2.44-.3.72-.3.27 0 .5.1.7.3a.98.98 0 0 1 .17 1.22c-.1.15-.22.27-.37.37a.96.96 0 0 1-.5.13Zm5.85.08a3.3 3.3 0 0 1-1.96-.58 3.67 3.67 0 0 1-1.25-1.67 7.19 7.19 0 0 1-.43-2.65c0-1.03.15-1.9.44-2.63.29-.73.7-1.28 1.25-1.66.54-.38 1.2-.57 1.95-.57.76 0 1.4.19 1.95.57.55.38.97.93 1.25 1.66.3.73.44 1.6.44 2.63 0 1.04-.14 1.92-.44 2.65a3.6 3.6 0 0 1-1.25 1.67c-.54.39-1.19.58-1.95.58Zm0-1.44c.6 0 1.06-.3 1.4-.88.34-.58.52-1.44.52-2.58 0-.75-.08-1.38-.24-1.9-.16-.5-.38-.89-.66-1.14-.29-.27-.63-.4-1.02-.4-.59 0-1.05.3-1.4.88a5.17 5.17 0 0 0-.51 2.56c0 .76.07 1.39.23 1.9.15.52.38.9.66 1.17.29.26.63.38 1.02.38Zm8.67 1.44a3.3 3.3 0 0 1-1.96-.58 3.68 3.68 0 0 1-1.25-1.67 7.2 7.2 0 0 1-.43-2.65c0-1.03.15-1.9.44-2.63.29-.73.7-1.28 1.25-1.66.54-.38 1.2-.57 1.95-.57.76 0 1.41.19 1.95.57.55.38.97.93 1.26 1.66.29.73.43 1.6.43 2.63 0 1.04-.14 1.92-.43 2.65-.3.73-.71 1.29-1.25 1.67-.55.39-1.2.58-1.96.58Zm0-1.44c.6 0 1.06-.3 1.4-.88.35-.58.52-1.44.52-2.58 0-.75-.08-1.38-.24-1.9-.16-.5-.38-.89-.66-1.14-.29-.27-.63-.4-1.02-.4-.59 0-1.05.3-1.4.88a5.17 5.17 0 0 0-.5 2.56c-.01.76.06 1.39.22 1.9.15.52.38.9.66 1.17.29.26.63.38 1.02.38Z"/>
    <path fill="#35B454" d="M342.65 247H328.3v4.61h9.42c.62 0 1.03.51 1.03 1.02v8.1h-2.05c-.62 0-1.03-.52-1.03-1.03v-5.84h-4a3.67 3.67 0 0 0-3.68 3.7v4.09a3.67 3.67 0 0 0 3.69 3.69h14.65v-14.65a3.67 3.67 0 0 0-3.7-3.69Z"/>
    <path fill="#9EACBD" d="M416.33 265.33a9.33 9.33 0 1 0 0-18.66 9.33 9.33 0 0 0 0 18.66Z"/>
    <path fill="#778495" fill-opacity=".8" d="M429.67 265.33a9.33 9.33 0 1 0 0-18.66 9.33 9.33 0 0 0 0 18.66Z"/>
    <rect width="104" height="24" x="487" y="244" fill="#F79E1B" fill-opacity=".1" rx="4"/>
    <path fill="#C87700" d="M496.93 261v-9.46h3.55c.72 0 1.33.14 1.83.41.5.27.87.65 1.12 1.12.25.47.38 1 .38 1.6a3.4 3.4 0 0 1-.38 1.62c-.26.47-.63.84-1.13 1.11-.5.27-1.12.4-1.85.4h-2.34v-1.4h2.11c.43 0 .78-.08 1.05-.22.27-.15.47-.36.6-.61.13-.26.2-.56.2-.9 0-.33-.07-.63-.2-.88a1.35 1.35 0 0 0-.6-.6 2.21 2.21 0 0 0-1.06-.21h-1.56V261h-1.72Zm10.2.14c-.44 0-.85-.08-1.2-.24-.36-.16-.65-.4-.86-.72-.2-.31-.3-.7-.3-1.17a2 2 0 0 1 .22-1c.14-.25.35-.46.6-.62.26-.16.55-.28.87-.36a7.7 7.7 0 0 1 1-.18l1-.11c.27-.04.45-.1.57-.17.12-.07.18-.2.18-.35v-.03c0-.35-.1-.62-.3-.8-.21-.2-.51-.3-.9-.3-.4 0-.73.1-.97.27-.24.18-.4.4-.48.64l-1.56-.23a2.49 2.49 0 0 1 1.64-1.73 4.43 4.43 0 0 1 2.38-.1c.34.08.65.2.93.4.28.17.5.42.67.74.18.31.26.7.26 1.17V261h-1.6v-.97h-.06a2.02 2.02 0 0 1-1.12.96c-.27.1-.6.15-.96.15Zm.44-1.22c.34 0 .63-.07.88-.2.24-.14.43-.32.56-.54.14-.22.2-.46.2-.72v-.84a.79.79 0 0 1-.26.12l-.42.1-.45.07-.4.06c-.25.03-.47.09-.67.16-.2.08-.35.19-.46.33a.8.8 0 0 0-.17.52c0 .31.1.54.33.7.23.16.52.24.86.24Zm5 1.08v-7.1h1.61v1.2h.08a1.76 1.76 0 0 1 1.75-1.3 3.94 3.94 0 0 1 .6.05v1.54a3.19 3.19 0 0 0-.78-.1c-.3 0-.58.07-.82.2s-.43.31-.57.54c-.14.23-.2.5-.2.8V261h-1.68Zm9.07-7.1v1.3h-4.08v-1.3h4.08Zm-3.07-1.69h1.67v6.66c0 .22.03.4.1.51.07.12.16.2.28.24.11.05.24.07.38.07a1.67 1.67 0 0 0 .49-.07l.28 1.31a3.7 3.7 0 0 1-.99.17c-.41 0-.8-.05-1.13-.2a1.7 1.7 0 0 1-.8-.65 2 2 0 0 1-.28-1.1v-6.94Zm4.47 8.79v-7.1h1.67v7.1h-1.67Zm.84-8.1a.98.98 0 0 1-.69-.26.85.85 0 0 1-.28-.64c0-.25.1-.47.28-.64.2-.18.42-.27.69-.27.26 0 .5.09.68.27.2.17.29.39.29.64s-.1.46-.29.64a.97.97 0 0 1-.68.26Zm4.59 8.24c-.45 0-.86-.08-1.22-.24-.36-.16-.64-.4-.85-.72-.2-.31-.3-.7-.3-1.17a2 2 0 0 1 .22-1c.14-.25.34-.46.6-.62.25-.16.54-.28.86-.36.33-.08.66-.14 1-.18l1.02-.11c.25-.04.44-.1.56-.17.12-.07.18-.2.18-.35v-.03c0-.35-.1-.62-.31-.8-.2-.2-.5-.3-.9-.3s-.73.1-.97.27c-.23.18-.4.4-.48.64l-1.56-.23a2.5 2.5 0 0 1 1.65-1.73 4.42 4.42 0 0 1 2.38-.1c.34.08.65.2.93.4.28.17.5.42.67.74.17.31.26.7.26 1.17V261h-1.6v-.97h-.06a2.04 2.04 0 0 1-1.12.96c-.27.1-.6.15-.96.15Zm.43-1.22c.34 0 .63-.07.87-.2.25-.14.44-.32.57-.54.14-.22.2-.46.2-.72v-.84a.79.79 0 0 1-.26.12l-.42.1-.46.07-.39.06c-.25.03-.47.09-.67.16-.2.08-.35.19-.46.33a.8.8 0 0 0-.17.52c0 .31.1.54.33.7.23.16.51.24.86.24Zm6.66-8.38V261h-1.67v-9.46h1.67Zm4.95 9.46v-7.1h1.62v1.2h.07a1.77 1.77 0 0 1 1.75-1.3 3.94 3.94 0 0 1 .6.05v1.54a3.18 3.18 0 0 0-.77-.1c-.31 0-.59.07-.83.2a1.45 1.45 0 0 0-.77 1.34V261h-1.67Zm8 .14c-.71 0-1.33-.15-1.85-.44a3 3 0 0 1-1.18-1.27 4.23 4.23 0 0 1-.42-1.93c0-.73.14-1.37.42-1.92a3.14 3.14 0 0 1 2.94-1.76c.44 0 .85.07 1.24.2a3.02 3.02 0 0 1 1.75 1.76c.16.46.25 1 .25 1.62v.51h-5.81v-1.13h4.2c0-.31-.06-.6-.2-.85a1.5 1.5 0 0 0-.57-.6 1.6 1.6 0 0 0-.84-.21 1.67 1.67 0 0 0-1.5.89c-.15.27-.22.56-.22.88v.98c0 .41.07.77.23 1.06.15.3.36.52.63.68.27.15.59.23.95.23.24 0 .46-.04.66-.1.2-.08.37-.18.51-.31.15-.14.26-.3.33-.5l1.56.17c-.1.41-.29.77-.56 1.08-.28.3-.63.54-1.05.7-.43.18-.92.26-1.47.26Zm8.15-7.23v1.3h-4.19v-1.3h4.2Zm-3.14 7.09v-7.76c0-.48.1-.87.3-1.2.2-.3.46-.54.8-.7.34-.16.7-.24 1.12-.24a3.79 3.79 0 0 1 1.27.2l-.34 1.29a2.85 2.85 0 0 0-.62-.1c-.31 0-.53.07-.66.22a.96.96 0 0 0-.2.64V261h-1.67Zm8.97-2.98v-4.11h1.67V261h-1.62v-1.26h-.07c-.16.4-.42.72-.79.97a2.3 2.3 0 0 1-1.34.38c-.47 0-.88-.1-1.24-.3a2.25 2.25 0 0 1-.83-.92c-.2-.4-.3-.88-.3-1.45v-4.51h1.67v4.26c0 .44.13.8.37 1.07.25.26.57.4.97.4a1.52 1.52 0 0 0 1.29-.72c.15-.24.22-.54.22-.9Zm5.06-1.17V261h-1.67v-7.1h1.6v1.21h.08c.17-.4.43-.7.78-.94.36-.24.8-.35 1.34-.35.49 0 .91.1 1.28.31.36.21.65.51.85.91.2.4.3.88.3 1.45V261h-1.68v-4.26c0-.47-.12-.84-.36-1.1a1.3 1.3 0 0 0-1.02-.41 1.46 1.46 0 0 0-1.31.74c-.12.24-.19.53-.19.88Zm8.89 4.27c-.56 0-1.06-.14-1.5-.43-.44-.28-.79-.7-1.04-1.24a4.66 4.66 0 0 1-.39-1.99c0-.78.13-1.45.4-2a2.72 2.72 0 0 1 3.56-1.44c.26.15.48.31.63.51.16.2.28.38.37.55h.07v-3.54h1.67V261h-1.64v-1.12h-.1c-.09.18-.21.36-.38.55a2.06 2.06 0 0 1-1.65.7Zm.46-1.37c.36 0 .66-.1.9-.28.26-.2.45-.47.58-.81.13-.35.19-.75.19-1.2 0-.46-.07-.86-.2-1.2a1.7 1.7 0 0 0-.56-.8 1.46 1.46 0 0 0-.9-.27c-.38 0-.7.1-.94.29-.25.2-.44.46-.56.8-.13.34-.2.73-.2 1.18 0 .44.07.83.2 1.18s.32.62.57.82c.25.2.56.3.92.3Z"/>
    <mask id="d" fill="#fff">
      <path d="M217 288h536v64H217v-64Z"/>
    </mask>
    <path fill="#FBFBFB" d="M217 288h536v64H217v-64Z"/>
    <path fill="#18293B" fill-opacity=".12" d="M753 351.11H217v1.78h536v-1.78Z" mask="url(#d)"/>
    <path fill="#161A1E" d="M232.89 325.68v-11.82h.75v11.82h-.75Zm2.18-8.04c-.04-.4-.22-.71-.54-.94a2.09 2.09 0 0 0-1.24-.33c-.36 0-.66.05-.92.16-.25.1-.45.25-.59.44a1.06 1.06 0 0 0-.07 1.14c.1.14.22.27.37.37.16.1.33.18.52.25.2.07.39.12.58.17l.89.22c.36.08.7.2 1.03.34.33.14.63.32.89.53.26.22.47.48.63.78.15.3.23.67.23 1.08a2.56 2.56 0 0 1-1.66 2.44 4.8 4.8 0 0 1-1.93.35c-.73 0-1.37-.11-1.91-.34a2.85 2.85 0 0 1-1.27-1 3 3 0 0 1-.49-1.6h1.69a1.43 1.43 0 0 0 1 1.32 2.94 2.94 0 0 0 1.95-.01c.28-.11.5-.27.66-.47.16-.2.24-.44.25-.7a.9.9 0 0 0-.22-.62 1.6 1.6 0 0 0-.6-.4 5 5 0 0 0-.88-.3l-1.08-.28c-.78-.2-1.4-.5-1.85-.9a2.1 2.1 0 0 1-.67-1.63c0-.56.15-1.05.45-1.47.3-.42.72-.74 1.24-.97a4.31 4.31 0 0 1 1.78-.35c.67 0 1.26.11 1.76.35.51.23.91.55 1.2.96.29.41.44.88.45 1.41h-1.65Zm7.06-2.6v9.46h-1.72v-7.79h-.05l-2.21 1.42v-1.57l2.35-1.51h1.63Zm5.9 9.64a3.3 3.3 0 0 1-1.96-.58 3.67 3.67 0 0 1-1.25-1.67 7.2 7.2 0 0 1-.44-2.65c0-1.03.15-1.9.44-2.63.3-.73.7-1.28 1.25-1.66.55-.38 1.2-.57 1.95-.57.76 0 1.41.19 1.96.57.54.38.96.93 1.25 1.66.29.73.44 1.6.44 2.63 0 1.04-.15 1.92-.44 2.65a3.6 3.6 0 0 1-1.25 1.67c-.55.39-1.2.58-1.96.58Zm0-1.44c.58 0 1.05-.3 1.4-.88.34-.58.5-1.44.5-2.58 0-.75-.07-1.38-.23-1.9-.15-.5-.38-.89-.66-1.14-.29-.27-.63-.4-1.02-.4-.58 0-1.05.3-1.4.88a5.18 5.18 0 0 0-.5 2.56c-.01.76.06 1.39.22 1.9.16.52.38.9.66 1.17.29.26.63.38 1.02.38Zm5.85 1.36a.99.99 0 0 1-.72-.3.96.96 0 0 1-.3-.71c0-.28.1-.52.3-.71.2-.2.44-.3.72-.3.27 0 .5.1.7.3a.97.97 0 0 1 .17 1.22c-.1.15-.22.27-.37.37a.96.96 0 0 1-.5.13Zm5.85.08a3.3 3.3 0 0 1-1.96-.58 3.67 3.67 0 0 1-1.25-1.67 7.2 7.2 0 0 1-.43-2.65c0-1.03.15-1.9.44-2.63.29-.73.7-1.28 1.25-1.66.54-.38 1.2-.57 1.95-.57.76 0 1.4.19 1.95.57.55.38.96.93 1.25 1.66.3.73.44 1.6.44 2.63 0 1.04-.14 1.92-.44 2.65a3.6 3.6 0 0 1-1.25 1.67c-.54.39-1.2.58-1.95.58Zm0-1.44c.59 0 1.06-.3 1.4-.88a5.2 5.2 0 0 0 .51-2.58c0-.75-.07-1.38-.23-1.9-.16-.5-.38-.89-.67-1.14a1.4 1.4 0 0 0-1.01-.4c-.59 0-1.05.3-1.4.88a5.18 5.18 0 0 0-.51 2.56c0 .76.07 1.39.22 1.9.16.52.38.9.67 1.17.28.26.62.38 1.02.38Zm8.67 1.44a3.3 3.3 0 0 1-1.96-.58 3.67 3.67 0 0 1-1.25-1.67 7.2 7.2 0 0 1-.43-2.65c0-1.03.15-1.9.44-2.63.29-.73.7-1.28 1.25-1.66.54-.38 1.2-.57 1.95-.57.76 0 1.4.19 1.95.57.55.38.96.93 1.25 1.66.3.73.44 1.6.44 2.63 0 1.04-.14 1.92-.44 2.65a3.6 3.6 0 0 1-1.25 1.67c-.54.39-1.19.58-1.95.58Zm0-1.44c.59 0 1.06-.3 1.4-.88a5.2 5.2 0 0 0 .51-2.58c0-.75-.07-1.38-.23-1.9-.16-.5-.38-.89-.66-1.14-.3-.27-.63-.4-1.02-.4-.59 0-1.05.3-1.4.88a5.18 5.18 0 0 0-.51 2.56c0 .76.07 1.39.22 1.9.16.52.38.9.67 1.17.29.26.63.38 1.02.38Z"/>
    <g clip-path="url(#clip5_4177_18010)">
      <path fill="#6772E5" fill-rule="evenodd" d="M335.68 315.95c0-.86.7-1.2 1.86-1.2 1.9.05 3.77.53 5.46 1.42V311a14.5 14.5 0 0 0-5.46-1c-4.44 0-7.42 2.32-7.42 6.2 0 6.08 8.34 5.1 8.34 7.71 0 1.02-.87 1.34-2.1 1.34a13.8 13.8 0 0 1-6-1.75v5.24a15.3 15.3 0 0 0 6 1.26c4.56 0 7.7-2.25 7.7-6.2 0-6.56-8.38-5.38-8.38-7.85Z" clip-rule="evenodd"/>
    </g>
    <path fill="#9EACBD" d="M416.33 329.33a9.33 9.33 0 1 0 0-18.66 9.33 9.33 0 0 0 0 18.66Z"/>
    <path fill="#778495" fill-opacity=".8" d="M429.67 329.33a9.33 9.33 0 1 0 0-18.66 9.33 9.33 0 0 0 0 18.66Z"/>
    <rect width="77" height="24" x="487" y="308" fill="#00B442" fill-opacity=".1" rx="4"/>
    <path fill="#10B981" d="M505.02 318.74h-1.72a2.15 2.15 0 0 0-.77-1.32c-.2-.15-.42-.27-.67-.35a2.6 2.6 0 0 0-.81-.12 2.48 2.48 0 0 0-2.3 1.52c-.22.49-.34 1.1-.34 1.8 0 .73.12 1.34.34 1.83.23.5.54.87.93 1.12a2.75 2.75 0 0 0 2.16.26 2.17 2.17 0 0 0 1.17-.88c.14-.22.24-.46.29-.74l1.72.01a3.7 3.7 0 0 1-1.25 2.3c-.34.3-.75.54-1.21.71a4.4 4.4 0 0 1-1.54.25 4.02 4.02 0 0 1-3.77-2.24 5.62 5.62 0 0 1-.56-2.62c0-1.02.2-1.89.57-2.61a4.06 4.06 0 0 1 3.76-2.24c.53 0 1.02.07 1.47.22a3.75 3.75 0 0 1 2.08 1.7c.23.4.38.87.45 1.4Zm3.54 6.4c-.45 0-.85-.08-1.21-.24-.36-.16-.64-.4-.85-.72a2.1 2.1 0 0 1-.31-1.17 2 2 0 0 1 .22-1c.15-.25.35-.46.6-.62.26-.16.55-.28.87-.36a7.7 7.7 0 0 1 1-.18l1.01-.11c.26-.04.45-.1.56-.17.12-.07.18-.2.18-.35v-.03c0-.35-.1-.62-.3-.8-.21-.2-.5-.3-.9-.3s-.73.1-.97.27c-.24.18-.4.4-.48.64l-1.56-.23a2.48 2.48 0 0 1 1.65-1.73 4.43 4.43 0 0 1 2.38-.1c.33.08.64.2.92.4a2 2 0 0 1 .68.74c.17.31.25.7.25 1.17V325h-1.6v-.97h-.06a2.02 2.02 0 0 1-1.12.96c-.27.1-.59.15-.96.15Zm.43-1.22c.34 0 .63-.07.88-.2.24-.14.43-.32.56-.54.14-.22.2-.46.2-.72v-.84a.8.8 0 0 1-.26.12 15.48 15.48 0 0 1-.87.17l-.4.06c-.24.03-.47.09-.66.16-.2.08-.36.19-.47.33a.8.8 0 0 0-.17.52c0 .31.11.54.34.7.22.16.5.24.85.24Zm5 3.74v-9.75h1.64v1.17h.1c.08-.17.2-.35.36-.55.16-.2.37-.36.64-.5.26-.14.6-.21 1.02-.21a2.7 2.7 0 0 1 2.54 1.65c.26.54.39 1.2.39 2 0 .77-.13 1.43-.38 1.98-.26.54-.6.96-1.05 1.25a2.74 2.74 0 0 1-2.5.23c-.27-.14-.49-.3-.65-.5-.16-.2-.29-.38-.38-.55h-.06v3.78h-1.67Zm1.63-6.2c0 .45.07.86.2 1.2.13.34.32.61.56.8.25.2.56.3.91.3.37 0 .68-.1.93-.3.25-.2.43-.47.56-.82.13-.35.2-.74.2-1.19 0-.44-.07-.83-.2-1.17-.12-.34-.3-.6-.56-.8-.25-.2-.56-.3-.93-.3-.36 0-.66.1-.9.29-.26.19-.45.45-.58.79a3.6 3.6 0 0 0-.19 1.2Zm10.03-3.55v1.3h-4.08v-1.3h4.08Zm-3.07-1.7h1.67v6.66c0 .22.04.4.1.51.07.12.17.2.28.24.11.05.24.07.38.07a1.67 1.67 0 0 0 .49-.07l.28 1.31a3.78 3.78 0 0 1-.98.17c-.42 0-.8-.05-1.13-.2-.34-.13-.6-.35-.8-.65-.2-.3-.3-.66-.29-1.1v-6.94Zm8.99 5.8v-4.1h1.67V325h-1.62v-1.26h-.08c-.15.4-.42.72-.78.97a2.3 2.3 0 0 1-1.35.38c-.46 0-.87-.1-1.23-.3a2.25 2.25 0 0 1-.83-.92c-.2-.4-.3-.88-.3-1.45v-4.51h1.67v4.25c0 .45.12.81.37 1.08.25.26.57.4.97.4a1.53 1.53 0 0 0 1.28-.72c.15-.24.23-.54.23-.9Zm3.39 2.99v-7.1h1.62v1.2h.07a1.76 1.76 0 0 1 1.75-1.3 3.9 3.9 0 0 1 .6.05v1.54a3.17 3.17 0 0 0-.77-.1c-.3 0-.58.07-.83.2a1.45 1.45 0 0 0-.77 1.34V325h-1.67Zm8 .14c-.71 0-1.33-.15-1.84-.44a3 3 0 0 1-1.19-1.27 4.23 4.23 0 0 1-.41-1.93c0-.73.13-1.37.41-1.92a3.14 3.14 0 0 1 2.94-1.76c.44 0 .85.07 1.24.2a3.02 3.02 0 0 1 1.75 1.76c.17.46.25 1 .25 1.62v.51h-5.81v-1.13h4.21c0-.31-.07-.6-.2-.85a1.5 1.5 0 0 0-.58-.6 1.6 1.6 0 0 0-.84-.21c-.34 0-.64.08-.9.25a1.75 1.75 0 0 0-.82 1.52v.98c0 .41.08.77.23 1.06.15.3.36.52.63.68a2.18 2.18 0 0 0 1.61.13c.2-.08.37-.18.51-.31.15-.14.26-.3.33-.5l1.56.17c-.1.41-.28.77-.56 1.08-.27.3-.63.54-1.05.7-.43.18-.92.26-1.47.26Zm7.2-.01c-.56 0-1.06-.15-1.5-.44-.44-.28-.79-.7-1.04-1.24a4.66 4.66 0 0 1-.38-1.99c0-.78.12-1.45.38-2a2.9 2.9 0 0 1 1.06-1.22 2.72 2.72 0 0 1 2.5-.21c.27.14.49.3.64.5.16.2.28.38.37.55h.07v-3.53h1.67V325h-1.64v-1.12h-.1c-.09.18-.21.36-.38.55a2.06 2.06 0 0 1-1.65.7Zm.46-1.38c.36 0 .66-.1.9-.28.26-.2.45-.47.58-.81.13-.35.19-.75.19-1.2 0-.46-.06-.86-.2-1.2a1.7 1.7 0 0 0-.56-.8 1.46 1.46 0 0 0-.9-.27c-.38 0-.69.1-.94.29-.25.2-.44.46-.56.8-.13.34-.2.73-.2 1.18 0 .44.07.83.2 1.18s.32.62.57.82c.25.2.56.3.92.3Z"/>
  </g>
  <rect width="535" height="475" x="217.5" y=".5" stroke="#D8DDE2" rx="7.48"/>
  <rect width="222" height="364" x="-25" fill="#fff" rx="7.98"/>
  <rect width="221" height="363" x="-24.5" y=".5" stroke="#D8DDE2" rx="7.48"/>
  <rect width="56" height="56" x="58" y="106" fill="#EDEDED" rx="28"/>
  <path stroke="#000" stroke-linecap="round" stroke-linejoin="round" stroke-width="2.67" d="M96.67 126 82 140.67 75.33 134"/>
  <path fill="#161A1E" d="M14.22 183v-10.9h4.1c.83 0 1.53.15 2.1.46.57.31 1 .74 1.3 1.29.3.54.44 1.16.44 1.85 0 .7-.15 1.32-.44 1.87-.3.54-.73.97-1.3 1.28-.58.3-1.3.46-2.13.46h-2.71v-1.62h2.44c.49 0 .9-.09 1.2-.26.32-.17.55-.4.7-.7.15-.3.23-.64.23-1.03 0-.38-.08-.73-.23-1.02-.15-.3-.39-.52-.7-.69a2.56 2.56 0 0 0-1.21-.25H16.2V183h-1.98Zm11.78.16c-.52 0-.99-.09-1.4-.27a2.28 2.28 0 0 1-.98-.83 2.43 2.43 0 0 1-.36-1.36c0-.46.09-.84.26-1.14.17-.3.4-.54.7-.72.29-.19.62-.32.99-.42a8 8 0 0 1 1.16-.2l1.16-.14c.3-.04.52-.1.65-.19a.44.44 0 0 0 .21-.4v-.04c0-.4-.12-.71-.36-.93-.24-.22-.58-.33-1.03-.33-.47 0-.84.1-1.12.3a1.5 1.5 0 0 0-.55.74l-1.8-.26a2.88 2.88 0 0 1 1.9-2 5.12 5.12 0 0 1 2.74-.12c.4.1.75.25 1.07.46.33.2.58.5.78.86.2.36.3.81.3 1.35V183h-1.86v-1.12h-.06a2.36 2.36 0 0 1-1.29 1.1 2.9 2.9 0 0 1-1.11.19Zm.5-1.41c.39 0 .72-.08 1-.23.29-.16.5-.36.66-.62.16-.25.23-.53.23-.84v-.96a.89.89 0 0 1-.3.14c-.15.04-.3.08-.48.11l-.53.09-.45.06c-.3.04-.55.1-.78.2-.22.08-.4.2-.53.37a.91.91 0 0 0-.2.6c0 .36.13.63.39.8.26.19.59.28.99.28Zm6.66 4.32a3.87 3.87 0 0 1-1.25-.2l.44-1.5c.28.07.53.11.75.11a.9.9 0 0 0 .58-.2c.17-.14.32-.36.44-.67l.16-.44-2.97-8.35h2.05l1.89 6.18h.08l1.9-6.18h2.04L36 183.99c-.16.43-.36.8-.61 1.11-.25.32-.56.55-.93.72-.36.17-.8.25-1.3.25Zm7.45-3.07v-8.18h1.84v1.39h.1c.17-.47.45-.84.84-1.1.4-.27.87-.4 1.41-.4.56 0 1.02.14 1.4.4.39.27.66.64.81 1.1h.09c.18-.46.49-.82.92-1.09.43-.27.94-.4 1.54-.4.75 0 1.36.23 1.84.7.47.48.71 1.18.71 2.09V183h-1.93v-5.2c0-.5-.14-.87-.4-1.1-.28-.24-.6-.36-1-.36-.46 0-.83.14-1.09.43-.26.3-.39.66-.39 1.13v5.1h-1.89v-5.27c0-.43-.13-.76-.38-1.02a1.34 1.34 0 0 0-1-.37c-.27 0-.52.07-.75.2-.23.15-.4.34-.54.6-.14.25-.2.55-.2.89V183H40.6Zm17.08.16c-.82 0-1.53-.17-2.12-.51a3.46 3.46 0 0 1-1.37-1.46 4.89 4.89 0 0 1-.48-2.23c0-.84.16-1.58.48-2.22a3.63 3.63 0 0 1 3.39-2.03c.5 0 .98.08 1.43.25.45.16.85.4 1.19.74.35.34.62.77.82 1.3.2.51.3 1.13.3 1.84v.6h-6.7v-1.3h4.85c0-.37-.08-.7-.24-.99a1.8 1.8 0 0 0-.65-.69c-.28-.16-.6-.25-.97-.25a1.99 1.99 0 0 0-1.74 1.03c-.16.31-.25.65-.25 1.01v1.14c0 .47.09.88.26 1.22.17.34.42.6.73.78.31.18.68.27 1.1.27.28 0 .53-.04.76-.12a1.62 1.62 0 0 0 .97-.94l1.8.2c-.11.48-.33.9-.65 1.25s-.72.63-1.22.82c-.49.2-1.05.29-1.69.29Zm7.2-4.95V183h-1.93v-8.18h1.84v1.39h.1c.19-.46.49-.82.9-1.1.41-.26.93-.4 1.54-.4.56 0 1.05.12 1.47.36.43.25.75.6.98 1.05.24.46.35 1.02.35 1.67V183h-1.93v-4.91c0-.55-.14-.98-.42-1.28a1.5 1.5 0 0 0-1.17-.47c-.34 0-.64.08-.9.22-.26.15-.46.36-.61.64-.15.28-.22.61-.22 1Zm11.3-3.4v1.5h-4.7v-1.5h4.7Zm-3.55-1.95h1.93v7.68c0 .26.04.46.12.6.08.13.19.22.32.27.13.05.28.08.44.08a1.97 1.97 0 0 0 .56-.08l.33 1.51a4.04 4.04 0 0 1-1.14.2c-.48 0-.92-.07-1.3-.23-.4-.16-.7-.41-.93-.75a2.25 2.25 0 0 1-.33-1.28v-8Zm11.23 10.3c-.51 0-.98-.09-1.4-.27a2.28 2.28 0 0 1-.98-.83 2.43 2.43 0 0 1-.35-1.36c0-.46.08-.84.25-1.14.17-.3.4-.54.7-.72.3-.19.63-.32 1-.42a8 8 0 0 1 1.15-.2l1.17-.14c.3-.04.51-.1.65-.19s.2-.22.2-.4v-.04c0-.4-.11-.71-.35-.93-.24-.22-.58-.33-1.03-.33-.47 0-.85.1-1.12.3-.28.21-.46.45-.56.74l-1.8-.26a2.87 2.87 0 0 1 1.9-2 5.12 5.12 0 0 1 2.74-.12c.4.1.75.25 1.08.46.32.2.58.5.78.86.2.36.3.81.3 1.35V183h-1.86v-1.12h-.06a2.36 2.36 0 0 1-1.3 1.1c-.3.13-.68.19-1.1.19Zm.5-1.41c.4 0 .73-.08 1.01-.23.29-.16.5-.36.66-.62.15-.25.23-.53.23-.84v-.96a.9.9 0 0 1-.3.14 12.95 12.95 0 0 1-1 .2l-.47.06c-.29.04-.54.1-.77.2-.23.08-.4.2-.54.37a.91.91 0 0 0-.2.6c0 .36.13.63.4.8.25.19.58.28.98.28Zm10.98-2.2v-4.73h1.93V183H95.4v-1.45h-.09c-.18.45-.49.83-.91 1.12-.42.3-.94.44-1.55.44a2.49 2.49 0 0 1-2.38-1.4 3.7 3.7 0 0 1-.35-1.68v-5.21h1.93v4.9c0 .53.14.94.43 1.25.28.3.65.45 1.12.45a1.69 1.69 0 0 0 1.48-.82c.17-.28.26-.63.26-1.04Zm8-4.73v1.49h-4.7v-1.5h4.7Zm-3.55-1.96h1.93v7.68c0 .26.04.46.12.6.08.13.19.22.32.27.13.05.27.08.43.08a1.96 1.96 0 0 0 .57-.08l.32 1.51a4.05 4.05 0 0 1-1.13.2c-.48 0-.92-.07-1.3-.23-.4-.16-.7-.41-.93-.75a2.26 2.26 0 0 1-.33-1.28v-8Zm7.26 5.35V183h-1.93v-10.9h1.89v4.1h.1c.19-.45.48-.82.88-1.08.4-.27.92-.4 1.55-.4.57 0 1.06.11 1.48.35.43.24.75.58.98 1.04.24.46.36 1.02.36 1.68V183h-1.93v-4.91c0-.55-.14-.98-.43-1.28a1.5 1.5 0 0 0-1.18-.47c-.34 0-.65.08-.92.22-.26.15-.47.36-.63.64a2.1 2.1 0 0 0-.22 1Zm10.84 4.95c-.8 0-1.5-.18-2.08-.53a3.58 3.58 0 0 1-1.36-1.47 4.85 4.85 0 0 1-.48-2.22c0-.84.16-1.59.48-2.22.32-.64.78-1.13 1.36-1.48a3.95 3.95 0 0 1 2.08-.53c.8 0 1.5.18 2.08.53.58.35 1.04.84 1.36 1.48.32.63.48 1.38.48 2.22a4.8 4.8 0 0 1-.48 2.22 3.55 3.55 0 0 1-1.36 1.47 4 4 0 0 1-2.08.53Zm.01-1.54c.44 0 .8-.12 1.09-.36.29-.24.5-.57.65-.97a4.1 4.1 0 0 0 0-2.71 2.14 2.14 0 0 0-.65-.98c-.3-.24-.66-.36-1.09-.36-.44 0-.81.12-1.1.36-.3.24-.52.57-.66.98a4.1 4.1 0 0 0 0 2.71c.14.4.36.73.65.97.3.24.67.36 1.11.36Zm5.55 1.38v-8.18h1.87v1.36h.08a2.04 2.04 0 0 1 2.02-1.48 4.32 4.32 0 0 1 .7.05v1.78a3.7 3.7 0 0 0-.9-.11c-.35 0-.67.07-.95.23a1.68 1.68 0 0 0-.9 1.54V183h-1.92Zm5.95 0v-8.18h1.92V183h-1.93Zm.97-9.34c-.31 0-.57-.1-.8-.3a.98.98 0 0 1-.32-.75c0-.29.1-.54.33-.74.22-.2.48-.3.78-.3.31 0 .58.1.8.3a1 1 0 0 1 .32.74c0 .3-.1.54-.33.74-.21.2-.48.3-.78.3Zm2.83 9.34v-1.22l4.22-5.3v-.06h-4.08v-1.6h6.44v1.31l-4.02 5.2v.07h4.16v1.6h-6.72Zm11.92.16c-.82 0-1.53-.17-2.13-.51a3.46 3.46 0 0 1-1.37-1.46 4.88 4.88 0 0 1-.48-2.23c0-.84.16-1.58.48-2.22a3.62 3.62 0 0 1 3.4-2.03 3.93 3.93 0 0 1 2.62.99c.34.34.62.77.82 1.3.2.51.3 1.13.3 1.84v.6h-6.71v-1.3h4.86c0-.37-.09-.7-.24-.99a1.82 1.82 0 0 0-.66-.69c-.28-.16-.6-.25-.97-.25a2 2 0 0 0-1.74 1.03c-.16.31-.24.65-.24 1.01v1.14c0 .47.08.88.26 1.22.17.34.41.6.73.78.3.18.68.27 1.1.27.27 0 .53-.04.75-.12a1.58 1.58 0 0 0 .98-.94l1.8.2c-.12.48-.34.9-.66 1.25-.31.35-.72.63-1.2.82-.5.2-1.07.29-1.7.29Zm8.3-.02a3.1 3.1 0 0 1-1.72-.5c-.51-.32-.91-.8-1.2-1.43-.3-.63-.45-1.4-.45-2.29 0-.9.15-1.68.45-2.3a3.14 3.14 0 0 1 4.11-1.66c.31.16.56.35.74.58.18.22.32.43.42.63h.08v-4.08h1.93V183h-1.9v-1.29h-.11c-.1.2-.25.41-.44.63a2.37 2.37 0 0 1-1.9.8Zm.54-1.58c.4 0 .76-.1 1.04-.33.3-.22.51-.53.66-.93.15-.4.22-.86.22-1.4 0-.52-.07-.98-.22-1.37a1.9 1.9 0 0 0-.65-.91 1.68 1.68 0 0 0-1.05-.33c-.43 0-.79.12-1.07.34-.3.22-.51.53-.66.93-.14.39-.21.84-.21 1.35 0 .51.07.97.22 1.37.14.4.36.71.65.94.3.23.65.34 1.07.34Z"/>
  <path fill="#161A1E" d="M2.1 197.27h1.21l2.42 4.08h.1l2.43-4.08h1.2l-3.15 5.13v3.6H5.26v-3.6l-3.16-5.13Zm10.33 8.87c-.6 0-1.11-.14-1.56-.43a2.86 2.86 0 0 1-1.04-1.18 4 4 0 0 1-.37-1.77c0-.68.13-1.28.37-1.78.25-.51.6-.9 1.04-1.19a2.9 2.9 0 0 1 1.56-.42 2.75 2.75 0 0 1 2.59 1.61 4 4 0 0 1 .38 1.78c0 .68-.13 1.27-.38 1.77a2.76 2.76 0 0 1-2.59 1.61Zm0-.9c.45 0 .82-.12 1.1-.35.3-.23.51-.53.65-.91s.2-.78.2-1.22c0-.44-.06-.84-.2-1.22a2.07 2.07 0 0 0-.64-.92 1.71 1.71 0 0 0-1.11-.35c-.45 0-.82.12-1.1.35-.3.23-.51.54-.65.92s-.21.78-.21 1.22c0 .44.07.84.2 1.22.15.38.36.68.65.9.3.24.66.35 1.1.35Zm8.63-1.92v-3.86h1V206h-1v-1.1h-.07c-.16.32-.4.6-.72.84-.32.23-.73.34-1.23.34A1.88 1.88 0 0 1 17.2 205a3.11 3.11 0 0 1-.27-1.38v-4.16h1v4.1c0 .47.14.85.4 1.14.28.28.62.42 1.04.42a1.71 1.71 0 0 0 1.69-1.79ZM23.9 206v-6.54h.97v.98h.07c.12-.32.34-.58.65-.78.31-.2.67-.3 1.06-.3a10.85 10.85 0 0 1 .53 0v1.03a3.32 3.32 0 0 0-.62-.07c-.32 0-.6.07-.85.2s-.44.32-.59.55c-.14.23-.21.5-.21.79V206h-1Zm7.84 2.46v-9h.97v1.03h.12l.31-.43a1.81 1.81 0 0 1 1.59-.7 2.6 2.6 0 0 1 2.44 1.6c.23.5.35 1.1.35 1.78 0 .7-.12 1.3-.35 1.8a2.56 2.56 0 0 1-2.42 1.59 2.1 2.1 0 0 1-1.02-.2c-.25-.14-.44-.3-.58-.48a6.33 6.33 0 0 1-.32-.46h-.08v3.47h-1Zm1-5.73c0 .5.06.93.2 1.3.15.38.37.68.64.89.28.2.62.31 1.03.31.42 0 .77-.1 1.05-.33.28-.22.5-.53.64-.9a3.64 3.64 0 0 0 0-2.52 1.92 1.92 0 0 0-.63-.88 1.67 1.67 0 0 0-1.06-.33 1.67 1.67 0 0 0-1.67 1.17c-.14.37-.2.8-.2 1.29Zm8.24 3.42c-.41 0-.79-.08-1.13-.23-.34-.16-.6-.39-.8-.69-.2-.3-.3-.66-.3-1.09 0-.37.07-.68.22-.91.15-.24.35-.42.6-.55.24-.14.51-.24.81-.3a14.93 14.93 0 0 1 1.88-.28c.25-.03.43-.07.54-.14.12-.06.18-.18.18-.34v-.03c0-.43-.12-.75-.35-.99-.23-.23-.57-.34-1.04-.34a1.78 1.78 0 0 0-1.7.98l-.95-.34a2.3 2.3 0 0 1 1.62-1.4 3.89 3.89 0 0 1 1.73-.05c.27.04.54.15.8.3.25.15.47.38.64.7.17.3.25.72.25 1.24V206h-1v-.89h-.06c-.06.15-.18.3-.34.46-.16.16-.37.3-.63.41-.27.12-.59.17-.97.17Zm.15-.9a2 2 0 0 0 1.01-.23 1.6 1.6 0 0 0 .84-1.39v-.92a.64.64 0 0 1-.29.14 21.06 21.06 0 0 1-1.46.23c-.25.04-.5.1-.73.17-.22.07-.4.19-.54.34a.86.86 0 0 0-.2.6c0 .35.12.62.38.8.26.17.6.26 1 .26Zm5.1 3.2a2.23 2.23 0 0 1-.73-.11l.25-.9c.25.07.46.1.65.08a.8.8 0 0 0 .5-.25 2 2 0 0 0 .4-.73l.2-.5-2.43-6.58h1.1l1.8 5.21h.07l1.8-5.21h1.1l-2.78 7.5c-.13.33-.28.61-.47.83-.18.23-.4.4-.64.5-.24.11-.52.17-.82.17Zm6.03-2.45v-6.54h.97v1.02h.09c.14-.35.36-.62.66-.82.3-.2.67-.3 1.1-.3a1.8 1.8 0 0 1 1.75 1.12h.07c.17-.34.42-.6.75-.8.34-.21.74-.31 1.2-.31.6 0 1.07.18 1.44.55.38.36.56.93.56 1.7V206h-1v-4.38c0-.48-.13-.83-.4-1.04-.26-.2-.57-.3-.93-.3-.46 0-.82.13-1.07.41a1.5 1.5 0 0 0-.38 1.05V206h-1.02v-4.48c0-.38-.12-.68-.37-.9a1.3 1.3 0 0 0-.93-.35c-.26 0-.5.07-.73.21-.23.14-.4.33-.55.58-.13.25-.2.53-.2.85V206h-1Zm13.18.14a2.8 2.8 0 0 1-2.68-1.6c-.25-.5-.37-1.1-.37-1.76 0-.67.12-1.26.36-1.77a2.77 2.77 0 0 1 2.58-1.64c.34 0 .68.06 1.01.17.34.11.64.3.91.55.27.26.5.6.65 1 .17.43.25.94.25 1.55v.43H63.1v-.87h4.02c0-.37-.07-.7-.22-.99a1.67 1.67 0 0 0-1.57-.94 1.82 1.82 0 0 0-1.7 1.07c-.16.31-.24.65-.24 1.01v.58c0 .5.09.91.26 1.26.17.34.41.6.72.78.3.18.66.26 1.07.26.26 0 .5-.03.71-.1.22-.09.4-.2.56-.35.16-.15.28-.34.36-.57l.97.27c-.1.33-.27.62-.51.87s-.54.44-.9.58c-.35.14-.75.2-1.2.2Zm5.24-4.08V206h-1v-6.54h.97v1.02h.08c.16-.33.39-.6.7-.8.31-.2.72-.31 1.21-.31.45 0 .83.09 1.17.27.33.18.59.45.77.82.19.36.28.82.28 1.38V206h-1v-4.1c0-.5-.14-.9-.4-1.2a1.42 1.42 0 0 0-1.1-.43c-.33 0-.62.07-.87.21a1.5 1.5 0 0 0-.6.61c-.14.27-.2.6-.2.97Zm8.86-2.6v.85h-3.39v-.85h3.4Zm-2.4-1.57h1v6.24c0 .28.05.5.13.63.08.14.2.24.32.28.14.05.28.07.42.07l.28-.01.17-.04.2.9a2.2 2.2 0 0 1-1.58-.06 1.6 1.6 0 0 1-.68-.56 1.6 1.6 0 0 1-.26-.94v-6.51ZM85.9 206l-2-6.54h1.07l1.41 5h.07l1.4-5h1.07l1.38 4.99h.07l1.41-5h1.06l-2 6.55h-.98l-1.43-5.03h-.1L86.9 206h-.99Zm10.2.15c-.42 0-.8-.08-1.13-.23-.34-.16-.6-.39-.8-.69-.2-.3-.3-.66-.3-1.09 0-.37.07-.68.22-.91.14-.24.34-.42.59-.55.24-.14.52-.24.82-.3a14.76 14.76 0 0 1 1.87-.28c.25-.03.43-.07.55-.14.11-.06.17-.18.17-.34v-.03c0-.43-.11-.75-.34-.99-.23-.23-.58-.34-1.04-.34-.48 0-.86.1-1.13.31-.27.21-.46.44-.57.67l-.96-.34a2.3 2.3 0 0 1 1.62-1.4 3.89 3.89 0 0 1 1.73-.05c.28.04.54.15.8.3s.47.38.64.7c.17.3.26.72.26 1.24V206h-1v-.89h-.06a1.91 1.91 0 0 1-.98.87 2.3 2.3 0 0 1-.96.17Zm.15-.9a2 2 0 0 0 1-.23 1.6 1.6 0 0 0 .84-1.39v-.92c-.04.05-.14.1-.28.14a21.06 21.06 0 0 1-1.46.23c-.26.04-.5.1-.73.17-.23.07-.4.19-.55.34a.86.86 0 0 0-.2.6c0 .35.13.62.39.8.26.17.59.26.99.26Zm9.32-4.33-.9.26c-.06-.15-.15-.3-.26-.44a1.2 1.2 0 0 0-.44-.36c-.19-.1-.43-.14-.72-.14-.4 0-.73.1-1 .28-.27.18-.4.4-.4.69 0 .25.1.45.28.6.18.14.46.26.85.35l.97.24c.58.14 1.02.36 1.3.66.3.28.44.66.44 1.12 0 .37-.11.7-.33 1-.2.3-.5.53-.9.7-.38.17-.82.26-1.33.26-.67 0-1.22-.15-1.66-.44a1.93 1.93 0 0 1-.83-1.27l.96-.24c.09.35.26.62.51.8.26.17.6.26 1 .26.47 0 .84-.1 1.12-.3.28-.2.42-.44.42-.72a.76.76 0 0 0-.24-.57c-.16-.16-.4-.28-.73-.35l-1.1-.26a2.6 2.6 0 0 1-1.32-.66 1.6 1.6 0 0 1-.41-1.13c0-.37.1-.7.3-.98.22-.28.5-.5.86-.67a3 3 0 0 1 1.24-.24c.65 0 1.16.14 1.53.42.37.29.63.67.79 1.13Zm6.93 5.23c-.41 0-.79-.08-1.13-.23-.33-.16-.6-.39-.8-.69-.2-.3-.3-.66-.3-1.09 0-.37.07-.68.22-.91.15-.24.35-.42.6-.55.24-.14.51-.24.81-.3a14.93 14.93 0 0 1 1.88-.28c.25-.03.43-.07.54-.14.12-.06.18-.18.18-.34v-.03c0-.43-.12-.75-.35-.99-.23-.23-.57-.34-1.03-.34-.48 0-.86.1-1.13.31-.28.21-.47.44-.58.67l-.95-.34a2.3 2.3 0 0 1 1.62-1.4 3.9 3.9 0 0 1 1.73-.05c.27.04.54.15.8.3.25.15.47.38.64.7.17.3.25.72.25 1.24V206h-1v-.89h-.05a1.87 1.87 0 0 1-.98.87c-.26.12-.59.17-.97.17Zm.16-.9a2 2 0 0 0 1-.23 1.6 1.6 0 0 0 .84-1.39v-.92a.65.65 0 0 1-.28.14 20.68 20.68 0 0 1-1.46.23c-.26.04-.5.1-.74.17-.22.07-.4.19-.54.34a.86.86 0 0 0-.2.6c0 .35.13.62.38.8.26.17.6.26 1 .26Zm8.8-1.93v-3.86h1V206h-1v-1.1h-.06c-.16.32-.4.6-.72.84-.33.23-.73.34-1.23.34a1.88 1.88 0 0 1-1.84-1.09 3.1 3.1 0 0 1-.27-1.38v-4.16h1v4.1c0 .47.14.85.4 1.14.27.28.62.42 1.04.42.25 0 .5-.06.76-.19a1.66 1.66 0 0 0 .92-1.6Zm5.7-3.86v.85h-3.4v-.85h3.4Zm-2.4-1.57h1v6.24c0 .28.04.5.12.63.09.14.2.24.33.28.13.05.27.07.42.07l.27-.01.17-.04.2.9a2.2 2.2 0 0 1-1.58-.06c-.27-.12-.5-.3-.67-.56a1.6 1.6 0 0 1-.27-.94v-6.51Zm5.06 4.17V206h-1v-8.73h1v3.2h.08c.16-.33.38-.6.7-.8.3-.2.71-.3 1.23-.3.44 0 .84.09 1.17.27.34.17.6.45.78.81.19.37.28.83.28 1.4V206h-1v-4.1c0-.51-.14-.91-.41-1.2a1.44 1.44 0 0 0-1.11-.43c-.33 0-.63.07-.89.21a1.5 1.5 0 0 0-.61.61c-.15.27-.22.6-.22.97Zm8.74 4.08c-.6 0-1.11-.14-1.56-.43a2.86 2.86 0 0 1-1.03-1.18c-.25-.5-.38-1.1-.38-1.77 0-.68.13-1.28.38-1.78a3 3 0 0 1 1.03-1.19 2.9 2.9 0 0 1 1.56-.42 2.75 2.75 0 0 1 2.59 1.61 4 4 0 0 1 .38 1.78c0 .68-.13 1.27-.38 1.77a2.76 2.76 0 0 1-2.59 1.61Zm0-.9c.45 0 .82-.12 1.1-.35.3-.23.51-.53.65-.91s.21-.78.21-1.22c0-.44-.07-.84-.2-1.22a2.06 2.06 0 0 0-.65-.92 1.71 1.71 0 0 0-1.11-.35c-.45 0-.82.12-1.1.35-.3.23-.51.54-.65.92s-.21.78-.21 1.22c0 .44.07.84.2 1.22.15.38.36.68.65.9.3.24.66.35 1.11.35Zm4.5.76v-6.54h.97v.98h.07c.12-.32.34-.58.65-.78.31-.2.66-.3 1.06-.3a10.86 10.86 0 0 1 .52 0v1.03a3.5 3.5 0 0 0-.61-.07c-.32 0-.6.07-.85.2a1.47 1.47 0 0 0-.8 1.33V206h-1Zm4.47 0v-6.54h1V206h-1Zm.5-7.64a.71.71 0 0 1-.5-.2.64.64 0 0 1-.2-.48c0-.19.06-.35.2-.48s.31-.2.5-.2c.2 0 .37.07.51.2s.21.3.21.48c0 .19-.07.35-.21.48a.7.7 0 0 1-.5.2Zm2.16 7.64v-.77l3.71-4.77v-.07h-3.6v-.93h4.9v.8l-3.62 4.73v.07h3.74v.94h-5.13Zm9.23.14a2.8 2.8 0 0 1-2.68-1.6 4 4 0 0 1-.37-1.76c0-.67.12-1.26.37-1.77a2.77 2.77 0 0 1 2.58-1.64c.34 0 .68.06 1.01.17a2.5 2.5 0 0 1 1.56 1.56c.16.42.24.93.24 1.54v.43h-5.04v-.87h4.02c0-.37-.07-.7-.22-.99a1.67 1.67 0 0 0-1.57-.94c-.4 0-.75.1-1.04.3a2 2 0 0 0-.67.77c-.16.31-.23.65-.23 1.01v.58c0 .5.08.91.25 1.26.18.34.42.6.72.78.31.18.67.26 1.07.26.27 0 .5-.03.72-.1.21-.09.4-.2.56-.35.15-.15.27-.34.36-.57l.97.27c-.1.33-.27.62-.51.87-.25.25-.54.44-.9.58-.35.14-.75.2-1.2.2Zm6.71 0a2.56 2.56 0 0 1-2.42-1.6c-.24-.5-.35-1.1-.35-1.8 0-.68.11-1.28.35-1.78.24-.51.56-.9.98-1.18.42-.27.91-.41 1.46-.41.43 0 .76.07 1.01.21.25.14.44.3.57.48l.31.43h.09v-3.22h1V206h-.97v-1h-.12l-.31.45c-.14.18-.33.34-.59.48-.25.14-.59.2-1 .2Zm.14-.9c.4 0 .75-.11 1.02-.32.28-.21.5-.5.64-.88a3.78 3.78 0 0 0 0-2.59 1.68 1.68 0 0 0-1.66-1.17c-.43 0-.78.1-1.06.32-.29.22-.5.51-.64.88s-.2.79-.2 1.25c0 .46.06.89.2 1.27.15.38.36.68.64.9.29.22.64.33 1.06.33ZM3.92 226.45v-9h.97v1.03h.12l.31-.43a1.81 1.81 0 0 1 1.59-.7 2.6 2.6 0 0 1 2.44 1.6c.23.5.35 1.1.35 1.78 0 .7-.12 1.3-.35 1.8a2.56 2.56 0 0 1-2.42 1.59 2.1 2.1 0 0 1-1.02-.2c-.25-.14-.44-.3-.58-.48a6.33 6.33 0 0 1-.32-.46h-.08v3.47h-1Zm1-5.73c0 .5.06.93.2 1.3a2 2 0 0 0 .64.89c.28.2.62.31 1.03.31.42 0 .77-.1 1.05-.33.28-.22.5-.53.64-.9a3.64 3.64 0 0 0 0-2.52 1.92 1.92 0 0 0-.63-.88 1.67 1.67 0 0 0-1.06-.33 1.67 1.67 0 0 0-1.67 1.17c-.14.37-.2.8-.2 1.29Zm7.32-5.46V224h-1v-8.73h1Zm4.59 8.87a2.8 2.8 0 0 1-2.68-1.6c-.25-.5-.37-1.1-.37-1.76 0-.67.12-1.26.36-1.77a2.77 2.77 0 0 1 2.58-1.64c.35 0 .68.06 1.01.17.34.11.64.3.91.55.27.26.5.6.65 1 .17.43.25.94.25 1.55v.43h-5.05v-.87h4.02c0-.37-.07-.7-.22-.99a1.67 1.67 0 0 0-1.57-.94 1.82 1.82 0 0 0-1.7 1.07c-.16.31-.24.65-.24 1.01v.58c0 .5.09.91.26 1.26.17.34.41.6.72.78.3.18.66.26 1.07.26.26 0 .5-.03.71-.1.22-.09.4-.2.56-.35.16-.15.28-.34.36-.57l.97.27c-.1.33-.27.62-.51.87s-.54.44-.9.58c-.35.14-.75.2-1.2.2Zm6.16.01c-.41 0-.79-.08-1.13-.23-.33-.16-.6-.39-.8-.69-.2-.3-.3-.66-.3-1.09 0-.37.07-.68.22-.91.15-.24.35-.42.6-.55.24-.14.51-.24.81-.3a14.76 14.76 0 0 1 1.88-.28c.25-.03.43-.07.54-.14.12-.06.18-.18.18-.34v-.03c0-.43-.12-.75-.35-.99-.23-.23-.57-.34-1.03-.34-.48 0-.86.1-1.13.31-.28.21-.47.44-.58.67l-.95-.34a2.3 2.3 0 0 1 1.62-1.4 3.89 3.89 0 0 1 1.73-.05c.27.04.54.15.8.3.25.15.47.38.64.7.17.3.25.72.25 1.24V224h-1v-.89h-.05a1.87 1.87 0 0 1-.98.87c-.26.12-.59.17-.97.17Zm.16-.9a2 2 0 0 0 1-.23 1.6 1.6 0 0 0 .84-1.39v-.92a.65.65 0 0 1-.28.14 20.94 20.94 0 0 1-1.46.23c-.26.04-.5.1-.73.17-.23.07-.41.19-.55.34a.86.86 0 0 0-.2.6c0 .35.13.62.38.8.27.17.6.26 1 .26Zm9.32-4.33-.9.26c-.07-.15-.15-.3-.26-.44-.1-.15-.26-.27-.44-.36-.2-.1-.43-.14-.72-.14-.4 0-.74.1-1 .28-.27.18-.4.4-.4.69 0 .25.09.45.27.6.18.14.47.26.85.35l.98.24c.58.14 1.02.36 1.3.66.3.28.43.66.43 1.12 0 .37-.1.7-.32 1-.21.3-.51.53-.9.7-.38.17-.82.26-1.33.26-.67 0-1.22-.15-1.66-.44a1.93 1.93 0 0 1-.83-1.27l.95-.24c.1.35.27.62.52.8.25.17.59.26 1 .26.47 0 .84-.1 1.12-.3.28-.2.41-.44.41-.72a.76.76 0 0 0-.23-.57c-.16-.16-.4-.28-.74-.35l-1.09-.26a2.6 2.6 0 0 1-1.32-.66 1.6 1.6 0 0 1-.42-1.13c0-.37.1-.7.31-.98s.5-.5.86-.67a3 3 0 0 1 1.24-.24c.64 0 1.15.14 1.52.42.37.29.64.67.8 1.13Zm4.37 5.22a2.8 2.8 0 0 1-2.68-1.6c-.25-.5-.37-1.1-.37-1.76 0-.67.12-1.26.37-1.77a2.77 2.77 0 0 1 2.58-1.64c.34 0 .68.06 1.01.17.33.11.64.3.9.55.28.26.5.6.66 1 .16.43.24.94.24 1.55v.43h-5.04v-.87h4.02c0-.37-.07-.7-.22-.99a1.67 1.67 0 0 0-1.57-.94c-.4 0-.75.1-1.04.3a2 2 0 0 0-.67.77 2.3 2.3 0 0 0-.23 1.01v.58c0 .5.08.91.25 1.26.18.34.42.6.72.78.31.18.67.26 1.07.26.27 0 .5-.03.72-.1.21-.09.4-.2.56-.35.15-.15.27-.34.36-.57l.97.27c-.1.33-.27.62-.52.87-.24.25-.53.44-.89.58-.36.14-.75.2-1.2.2Zm7.62 2.32v-9h.97v1.03h.12l.3-.43a1.81 1.81 0 0 1 1.59-.7 2.6 2.6 0 0 1 2.44 1.6c.24.5.36 1.1.36 1.78 0 .7-.12 1.3-.36 1.8a2.56 2.56 0 0 1-2.42 1.59 2.1 2.1 0 0 1-1.01-.2c-.26-.14-.45-.3-.59-.48a6.33 6.33 0 0 1-.31-.46h-.09v3.47h-1Zm.99-5.73c0 .5.07.93.21 1.3a2 2 0 0 0 .64.89c.28.2.62.31 1.02.31.42 0 .77-.1 1.05-.33.29-.22.5-.53.64-.9.15-.38.22-.8.22-1.27 0-.46-.07-.88-.21-1.25a1.92 1.92 0 0 0-.64-.88 1.68 1.68 0 0 0-1.06-.33 1.67 1.67 0 0 0-1.66 1.17c-.14.37-.21.8-.21 1.29Zm8.25 3.42c-.42 0-.8-.08-1.13-.23a1.86 1.86 0 0 1-1.1-1.78c0-.37.07-.68.21-.91.15-.24.35-.42.6-.55.24-.14.52-.24.82-.3a14.76 14.76 0 0 1 1.87-.28c.25-.03.43-.07.55-.14.11-.06.17-.18.17-.34v-.03c0-.43-.11-.75-.34-.99-.23-.23-.58-.34-1.04-.34-.48 0-.86.1-1.13.31-.27.21-.46.44-.57.67l-.96-.34a2.3 2.3 0 0 1 1.62-1.4 3.89 3.89 0 0 1 1.73-.05c.28.04.54.15.8.3s.47.38.64.7c.17.3.26.72.26 1.24V224h-1.01v-.89h-.05a1.91 1.91 0 0 1-.98.87 2.3 2.3 0 0 1-.96.17Zm.15-.9a2 2 0 0 0 1-.23 1.6 1.6 0 0 0 .84-1.39v-.92c-.04.05-.14.1-.28.14a21.06 21.06 0 0 1-1.46.23c-.26.04-.5.1-.73.17-.23.07-.4.19-.55.34a.86.86 0 0 0-.2.6c0 .35.13.62.39.8.26.17.59.26.99.26Zm5.1 3.2a2.23 2.23 0 0 1-.74-.11l.26-.9c.24.07.46.1.65.08.18-.02.35-.1.5-.25a2 2 0 0 0 .4-.73l.19-.5-2.42-6.58h1.09l1.8 5.21h.07l1.8-5.21h1.1l-2.78 7.5c-.12.33-.28.61-.46.83-.19.23-.4.4-.65.5-.24.11-.51.17-.81.17Zm9.4-2.45v-6.54h.97v.98h.07c.12-.32.34-.58.65-.78.31-.2.66-.3 1.06-.3a10.85 10.85 0 0 1 .52 0v1.03a3.32 3.32 0 0 0-.6-.07c-.33 0-.61.07-.86.2s-.44.32-.59.55c-.14.23-.21.5-.21.79V224h-1Zm7.01.14a2.8 2.8 0 0 1-2.68-1.6c-.25-.5-.37-1.1-.37-1.76 0-.67.12-1.26.37-1.77a2.77 2.77 0 0 1 2.58-1.64c.34 0 .68.06 1.01.17.33.11.63.3.9.55.28.26.5.6.66 1 .16.43.24.94.24 1.55v.43h-5.04v-.87h4.02c0-.37-.07-.7-.22-.99a1.67 1.67 0 0 0-1.57-.94c-.4 0-.75.1-1.04.3a2 2 0 0 0-.67.77c-.16.31-.23.65-.23 1.01v.58c0 .5.08.91.25 1.26.18.34.42.6.72.78.3.18.67.26 1.07.26.27 0 .5-.03.72-.1.21-.09.4-.2.56-.35.15-.15.27-.34.36-.57l.97.27c-.1.33-.27.62-.52.87-.24.25-.54.44-.9.58-.35.14-.74.2-1.19.2Zm4.24-.14v-6.54h.97v1.02h.09c.14-.35.36-.62.66-.82.3-.2.67-.3 1.1-.3a1.8 1.8 0 0 1 1.75 1.12h.07c.17-.34.42-.6.75-.8.34-.21.74-.31 1.2-.31.6 0 1.07.18 1.44.55.38.36.56.93.56 1.7V224h-1v-4.38c0-.48-.13-.83-.4-1.04-.26-.2-.57-.3-.93-.3-.46 0-.82.13-1.07.41a1.5 1.5 0 0 0-.38 1.05V224h-1.02v-4.48c0-.38-.12-.68-.37-.9a1.3 1.3 0 0 0-.93-.35c-.26 0-.5.07-.73.21-.23.14-.4.33-.55.58-.13.25-.2.53-.2.85V224h-1Zm12.36.15c-.42 0-.8-.08-1.13-.23-.34-.16-.6-.39-.8-.69-.2-.3-.3-.66-.3-1.09 0-.37.07-.68.22-.91.14-.24.34-.42.59-.55.25-.14.52-.24.82-.3a14.76 14.76 0 0 1 1.87-.28c.25-.03.43-.07.55-.14.11-.06.17-.18.17-.34v-.03c0-.43-.11-.75-.34-.99-.23-.23-.58-.34-1.04-.34-.48 0-.85.1-1.13.31-.27.21-.46.44-.57.67l-.96-.34a2.3 2.3 0 0 1 1.62-1.4 3.89 3.89 0 0 1 1.73-.05c.28.04.54.15.8.3s.47.38.64.7c.17.3.26.72.26 1.24V224h-1v-.89h-.06c-.07.15-.18.3-.34.46-.16.16-.37.3-.63.41-.27.12-.6.17-.97.17Zm.15-.9a2 2 0 0 0 1-.23 1.6 1.6 0 0 0 .84-1.39v-.92c-.04.05-.13.1-.28.14a21.06 21.06 0 0 1-1.46.23c-.26.04-.5.1-.73.17-.22.07-.4.19-.54.34a.86.86 0 0 0-.2.6c0 .35.12.62.38.8.26.17.6.26 1 .26Zm4.68.75v-6.54h1V224h-1Zm.51-7.64a.71.71 0 0 1-.5-.2.64.64 0 0 1-.21-.48c0-.19.07-.35.2-.48.15-.13.32-.2.51-.2.2 0 .37.07.5.2.15.13.22.3.22.48 0 .19-.07.35-.21.48a.7.7 0 0 1-.5.2Zm3.35 3.7V224h-1v-6.54h.96v1.02h.09c.15-.33.38-.6.7-.8.3-.2.71-.31 1.2-.31.45 0 .84.09 1.17.27.33.18.6.45.78.82.18.36.27.82.27 1.38V224h-1v-4.1c0-.5-.14-.9-.4-1.2a1.42 1.42 0 0 0-1.1-.43c-.32 0-.61.07-.86.21a1.5 1.5 0 0 0-.6.61c-.14.27-.21.6-.21.97Zm6.01 3.94v-6.54h1V224h-1Zm.51-7.64a.71.71 0 0 1-.5-.2.64.64 0 0 1-.21-.48c0-.19.07-.35.2-.48.15-.13.32-.2.51-.2.2 0 .37.07.5.2.15.13.22.3.22.48a.6.6 0 0 1-.22.48.7.7 0 0 1-.5.2Zm3.34 3.7V224h-1v-6.54h.97v1.02h.08a2 2 0 0 1 .7-.8c.32-.2.72-.31 1.21-.31.45 0 .84.09 1.17.27.33.18.59.45.77.82.19.36.28.82.28 1.38V224h-1v-4.1c0-.5-.14-.9-.4-1.2a1.42 1.42 0 0 0-1.1-.43c-.33 0-.61.07-.87.21a1.5 1.5 0 0 0-.59.61c-.14.27-.22.6-.22.97Zm8.66 6.53c-.49 0-.9-.06-1.25-.19a2.66 2.66 0 0 1-1.43-1.12l.8-.56.35.4c.14.16.33.3.57.41.25.12.57.18.96.18.53 0 .96-.13 1.3-.39.35-.25.52-.66.52-1.2v-1.33h-.08c-.08.12-.18.27-.32.44-.13.18-.32.33-.58.47-.25.13-.58.2-1.01.2a2.64 2.64 0 0 1-2.42-1.47 3.82 3.82 0 0 1-.36-1.74 4 4 0 0 1 .36-1.75 2.6 2.6 0 0 1 2.44-1.57c.42 0 .76.07 1.01.21.25.14.45.3.58.48l.32.43h.1v-1.03h.97v6.73c0 .56-.13 1.02-.38 1.37-.26.35-.6.62-1.03.78-.42.17-.9.25-1.42.25Zm-.03-3.6c.4 0 .74-.09 1.02-.27.28-.19.49-.45.63-.8.15-.35.22-.76.22-1.24 0-.47-.07-.9-.21-1.25a1.87 1.87 0 0 0-.63-.85c-.28-.2-.63-.3-1.03-.3a1.7 1.7 0 0 0-1.7 1.19c-.14.36-.21.76-.21 1.2 0 .46.07.86.21 1.21.14.35.36.62.64.82.28.2.64.3 1.06.3Zm10 1.16c-.41 0-.79-.08-1.13-.23-.34-.16-.6-.39-.8-.69-.2-.3-.3-.66-.3-1.09 0-.37.07-.68.22-.91.15-.24.34-.42.6-.55.24-.14.51-.24.81-.3a14.93 14.93 0 0 1 1.88-.28c.25-.03.43-.07.54-.14.12-.06.18-.18.18-.34v-.03c0-.43-.12-.75-.35-.99-.23-.23-.57-.34-1.03-.34-.48 0-.86.1-1.13.31-.28.21-.47.44-.58.67l-.95-.34a2.3 2.3 0 0 1 1.62-1.4 3.9 3.9 0 0 1 1.72-.05c.28.04.55.15.8.3.26.15.47.38.65.7.17.3.25.72.25 1.24V224h-1v-.89h-.05a1.97 1.97 0 0 1-.98.87c-.27.12-.59.17-.97.17Zm.16-.9a2 2 0 0 0 1-.23 1.6 1.6 0 0 0 .84-1.39v-.92a.65.65 0 0 1-.28.14 20.68 20.68 0 0 1-1.46.23c-.26.04-.5.1-.74.17-.22.07-.4.19-.54.34a.85.85 0 0 0-.2.6c0 .35.12.62.38.8.26.17.6.26 1 .26Zm4.68.75v-6.54h.97v1.02h.08c.14-.35.36-.62.66-.82.3-.2.67-.3 1.1-.3.43 0 .8.1 1.08.3.29.2.51.47.67.82h.07c.17-.34.42-.6.76-.8.33-.21.73-.31 1.2-.31.59 0 1.07.18 1.44.55.37.36.56.93.56 1.7V224h-1v-4.38c0-.48-.14-.83-.4-1.04-.27-.2-.58-.3-.94-.3-.46 0-.81.13-1.07.41a1.5 1.5 0 0 0-.38 1.05V224h-1.02v-4.48c0-.38-.12-.68-.36-.9a1.3 1.3 0 0 0-.93-.35c-.27 0-.51.07-.74.21-.22.14-.4.33-.54.58-.14.25-.2.53-.2.85V224h-1.01Zm13.09.14c-.6 0-1.11-.14-1.56-.43a2.86 2.86 0 0 1-1.04-1.18 4 4 0 0 1-.37-1.77c0-.68.12-1.28.37-1.78.25-.51.6-.9 1.04-1.19a2.9 2.9 0 0 1 1.56-.42c.59 0 1.1.14 1.55.42.44.28.79.68 1.04 1.19a4 4 0 0 1 .37 1.78c0 .68-.12 1.27-.37 1.77a2.78 2.78 0 0 1-2.59 1.61Zm0-.9c.44 0 .81-.12 1.1-.35.3-.23.5-.53.65-.91.14-.38.2-.78.2-1.22 0-.44-.06-.84-.2-1.22a2.06 2.06 0 0 0-.65-.92 1.71 1.71 0 0 0-1.1-.35c-.45 0-.82.12-1.11.35-.3.23-.5.54-.65.92a3.72 3.72 0 0 0 0 2.44c.14.38.36.68.65.9.29.24.66.35 1.1.35Zm8.62-1.92v-3.86h1V224h-1v-1.1h-.07c-.15.32-.39.6-.71.84-.33.23-.73.34-1.23.34-.4 0-.77-.08-1.09-.26a1.87 1.87 0 0 1-.75-.82 3.1 3.1 0 0 1-.27-1.39v-4.16h1v4.1c0 .47.14.85.4 1.14.27.28.62.42 1.03.42a1.71 1.71 0 0 0 1.42-.78c.18-.26.27-.6.27-1Zm3.85-1.26V224h-1v-6.54h.97v1.02h.09c.15-.33.38-.6.7-.8.3-.2.71-.31 1.2-.31.45 0 .84.09 1.17.27.33.18.59.45.77.82.19.36.28.82.28 1.38V224h-1v-4.1c0-.5-.14-.9-.4-1.2a1.42 1.42 0 0 0-1.1-.43c-.32 0-.61.07-.87.21a1.5 1.5 0 0 0-.59.61c-.14.27-.22.6-.22.97Zm8.87-2.6v.85H165v-.85h3.4Zm-2.4-1.57h1v6.24c0 .28.04.5.12.63.09.14.2.24.33.28.13.05.27.07.42.07l.27-.01.17-.04.2.9a2.18 2.18 0 0 1-1.58-.06c-.27-.12-.5-.3-.67-.56a1.6 1.6 0 0 1-.27-.94v-6.51Z" opacity=".5"/>
</svg>
